<?xml version="1.0" encoding="utf-8"?>
<!-- Generator: Adobe Illustrator 25.1.0, SVG Export Plug-In . SVG Version: 6.00 Build 0)  -->
<svg version="1.1" id="Ñëîé_2" xmlns="http://www.w3.org/2000/svg" xmlns:xlink="http://www.w3.org/1999/xlink" x="0px" y="0px"
	 viewBox="0 0 500 500" style="enable-background:new 0 0 500 500;" xml:space="preserve">
<style type="text/css">
	.st0{fill:#6024A3;}
	.st1{fill:#22A3DC;}
	.st2{fill:#FFFFFF;}
	.st3{fill:#C8E0FC;}
	.st4{fill:#B3D4FE;}
	.st5{fill:#F5F9FC;}
	.st6{fill:#EDF5FC;}
	.st7{fill:#FCBED7;}
	.st8{fill:#E846D1;}
	.st9{fill:#DAEAF9;}
	.st10{fill:#FFF5F8;}
	.st11{fill:#F47A97;}
</style>
<g>
	<g>
		<path class="st0" d="M301.38,419h-75.37c-2.21,0-4-1.79-4-4s1.79-4,4-4h75.37c2.21,0,4,1.79,4,4S303.59,419,301.38,419z"/>
	</g>
	<g>
		
			<ellipse transform="matrix(0.3196 -0.9475 0.9475 0.3196 61.9191 545.8332)" class="st1" cx="411.05" cy="229.8" rx="58.56" ry="58.56"/>
	</g>
	<g>
		<path class="st0" d="M450.76,188.74c-0.48,0-0.97-0.17-1.35-0.53c-1.16-1.06-2.38-2.09-3.62-3.06c-0.87-0.68-1.03-1.93-0.35-2.81
			c0.68-0.87,1.93-1.03,2.81-0.35c1.34,1.04,2.64,2.14,3.88,3.28c0.81,0.75,0.87,2.01,0.12,2.83
			C451.84,188.52,451.3,188.74,450.76,188.74z"/>
	</g>
	<g>
		<path class="st0" d="M440.19,282.38c-0.71,0-1.4-0.38-1.76-1.05c-0.53-0.97-0.17-2.18,0.8-2.71
			c21.76-11.81,33.59-41.84,25.84-65.56c-0.34-1.05,0.23-2.18,1.28-2.52c1.05-0.34,2.18,0.23,2.52,1.28
			c8.31,25.44-4.39,57.65-27.74,70.32C440.84,282.31,440.52,282.38,440.19,282.38z"/>
	</g>
	<g>
		<path class="st0" d="M403.63,289.83c-0.06,0-0.12,0-0.19-0.01c-14.77-1.36-29.01-9.32-39.07-21.84
			c-10.52-13.1-15.42-29.67-13.43-45.47c0.14-1.1,1.14-1.88,2.23-1.73c1.1,0.14,1.87,1.14,1.73,2.23
			c-1.85,14.73,2.73,30.21,12.58,42.46c9.38,11.68,22.62,19.1,36.32,20.36c1.1,0.1,1.91,1.08,1.81,2.17
			C405.52,289.05,404.65,289.83,403.63,289.83z"/>
	</g>
	<g>
		<path class="st0" d="M370.56,189.51c-0.52,0-1.05-0.2-1.44-0.61c-0.77-0.8-0.74-2.06,0.05-2.83c4.64-4.47,9.93-8.13,15.72-10.88
			c20.56-9.75,45.42-7.08,63.34,6.8c0.87,0.68,1.03,1.93,0.36,2.81c-0.68,0.87-1.93,1.03-2.81,0.36
			c-16.74-12.97-39.97-15.46-59.18-6.35c-5.4,2.56-10.33,5.98-14.66,10.14C371.56,189.32,371.06,189.51,370.56,189.51z"/>
	</g>
	<g>
		
			<ellipse transform="matrix(0.9576 -0.2882 0.2882 0.9576 -45.5552 125.3927)" class="st1" cx="403.08" cy="217.41" rx="37.49" ry="37.49"/>
	</g>
	<g>
		<path class="st2" d="M375.04,200.38c-0.73,0-1.47-0.27-2.05-0.81c-1.21-1.13-1.27-3.03-0.14-4.24
			c7.97-8.51,18.94-14.14,30.88-15.86c1.63-0.24,3.16,0.9,3.4,2.54c0.24,1.64-0.9,3.16-2.54,3.4c-10.6,1.52-20.31,6.5-27.35,14.02
			C376.63,200.06,375.84,200.38,375.04,200.38z"/>
	</g>
	<g>
		
			<ellipse transform="matrix(0.7071 -0.7071 0.7071 0.7071 -73.1872 282.4055)" class="st1" cx="304.3" cy="229.55" rx="58.56" ry="58.56"/>
	</g>
	<g>
		
			<ellipse transform="matrix(0.6601 -0.7512 0.7512 0.6601 -60.0736 294.5594)" class="st1" cx="295.43" cy="213.66" rx="37.49" ry="37.49"/>
	</g>
	<g>
		<path class="st3" d="M345.87,250.16c0,0-42.54-46.46-91.95-5.04l22.58,39.78l57-3L345.87,250.16z"/>
	</g>
	<g>
		<path class="st4" d="M253.92,245.11c0.69-0.57,1.37-1.13,2.05-1.67c2.97,5.6,7.4,10.53,13.16,14.15
			c17.54,11.01,40.68,5.72,51.68-11.82c2.11-3.36,3.61-6.92,4.55-10.57c12.74,6.48,20.5,14.95,20.5,14.95L333.5,281.9l-57,3
			L253.92,245.11z"/>
	</g>
	<g>
		<path class="st2" d="M254.7,198.41c0.73-1.16,1.58-2.38,1.58-2.38c1.35-1.93,2.79-3.76,4.33-5.48c-0.96,1.28-1.87,2.61-2.74,3.99
			c-17.19,27.39-8.93,63.54,18.46,80.73c24.56,15.42,56.17,10.36,74.83-10.61c0.94-1.05-42.32,34.3-77.99,14.47
			c-17.91-9.96-24.27-27.81-25.16-30.43C248,248.72,239.27,223,254.7,198.41z"/>
	</g>
	<g>
		<path class="st0" d="M353.22,198.72c-0.65,0-1.3-0.32-1.68-0.91c-2.95-4.54-6.52-8.57-10.6-11.98c-0.85-0.71-0.96-1.97-0.25-2.82
			c0.71-0.85,1.97-0.96,2.82-0.25c4.39,3.67,8.22,8,11.39,12.87c0.6,0.93,0.34,2.17-0.59,2.77
			C353.98,198.61,353.6,198.72,353.22,198.72z"/>
	</g>
	<g>
		<path class="st0" d="M321.56,286.62c-0.85,0-1.64-0.55-1.91-1.41c-0.33-1.05,0.26-2.18,1.31-2.5
			c16.83-5.25,30.87-18.98,36.65-35.83c1.86-5.42,2.87-11.11,3.01-16.9c0.03-1.1,0.97-1.96,2.05-1.95c1.1,0.03,1.98,0.94,1.95,2.05
			c-0.15,6.2-1.23,12.29-3.22,18.1c-6.18,18.03-21.22,32.73-39.24,38.35C321.96,286.59,321.75,286.62,321.56,286.62z"/>
	</g>
	<g>
		<path class="st0" d="M304.89,291.43c-21.5,0-40.97-10.23-51.54-27.3c-0.87-1.41-0.44-3.26,0.97-4.13
			c1.41-0.87,3.26-0.44,4.13,0.97c10.07,16.27,29.26,25.6,50.11,24.35c10.72-0.77,20.86-4.7,29.29-11.35c1.3-1.03,3.19-0.8,4.21,0.5
			c1.03,1.3,0.8,3.19-0.5,4.21c-9.38,7.39-20.66,11.76-32.61,12.62C307.6,291.39,306.24,291.43,304.89,291.43z"/>
	</g>
	<g>
		<path class="st0" d="M261.67,190c-0.5,0-1-0.18-1.38-0.56c-0.8-0.76-0.82-2.03-0.06-2.83c8.18-8.53,18.61-14.43,30.18-17.08
			c7.09-1.62,14.31-1.96,21.46-1.01c1.1,0.14,1.87,1.15,1.72,2.25c-0.14,1.1-1.16,1.87-2.25,1.72c-6.67-0.89-13.42-0.57-20.04,0.95
			c-10.8,2.47-20.55,7.98-28.18,15.95C262.72,189.79,262.19,190,261.67,190z"/>
	</g>
	<g>
		<path class="st2" d="M263.04,203.03c-0.55,0-1.11-0.15-1.61-0.47c-1.4-0.89-1.81-2.75-0.92-4.14
			c6.27-9.83,16.01-17.39,27.43-21.28c1.57-0.53,3.27,0.3,3.81,1.87c0.53,1.57-0.3,3.27-1.87,3.81
			c-10.13,3.45-18.76,10.14-24.3,18.82C265,202.54,264.03,203.03,263.04,203.03z"/>
	</g>
	<g>
		
			<ellipse transform="matrix(0.9441 -0.3298 0.3298 0.9441 -64.9311 77.7581)" class="st1" cx="196.75" cy="230.28" rx="58.56" ry="58.56"/>
	</g>
	<g>
		
			<ellipse transform="matrix(0.0871 -0.9962 0.9962 0.0871 -40.314 384.9158)" class="st1" cx="189.87" cy="214.45" rx="37.49" ry="37.49"/>
	</g>
	<g>
		<path class="st3" d="M167.39,273.81c0,0,55.79,29.24,88.19-26.5l-34.76-29.74l-52.59,22.18L167.39,273.81z"/>
	</g>
	<g>
		<path class="st4" d="M161.22,183.55c-3.27,4.46-5.96,9.45-7.91,14.92c-10.89,30.45,4.97,63.97,35.42,74.86
			c19.5,6.97,40.25,2.98,55.52-8.79c-14.92,20.36-41.96,29.43-66.95,20.5c-30.45-10.89-46.31-44.4-35.42-74.86
			C145.8,199.22,152.64,190.16,161.22,183.55z"/>
	</g>
	<g>
		<path class="st0" d="M196.57,291c-3.97,0-7.96-0.4-11.9-1.2c-16.47-3.34-30.88-13.39-39.54-27.56
			c-8.83-14.43-11.39-31.84-7.04-47.77c0.29-1.07,1.39-1.7,2.46-1.4c1.07,0.29,1.69,1.39,1.4,2.46c-4.06,14.87-1.66,31.13,6.6,44.63
			c8.09,13.22,21.55,22.6,36.93,25.72c9.18,1.87,18.65,1.39,27.37-1.37c1.05-0.33,2.18,0.25,2.51,1.3c0.33,1.05-0.25,2.18-1.3,2.51
			C208.42,290.1,202.52,291,196.57,291z"/>
	</g>
	<g>
		<path class="st0" d="M152.08,194.23c-0.45,0-0.89-0.15-1.27-0.45c-0.85-0.7-0.98-1.96-0.28-2.81
			c7.44-9.08,17.34-15.66,28.64-19.03c21.88-6.22,44.54-0.73,59.16,14.3c0.77,0.79,0.75,2.06-0.04,2.83
			c-0.79,0.77-2.06,0.75-2.83-0.04c-13.59-13.98-34.73-19.06-55.17-13.25c-10.5,3.13-19.73,9.26-26.66,17.72
			C153.23,193.98,152.66,194.23,152.08,194.23z"/>
	</g>
	<g>
		<path class="st0" d="M241.54,270.02c-0.46,0-0.91-0.15-1.29-0.47c-0.84-0.71-0.95-1.97-0.24-2.82c4.34-5.15,7.7-11,9.99-17.4
			c3.73-10.43,4.33-21.62,1.73-32.34c-0.26-1.07,0.4-2.15,1.47-2.41c1.07-0.26,2.15,0.4,2.42,1.47c2.79,11.48,2.15,23.45-1.85,34.62
			c-2.45,6.85-6.05,13.12-10.7,18.64C242.68,269.78,242.11,270.02,241.54,270.02z"/>
	</g>
	<g>
		
			<ellipse transform="matrix(0.9221 -0.3871 0.3871 0.9221 -83.3744 103.8332)" class="st5" cx="216.12" cy="258.93" rx="20.76" ry="20.76"/>
	</g>
	<g>
		<path class="st6" d="M199.8,265.92c13.15,4.7,27.19,1.6,37.08-6.89c-0.01,2.29-0.4,4.61-1.21,6.89
			c-3.86,10.8-15.74,16.42-26.54,12.56c-6.64-2.37-11.32-7.78-13.04-14.11C197.28,264.94,198.52,265.47,199.8,265.92z"/>
	</g>
	<g>
		<path class="st2" d="M242.1,259.75c-0.5,0-1.01-0.13-1.48-0.39c-1.44-0.82-1.94-2.65-1.12-4.09c5.29-9.3,7.31-20.03,5.69-30.21
			c-0.26-1.64,0.85-3.17,2.49-3.43c1.64-0.26,3.17,0.85,3.44,2.49c1.83,11.51-0.44,23.63-6.4,34.12
			C244.16,259.2,243.15,259.75,242.1,259.75z"/>
	</g>
	<g>
		<path class="st7" d="M132.15,207.44c0.17,1.53,2.23,2.56,4.59,2.29c2.37-0.26,4.14-1.72,3.97-3.25c-0.17-1.53-2.23-2.56-4.59-2.29
			S131.98,205.91,132.15,207.44z"/>
	</g>
	<g>
		<path class="st2" d="M223.65,241.55c-7.25-2.59-15.23,1.18-17.82,8.43c-2.59,7.25,1.18,15.23,8.43,17.82
			c7.25,2.59,15.23-1.18,17.82-8.43C234.68,252.12,230.9,244.14,223.65,241.55z"/>
	</g>
	<g>
		<path class="st0" d="M153.49,222.34c-1.78,0-2.95-1.17-3.39-1.61c-1.88-1.87-3.72-6.27-4.93-9.64c-0.31-0.86-0.21-1.8,0.27-2.58
			c0.48-0.78,1.28-1.28,2.2-1.38l9.29-1.04c0.9-0.1,1.79,0.21,2.44,0.86c0.64,0.64,0.95,1.53,0.85,2.44
			c-0.71,6.2-1.92,10.11-3.6,11.62C156.24,221.34,155.12,222.34,153.49,222.34C153.49,222.34,153.49,222.34,153.49,222.34z
			 M149.38,210.96c1.31,3.43,2.63,6.03,3.53,6.93c0.35,0.35,0.51,0.43,0.58,0.44c0.07-0.01,0.22-0.12,0.44-0.31
			c0.52-0.47,1.48-2.92,2.14-7.81L149.38,210.96z"/>
	</g>
	<g>
		<path class="st8" d="M156.37,213.68c0,0-2.7-2.29-6.38,0.71c0,0,0.97,5.6,4.05,5.26C155.88,219.45,156.37,213.68,156.37,213.68z"
			/>
	</g>
	<g>
		<path class="st0" d="M229.33,264.68c-2.12-3.73-4.51-7.37-7.17-10.91c-2.66-3.54-5.2-6.61-7.63-9.2l4.68-2.88
			c1.98,2.31,3.83,4.63,5.57,6.95c1.74,2.31,3.3,4.58,4.68,6.78l0.08-3.71l3.98,0.13c0.06,2.94,0.37,6.38,0.94,10.3L229.33,264.68z"
			/>
		<path class="st0" d="M213.5,276.56c-2.12-3.73-4.51-7.37-7.17-10.91c-2.66-3.54-5.2-6.61-7.63-9.2l4.69-2.88
			c1.98,2.31,3.83,4.63,5.57,6.95c1.74,2.31,3.3,4.58,4.69,6.78l0.08-3.71l3.98,0.13c0.06,2.94,0.38,6.38,0.94,10.3L213.5,276.56z"
			/>
	</g>
	<g>
		
			<ellipse transform="matrix(0.9092 -0.4163 0.4163 0.9092 -88.0584 56.6631)" class="st1" cx="85.92" cy="230.28" rx="58.56" ry="58.56"/>
	</g>
	<g>
		
			<ellipse transform="matrix(0.5442 -0.839 0.839 0.5442 -143.8932 164.0583)" class="st1" cx="79.04" cy="214.45" rx="37.49" ry="37.49"/>
	</g>
	<g>
		<path class="st3" d="M56.56,273.81c0,0,55.79,29.24,88.19-26.5L110,217.56l-52.59,22.18L56.56,273.81z"/>
	</g>
	<g>
		<path class="st1" d="M50.39,183.55c-3.27,4.46-5.96,9.45-7.91,14.92c-10.89,30.45,4.97,63.97,35.42,74.86
			c19.5,6.97,40.25,2.98,55.52-8.79c-14.92,20.36-41.96,29.43-66.95,20.5c-30.45-10.89-46.31-44.4-35.42-74.86
			C34.97,199.22,41.82,190.16,50.39,183.55z"/>
	</g>
	<g>
		<path class="st0" d="M55.92,282.77c-0.34,0-0.69-0.09-1-0.27c-23.05-13.43-34.94-42.69-27.65-68.05c0.31-1.06,1.41-1.67,2.47-1.37
			c1.06,0.31,1.67,1.41,1.37,2.47c-6.8,23.66,4.3,50.95,25.82,63.49c0.95,0.56,1.28,1.78,0.72,2.74
			C57.28,282.42,56.61,282.77,55.92,282.77z"/>
	</g>
	<g>
		<path class="st0" d="M31.58,207.25c-0.26,0-0.52-0.05-0.77-0.16c-1.02-0.43-1.5-1.6-1.07-2.62c4.55-10.82,12.18-19.94,22.05-26.38
			c19.22-12.18,42.5-13.36,60.78-3.09c0.96,0.54,1.31,1.76,0.77,2.72c-0.54,0.96-1.76,1.31-2.72,0.77
			c-17-9.54-38.71-8.41-56.66,2.97c-9.18,5.98-16.29,14.48-20.53,24.56C33.11,206.79,32.37,207.25,31.58,207.25z"/>
	</g>
	<g>
		<path class="st0" d="M132,194.14c-0.58,0-1.15-0.25-1.55-0.73c-3.82-4.65-8.35-8.62-13.48-11.79c-0.94-0.58-1.23-1.81-0.65-2.75
			c0.58-0.94,1.81-1.23,2.75-0.65c5.5,3.4,10.36,7.66,14.46,12.66c0.7,0.85,0.58,2.11-0.28,2.82
			C132.89,193.99,132.44,194.14,132,194.14z"/>
	</g>
	<g>
		<path class="st0" d="M133.77,265.39c-0.43,0-0.87-0.14-1.24-0.43c-0.87-0.68-1.02-1.94-0.33-2.81
			c7.58-9.64,11.45-22.04,10.88-34.93c-0.05-1.1,0.81-2.04,1.91-2.09c1.13-0.05,2.04,0.81,2.09,1.91
			c0.61,13.85-3.56,27.19-11.73,37.58C134.95,265.12,134.36,265.39,133.77,265.39z"/>
	</g>
	<g>
		<path class="st0" d="M130.72,270.02c-0.46,0-0.91-0.15-1.29-0.47c-0.84-0.71-0.95-1.97-0.24-2.82c4.34-5.15,7.7-11,9.99-17.4
			c3.73-10.43,4.33-21.62,1.73-32.34c-0.26-1.07,0.4-2.15,1.47-2.41c1.07-0.26,2.16,0.4,2.42,1.47c2.79,11.48,2.15,23.45-1.85,34.62
			c-2.45,6.85-6.05,13.12-10.7,18.64C131.85,269.78,131.29,270.02,130.72,270.02z"/>
	</g>
	<g>
		
			<ellipse transform="matrix(0.1111 -0.9938 0.9938 0.1111 -163.7291 334.8032)" class="st5" cx="105.29" cy="258.93" rx="20.76" ry="20.76"/>
	</g>
	<g>
		<path class="st6" d="M88.97,265.92c13.15,4.7,27.19,1.6,37.08-6.89c-0.01,2.29-0.4,4.61-1.21,6.89
			c-3.86,10.8-15.74,16.42-26.54,12.56c-6.64-2.37-11.32-7.78-13.04-14.11C86.46,264.94,87.69,265.47,88.97,265.92z"/>
	</g>
	<g>
		<path class="st2" d="M131.27,259.75c-0.5,0-1.01-0.13-1.48-0.39c-1.44-0.82-1.94-2.65-1.12-4.09c5.29-9.31,7.31-20.03,5.69-30.21
			c-0.26-1.64,0.85-3.17,2.49-3.43c1.64-0.26,3.17,0.85,3.44,2.49c1.83,11.51-0.44,23.63-6.4,34.12
			C133.33,259.2,132.32,259.75,131.27,259.75z"/>
	</g>
	<g>
		<path class="st2" d="M112.82,241.55c-7.25-2.59-15.23,1.18-17.82,8.43c-2.59,7.25,1.18,15.23,8.43,17.82
			c7.25,2.59,15.23-1.18,17.82-8.43C123.85,252.12,120.07,244.14,112.82,241.55z"/>
	</g>
	<g>
		<path class="st0" d="M118.5,264.68c-2.12-3.73-4.51-7.37-7.17-10.91c-2.66-3.54-5.2-6.61-7.63-9.2l4.69-2.88
			c1.98,2.31,3.83,4.63,5.57,6.95c1.74,2.31,3.3,4.58,4.69,6.78l0.08-3.71l3.98,0.13c0.06,2.94,0.37,6.38,0.94,10.3L118.5,264.68z"
			/>
		<path class="st0" d="M102.68,276.56c-2.12-3.73-4.51-7.37-7.17-10.91c-2.66-3.54-5.2-6.61-7.63-9.2l4.68-2.88
			c1.98,2.31,3.83,4.63,5.57,6.95c1.74,2.31,3.3,4.58,4.69,6.78l0.08-3.71l3.98,0.13c0.06,2.94,0.37,6.38,0.94,10.3L102.68,276.56z"
			/>
	</g>
	<g>
		<path class="st2" d="M154.99,203.03c-0.55,0-1.11-0.15-1.61-0.47c-1.4-0.89-1.81-2.75-0.92-4.14
			c6.27-9.83,16.01-17.39,27.43-21.28c1.57-0.53,3.27,0.3,3.81,1.87c0.53,1.57-0.3,3.27-1.87,3.81
			c-10.13,3.45-18.76,10.14-24.3,18.82C156.95,202.54,155.98,203.03,154.99,203.03z"/>
	</g>
	<g>
		<path class="st2" d="M45.11,203.03c-0.55,0-1.11-0.15-1.61-0.47c-1.4-0.89-1.81-2.75-0.92-4.14c6.27-9.83,16.01-17.39,27.43-21.28
			c1.57-0.53,3.27,0.3,3.81,1.87c0.53,1.57-0.3,3.27-1.87,3.81c-10.13,3.45-18.76,10.14-24.3,18.82
			C47.07,202.54,46.1,203.03,45.11,203.03z"/>
	</g>
	<g>
		<g>
			<g>
				
					<ellipse transform="matrix(0.4619 -0.8869 0.8869 0.4619 -42.0038 467.4688)" class="st1" cx="364.24" cy="268.35" rx="64.76" ry="64.76"/>
			</g>
			<g>
				
					<ellipse transform="matrix(0.4296 -0.903 0.903 0.4296 -27.2286 466.1914)" class="st1" cx="355.43" cy="254.65" rx="41.46" ry="41.46"/>
			</g>
			<g>
				<path class="st3" d="M385.02,315.27c0,0-3.32-69.59-74.62-69.31l-8.93,49.8l50.59,37.76L385.02,315.27z"/>
			</g>
			<g>
				<path class="st4" d="M310.39,245.96c0.99,0,1.96,0.01,2.93,0.03c-1.43,6.87-1.15,14.19,1.19,21.34
					c7.13,21.76,30.55,33.63,52.31,26.5c4.17-1.36,7.97-3.33,11.35-5.77c6.25,14.52,6.86,27.21,6.86,27.21l-32.97,18.25
					l-50.59-37.76L310.39,245.96z"/>
			</g>
			<g>
				<path class="st2" d="M344.08,206.8c1.44-0.47,3.02-0.91,3.02-0.91c2.51-0.69,5.03-1.22,7.55-1.6c-1.72,0.41-3.44,0.89-5.15,1.45
					c-33.99,11.13-52.52,47.71-41.39,81.71c9.98,30.48,40.43,48.53,71.13,43.9c1.54-0.23-60.24-0.76-76.55-42.84
					c-8.19-21.14-0.98-40.81,0.12-43.67C302.81,244.84,313.57,216.8,344.08,206.8z"/>
			</g>
			<g>
				<path class="st4" d="M301.53,252.13c0.17,6.11,1.21,12.3,3.21,18.4c11.13,33.99,47.71,52.52,81.71,41.39
					c21.77-7.13,37.19-24.69,42.55-45.33c0.77,27.91-16.71,54.17-44.59,63.3c-33.99,11.13-70.57-7.4-81.71-41.39
					C298.69,276.28,298.52,263.72,301.53,252.13z"/>
			</g>
			<g>
				<path class="st0" d="M389.36,331.29c-1.18,0-2.29-0.7-2.77-1.85c-0.64-1.53,0.09-3.29,1.62-3.92
					c15.54-6.45,27.97-19.42,34.08-35.57c5.99-15.83,5.07-33.72-2.53-49.08c-4.54-9.17-11.28-17.01-19.5-22.69
					c-1.36-0.94-1.7-2.81-0.76-4.17c0.94-1.36,2.81-1.71,4.17-0.76c9.05,6.25,16.47,14.88,21.46,24.96
					c8.34,16.85,9.35,36.48,2.77,53.86c-6.7,17.7-20.33,31.91-37.4,38.99C390.13,331.21,389.74,331.29,389.36,331.29z"/>
			</g>
			<g>
				<path class="st0" d="M361.28,336.18c-0.03,0-0.05,0-0.08,0c-13.14-0.34-25.75-4.59-36.48-12.27
					c-20.51-15.08-31.2-38.88-27.94-62.14c0.23-1.64,1.74-2.78,3.39-2.55c1.64,0.23,2.78,1.75,2.55,3.39
					c-2.96,21.07,6.82,42.69,25.52,56.45c9.72,6.96,21.18,10.82,33.11,11.13c1.66,0.04,2.96,1.42,2.92,3.08
					C364.24,334.88,362.9,336.18,361.28,336.18z"/>
			</g>
			<g>
				<path class="st0" d="M313.62,230.94c-0.66,0-1.32-0.21-1.87-0.65c-1.3-1.03-1.51-2.92-0.48-4.22
					c8.24-10.34,19.26-17.99,31.88-22.12c7.74-2.53,15.74-3.66,23.81-3.33c1.66,0.07,2.94,1.46,2.88,3.12
					c-0.07,1.66-1.47,2.93-3.12,2.88c-7.34-0.29-14.65,0.73-21.7,3.04c-11.5,3.77-21.54,10.74-29.05,20.16
					C315.37,230.56,314.5,230.94,313.62,230.94z"/>
			</g>
			<g>
				<path class="st2" d="M324.41,230.3c-0.73,0-1.47-0.27-2.05-0.81c-1.21-1.13-1.27-3.03-0.14-4.24
					c8.77-9.36,20.83-15.55,33.96-17.44c1.63-0.24,3.16,0.9,3.4,2.54c0.24,1.64-0.9,3.16-2.54,3.4c-11.79,1.7-22.6,7.24-30.44,15.6
					C326.01,229.98,325.21,230.3,324.41,230.3z"/>
			</g>
			<g>
				<path class="st0" d="M403.39,278.68c-0.13,0-0.27-0.01-0.4-0.04c-1.08-0.22-1.78-1.28-1.56-2.36c0.53-2.59,2.19-5.57,5.3-6.15
					c2.99-0.56,5.53,1.42,6.48,2.3c0.81,0.75,0.87,2.01,0.12,2.83c-0.75,0.81-2.01,0.87-2.83,0.12c-0.82-0.76-2.06-1.5-3.04-1.31
					c-1.55,0.29-2.11,2.99-2.12,3.01C405.16,278.03,404.32,278.68,403.39,278.68z"/>
			</g>
			<g>
				<path class="st0" d="M383.85,285.08c-0.13,0-0.27-0.01-0.4-0.04c-1.08-0.22-1.78-1.28-1.56-2.36c0.53-2.59,2.19-5.57,5.3-6.15
					c2.99-0.56,5.53,1.42,6.48,2.3c0.81,0.75,0.87,2.01,0.12,2.83c-0.75,0.81-2.01,0.87-2.83,0.12c-0.82-0.76-2.05-1.5-3.04-1.31
					c-1.54,0.29-2.11,2.99-2.12,3.01C385.62,284.43,384.78,285.08,383.85,285.08z"/>
			</g>
			<g>
				<path class="st7" d="M410.3,277.78c0.53,1.62,2.99,2.27,5.49,1.45c2.5-0.82,4.1-2.8,3.57-4.41c-0.53-1.62-2.99-2.27-5.49-1.45
					C411.37,274.19,409.77,276.16,410.3,277.78z"/>
			</g>
			<g>
				<path class="st7" d="M377.74,288.45c0.53,1.62,2.99,2.27,5.49,1.45c2.5-0.82,4.1-2.8,3.57-4.41c-0.53-1.62-2.99-2.27-5.49-1.45
					C378.81,284.85,377.21,286.83,377.74,288.45z"/>
			</g>
			<g>
				
					<ellipse transform="matrix(0.7878 -0.6159 0.6159 0.7878 -64.5301 277.4855)" class="st2" cx="370.5" cy="232.41" rx="15.42" ry="15.42"/>
			</g>
			<g>
				<path class="st0" d="M403.3,299.64c-1.44,0-2.55-0.73-3.02-1.03c-2.43-1.58-5.39-5.91-7.45-9.26c-0.5-0.8-0.59-1.78-0.27-2.66
					c0.33-0.89,1.03-1.57,1.93-1.87l9.82-3.22c0.9-0.29,1.86-0.16,2.65,0.35c0.79,0.52,1.29,1.35,1.37,2.29
					c0.62,6.82,0.21,11.27-1.24,13.24c-0.31,0.42-1.26,1.71-2.94,2.06C403.86,299.62,403.57,299.64,403.3,299.64z M396.86,288.26
					c2.26,3.56,4.37,6.2,5.6,7c0.16,0.1,0.66,0.44,0.88,0.38c0.19-0.04,0.45-0.4,0.54-0.52c0.58-0.79,0.98-4.02,0.58-9.35
					L396.86,288.26z M396.24,287.26C396.24,287.26,396.24,287.26,396.24,287.26C396.24,287.26,396.24,287.26,396.24,287.26z
					 M404.35,284.61C404.35,284.61,404.35,284.61,404.35,284.61C404.35,284.61,404.35,284.61,404.35,284.61z M404.94,283.51
					L404.94,283.51L404.94,283.51z"/>
			</g>
			<g>
				<path class="st0" d="M406.61,290.17c0,0-5.12-2.65-8.87,2.9l-3.65-6.02l12.12-3.97L406.61,290.17z"/>
			</g>
			<g>
				<path class="st8" d="M405.36,289.74c0,0-3.44-1.88-6.75,2.21c0,0,2.31,5.85,5.57,4.78
					C406.14,296.09,405.36,289.74,405.36,289.74z"/>
			</g>
		</g>
		<g>
			<path class="st0" d="M372.2,216.57c-1.82,4.39-3.38,8.94-4.67,13.66c-1.29,4.72-2.25,9.03-2.87,12.9l-5.7-2.14
				c0.68-3.3,1.45-6.49,2.29-9.58c0.84-3.09,1.76-5.99,2.75-8.69l-3.29,2.45l-2.59-3.56c2.53-2.05,5.32-4.65,8.37-7.81L372.2,216.57
				z"/>
			<path class="st0" d="M390.23,220.42c2.3,0.63,3.87,1.8,4.73,3.53c0.86,1.72,1,3.64,0.42,5.74c-0.39,1.41-1.76,3.23-4.12,5.46
				c-2.36,2.23-5.16,4.36-8.4,6.39c0.7-0.05,2.04,0.2,4.04,0.75c1.99,0.54,3.5,1.06,4.52,1.55l-1.81,4.55
				c-1.76-0.63-3.26-1.11-4.48-1.45c-3.34-0.91-7.25-1.27-11.71-1.06l-0.89-4.13c3.86-1.65,7.65-3.94,11.39-6.85
				c3.73-2.91,5.81-5.13,6.23-6.67c0.42-1.54-0.01-2.48-1.29-2.83c-1.05-0.29-2.29-0.01-3.72,0.84c-1.43,0.84-3.07,2.12-4.91,3.82
				l-3.57-4.1C382.01,221.26,386.53,219.41,390.23,220.42z"/>
		</g>
	</g>
	<g>
		<g>
			<g>
				
					<ellipse transform="matrix(0.7071 -0.7071 0.7071 0.7071 -117.4523 252.5887)" class="st1" cx="246.18" cy="268.07" rx="64.76" ry="64.76"/>
			</g>
			<g>
				
					<ellipse transform="matrix(0.9967 -0.0809 0.0809 0.9967 -19.5698 19.7756)" class="st1" cx="234.37" cy="251.5" rx="41.46" ry="41.46"/>
			</g>
			<g>
				<path class="st3" d="M292.15,290.86c0,0-47.05-51.38-101.69-5.57l24.98,44l63.04-3.32L292.15,290.86z"/>
			</g>
			<g>
				<path class="st4" d="M190.46,285.29c0.76-0.64,1.52-1.25,2.27-1.85c3.29,6.2,8.19,11.65,14.56,15.64
					c19.39,12.17,44.99,6.32,57.16-13.07c2.33-3.71,4-7.66,5.04-11.69c14.08,7.17,22.67,16.54,22.67,16.54l-13.68,35.11l-63.04,3.32
					L190.46,285.29z"/>
			</g>
			<g>
				<path class="st2" d="M191.32,233.64c0.81-1.29,1.74-2.63,1.74-2.63c1.49-2.14,3.09-4.16,4.78-6.06
					c-1.06,1.42-2.07,2.89-3.03,4.41c-19.02,30.29-9.87,70.27,20.42,89.28c27.17,17.05,62.12,11.46,82.76-11.73
					c1.04-1.16-46.8,37.94-86.25,16.01c-19.81-11.01-26.85-30.75-27.83-33.65C183.91,289.27,174.26,260.83,191.32,233.64z"/>
			</g>
			<g>
				<path class="st4" d="M187.59,295.7c4.04,4.59,8.79,8.68,14.23,12.1c30.29,19.02,70.27,9.87,89.28-20.42
					c12.18-19.4,12.81-42.76,3.73-62.06c18.44,20.97,21.79,52.33,6.19,77.19c-19.02,30.29-58.99,39.44-89.28,20.42
					C200.85,316.08,192.69,306.53,187.59,295.7z"/>
			</g>
			<g>
				<path class="st0" d="M303.81,301.09c-0.47,0-0.95-0.11-1.39-0.35c-1.47-0.77-2.03-2.58-1.26-4.05
					c7.83-14.9,9.09-32.81,3.46-49.15c-5.51-16-17.66-29.17-33.33-36.12c-9.35-4.15-19.55-5.87-29.5-4.98
					c-1.65,0.15-3.11-1.07-3.26-2.72c-0.15-1.65,1.07-3.11,2.72-3.26c10.96-0.98,22.18,0.91,32.46,5.47
					c17.19,7.62,30.51,22.07,36.57,39.65c6.16,17.89,4.77,37.54-3.82,53.89C305.93,300.51,304.89,301.09,303.81,301.09z"/>
			</g>
			<g>
				<path class="st0" d="M246.83,336.19c-23.66,0-45.1-11.26-56.72-30.05c-0.87-1.41-0.44-3.26,0.97-4.13
					c1.41-0.87,3.26-0.44,4.13,0.97c11.19,18.09,32.54,28.48,55.71,27.08c11.92-0.86,23.2-5.23,32.57-12.62
					c1.3-1.02,3.19-0.8,4.21,0.5c1.03,1.3,0.8,3.19-0.5,4.21c-10.32,8.14-22.73,12.94-35.89,13.89
					C249.81,336.14,248.31,336.19,246.83,336.19z"/>
			</g>
			<g>
				<path class="st0" d="M181.42,272.37c-1.63,0-2.96-1.3-3-2.94c-0.28-13.22,3.31-26.15,10.36-37.39
					c4.33-6.9,9.77-12.88,16.18-17.78c1.32-1.01,3.2-0.76,4.21,0.56c1.01,1.32,0.76,3.2-0.56,4.21c-5.84,4.47-10.8,9.92-14.75,16.21
					c-6.43,10.25-9.7,22.03-9.45,34.07c0.03,1.66-1.28,3.03-2.94,3.06C181.46,272.37,181.44,272.37,181.42,272.37z"/>
			</g>
			<g>
				<path class="st2" d="M200.54,238.42c-0.55,0-1.11-0.15-1.61-0.47c-1.4-0.89-1.81-2.75-0.92-4.14
					c6.89-10.81,17.61-19.12,30.17-23.4c1.57-0.53,3.27,0.3,3.81,1.87c0.53,1.57-0.3,3.27-1.87,3.81
					c-11.28,3.84-20.88,11.28-27.04,20.95C202.5,237.93,201.53,238.42,200.54,238.42z"/>
			</g>
			<g>
				<path class="st7" d="M269.41,274.89c1.44,0.91,3.75-0.17,5.15-2.4c1.4-2.23,1.36-4.77-0.08-5.68c-1.44-0.91-3.75,0.17-5.15,2.4
					C267.93,271.45,267.96,273.99,269.41,274.89z"/>
			</g>
			<g>
				<path class="st0" d="M292.31,268.35c-2.95,0-7.37-1.27-10.72-2.41c-0.9-0.3-1.59-0.99-1.91-1.88c-0.32-0.89-0.21-1.87,0.29-2.67
					l5.5-8.75c0.5-0.8,1.33-1.32,2.26-1.42c0.93-0.11,1.85,0.22,2.52,0.88c4.84,4.85,7.37,8.54,7.52,10.97
					c0.03,0.53,0.13,2.12-0.94,3.47c-1.17,1.47-2.92,1.68-3.59,1.75C292.94,268.33,292.63,268.35,292.31,268.35z M283.98,262.52
					c4.02,1.29,7.33,1.97,8.78,1.8c0.19-0.02,0.78-0.09,0.92-0.27c0.12-0.15,0.09-0.59,0.08-0.74c-0.06-0.97-1.82-3.71-5.54-7.56
					L283.98,262.52z M288.85,254.77L288.85,254.77L288.85,254.77L288.85,254.77z"/>
			</g>
			<g>
				<path class="st8" d="M291.47,258.22c0,0-3.84,0.75-3.77,6.01c0,0,5.52,3.02,7.34,0.12
					C296.13,262.61,291.47,258.22,291.47,258.22z"/>
			</g>
			<g>
				<path class="st0" d="M225.69,205.59c1.19,1.44,1,3.57-0.44,4.76c-1.44,1.19-3.57,1-4.76-0.44c-1.19-1.44-1-3.57,0.44-4.76
					C222.36,203.95,224.5,204.15,225.69,205.59z"/>
			</g>
		</g>
	</g>
	<g>
		<g>
			<g>
				<circle class="st1" cx="127.23" cy="268.88" r="64.76"/>
			</g>
			<g>
				
					<ellipse transform="matrix(0.0157 -0.9999 0.9999 0.0157 -133.6129 367.0305)" class="st1" cx="119.61" cy="251.38" rx="41.46" ry="41.46"/>
			</g>
			<g>
				<path class="st3" d="M94.76,317.02c0,0,61.7,32.34,97.54-29.31l-38.44-32.9l-58.16,24.53L94.76,317.02z"/>
			</g>
			<g>
				<path class="st1" d="M87.93,217.2c-3.61,4.93-6.59,10.45-8.75,16.5c-12.04,33.68,5.5,70.75,39.17,82.79
					c21.57,7.71,44.52,3.29,61.4-9.72c-16.5,22.52-46.41,32.55-74.04,22.67c-33.68-12.04-51.22-49.11-39.17-82.79
					C70.88,234.53,78.45,224.51,87.93,217.2z"/>
			</g>
			<g>
				<path class="st0" d="M127.03,336.82c-4.44,0-8.91-0.45-13.32-1.34c-18.42-3.74-34.55-14.98-44.25-30.84
					c-9.87-16.15-12.75-35.63-7.88-53.45c0.44-1.6,2.08-2.54,3.68-2.1c1.6,0.44,2.54,2.09,2.1,3.69c-4.43,16.23-1.81,34,7.21,48.74
					c8.83,14.44,23.53,24.68,40.33,28.09c10.03,2.04,20.36,1.52,29.88-1.49c1.58-0.5,3.27,0.38,3.77,1.95
					c0.5,1.58-0.38,3.27-1.96,3.77C140.3,335.82,133.69,336.82,127.03,336.82z"/>
			</g>
			<g>
				<path class="st0" d="M77.82,229.8c-0.67,0-1.34-0.22-1.9-0.68c-1.28-1.05-1.47-2.94-0.42-4.22
					c8.33-10.17,19.41-17.53,32.06-21.3c24.49-6.96,49.85-0.81,66.22,16.02c1.15,1.19,1.13,3.09-0.06,4.24
					c-1.19,1.15-3.09,1.13-4.24-0.06c-14.83-15.25-37.91-20.79-60.24-14.44c-11.46,3.41-21.53,10.1-29.09,19.34
					C79.55,229.43,78.69,229.8,77.82,229.8z"/>
			</g>
			<g>
				<path class="st0" d="M176.77,313.62c-0.68,0-1.37-0.23-1.93-0.71c-1.27-1.07-1.43-2.96-0.36-4.23
					c4.74-5.62,8.41-12.02,10.91-19.01c4.07-11.39,4.73-23.6,1.89-35.31c-0.39-1.61,0.6-3.23,2.21-3.62
					c1.61-0.39,3.23,0.6,3.62,2.21c3.12,12.85,2.4,26.25-2.07,38.75c-2.74,7.67-6.77,14.68-11.97,20.85
					C178.47,313.26,177.62,313.62,176.77,313.62z"/>
			</g>
			<g>
				
					<ellipse transform="matrix(0.9085 -0.4178 0.4178 0.9085 -111.9856 89.6032)" class="st5" cx="148.65" cy="300.56" rx="22.96" ry="22.96"/>
			</g>
			<g>
				<path class="st6" d="M130.6,308.3c14.55,5.2,30.08,1.77,41.01-7.62c-0.01,2.53-0.44,5.1-1.34,7.62
					c-4.27,11.94-17.41,18.16-29.35,13.89c-7.34-2.63-12.52-8.61-14.42-15.6C127.82,307.22,129.19,307.8,130.6,308.3z"/>
			</g>
			<g>
				<path class="st2" d="M177.39,301.15c-0.5,0-1.01-0.13-1.48-0.39c-1.44-0.82-1.94-2.65-1.12-4.09
					c5.89-10.35,8.14-22.29,6.33-33.62c-0.26-1.64,0.85-3.17,2.49-3.43c1.64-0.26,3.17,0.85,3.43,2.49
					c2.02,12.66-0.48,25.99-7.04,37.53C179.45,300.61,178.43,301.15,177.39,301.15z"/>
			</g>
			<g>
				<path class="st0" d="M83.3,239.34c-0.26,0-0.53-0.05-0.79-0.16c-1.02-0.44-1.48-1.61-1.05-2.63c1.04-2.43,3.28-5.02,6.44-4.94
					c3.03,0.06,5.12,2.52,5.87,3.57c0.64,0.9,0.44,2.15-0.46,2.79c-0.9,0.64-2.15,0.44-2.79-0.46c-0.65-0.91-1.7-1.88-2.71-1.9
					c-0.01,0-0.02,0-0.03,0c-1.56,0-2.64,2.49-2.66,2.52C84.81,238.89,84.07,239.34,83.3,239.34z"/>
			</g>
			<g>
				<path class="st0" d="M62.86,241.62c-0.26,0-0.53-0.05-0.79-0.16c-1.01-0.44-1.48-1.61-1.05-2.63c1.04-2.43,3.26-5.02,6.44-4.94
					c3.04,0.06,5.12,2.52,5.87,3.57c0.64,0.9,0.44,2.15-0.46,2.79c-0.9,0.64-2.15,0.44-2.79-0.46c-0.65-0.91-1.7-1.88-2.71-1.91
					c-0.01,0-0.02,0-0.03,0c-1.56,0-2.64,2.49-2.66,2.52C64.38,241.17,63.64,241.62,62.86,241.62z"/>
			</g>
			<g>
				<path class="st7" d="M89.84,239.83c0.19,1.69,2.46,2.83,5.08,2.54c2.62-0.29,4.58-1.9,4.39-3.59c-0.19-1.69-2.46-2.83-5.08-2.54
					C91.62,236.52,89.65,238.13,89.84,239.83z"/>
			</g>
			<g>
				<path class="st7" d="M55.79,243.63c0.19,1.69,2.46,2.83,5.08,2.54c2.62-0.29,4.58-1.9,4.39-3.59c-0.19-1.69-2.46-2.83-5.08-2.54
					C57.57,240.32,55.6,241.93,55.79,243.63z"/>
			</g>
			<g>
				
					<ellipse transform="matrix(0.7862 -0.6179 0.6179 0.7862 -150.375 157.0388)" class="st2" cx="151.79" cy="295.86" rx="15.42" ry="15.42"/>
			</g>
			<g>
				<path class="st0" d="M79.38,259.89c-1.88,0-3.13-1.25-3.6-1.71c-2.05-2.04-4.07-6.88-5.4-10.58c-0.32-0.89-0.22-1.86,0.28-2.66
					c0.5-0.8,1.33-1.33,2.27-1.43l10.27-1.15c0.94-0.1,1.86,0.22,2.52,0.89c0.66,0.67,0.98,1.59,0.88,2.52
					c-0.78,6.8-2.1,11.08-3.91,12.71C82.3,258.82,81.11,259.89,79.38,259.89z M74.55,247.34c1.49,3.95,3.01,6.96,4.05,8
					c0.14,0.14,0.55,0.55,0.78,0.55c0.19,0,0.52-0.3,0.63-0.4c0.72-0.65,1.77-3.74,2.47-9.04L74.55,247.34z"/>
			</g>
			<g>
				<path class="st0" d="M83.7,251.2c0,0-4.47-3.64-9.27,1.03l-2.34-6.63l12.67-1.41L83.7,251.2z"/>
			</g>
			<g>
				<path class="st8" d="M82.57,250.53c0,0-2.98-2.54-7.06,0.79c0,0,1.07,6.2,4.48,5.82C82.03,256.9,82.57,250.53,82.57,250.53z"/>
			</g>
		</g>
		<g>
			<path class="st0" d="M163.26,306.92c-2.35-4.13-4.99-8.15-7.93-12.07c-2.94-3.92-5.75-7.31-8.43-10.18l5.18-3.19
				c2.19,2.56,4.24,5.12,6.16,7.68c1.92,2.56,3.65,5.06,5.18,7.5l0.08-4.1l4.4,0.14c0.07,3.25,0.41,7.05,1.04,11.4L163.26,306.92z"
				/>
			<path class="st0" d="M145.76,320.06c-2.35-4.13-4.99-8.15-7.93-12.07c-2.94-3.92-5.75-7.31-8.44-10.18l5.18-3.19
				c2.19,2.56,4.24,5.12,6.16,7.68c1.92,2.56,3.65,5.06,5.18,7.5l0.08-4.1l4.4,0.14c0.07,3.25,0.41,7.05,1.04,11.4L145.76,320.06z"
				/>
		</g>
	</g>
	<g>
		<path class="st9" d="M299.48,238.96l-2.39,2.97c-3.29,3.44-8.58,7.95-16.05,10.1c-7.81,2.25-10.62-0.2-22.83,0
			c-18.79,0.3-20.86,6.24-28.75,2.54c-3.44-1.61-3.99-3.18-18.07-12.44c-1.45-0.95-2.65-1.73-3.44-2.24l-12.31-6.47
			c-1.18,1.81-0.38,2.17-1.84,3.66c-1.24,1.27-2.68,2.15-4.22,2.7l-0.28,0.55l31.7,21.85l79.07-5.07
			C300.07,257.1,304.39,241.11,299.48,238.96z"/>
	</g>
	<g>
		<path class="st0" d="M268,234.8l2.63,4.34c-2.22,9.85-3.08,18.25-2.6,25.22l-5.28,0.89c-0.47-7.98,0.47-16.24,2.81-24.78
			c-3.66,1.26-6.74,2.39-9.25,3.4l-2.14-4.25C257.75,238.18,262.36,236.57,268,234.8z"/>
	</g>
	<g>
		<ellipse transform="matrix(0.9968 -0.0798 0.0798 0.9968 -18.9985 10.5899)" class="st10" cx="123" cy="243" rx="25" ry="25"/>
	</g>
	<g>
		<path class="st0" d="M121.89,246.63c-1.05,0.05-3.11,0.33-6.16,0.82l-5.55-3.22c-0.03-0.69,1.25-3.52,3.86-8.49
			c2.61-4.97,4.68-8.35,6.22-10.12l7.49,0.32c-0.46,5.43-0.65,10.66-0.58,15.69l2.9,0.12l-0.41,4.55l-2.35,0.12
			c0.16,3.27,0.37,6.02,0.63,8.25l-5.44-0.16C122.25,252.46,122.05,249.84,121.89,246.63z M116.84,242.39
			c1.5-0.27,3.12-0.46,4.86-0.54c0.02-3.8,0.21-7.36,0.56-10.68C119.91,235.51,118.1,239.25,116.84,242.39z"/>
	</g>
	<g>
		<g>
			
				<ellipse transform="matrix(0.9059 -0.4235 0.4235 0.9059 -92.0353 175.3237)" class="st1" cx="348.45" cy="294.73" rx="67.65" ry="67.65"/>
		</g>
		<g>
			<path class="st2" d="M331.51,229.24c1.54-0.4,3.21-0.75,3.21-0.75c2.66-0.55,5.33-0.94,7.98-1.17c-1.82,0.32-3.65,0.7-5.47,1.18
				c-36.17,9.36-57.92,46.26-48.56,82.44c8.39,32.44,38.94,53.27,71.25,50.48c1.62-0.14-62.75-4.78-76.97-49.74
				c-7.14-22.58,1.68-42.61,3.02-45.52C285.97,266.16,299.04,237.64,331.51,229.24z"/>
		</g>
		<g>
			<path class="st0" d="M370.66,361.88c-1.25,0-2.41-0.78-2.84-2.03c-0.54-1.57,0.3-3.27,1.87-3.81
				c16.67-5.71,30.5-18.43,37.97-34.9c7.31-16.14,7.54-34.89,0.61-51.44c-4.13-9.88-10.66-18.52-18.86-25
				c-1.3-1.03-1.52-2.91-0.5-4.21s2.91-1.52,4.21-0.5c9,7.1,16.16,16.58,20.68,27.39c7.56,18.08,7.32,38.58-0.68,56.23
				c-8.14,17.97-23.27,31.86-41.49,38.1C371.31,361.83,370.99,361.88,370.66,361.88z"/>
		</g>
		<g>
			<path class="st0" d="M341.07,365.12c-0.09,0-0.18,0-0.27-0.01c-13.65-1.23-26.49-6.48-37.15-15.18
				c-20.34-17.05-29.9-42.52-24.96-66.5c0.33-1.62,1.91-2.67,3.54-2.33c1.62,0.33,2.67,1.92,2.33,3.54
				c-4.49,21.81,4.29,45.06,22.91,60.66c9.69,7.92,21.41,12.71,33.86,13.83c1.65,0.15,2.87,1.61,2.72,3.26
				C343.92,363.95,342.61,365.12,341.07,365.12z"/>
		</g>
		<g>
			<path class="st0" d="M290.39,262.97c-0.52,0-1.05-0.14-1.53-0.42c-1.42-0.85-1.89-2.69-1.04-4.11c2.4-4.02,5.2-7.78,8.32-11.2
				c1.12-1.22,3.01-1.31,4.24-0.19c1.22,1.12,1.31,3.02,0.19,4.24c-2.85,3.11-5.4,6.55-7.59,10.22
				C292.41,262.44,291.41,262.97,290.39,262.97z"/>
		</g>
		<g>
			<path class="st0" d="M298.35,252.26c-0.72,0-1.44-0.26-2.01-0.78c-1.23-1.11-1.32-3.01-0.21-4.24
				c9.25-10.21,21.23-17.45,34.63-20.91c8.22-2.13,16.63-2.76,25-1.89c1.65,0.17,2.84,1.65,2.67,3.29
				c-0.17,1.65-1.66,2.84-3.29,2.67c-7.65-0.79-15.35-0.21-22.87,1.73c-12.26,3.17-23.22,9.79-31.69,19.13
				C299.98,251.92,299.17,252.26,298.35,252.26z"/>
		</g>
		<g>
			<path class="st0" d="M388.71,308.02c-0.17,0-0.35-0.02-0.52-0.07c-1.07-0.29-1.7-1.39-1.41-2.45c0.71-2.64,2.63-5.6,5.86-5.99
				c3.1-0.38,5.6,1.83,6.53,2.8c0.76,0.8,0.74,2.06-0.06,2.83c-0.8,0.76-2.06,0.74-2.83-0.06c-0.82-0.86-2.07-1.72-3.16-1.6
				c-1.69,0.21-2.45,2.95-2.48,3.07C390.4,307.43,389.59,308.02,388.71,308.02z"/>
		</g>
		<g>
			<path class="st0" d="M367.92,313.39c-0.17,0-0.35-0.02-0.52-0.07c-1.07-0.29-1.7-1.39-1.41-2.45c0.71-2.64,2.63-5.6,5.86-5.99
				c3.11-0.38,5.6,1.83,6.53,2.8c0.76,0.8,0.74,2.06-0.06,2.83c-0.79,0.76-2.06,0.74-2.83-0.06c-0.82-0.86-2.08-1.73-3.15-1.6
				c-1.69,0.21-2.45,2.95-2.48,3.07C369.6,312.81,368.8,313.39,367.92,313.39z"/>
		</g>
		<g>
			<path class="st7" d="M395.85,307.62c0.45,1.72,2.96,2.56,5.63,1.87c2.66-0.69,4.46-2.64,4.01-4.37
				c-0.45-1.72-2.96-2.56-5.63-1.87S395.4,305.9,395.85,307.62z"/>
		</g>
		<g>
			<path class="st7" d="M361.19,316.58c0.45,1.72,2.96,2.56,5.63,1.87s4.46-2.64,4.01-4.37s-2.96-2.56-5.63-1.87
				C362.54,312.9,360.74,314.86,361.19,316.58z"/>
		</g>
		<g>
			<path class="st0" d="M387.37,329.87c-1.6,0-2.81-0.9-3.3-1.26c-2.42-1.8-5.21-6.5-7.13-10.12c-0.45-0.85-0.49-1.84-0.1-2.72
				c0.39-0.88,1.15-1.52,2.08-1.77l10.45-2.7c0.93-0.24,1.9-0.05,2.66,0.53c0.76,0.57,1.22,1.45,1.25,2.41
				c0.2,7.13-0.52,11.73-2.15,13.67c-0.35,0.42-1.41,1.68-3.15,1.93C387.77,329.85,387.57,329.87,387.37,329.87z M381,317.59
				c2.15,3.92,4.2,6.87,5.45,7.8c0.19,0.14,0.68,0.51,0.96,0.47c0.23-0.03,0.53-0.4,0.65-0.54c0.67-0.8,1.31-4.21,1.24-9.88
				L381,317.59z"/>
		</g>
		<g>
			<path class="st0" d="M391.17,320.29c0,0-5.16-3.1-9.44,2.44l-3.4-6.51l12.89-3.33L391.17,320.29z"/>
		</g>
		<g>
			<path class="st8" d="M389.9,319.76c0,0-3.46-2.18-7.18,1.86c0,0,2.03,6.25,5.49,5.35C390.29,326.43,389.9,319.76,389.9,319.76z"
				/>
		</g>
		<g>
			<g>
				<path class="st0" d="M363.39,249.98c1.82-0.52,3.47-0.16,5.15,0.93c1.68,1.1,2.95,3.09,4.12,5.92c1.17,2.83,1.62,5.51,1.06,8.39
					c-0.55,2.86-2.07,5.02-4.8,6.45c-2.71,1.42-5.64,1.59-8.48,0.09c-2.83-1.49-5.06-4.38-6.18-8.65c-1.25-4.75-0.9-9.6,0.61-14.07
					c0.81-2.45,1.67-4.46,2.46-6.06c0.8-1.6,1.98-3.78,3.66-6.42c2.06-0.14,4.07-0.25,6.05-0.32c-4.16,5.38-6.85,11-7.6,16.02
					C360.79,251.09,362.11,250.35,363.39,249.98z M359.79,259.12c0.12,0.5,0.24,1.01,0.37,1.51c0.66,2.23,1.64,3.86,2.79,4.9
					c1.16,1.04,2.27,1.31,3.22,0.87c0.96-0.44,1.5-1.35,1.68-2.72c0.19-1.37-0.02-2.75-0.57-4.2c-0.55-1.44-1.13-2.44-1.83-2.97
					c-0.7-0.53-1.46-0.66-2.3-0.37C362.3,256.44,361.18,257.4,359.79,259.12z"/>
			</g>
		</g>
		<g>
			<path class="st0" d="M375.76,275.28c0,1.63-1.33,2.96-2.96,2.96c-1.63,0-2.96-1.33-2.96-2.96c0-1.63,1.33-2.96,2.96-2.96
				C374.43,272.32,375.76,273.65,375.76,275.28z"/>
		</g>
	</g>
	<g>
		<g>
			
				<ellipse transform="matrix(0.1574 -0.9875 0.9875 0.1574 -154.5921 409.1409)" class="st1" cx="162.45" cy="295.16" rx="67.65" ry="67.65"/>
		</g>
		<g>
			<path class="st1" d="M157.08,348.49c0,0-19.33-70.16,51.55-93.07l25.06,46.53l-37.94,53.93L157.08,348.49z"/>
		</g>
		<g>
			<path class="st2" d="M162.45,227.5c-1.59,0-3.3,0.08-3.3,0.08c-2.72,0.13-5.39,0.43-8.02,0.87c1.84-0.15,3.71-0.23,5.59-0.23
				c37.36,0,67.65,30.29,67.65,67.65c0,33.51-24.36,61.32-56.34,66.71c-1.61,0.27,59.56-20.34,62.07-67.42
				c1.26-23.65-12.3-40.83-14.32-43.31C215.79,251.85,195.99,227.51,162.45,227.5z"/>
		</g>
		<g>
			<path class="st1" d="M219.43,258.67c1.82,6.12,2.8,12.6,2.8,19.31c0,37.36-30.29,67.65-67.65,67.65
				c-23.92,0-44.95-12.42-56.98-31.16c8.31,27.95,34.2,48.34,64.85,48.34c37.36,0,67.65-30.29,67.65-67.65
				C230.11,281.72,226.19,269.2,219.43,258.67z"/>
		</g>
		<g>
			<path class="st0" d="M157.01,365.82c-0.08,0-0.16,0-0.23-0.01c-19.21-1.48-37.32-11.14-49.71-26.5
				c-12.16-15.09-17.53-34.87-14.74-54.27c1.67-11.61,6.22-22.57,13.16-31.7c1-1.32,2.88-1.58,4.2-0.57c1.32,1,1.58,2.88,0.57,4.2
				c-6.33,8.32-10.48,18.33-12,28.92c-2.56,17.76,2.35,35.85,13.47,49.65c11.35,14.08,27.93,22.93,45.5,24.28
				c1.65,0.13,2.89,1.57,2.76,3.22C159.88,364.63,158.56,365.82,157.01,365.82z"/>
		</g>
		<g>
			<path class="st0" d="M186.47,361.55c-1.23,0-2.39-0.77-2.83-1.99c-0.56-1.56,0.26-3.28,1.82-3.83
				c11.77-4.2,21.92-11.77,29.34-21.89c14.1-19.74,16.78-44.44,6.97-64.44c-0.73-1.49-0.12-3.29,1.37-4.01
				c1.49-0.73,3.28-0.12,4.01,1.37c10.78,21.98,7.91,49.03-7.5,70.6c-8.16,11.12-19.28,19.42-32.19,24.02
				C187.14,361.5,186.8,361.55,186.47,361.55z"/>
		</g>
		<g>
			<path class="st0" d="M209.95,249.96c-0.76,0-1.52-0.29-2.11-0.87c-3.04-3-6.37-5.69-9.91-8c-1.39-0.9-1.78-2.76-0.88-4.15
				c0.9-1.39,2.76-1.78,4.15-0.88c3.88,2.52,7.53,5.47,10.86,8.76c1.18,1.16,1.19,3.06,0.02,4.24
				C211.5,249.66,210.73,249.96,209.95,249.96z"/>
		</g>
		<g>
			<path class="st0" d="M199.57,241.59c-0.57,0-1.14-0.16-1.64-0.49c-10.54-6.93-22.8-10.59-35.47-10.59
				c-7.77,0-15.37,1.36-22.58,4.05c-1.55,0.58-3.28-0.21-3.86-1.76c-0.58-1.55,0.21-3.28,1.76-3.86c7.88-2.94,16.19-4.43,24.67-4.43
				c13.84,0,27.25,4,38.76,11.57c1.38,0.91,1.77,2.77,0.86,4.15C201.5,241.11,200.54,241.59,199.57,241.59z"/>
		</g>
		<g>
			<path class="st2" d="M188.65,244.45c-0.49,0-0.98-0.12-1.44-0.37c-10.53-5.77-23.09-7.76-35.38-5.61
				c-1.63,0.29-3.19-0.8-3.47-2.44c-0.29-1.63,0.8-3.19,2.44-3.47c13.62-2.39,27.58-0.17,39.3,6.26c1.45,0.8,1.99,2.62,1.19,4.07
				C190.73,243.89,189.71,244.45,188.65,244.45z"/>
		</g>
		<g>
			<path class="st0" d="M140.17,244.01c1.93,0.16,3.91,0.74,5.94,1.75c2.02,1.01,3.44,2.57,4.26,4.67c0.81,2.11,0.61,4.38-0.6,6.82
				c-1.22,2.44-4.42,4.04-9.61,4.81c2.46,3.38,2.96,6.54,1.49,9.48c-1.46,2.94-3.76,4.81-6.9,5.61c-3.14,0.8-5.8,0.65-7.99-0.44
				c-2.19-1.09-4.03-2.44-5.5-4.05l1.83-5.92c0.98,0.94,2.32,1.84,4.01,2.68c1.69,0.84,3.39,1.22,5.09,1.14
				c1.7-0.09,2.8-0.63,3.31-1.65c0.5-1.01,0.51-2.07,0.02-3.16c-0.49-1.09-1.38-1.96-2.68-2.61c-1.29-0.65-2.8-1.11-4.53-1.39
				l0.86-5.97c4.06,0.58,7.36,0.68,9.89,0.3c2.53-0.38,4.06-1.09,4.59-2.16c0.6-1.2,0.25-2.12-1.05-2.76
				c-1.73-0.86-4.58-1-8.56-0.41l-0.83-6.32C135.92,243.99,138.23,243.85,140.17,244.01z"/>
		</g>
		<g>
			<path class="st0" d="M116.99,318.16c-0.33,0-0.67-0.08-0.98-0.26c-0.96-0.54-1.31-1.76-0.77-2.72c0.66-1.17,2.52-3.93,5.62-4.34
				c3.23-0.43,5.82,1.96,7.17,4.33c0.55,0.96,0.21,2.18-0.75,2.73c-0.96,0.55-2.18,0.21-2.73-0.75c-0.06-0.11-1.48-2.58-3.17-2.35
				c-1.07,0.14-2.07,1.3-2.65,2.34C118.37,317.79,117.69,318.16,116.99,318.16z"/>
		</g>
		<g>
			<path class="st0" d="M138.47,318.16c-0.33,0-0.67-0.08-0.98-0.26c-0.96-0.54-1.31-1.76-0.77-2.72c0.66-1.17,2.52-3.93,5.62-4.34
				c3.23-0.43,5.82,1.96,7.17,4.33c0.55,0.96,0.21,2.18-0.75,2.73c-0.96,0.55-2.18,0.21-2.73-0.75c-0.06-0.11-1.49-2.58-3.17-2.35
				c-1.07,0.14-2.07,1.3-2.65,2.34C139.85,317.79,139.17,318.16,138.47,318.16z"/>
		</g>
		<g>
			<path class="st7" d="M119.79,319.5c0,1.78-2.23,3.22-4.98,3.22c-2.75,0-4.98-1.44-4.98-3.22c0-1.78,2.23-3.22,4.98-3.22
				C117.56,316.28,119.79,317.72,119.79,319.5z"/>
		</g>
		<g>
			<path class="st7" d="M155.59,319.5c0,1.78-2.23,3.22-4.98,3.22c-2.75,0-4.98-1.44-4.98-3.22c0-1.78,2.23-3.22,4.98-3.22
				C153.36,316.28,155.59,317.72,155.59,319.5z"/>
		</g>
		<g>
			<path class="st0" d="M132.5,339.05c-1.52,0-2.66-0.82-3.06-1.1c-2.06-1.47-3.91-5.74-5.5-12.69c-0.21-0.93,0-1.9,0.6-2.64
				c0.6-0.75,1.49-1.18,2.44-1.18h10.8c0.96,0,1.86,0.43,2.45,1.19c0.6,0.75,0.81,1.72,0.58,2.66c-0.95,3.99-2.48,9.23-4.37,11.58
				c-0.43,0.54-1.57,1.95-3.49,2.17C132.8,339.05,132.65,339.05,132.5,339.05z M128.09,325.44c1.35,5.52,2.83,8.66,3.67,9.26
				c0.15,0.1,0.54,0.38,0.76,0.36c0.27-0.03,0.66-0.51,0.81-0.7c0.98-1.22,2.23-4.58,3.33-8.92H128.09z M137.78,325.44
				L137.78,325.44L137.78,325.44z"/>
		</g>
		<g>
			<path class="st0" d="M127.49,330.6c0,0,4.22-4.3,9.75,0l1.66-7.16h-13.32L127.49,330.6z"/>
		</g>
		<g>
			<path class="st8" d="M128.58,329.76c0,0,2.8-2.98,7.42,0c0,0-0.4,6.56-3.98,6.56C129.88,336.32,128.58,329.76,128.58,329.76z"/>
		</g>
	</g>
	<g>
		<g>
			<path class="st1" d="M332.68,385.65C319.83,414.39,289.32,433,255.67,433c-47.64,0-86.26-38.62-86.26-86.26
				s38.62-86.26,86.26-86.26c41.15,0,75.56,28.81,84.18,67.36C339.85,327.84,345.36,357.29,332.68,385.65z"/>
		</g>
		<g>
			<path class="st2" d="M176.18,352.66c0-47.64,38.62-86.26,86.26-86.26c20.15,0,38.67,6.92,53.35,18.49
				c-15.54-15.1-36.73-24.41-60.11-24.41c-47.64,0-86.26,38.62-86.26,86.26c0,27.53,12.9,52.05,32.98,67.84
				C186.23,398.91,176.18,376.96,176.18,352.66z"/>
		</g>
		<g>
			<path class="st1" d="M321.76,291.33c7.15,13.38,10.93,28.83,10.2,45.09c-0.51,11.46-2.4,24.96-7.73,34.86
				c-18.66,34.67-43.37,47.36-77.01,47.36c-28.71,0-54.13-14.03-69.81-35.59C191.11,412.54,221,433,255.67,433
				c33.64,0,62.79-19.26,77.01-47.36c2.75-5.32,5.71-12.43,7.56-21.14c3.3-15.6,1.42-28.79-0.39-36.66
				c-1.19-5.29-3.23-12.09-6.93-19.5C329.87,302.22,326.11,296.52,321.76,291.33z"/>
		</g>
		<g>
			<path class="st0" d="M255.67,437c-49.77,0-90.26-40.49-90.26-90.26c0-30.96,15.59-59.4,41.7-76.1c1.86-1.19,4.34-0.65,5.52,1.22
				c1.19,1.86,0.65,4.33-1.22,5.52c-23.8,15.22-38.01,41.15-38.01,69.36c0,45.36,36.9,82.26,82.26,82.26
				c45.36,0,82.26-36.9,82.26-82.26c0-4.52-0.37-9.05-1.1-13.47c-0.36-2.18,1.12-4.24,3.3-4.6c2.18-0.35,4.24,1.12,4.6,3.3
				c0.8,4.85,1.2,9.81,1.2,14.77C345.93,396.51,305.44,437,255.67,437z"/>
		</g>
		<g>
			<path class="st0" d="M331.79,310.12c-1.43,0-2.81-0.77-3.53-2.11c-4.42-8.27-10.19-15.68-17.14-22.03
				c-1.63-1.49-1.75-4.02-0.26-5.65c1.49-1.63,4.02-1.75,5.65-0.26c7.62,6.96,13.95,15.09,18.8,24.16c1.04,1.95,0.31,4.37-1.64,5.41
				C333.07,309.97,332.43,310.12,331.79,310.12z"/>
		</g>
		<g>
			<path class="st2" d="M186.31,368.31c-1.96,0-3.76-1.28-4.32-3.26c-9.54-33.19,9.05-71.46,42.32-87.13
				c2.25-1.06,4.93-0.09,5.99,2.15c1.06,2.25,0.09,4.93-2.15,5.99c-28.9,13.61-45.72,47.92-37.51,76.5
				c0.69,2.39-0.69,4.88-3.08,5.57C187.14,368.26,186.72,368.31,186.31,368.31z"/>
		</g>
		<g>
			<path class="st2" d="M210.97,406.91c-1,0-2-0.33-2.84-1.01c-4.88-3.97-9.32-8.58-13.22-13.7c-1.51-1.98-1.12-4.8,0.85-6.31
				c1.98-1.5,4.8-1.12,6.31,0.85c3.47,4.55,7.42,8.65,11.75,12.17c1.93,1.57,2.22,4.4,0.65,6.33
				C213.57,406.34,212.27,406.91,210.97,406.91z"/>
		</g>
		<g>
			<path class="st0" d="M304.75,279.74c-0.79,0-1.59-0.23-2.29-0.72c-4.13-2.89-8.62-5.41-13.33-7.48
				c-16.68-7.33-35.53-9.05-53.06-4.83c-2.15,0.52-4.31-0.8-4.82-2.95c-0.52-2.15,0.81-4.31,2.95-4.82
				c19.22-4.63,39.88-2.75,58.15,5.29c5.2,2.28,10.14,5.06,14.7,8.25c1.81,1.27,2.25,3.76,0.98,5.57
				C307.25,279.14,306.01,279.74,304.75,279.74z"/>
		</g>
		<g>
			<circle class="st1" cx="270.05" cy="329.83" r="55.81"/>
		</g>
		<g>
			<path class="st0" d="M225.23,267.67c0,2.1-1.7,3.81-3.81,3.81c-2.1,0-3.81-1.7-3.81-3.81c0-2.1,1.7-3.81,3.81-3.81
				C223.53,263.87,225.23,265.57,225.23,267.67z"/>
		</g>
		<g>
			<path class="st0" d="M231.15,309.15c-0.72,0-1.44-0.26-2.01-0.78c-1.23-1.11-1.32-3.01-0.21-4.24c1.9-2.1,7.22-7.06,15.51-7.74
				c10.86-0.9,18.04,6.28,19.37,7.73c1.12,1.22,1.04,3.12-0.18,4.24c-1.22,1.12-3.12,1.04-4.24-0.18c-1-1.09-6.39-6.47-14.46-5.8
				c-6.15,0.5-10.13,4.22-11.55,5.79C232.78,308.82,231.97,309.15,231.15,309.15z"/>
		</g>
		<g>
			<path class="st0" d="M290.35,309.15c-0.72,0-1.44-0.26-2.01-0.78c-1.23-1.11-1.32-3.01-0.21-4.24c1.9-2.1,7.22-7.06,15.51-7.74
				c10.86-0.89,18.04,6.28,19.37,7.73c1.12,1.22,1.04,3.12-0.18,4.24c-1.22,1.12-3.12,1.04-4.24-0.18c-1-1.08-6.37-6.46-14.46-5.8
				c-6.15,0.5-10.13,4.22-11.55,5.79C291.98,308.82,291.16,309.15,290.35,309.15z"/>
		</g>
		<g>
			<path class="st0" d="M260.01,332.55c0.01,0.06,0.01,0.13,0.02,0.19c1.01,8.68,8.06,15.63,16.76,16.45
				c11.17,1.06,20.56-7.69,20.56-18.64c0-1.72-0.24-3.38-0.67-4.96h-30.27C262.66,325.6,259.61,328.82,260.01,332.55z"/>
		</g>
		<g>
			<path class="st11" d="M260.42,334.9c1.96,8.24,9.37,14.38,18.21,14.38c8.84,0,16.25-6.13,18.21-14.38
				c-4.23-1.21-9.9-2.38-16.64-2.54C271.97,332.17,265.16,333.55,260.42,334.9z"/>
		</g>
		<g>
			<path class="st0" d="M279.5,350.78c-0.67,0-1.33-0.03-2.01-0.1c-9.4-0.89-17.02-8.37-18.11-17.77l-0.02-0.21
				c-0.23-2.15,0.48-4.33,1.95-5.96c1.51-1.68,3.68-2.65,5.94-2.65h25.97c3.56,0,6.46,2.9,6.46,6.45c0,5.69-2.41,11.14-6.62,14.97
				C289.3,348.95,284.54,350.78,279.5,350.78z M262.34,332.39l0.02,0.17c0.93,8.02,7.41,14.38,15.41,15.14
				c4.93,0.47,9.64-1.09,13.28-4.4c3.58-3.26,5.64-7.9,5.64-12.75c0-1.9-1.56-3.46-3.46-3.46h-25.97c-1.41,0-2.77,0.6-3.71,1.65
				C262.63,329.77,262.21,331.06,262.34,332.39z"/>
		</g>
		<g>
			<path class="st1" d="M214.31,332.63c-10.15,5.84-16.98,16.78-16.98,29.33c0,18.68,15.14,33.83,33.83,33.83
				c10.24,0,19.42-4.56,25.62-11.75C233.23,378.29,215.54,357.63,214.31,332.63z"/>
		</g>
		<g>
			<path class="st0" d="M223.19,343.06c2.89,6.64,6.22,13.18,10.01,19.62c3.79,6.44,7.45,12.08,11,16.9l-8.03,3.73
				c-2.86-4.26-5.53-8.5-8.01-12.71c-2.48-4.21-4.67-8.3-6.59-12.25l-0.67,6.12l-6.44-1.09c0.34-4.88,0.34-10.62,0.01-17.24
				L223.19,343.06z"/>
		</g>
	</g>
</g>
</svg>
