<?xml version="1.0" encoding="utf-8"?>
<!-- Generator: Adobe Illustrator 25.1.0, SVG Export Plug-In . SVG Version: 6.00 Build 0)  -->
<svg version="1.1" id="Layer_1" xmlns="http://www.w3.org/2000/svg" xmlns:xlink="http://www.w3.org/1999/xlink" x="0px" y="0px"
	 viewBox="0 0 512 512" style="enable-background:new 0 0 512 512;" xml:space="preserve">
<style type="text/css">
	.st0{opacity:0.2;}
	.st1{fill:#1474BB;}
</style>
<g>
	<g>
		<g>
			<g class="st0">
				<line class="st1" x1="378.36" y1="491.81" x2="445.9" y2="491.81"/>
				<line class="st1" x1="288.44" y1="491.81" x2="355.98" y2="491.81"/>
				<line class="st1" x1="198.52" y1="491.81" x2="266.06" y2="491.81"/>
				<line class="st1" x1="108.61" y1="491.81" x2="176.14" y2="491.81"/>
				<line class="st1" x1="18.69" y1="491.81" x2="86.22" y2="491.81"/>
			</g>
			<g>
				<rect x="378.36" y="180.88" class="st1" width="67.54" height="310.92"/>
				<rect x="288.44" y="245.28" class="st1" width="67.54" height="246.53"/>
				<rect x="198.52" y="297.11" class="st1" width="67.54" height="194.7"/>
				<rect x="108.61" y="342.66" class="st1" width="67.54" height="149.15"/>
				<rect x="18.69" y="380.35" class="st1" width="67.54" height="111.45"/>
				<polygon class="st1" points="311.8,172.77 406.48,81.49 378.93,52.92 494.64,24.18 461.69,138.76 434.14,110.19 327.89,212.62 
					233.1,212.62 115.11,314.3 18.59,314.3 18.59,274.44 100.31,274.44 218.3,172.77 				"/>
			</g>
		</g>
	</g>
</g>
</svg>
