<?xml version="1.0" encoding="utf-8"?>
<!-- Generator: Adobe Illustrator 25.1.0, SVG Export Plug-In . SVG Version: 6.00 Build 0)  -->
<svg version="1.1" id="Icons" xmlns="http://www.w3.org/2000/svg" xmlns:xlink="http://www.w3.org/1999/xlink" x="0px" y="0px"
	 viewBox="0 0 450 450" style="enable-background:new 0 0 450 450;" xml:space="preserve">
<style type="text/css">
	.st0{fill:#F94910;}
	.st1{opacity:0.3;fill:#FFFFFF;}
	.st2{fill:#F8D318;}
	.st3{fill:#F0BD89;}
	.st4{fill:#FDD4A6;}
	.st5{fill:#FFEBCA;}
	.st6{fill:#E3E3E3;}
	.st7{fill:#0085C0;}
	.st8{opacity:0.5;}
	.st9{fill:#FDD52C;}
</style>
<g>
	<g>
		<path class="st0" d="M358.05,106.57c0,72.9-132.05,149.9-132.05,149.9S93.97,180.31,93.97,106.57c0-40.71,33.04-73.75,73.74-73.75
			c23.73,0,44.81,11.17,58.28,28.54c12.28-15.75,30.78-26.4,51.76-28.27c2.14-0.16,4.32-0.27,6.49-0.27
			c39.95,0,72.46,31.69,73.75,71.28C358.05,104.95,358.05,105.72,358.05,106.57z"/>
		<path class="st1" d="M161.93,62.33c26.06,0,49.24,6.7,64.07,25.8c14.83-19.11,38.01-25.8,64.06-25.8c17.37,0,33.45,5.5,46.62,14.8
			c-12.09-18.68-33.09-31.07-57.01-31.07c-21.82,0-41.24,10.32-53.67,26.33c-12.44-16.01-31.84-26.33-53.68-26.33
			c-23.91,0-44.89,12.39-57,31.07C128.51,67.82,144.58,62.33,161.93,62.33z"/>
		<path class="st2" d="M196.46,200.08c-0.02,0-0.04,0-0.07,0c-2.3-0.03-4.27-1.65-4.72-3.92l-20.22-99.62l-18.53,62.37
			c-0.62,2.09-2.51,3.49-4.69,3.49H82.4v-9.77h62.19L167.67,75c0.65-2.15,2.7-3.63,4.9-3.49c2.24,0.1,4.13,1.71,4.57,3.91
			l19.59,96.59l14.57-63.8c0.49-2.2,2.45-3.77,4.71-3.8c0.01,0,0.03,0,0.05,0c2.23,0,4.19,1.53,4.73,3.7l11.12,44.52h137.37v9.77
			H228.11c-2.23,0-4.19-1.52-4.73-3.69l-7.11-28.4l-15.06,65.98C200.72,198.5,198.74,200.08,196.46,200.08z"/>
	</g>
	<g>
		<g>
			<g>
				<path class="st3" d="M408.76,164.75c-0.91,2.54-1.76,5.09-2.57,7.67c-6.9,21.3-11.09,42.58-13.88,53.9
					c-3.14,12.65-5.16,31.26-9.42,39.53c-4.26,8.27-45.05-15.92-49.31-7.65c2.44-1.83,4.59-3.53,6.59-5.1
					c11.24-8.68,15.9-13.41,19.16-19.87c3.96-7.81,15.61-40.07,17.38-47.39c1.79-7.31,11-25.06,14.46-28.98
					c3.2-3.7,11.99-8.68,16.62-6.8C410.82,151.18,412.06,155.35,408.76,164.75z"/>
				<path class="st4" d="M426.48,163.65c-1.24,2.55-2.44,5.1-3.58,7.7c-9.69,21.39-16.57,43.11-20.79,54.59
					c-4.76,12.84-9.04,32.01-14.46,40.14c-5.41,8.12-54.65,37.69-60.72,43.11c-6.06,5.41-22.56,13.09-22.56,51
					c0,10.18,4.96,33.66,4.96,33.66h-69.71c4.49-9.97,6.07-21.23,4.72-39.32c-0.49-6.39-4-34.98-4.72-40.37
					c-2.06-15.35,11.29-29.73,22.77-36.56c11.54-6.72,41.97-31.85,48.74-41.98c6.77-10.13,27.88-40.66,30.69-46.02
					c4.98-9.48,20.32-11.1,16.95,7.85c-3.4,18.96-16.24,46.75-21.66,54.87c2.76-1.63,5.2-3.14,7.47-4.55
					c12.73-7.74,18.15-12.13,22.31-18.47c5.03-7.69,20.97-39.97,23.67-47.4c2.71-7.42,14.41-24.86,18.46-28.53
					c3.81-3.47,13.55-7.65,18.15-5.14C430.22,149.73,431.03,154.22,426.48,163.65z"/>
				<path class="st3" d="M337.87,251.12c-3.08,3.13-4.41,7.31-5.83,11.34l-3.88,12.43c-0.38,1.05-0.7,2.05-1.15,3.13
					c-0.53,1.19-1.13,2.13-1.81,3.07c-1.37,1.83-2.84,3.49-4.46,5.01c-1.59,1.52-3.22,2.98-4.86,4.42
					c-1.65,1.42-3.37,2.76-4.75,4.44c2.06-3.96,5.41-6.94,8.09-10.29c1.36-1.68,2.76-3.3,3.87-5.04c0.57-0.85,1.12-1.78,1.46-2.59
					c0.37-0.93,0.7-2.01,1.05-3.02c1.41-4.09,2.71-8.28,4.52-12.31C331.93,257.79,333.99,253.44,337.87,251.12z"/>
				<path class="st5" d="M426.48,163.65c-1.24,2.55-2.44,5.1-3.58,7.7c-1.62-1.79-3.45-4.5-3.45-6.4c0-4.39,3.88-11.17,6.75-15.29
					C429.25,151.18,431.87,152.56,426.48,163.65z"/>
				<path class="st5" d="M345.89,184.78c-3.31,4.78-6.94,10.49-5.59,13.71c1.35,3.22,7.47,4.57,9.15,3.89
					c1.7-0.67,7.62-10.82,8.12-13.54C358.08,186.14,348.81,180.55,345.89,184.78z"/>
			</g>
			<g>
				<rect x="233.46" y="342.72" class="st6" width="80.1" height="16.26"/>
				<rect x="229.14" y="353.58" class="st7" width="88.73" height="69.09"/>
				<polygon class="st8" points="239.19,353.58 237.39,397.75 235.58,353.58 				"/>
				<g>
					<path class="st9" d="M248.33,376.07c-3.45,0-6.25-2.79-6.25-6.23c0-3.44,2.8-6.23,6.25-6.23c3.44,0,6.22,2.79,6.22,6.23
						C254.55,373.28,251.77,376.07,248.33,376.07z"/>
					<path class="st1" d="M250.13,367.85c-1.02-1.08-1.39-2.34-0.87-2.84c0.54-0.52,1.79-0.05,2.81,1.01c1,1.07,1.4,2.34,0.87,2.85
						C252.4,369.37,251.15,368.91,250.13,367.85z"/>
				</g>
			</g>
		</g>
		<g>
			<g>
				<path class="st3" d="M42.91,164.75c0.91,2.54,1.76,5.09,2.57,7.67c6.92,21.3,11.1,42.58,13.88,53.9
					c3.16,12.65,5.17,31.26,9.43,39.53c4.27,8.27,45.05-15.92,49.3-7.65c-2.44-1.83-4.59-3.53-6.59-5.1
					c-11.23-8.68-15.89-13.41-19.16-19.87c-3.96-7.81-15.6-40.07-17.37-47.39c-1.79-7.31-11-25.06-14.46-28.98
					c-3.2-3.7-12.01-8.68-16.63-6.8C40.86,151.18,39.61,155.35,42.91,164.75z"/>
				<path class="st4" d="M25.19,163.65c1.24,2.55,2.44,5.1,3.58,7.7c9.7,21.39,16.58,43.11,20.8,54.59
					c4.77,12.84,9.04,32.01,14.46,40.14c5.42,8.12,54.64,37.69,60.72,43.11c6.06,5.41,22.56,13.09,22.56,51
					c0,10.18-4.96,33.66-4.96,33.66h69.71c-4.5-9.97-6.06-21.23-4.72-39.32c0.5-6.39,3.99-34.98,4.72-40.37
					c2.06-15.35-11.29-29.73-22.76-36.56c-11.54-6.72-41.99-31.85-48.75-41.98c-6.77-10.13-27.88-40.66-30.69-46.02
					c-4.98-9.48-20.3-11.1-16.95,7.85c3.42,18.96,16.25,46.75,21.67,54.87c-2.77-1.63-5.21-3.14-7.48-4.55
					c-12.73-7.74-18.14-12.13-22.31-18.47c-5.04-7.69-20.97-39.97-23.67-47.4c-2.72-7.42-14.42-24.86-18.47-28.53
					c-3.79-3.47-13.54-7.65-18.15-5.14C21.46,149.73,20.65,154.22,25.19,163.65z"/>
				<path class="st3" d="M113.81,251.12c3.09,3.13,4.41,7.31,5.82,11.34l3.88,12.43c0.38,1.05,0.69,2.05,1.15,3.13
					c0.54,1.19,1.13,2.13,1.81,3.07c1.37,1.83,2.84,3.49,4.47,5.01c1.59,1.52,3.2,2.98,4.84,4.42c1.66,1.42,3.37,2.76,4.76,4.44
					c-2.05-3.96-5.41-6.94-8.08-10.29c-1.36-1.68-2.76-3.3-3.88-5.04c-0.56-0.85-1.11-1.78-1.45-2.59c-0.37-0.93-0.7-2.01-1.04-3.02
					c-1.41-4.09-2.71-8.28-4.52-12.31C119.76,257.79,117.69,253.44,113.81,251.12z"/>
				<path class="st5" d="M25.19,163.65c1.24,2.55,2.44,5.1,3.58,7.7c1.62-1.79,3.46-4.5,3.46-6.4c0-4.39-3.9-11.17-6.77-15.29
					C22.43,151.18,19.8,152.56,25.19,163.65z"/>
				<path class="st5" d="M105.78,184.78c3.32,4.78,6.95,10.49,5.58,13.71c-1.34,3.22-7.46,4.57-9.14,3.89
					c-1.69-0.67-7.61-10.82-8.11-13.54C93.61,186.14,102.86,180.55,105.78,184.78z"/>
			</g>
			<g>
				<rect x="138.12" y="342.72" class="st6" width="80.1" height="16.26"/>
				<rect x="133.8" y="353.58" class="st7" width="88.74" height="69.09"/>
				<polygon class="st8" points="212.48,353.58 214.3,397.75 216.11,353.58 				"/>
				<g>
					<path class="st9" d="M203.35,376.07c3.45,0,6.24-2.79,6.24-6.23c0-3.44-2.79-6.23-6.24-6.23c-3.43,0-6.23,2.79-6.23,6.23
						C197.12,373.28,199.92,376.07,203.35,376.07z"/>
					<path class="st1" d="M201.54,367.85c1.02-1.08,1.39-2.34,0.88-2.84c-0.54-0.52-1.79-0.05-2.81,1.01
						c-1,1.07-1.39,2.34-0.87,2.85C199.28,369.37,200.54,368.91,201.54,367.85z"/>
				</g>
			</g>
		</g>
	</g>
</g>
</svg>
