<?xml version="1.0" encoding="utf-8"?>
<!-- Generator: Adobe Illustrator 25.1.0, SVG Export Plug-In . SVG Version: 6.00 Build 0)  -->
<svg version="1.1" id="Layer_1" xmlns="http://www.w3.org/2000/svg" xmlns:xlink="http://www.w3.org/1999/xlink" x="0px" y="0px"
	 viewBox="0 0 500 550" style="enable-background:new 0 0 500 550;" xml:space="preserve">
<style type="text/css">
	.st0{fill-rule:evenodd;clip-rule:evenodd;fill:#0090A3;}
	.st1{fill-rule:evenodd;clip-rule:evenodd;fill:#26E3FC;}
	.st2{fill-rule:evenodd;clip-rule:evenodd;fill:#FDC00F;}
	.st3{fill-rule:evenodd;clip-rule:evenodd;fill:#FDAA10;}
	.st4{fill-rule:evenodd;clip-rule:evenodd;fill:#D9471A;}
	.st5{fill-rule:evenodd;clip-rule:evenodd;fill:#FFE817;}
	.st6{fill-rule:evenodd;clip-rule:evenodd;fill:#424242;}
</style>
<g>
	<g>
		<path class="st0" d="M212.8,443.5h73.7c4,0,7.2,3.2,7.2,7.2v1.8c0,4-3.2,7.2-7.2,7.2h-73.7c-3.9,0-7.2-3.2-7.2-7.2v-1.8
			C205.6,446.7,208.8,443.5,212.8,443.5z"/>
		<path class="st0" d="M214,461.8h71.2c3.8,0,7,3.1,7,7v1.8c0,3.8-3.1,7-7,7H214c-3.8,0-6.9-3.1-6.9-7v-1.8
			C207.1,464.9,210.2,461.8,214,461.8z"/>
		<path class="st0" d="M216.6,479.2h66c3.5,0,6.4,2.9,6.4,6.4v1.6c0,3.5-2.9,6.4-6.4,6.4h-66c-3.5,0-6.4-2.9-6.4-6.4v-1.6
			C210.2,482.1,213.1,479.2,216.6,479.2z"/>
		<path class="st0" d="M269.8,495.9l-14.5,14.8c-3.1,3.2-8.2,3.2-11.3,0l-14.5-14.8H269.8z"/>
	</g>
	<g>
		<g>
			<g>
				<path class="st1" d="M175,176c-26.1-2.4-37.6,18.2-25.2,40.7c-25.6-0.4-31,31.5-14.3,45.7c-18.8,8.7-18.3,41.9,2.2,47.5
					c-11.8,10.1-6.4,41.2,15.5,41.6c1.6,21.7,20.7,34.9,51.9,34.9h27.2c8.5,0,11.6-14.3,13-16.8V192
					C241.9,124.6,178.4,138.3,175,176z"/>
				<g>
					<path class="st0" d="M175.1,164.9c0.6-1.5,2.3-2.3,3.8-1.7c1.5,0.6,2.3,2.3,1.7,3.8c-3.3,8.7-2.1,11.9,1.1,13.1
						c2.3,0.9,5.7,1.2,9.3,1.4c12.2,1,26.1,2.1,24.2,24.1c-0.1,1.6-1.6,2.8-3.2,2.7c-1.6-0.1-2.8-1.6-2.7-3.2
						c1.3-16.1-9.4-17-18.8-17.7c-4-0.3-7.8-0.6-11-1.8C173.1,183.1,170.1,177.9,175.1,164.9z"/>
					<path class="st0" d="M146.2,215.4c-0.8-1.4-0.3-3.2,1.1-4c1.4-0.8,3.2-0.3,4,1.1c4.1,7.2,5.9,13.4,7.4,18.6v0
						c2.3,8.2,3.7,13.1,15.3,13.2c1.5,0,3.1,0,4.6,0.1c3.1,0,6.2,0.1,9.2,0c11.5-0.2,21.9-1.5,21.8-9.2c-0.1-6.6-2.9-7.2-5.4-7.6
						c-3.8-0.7-7.4-1.4-8.3-7.4l0,0c-0.3-2.1,0-4.2,0.2-6.4c0.1-1,0.3-2,0.3-2.9c0.1-2.8-0.9-5.2-8.4-5.6c-5.2-0.3-9.7-0.4-13,0.3
						c-2.5,0.5-4.2,1.4-4.9,3.1c-0.2,0.5-0.3,1.2-0.4,1.9c-0.1,1.1,0,2.4,0.5,3.4c0.4,0.9,1.2,1.7,2.5,2.1c0.6,0.2,1.2,0.3,2,0.4
						c5.8,0.5,9.5,3.3,11,6.6c0.7,1.5,1,3,0.8,4.6c-0.2,1.6-0.8,3.1-1.8,4.3c-2.3,2.8-6.6,4.6-13,3.7c-1.6-0.2-2.7-1.7-2.5-3.3
						c0.2-1.6,1.7-2.7,3.3-2.5c4.1,0.6,6.6-0.3,7.7-1.6c0.3-0.4,0.5-0.8,0.5-1.2c0.1-0.5,0-0.9-0.3-1.4c-0.8-1.6-2.8-2.9-6.3-3.2
						c-1.3-0.1-2.4-0.4-3.4-0.7c-2.9-1-4.8-3-5.8-5.2c-1-2.1-1.2-4.4-1.1-6.4c0.1-1.2,0.4-2.4,0.7-3.4c1.4-4,4.6-6,9.3-6.9
						c3.9-0.7,8.8-0.7,14.4-0.4c12.5,0.7,14.2,5.8,13.9,11.8c-0.1,1.1-0.2,2.2-0.4,3.3c-0.2,1.7-0.4,3.4-0.2,4.8h0
						c0.3,1.9,1.9,2.2,3.6,2.6c4.8,0.9,10,1.9,10.1,13.3c0.2,12.8-13,14.9-27.6,15.2c-3.1,0-6.3,0-9.4,0c-1.6,0-3.1,0-4.6-0.1
						c-16-0.1-17.8-6.6-20.9-17.4l0,0C151.6,227.8,149.9,221.9,146.2,215.4z"/>
					<path class="st0" d="M135,265.6c-1.4-0.7-2-2.5-1.3-3.9c0.7-1.5,2.5-2,3.9-1.3c11.7,5.8,25.3,5.8,44.1,5.9
						c5.5,0,11.4,0,17.7,0.2c8.3,0.2,12.7,1.8,15.2,4.1c2.8,2.7,3,5.7,2.9,8.7c-0.1,3.2-0.7,6.3-3.4,8.9c-2.5,2.4-6.6,4-13.6,4.2
						c-8,0.3-17.8,0.1-26.6,0c-8.3-0.1-15.6-0.2-19.3,0c-1.6,0.1-3-1.1-3.1-2.7c-0.1-1.6,1.1-3,2.7-3.1c3.8-0.3,11.3-0.2,19.8,0
						c8.7,0.1,18.5,0.3,26.3,0c5.4-0.2,8.3-1.2,9.8-2.6c1.3-1.2,1.6-3,1.6-4.8c0-1.7,0-3.3-1.1-4.3c-1.5-1.4-4.7-2.4-11.3-2.5
						c-6.4-0.1-12.2-0.2-17.6-0.2C162.1,272,147.9,272,135,265.6z"/>
					<path class="st0" d="M136.9,313.2c-1.6,0.1-3-1.1-3.1-2.7c-0.1-1.6,1.1-3,2.7-3.1c6.6-0.5,15.1-0.8,23.7-0.8
						c9,0,17.9,0.2,24.6,0.7c6.1,0.4,10.8,1.2,14,4.3c3.3,3.1,4.7,8.1,4.1,16.8c-0.1,1.6-1.5,2.8-3.1,2.7c-1.6-0.1-2.8-1.5-2.7-3.1
						c0.5-6.7-0.3-10.3-2.2-12.1c-1.9-1.8-5.5-2.4-10.4-2.7c-6.7-0.5-15.4-0.7-24.1-0.7C151.8,312.4,143.4,312.6,136.9,313.2z"/>
					<path class="st0" d="M183,323.5c1.6,0,2.9,1.4,2.9,3c0,1.6-1.4,2.9-3,2.9l-4.1-0.1c-7.7-0.2-14.1-0.4-20.4,0.3
						c-3.2,0.3-5,1.3-5.8,2.5c-0.3,0.4-0.4,0.9-0.4,1.4l0,0c0,0.6,0.2,1.2,0.6,1.8c1.1,1.7,3.3,3.1,6.3,3.3c2.5,0.2,5.6,0.1,8.9,0
						c2.4-0.1,4.8-0.2,7-0.2c1.6,0,2.9,1.3,2.9,2.9s-1.3,2.9-2.9,2.9c-2.5,0-4.7,0.1-6.8,0.2c-3.5,0.1-6.8,0.3-9.7,0
						c-5-0.5-8.8-3-10.7-6c-0.9-1.4-1.4-3-1.5-4.6v0c-0.1-1.7,0.3-3.3,1.3-4.8c1.6-2.6,4.9-4.6,10.2-5.2c6.7-0.7,13.2-0.5,21.1-0.3
						L183,323.5z"/>
					<path class="st0" d="M239.3,173.2l0.6,177.7h-0.1l0,5c-0.2,2.5-0.6,4.1-1.4,5.1c-0.8,1.2-2.4,1.7-4.9,1.9
						c-1.8,0.2-3.7,0.1-5.9,0c-0.9,0-1.9-0.1-3.1-0.1c-3-0.1-3-2.9-3.1-8.9c0-1.2,0-2.6-0.1-3.9c-0.2-5.7-0.1-12.8,0-19.9
						c0.1-9.2,0.2-18.5-0.2-25.3c-0.1-1.6-1.5-2.9-3.1-2.8c-1.6,0.1-2.9,1.5-2.8,3.1c0.4,6.7,0.3,15.9,0.2,24.9
						c-0.1,7.2-0.1,14.3,0,20.1c0,1.4,0.1,2.7,0.1,3.8c0.1,9.8,0.2,14.4,8.8,14.7h0c0.9,0,2,0.1,3,0.1c2.5,0.1,4.6,0.2,6.7,0
						c2.3-0.2,4.2-0.6,5.8-1.5c0,10.1-1.5,16.1-13.2,16.1h-21.6c-14.9,0-26.9-3.1-35.3-8.7c-8.1-5.5-12.9-13.5-13.6-23.4l-0.2-2.7
						l-2.7,0c-5.5-0.1-9.9-2.5-12.9-6c-2-2.3-3.4-5.1-4.4-8c-1-3-1.5-6.2-1.4-9.3c0.1-5.4,1.8-10.3,5.1-13.1l4.1-3.6l-5.3-1.5
						c-5.4-1.5-9.2-5.2-11.4-10c-1.3-2.7-2-5.8-2.2-8.9c-0.2-3.2,0.1-6.4,0.9-9.4c1.6-6,5.3-11.2,11-13.8l4.2-1.9l-3.5-3
						c-4.2-3.5-6.8-8.4-7.9-13.4c-1-4.5-0.8-9.1,0.6-13.3c1.3-4.1,3.7-7.7,7.2-10.2c3.2-2.3,7.4-3.7,12.5-3.6l5,0.1l-2.4-4.4
						c-3.6-6.6-5.1-12.9-4.6-18.4c0.3-3.3,1.3-6.3,2.9-8.8c1.6-2.5,3.9-4.6,6.7-6.2c4.4-2.4,10.2-3.6,17.2-2.9l2.9,0.3l0.3-2.9
						c1.1-12,8.8-21.3,18.6-25.8c4.4-2,9.1-3.1,13.9-2.9c4.7,0.1,9.4,1.4,13.7,4C230.5,155.5,236.1,162.5,239.3,173.2L239.3,173.2z
						 M245.7,367.9l0-11.8c0.1-1.1,0.1-2.3,0.1-3.6l-0.5-134.1l0-0.2v-45.3c-3.7-13-10.3-21.6-18.2-26.4c-5.2-3.2-10.9-4.7-16.6-4.9
						c-5.7-0.1-11.3,1.1-16.5,3.5c-10.8,5-19.5,14.9-21.6,27.8c-7-0.2-13,1.2-17.8,3.8c-3.7,2.1-6.7,4.9-8.9,8.2
						c-2.1,3.3-3.4,7.2-3.8,11.5c-0.5,5.4,0.5,11.5,3.2,17.7c-4.4,0.6-8.2,2.2-11.4,4.4c-4.6,3.3-7.7,7.9-9.4,13.2
						c-1.7,5.1-1.9,10.9-0.7,16.3c1.1,5,3.4,9.8,6.9,13.8c-5.3,3.7-8.9,9.4-10.6,15.6c-1,3.7-1.4,7.5-1.1,11.3
						c0.3,3.8,1.2,7.6,2.8,10.9c2.3,4.9,5.9,9.1,11,11.6c-2.6,3.8-3.9,8.8-4,14c-0.1,3.7,0.5,7.6,1.7,11.2c1.2,3.7,3.1,7.1,5.6,10
						c3.6,4.2,8.5,7.1,14.6,7.9c1.4,10.7,6.9,19.3,15.9,25.3c9.4,6.3,22.4,9.7,38.6,9.7h21.2C241.2,389.8,245.7,382.3,245.7,367.9z"
						/>
					<path class="st0" d="M197.8,272.2c-1.6,0-2.9-1.4-2.9-3s1.4-2.9,3-2.9l4.1,0.1c7.7,0.2,14.1,0.4,20.4-0.3
						c3.2-0.3,5-1.3,5.8-2.5c0.3-0.4,0.4-0.9,0.4-1.4l0,0c0-0.6-0.2-1.2-0.6-1.8c-1.1-1.7-3.3-3.1-6.3-3.3c-2.5-0.2-5.6-0.1-8.9,0
						c-2.4,0.1-4.8,0.2-7,0.2c-1.6,0-2.9-1.3-2.9-2.9s1.3-2.9,2.9-2.9c2.5,0,4.7-0.1,6.8-0.2c3.5-0.1,6.8-0.3,9.7,0
						c5,0.5,8.8,3,10.7,6c0.9,1.4,1.4,3,1.5,4.6v0c0.1,1.7-0.3,3.3-1.3,4.8c-1.6,2.6-4.9,4.6-10.2,5.2c-6.7,0.7-13.2,0.5-21.1,0.3
						L197.8,272.2z"/>
					<path class="st0" d="M204.4,190.1c-1.4-0.9-1.8-2.6-0.9-4c0.9-1.4,2.6-1.8,4-0.9c3.2,2,6.6,2.9,9.7,2.8c2.2,0,4.2-0.5,5.8-1.4
						c1.4-0.8,2.4-1.9,2.8-3.2h0c0.3-1,0.4-2.1,0-3.5c-0.5-1.9-4.4-5.6-10.2-8.5c-4.3-2.1-9.6-3.6-15.3-3.2c-1.6,0.1-3-1.1-3.1-2.8
						c-0.1-1.6,1.1-3,2.8-3.1c6.8-0.4,13.1,1.3,18.2,3.8c7.4,3.6,12.6,9.2,13.4,12.3c0.6,2.5,0.5,4.7-0.1,6.8h0
						c-0.9,2.8-2.9,4.9-5.5,6.4c-2.4,1.4-5.4,2.1-8.6,2.1C213.1,193.9,208.6,192.7,204.4,190.1z"/>
					<path class="st0" d="M218.4,353.5l-21.9,0.2c-4.9,0-8.6,0.6-11.1,1.6c-1.7,0.7-2.6,1.6-2.7,2.8c-0.2,3.6,0.6,5.8,2.8,6.9
						c2.9,1.5,7.8,1.9,14.9,1.7c1.6,0,3,1.2,3,2.8s-1.2,3-2.8,3c-8.1,0.2-13.9-0.3-17.8-2.3c-4.5-2.4-6.4-6.3-6-12.5
						c0.2-3.5,2.4-6.1,6.3-7.8c3.2-1.4,7.7-2.1,13.4-2.1l22-0.2V353.5z"/>
				</g>
			</g>
			<g>
				<path class="st2" d="M270.6,385h23.5c31.2,0,50.3-13.1,51.9-34.9c21.9-0.4,27.3-31.5,15.5-41.6c20.5-5.6,20.9-38.8,2.2-47.5
					c16.7-14.1,11.3-46-14.3-45.7c12.4-22.4,0.9-43.1-25.2-40.7c-3-32.6-60.6-53.3-69.2,17.4l-0.8,175.8
					C254.8,370,254.2,385,270.6,385z"/>
				<g>
					<path class="st3" d="M318.7,165.6c-0.6-1.5,0.2-3.2,1.7-3.8c1.5-0.6,3.2,0.2,3.8,1.7c5,13,1.9,18.2-4.5,20.7
						c-3.2,1.2-7,1.5-11,1.8c-9.4,0.8-20.2,1.6-18.8,17.7c0.1,1.6-1.1,3-2.7,3.2c-1.6,0.1-3-1.1-3.2-2.7
						c-1.8-22,12.1-23.1,24.2-24.1c3.6-0.3,7-0.6,9.3-1.4C320.8,177.5,322,174.3,318.7,165.6z"/>
					<path class="st3" d="M347.9,211.1c0.8-1.4,2.6-1.9,4-1.1s1.9,2.6,1.1,4c-3.7,6.5-5.4,12.4-6.8,17.2l0,0
						c-3.1,10.8-4.9,17.3-20.9,17.4c-1.5,0-3,0-4.5,0.1c-3.1,0-6.2,0.1-9.4,0c-14.6-0.2-27.8-2.4-27.6-15.2
						c0.2-11.4,5.4-12.4,10.1-13.3c1.7-0.3,3.3-0.6,3.6-2.6h0c0.2-1.4,0-3.1-0.2-4.8c-0.1-1.1-0.3-2.2-0.4-3.3
						c-0.3-6,1.4-11.1,13.9-11.8c5.6-0.3,10.5-0.4,14.4,0.4c4.6,0.9,7.9,2.9,9.3,6.9c0.3,1,0.6,2.1,0.7,3.4c0.2,2-0.1,4.3-1,6.4
						c-1,2.2-2.9,4.1-5.8,5.2c-1,0.4-2.2,0.6-3.5,0.7c-3.4,0.3-5.5,1.7-6.3,3.2c-0.2,0.5-0.3,1-0.3,1.4c0,0.4,0.2,0.9,0.5,1.2
						c1.1,1.3,3.6,2.2,7.7,1.6c1.6-0.2,3.1,0.9,3.3,2.5c0.2,1.6-0.9,3.1-2.5,3.3c-6.4,0.9-10.7-0.9-13-3.7c-1.1-1.3-1.7-2.8-1.8-4.3
						c-0.2-1.5,0.1-3.1,0.8-4.6c1.6-3.3,5.3-6.1,11-6.6c0.8-0.1,1.5-0.2,2-0.4c1.3-0.4,2-1.2,2.5-2.1c0.5-1,0.6-2.3,0.5-3.4
						c-0.1-0.7-0.2-1.4-0.4-1.9c-0.6-1.7-2.3-2.6-4.9-3.1c-3.3-0.6-7.8-0.5-13-0.3c-7.5,0.4-8.5,2.8-8.4,5.6c0,0.9,0.2,1.9,0.3,2.9
						c0.3,2.1,0.6,4.3,0.2,6.4l0,0c-0.9,6-4.5,6.7-8.3,7.4c-2.5,0.5-5.3,1-5.4,7.6c-0.1,7.7,10.3,9.1,21.8,9.2c3,0,6.2,0,9.2,0
						c1.5,0,3.1,0,4.6-0.1c11.5-0.1,13-5,15.3-13.2v0C342,224.5,343.8,218.3,347.9,211.1z"/>
					<path class="st3" d="M361.6,259c1.5-0.7,3.2-0.1,3.9,1.3c0.7,1.5,0.1,3.2-1.3,3.9c-12.9,6.4-27,6.4-46.7,6.5
						c-5.4,0-11.2,0-17.6,0.2c-6.6,0.1-9.8,1.1-11.3,2.5c-1.1,1-1.1,2.7-1,4.3c0,1.8,0.3,3.6,1.6,4.8c1.5,1.4,4.4,2.4,9.8,2.6
						c7.9,0.2,17.6,0.1,26.3,0c8.5-0.1,16-0.2,19.8,0c1.6,0.1,2.8,1.5,2.7,3.1c-0.1,1.6-1.5,2.8-3.1,2.7c-3.7-0.3-11-0.2-19.3,0
						c-8.8,0.1-18.6,0.3-26.6,0c-7-0.2-11.2-1.9-13.6-4.2c-2.7-2.6-3.3-5.8-3.4-8.9c-0.1-3,0-6.1,2.9-8.7c2.4-2.3,6.9-3.9,15.2-4.1
						c6.4-0.1,12.2-0.2,17.7-0.2C336.3,264.8,349.9,264.8,361.6,259z"/>
					<path class="st3" d="M362.8,305.9c1.6,0.1,2.8,1.5,2.7,3.1c-0.1,1.6-1.5,2.8-3.1,2.7c-11.3-0.9-24.2-1.3-35.5-0.5
						c-4.9,0.4-8,0.1-10,1.9c-1.9,1.8-2.3,17.2-1.8,24c0.1,1.6-1.1,4-2.7,4.1c-1.6,0.1-3-2.1-3.1-3.7c-0.6-8.7-0.3-25.6,3-28.7
						c3.3-3.1,8.1-3,14.2-3.4C338,304.6,351.3,305,362.8,305.9z"/>
					<path class="st3" d="M258.4,367.3c-1.6,0-2.9-1.3-2.9-2.9c0-1.6,1.3-2.9,2.9-3l26.1-0.2c4.9,0,8.6-0.6,11.1-1.6
						c1.7-0.7,2.6-1.6,2.7-2.8c0.2-3.6-0.6-5.8-2.8-6.9c-2.9-1.5-7.8-1.9-14.9-1.7c-1.6,0-3-1.2-3-2.8c0-1.6,1.2-3,2.8-3
						c8.1-0.2,13.9,0.3,17.8,2.3c4.5,2.4,6.4,6.3,6,12.5c-0.2,3.5-2.4,6.1-6.2,7.8c-3.2,1.4-7.7,2.1-13.4,2.1L258.4,367.3z"/>
					<path class="st3" d="M312.5,335.2c-1.6,0-3,1.2-3,2.9c0,1.6,1.2,3,2.9,3l4.1,0.1c7.9,0.2,14.4,0.4,21.1-0.3
						c5.2-0.5,8.5-2.6,10.2-5.2c0.9-1.5,1.4-3.1,1.3-4.8v0c-0.1-1.6-0.6-3.2-1.5-4.6c-1.9-3.1-5.7-5.6-10.7-6
						c-2.9-0.3-6.2-0.1-9.7,0c-2.1,0.1-4.2,0.2-6.8,0.2c-1.6,0-2.9,1.3-2.9,2.9s1.3,2.9,2.9,2.9c2.2,0,4.6-0.1,7-0.2
						c3.3-0.1,6.4-0.3,8.9,0c3,0.3,5.2,1.7,6.3,3.3c0.4,0.6,0.6,1.2,0.6,1.8l0,0c0,0.5-0.1,1-0.4,1.4c-0.8,1.2-2.6,2.2-5.8,2.5
						c-6.4,0.6-12.7,0.5-20.4,0.3L312.5,335.2z"/>
					<path class="st3" d="M293.4,183c1.4-0.8,3.2-0.2,4,1.2s0.2,3.2-1.2,4c-4.2,2.2-8.5,3.2-12.3,3.2c-3.1,0-5.8-0.7-8-2
						c-2.4-1.4-4.1-3.6-4.8-6.4c-0.5-1.9-0.5-4.1,0.1-6.4c0.8-3.1,5.2-7.9,11.9-11.4c4.8-2.5,10.8-4.5,17.5-4.9
						c1.6-0.1,3,1.1,3.1,2.8s-1.1,3-2.8,3.1c-5.8,0.3-11,2.1-15.1,4.2c-5.1,2.7-8.4,5.9-8.9,7.6c-0.4,1.4-0.4,2.6-0.1,3.6
						c0.3,1.2,1.1,2.1,2.2,2.8c1.3,0.8,3,1.2,5,1.2C286.7,185.6,290,184.8,293.4,183z"/>
					<path class="st3" d="M259.6,189.1c-0.1-4.6-0.1-9,0.9-13.1c2.4-9.5,8.5-19.3,17-24.6c8.7-5.4,18.6-5.1,27.5-0.2
						c8.7,4.8,15.4,13.6,16.3,23.6l0.3,2.9l2.9-0.3c7-0.6,12.8,0.5,17.2,2.9c2.9,1.6,5.1,3.7,6.7,6.2c1.6,2.6,2.6,5.6,2.9,8.8
						c0.5,5.5-0.9,11.8-4.5,18.4l-2.4,4.4l5-0.1c5.1-0.1,9.3,1.3,12.5,3.6c3.5,2.5,5.9,6.1,7.2,10.2c1.3,4.2,1.5,8.8,0.5,13.3
						c-1.1,5.1-3.7,9.9-7.9,13.4l-3.5,3l4.2,1.9c5.7,2.6,9.3,7.9,11,13.9c0.8,3,1.1,6.2,0.9,9.4c-0.2,3.1-1,6.1-2.2,8.9
						c-2.2,4.7-6,8.5-11.4,10l-5.3,1.5l4.1,3.6c3.3,2.8,5,7.8,5.1,13.1c0.1,3.1-0.4,6.3-1.4,9.3c-1,3-2.5,5.7-4.4,8
						c-3.1,3.5-7.4,6-12.9,6l-2.7,0L343,350c-0.7,10-5.5,17.9-13.6,23.4c-8.4,5.6-20.4,8.7-35.3,8.7h-16.8c-16.9,0.4-17-3-17.2-12.4
						C258.8,309.5,259.9,249.3,259.6,189.1L259.6,189.1z M254,178.5c-0.1,0.3-0.2,0.6-0.2,0.9v190.4c0.6,8.8-0.9,18.6,23.5,18.2
						h16.9c16.1,0,29.2-3.4,38.6-9.7c9-6,14.5-14.7,15.9-25.3c6.2-0.8,11-3.7,14.6-7.9c2.5-2.9,4.4-6.4,5.6-10
						c1.2-3.6,1.8-7.5,1.7-11.2c-0.1-5.2-1.4-10.2-4-14c5-2.5,8.7-6.6,11-11.6c1.6-3.4,2.5-7.1,2.7-10.9c0.3-3.8-0.1-7.6-1.1-11.3
						c-1.7-6.2-5.2-11.9-10.6-15.6c3.5-4,5.9-8.8,7-13.8c1.2-5.4,0.9-11.2-0.7-16.3c-1.7-5.2-4.8-9.9-9.4-13.2
						c-3.1-2.2-6.9-3.8-11.4-4.4c2.7-6.2,3.7-12.2,3.2-17.7c-0.4-4.2-1.7-8.1-3.8-11.4c-2.1-3.4-5.1-6.2-8.9-8.2
						c-4.8-2.6-10.8-4-17.8-3.8c-2-10.9-9.4-20.2-18.9-25.4c-10.5-5.8-22.8-6.2-33.1,0.1C265.3,152.1,255.9,165.7,254,178.5z"/>
					<path class="st3" d="M288.1,236c1.6-0.1,3,1.2,3.1,2.8c0.1,1.6-1.2,3-2.8,3.1l-4.1,0.2c-7.7,0.4-4-0.6-10.4,0.5
						c-3.2,0.6-4.9,1.7-5.6,2.9c-0.2,0.5-0.3,0.9-0.3,1.4l0,0c0.1,0.6,0.3,1.2,0.7,1.7c1.2,1.6,3.5,2.8,6.5,2.9
						c2.5,0,5.6-0.3,8.9-0.7c2.3-0.3,4.8-0.6,7-0.7c1.6-0.1,3,1.1,3.1,2.7s-1.1,3-2.7,3.1c-2.5,0.2-4.7,0.4-6.7,0.7
						c-3.5,0.4-6.7,0.8-9.6,0.7c-5-0.1-9-2.3-11.1-5.2c-1-1.4-1.6-2.9-1.8-4.5v0c-0.2-1.7,0.1-3.3,0.9-4.9c1.5-2.7,4.6-5,9.8-5.9
						c6.6-1.2,3.1-0.2,11.1-0.6L288.1,236z"/>
					<path class="st3" d="M258,304.6c-2.1,0-3.9-1.4-3.8-3s1.8-2.9,4-2.9l5.4,0.1l25.9-0.2v5.9l-26,0.1L258,304.6z"/>
					<path class="st3" d="M289.4,300.2c0.2,7.9,0.4,14.4-0.3,21.1c-0.5,5.2-2.6,8.5-5.2,10.2c-3,1.9-6.5,1.6-9.4-0.2
						c-6.4-4-6-10-6-16.1c0-1.6,1.3-2.9,2.9-2.9s2.9,1.3,2.9,2.9c0,3.6-1,8.5,3.2,11.1c0.9,0.5,2.2,0.8,3.2,0.2
						c1.2-0.8,2.2-2.6,2.5-5.8l0.3-20.4L289.4,300.2z"/>
				</g>
			</g>
		</g>
		<g>
			<g>
				<path class="st4" d="M270.6,385h23.5c31.2,0,50.3-13.1,51.9-34.9c21.9-0.4,27.3-31.5,15.5-41.6c20.5-5.6,20.9-38.8,2.2-47.5
					c16.7-14.1,11.3-46-14.3-45.7c12.4-22.4,0.9-43.1-25.2-40.7c-3-32.6-60.6-53.3-69.2,17.4l-0.8,175.8
					C254.8,370,254.2,385,270.6,385z"/>
				<path class="st5" d="M268.3,384.9c-3.9-2.6-7.9-5.1-11.9-7.6c-2-4-2-8.4-2.3-9.5L255,192c1.4-11.6,4.2-20.8,7.8-27.8
					c1.3-2.6,8.2-15.9,27.9-19.7c16.3-0.2,32.1,13.4,33.6,30.1c26.1-2.4,37.6,18.2,25.2,40.7c25.6-0.4,31,31.5,14.3,45.7
					c18.8,8.7,18.3,41.9-2.2,47.5c11.8,10.1,6.4,41.2-15.5,41.6c-1.5,21.7-20.7,34.9-51.9,34.9h-23.5C269.8,385,269,385,268.3,384.9
					z"/>
				<path class="st2" d="M341.4,365.1c-29.1-13.9-59.7-27.1-87.1-37.2l0.5-111.4c28-10.4,59.3-23.9,89-38.2
					c11.2,6.8,14.1,21.4,5.5,37c25.6-0.4,31,31.5,14.3,45.7c18.8,8.7,18.3,41.9-2.2,47.5c11.8,10.1,6.4,41.2-15.5,41.6
					C345.6,355.7,344,360.7,341.4,365.1z"/>
			</g>
			<g>
				<path class="st4" d="M318.7,165.6c-0.6-1.5,0.2-3.2,1.7-3.8c1.5-0.6,3.2,0.2,3.8,1.7c5,13,1.9,18.2-4.5,20.7
					c-3.2,1.2-7,1.5-11,1.8c-9.4,0.8-20.2,1.6-18.8,17.7c0.1,1.6-1.1,3-2.7,3.2c-1.6,0.1-3-1.1-3.2-2.7c-1.8-22,12.1-23.1,24.2-24.1
					c3.6-0.3,7-0.6,9.3-1.4C320.8,177.5,322,174.3,318.7,165.6z"/>
				<path class="st4" d="M347.9,211.1c0.8-1.4,2.6-1.9,4-1.1s1.9,2.6,1.1,4c-3.7,6.5-5.4,12.4-6.8,17.2l0,0
					c-3.1,10.8-4.9,17.3-20.9,17.4c-1.5,0-3,0-4.5,0.1c-3.1,0-6.2,0.1-9.4,0c-14.6-0.2-27.8-2.4-27.6-15.2
					c0.2-11.4,5.4-12.4,10.1-13.3c1.7-0.3,3.3-0.6,3.6-2.6h0c0.2-1.4,0-3.1-0.2-4.8c-0.1-1.1-0.3-2.2-0.4-3.3
					c-0.3-6,1.4-11.1,13.9-11.8c5.6-0.3,10.5-0.4,14.4,0.4c4.6,0.9,7.9,2.9,9.3,6.9c0.3,1,0.6,2.1,0.7,3.4c0.2,2-0.1,4.3-1,6.4
					c-1,2.2-2.9,4.1-5.8,5.2c-1,0.4-2.2,0.6-3.5,0.7c-3.4,0.3-5.5,1.7-6.3,3.2c-0.2,0.5-0.3,1-0.3,1.4c0,0.4,0.2,0.9,0.5,1.2
					c1.1,1.3,3.6,2.2,7.7,1.6c1.6-0.2,3.1,0.9,3.3,2.5c0.2,1.6-0.9,3.1-2.5,3.3c-6.4,0.9-10.7-0.9-13-3.7c-1.1-1.3-1.7-2.8-1.8-4.3
					c-0.2-1.5,0.1-3.1,0.8-4.6c1.6-3.3,5.3-6.1,11-6.6c0.8-0.1,1.5-0.2,2-0.4c1.3-0.4,2-1.2,2.5-2.1c0.5-1,0.6-2.3,0.5-3.4
					c-0.1-0.7-0.2-1.4-0.4-1.9c-0.6-1.7-2.3-2.6-4.9-3.1c-3.3-0.6-7.8-0.5-13-0.3c-7.5,0.4-8.5,2.8-8.4,5.6c0,0.9,0.2,1.9,0.3,2.9
					c0.3,2.1,0.6,4.3,0.2,6.4l0,0c-0.9,6-4.5,6.7-8.3,7.4c-2.5,0.5-5.3,1-5.4,7.6c-0.1,7.7,10.3,9.1,21.8,9.2c3,0,6.2,0,9.2,0
					c1.5,0,3.1,0,4.6-0.1c11.5-0.1,13-5,15.3-13.2v0C342,224.5,343.8,218.3,347.9,211.1z"/>
				<path class="st4" d="M361.6,259c1.5-0.7,3.2-0.1,3.9,1.3c0.7,1.5,0.1,3.2-1.3,3.9c-12.9,6.4-27,6.4-46.7,6.5
					c-5.4,0-11.2,0-17.6,0.2c-6.6,0.1-9.8,1.1-11.3,2.5c-1.1,1-1.1,2.7-1,4.3c0,1.8,0.3,3.6,1.6,4.8c1.5,1.4,4.4,2.4,9.8,2.6
					c7.9,0.2,17.6,0.1,26.3,0c8.5-0.1,16-0.2,19.8,0c1.6,0.1,2.8,1.5,2.7,3.1c-0.1,1.6-1.5,2.8-3.1,2.7c-3.7-0.3-11-0.2-19.3,0
					c-8.8,0.1-18.6,0.3-26.6,0c-7-0.2-11.2-1.9-13.6-4.2c-2.7-2.6-3.3-5.8-3.4-8.9c-0.1-3,0-6.1,2.9-8.7c2.4-2.3,6.9-3.9,15.2-4.1
					c6.4-0.1,12.2-0.2,17.7-0.2C336.3,264.8,349.9,264.8,361.6,259z"/>
				<path class="st4" d="M362.8,305.9c1.6,0.1,2.8,1.5,2.7,3.1c-0.1,1.6-1.5,2.8-3.1,2.7c-11.3-0.9-24.2-1.3-35.5-0.5
					c-4.9,0.4-8,0.1-10,1.9c-1.9,1.8-2.3,17.2-1.8,24c0.1,1.6-1.1,4-2.7,4.1c-1.6,0.1-3-2.1-3.1-3.7c-0.6-8.7-0.3-25.6,3-28.7
					c3.3-3.1,8.1-3,14.2-3.4C338,304.6,351.3,305,362.8,305.9z"/>
				<path class="st4" d="M258.4,367.3c-1.6,0-2.9-1.3-2.9-2.9c0-1.6,1.3-2.9,2.9-3l26.1-0.2c4.9,0,8.6-0.6,11.1-1.6
					c1.7-0.7,2.6-1.6,2.7-2.8c0.2-3.6-0.6-5.8-2.8-6.9c-2.9-1.5-7.8-1.9-14.9-1.7c-1.6,0-3-1.2-3-2.8c0-1.6,1.2-3,2.8-3
					c8.1-0.2,13.9,0.3,17.8,2.3c4.5,2.4,6.4,6.3,6,12.5c-0.2,3.5-2.4,6.1-6.2,7.8c-3.2,1.4-7.7,2.1-13.4,2.1L258.4,367.3z"/>
				<path class="st4" d="M312.5,335.2c-1.6,0-3,1.2-3,2.9c0,1.6,1.2,3,2.9,3l4.1,0.1c7.9,0.2,14.4,0.4,21.1-0.3
					c5.2-0.5,8.5-2.6,10.2-5.2c0.9-1.5,1.4-3.1,1.3-4.8v0c-0.1-1.6-0.6-3.2-1.5-4.6c-1.9-3.1-5.7-5.6-10.7-6c-2.9-0.3-6.2-0.1-9.7,0
					c-2.1,0.1-4.2,0.2-6.8,0.2c-1.6,0-2.9,1.3-2.9,2.9s1.3,2.9,2.9,2.9c2.2,0,4.6-0.1,7-0.2c3.3-0.1,6.4-0.3,8.9,0
					c3,0.3,5.2,1.7,6.3,3.3c0.4,0.6,0.6,1.2,0.6,1.8l0,0c0,0.5-0.1,1-0.4,1.4c-0.8,1.2-2.6,2.2-5.8,2.5c-6.4,0.6-12.7,0.5-20.4,0.3
					L312.5,335.2z"/>
				<path class="st4" d="M293.4,183c1.4-0.8,3.2-0.2,4,1.2s0.2,3.2-1.2,4c-4.2,2.2-8.5,3.2-12.3,3.2c-3.1,0-5.8-0.7-8-2
					c-2.4-1.4-4.1-3.6-4.8-6.4c-0.5-1.9-0.5-4.1,0.1-6.4c0.8-3.1,5.2-7.9,11.9-11.4c4.8-2.5,10.8-4.5,17.5-4.9
					c1.6-0.1,3,1.1,3.1,2.8s-1.1,3-2.8,3.1c-5.8,0.3-11,2.1-15.1,4.2c-5.1,2.7-8.4,5.9-8.9,7.6c-0.4,1.4-0.4,2.6-0.1,3.6
					c0.3,1.2,1.1,2.1,2.2,2.8c1.3,0.8,3,1.2,5,1.2C286.7,185.6,290,184.8,293.4,183z"/>
				<path class="st4" d="M259.6,189.1c-0.1-4.6-0.1-9,0.9-13.1c2.4-9.5,8.5-19.3,17-24.6c8.7-5.4,18.6-5.1,27.5-0.2
					c8.7,4.8,15.4,13.6,16.3,23.6l0.3,2.9l2.9-0.3c7-0.6,12.8,0.5,17.2,2.9c2.9,1.6,5.1,3.7,6.7,6.2c1.6,2.6,2.6,5.6,2.9,8.8
					c0.5,5.5-0.9,11.8-4.5,18.4l-2.4,4.4l5-0.1c5.1-0.1,9.3,1.3,12.5,3.6c3.5,2.5,5.9,6.1,7.2,10.2c1.3,4.2,1.5,8.8,0.5,13.3
					c-1.1,5.1-3.7,9.9-7.9,13.4l-3.5,3l4.2,1.9c5.7,2.6,9.3,7.9,11,13.9c0.8,3,1.1,6.2,0.9,9.4c-0.2,3.1-1,6.1-2.2,8.9
					c-2.2,4.7-6,8.5-11.4,10l-5.3,1.5l4.1,3.6c3.3,2.8,5,7.8,5.1,13.1c0.1,3.1-0.4,6.3-1.4,9.3c-1,3-2.5,5.7-4.4,8
					c-3.1,3.5-7.4,6-12.9,6l-2.7,0L343,350c-0.7,10-5.5,17.9-13.6,23.4c-8.4,5.6-20.4,8.7-35.3,8.7h-16.8c-16.9,0.4-17-3-17.2-12.4
					C258.8,309.5,259.9,249.3,259.6,189.1L259.6,189.1z M254,178.5c-0.1,0.3-0.2,0.6-0.2,0.9v190.4c0.6,8.8-0.9,18.6,23.5,18.2h16.9
					c16.1,0,29.2-3.4,38.6-9.7c9-6,14.5-14.7,15.9-25.3c6.2-0.8,11-3.7,14.6-7.9c2.5-2.9,4.4-6.4,5.6-10c1.2-3.6,1.8-7.5,1.7-11.2
					c-0.1-5.2-1.4-10.2-4-14c5-2.5,8.7-6.6,11-11.6c1.6-3.4,2.5-7.1,2.7-10.9c0.3-3.8-0.1-7.6-1.1-11.3c-1.7-6.2-5.2-11.9-10.6-15.6
					c3.5-4,5.9-8.8,7-13.8c1.2-5.4,0.9-11.2-0.7-16.3c-1.7-5.2-4.8-9.9-9.4-13.2c-3.1-2.2-6.9-3.8-11.4-4.4
					c2.7-6.2,3.7-12.2,3.2-17.7c-0.4-4.2-1.7-8.1-3.8-11.4c-2.1-3.4-5.1-6.2-8.9-8.2c-4.8-2.6-10.8-4-17.8-3.8
					c-2-10.9-9.4-20.2-18.9-25.4c-10.5-5.8-22.8-6.2-33.1,0.1C265.3,152.1,255.9,165.7,254,178.5z"/>
				<path class="st4" d="M288.1,236c1.6-0.1,3,1.2,3.1,2.8c0.1,1.6-1.2,3-2.8,3.1l-4.1,0.2c-7.7,0.4-4-0.6-10.4,0.5
					c-3.2,0.6-4.9,1.7-5.6,2.9c-0.2,0.5-0.3,0.9-0.3,1.4l0,0c0.1,0.6,0.3,1.2,0.7,1.7c1.2,1.6,3.5,2.8,6.5,2.9
					c2.5,0,5.6-0.3,8.9-0.7c2.3-0.3,4.8-0.6,7-0.7c1.6-0.1,3,1.1,3.1,2.7s-1.1,3-2.7,3.1c-2.5,0.2-4.7,0.4-6.7,0.7
					c-3.5,0.4-6.7,0.8-9.6,0.7c-5-0.1-9-2.3-11.1-5.2c-1-1.4-1.6-2.9-1.8-4.5v0c-0.2-1.7,0.1-3.3,0.9-4.9c1.5-2.7,4.6-5,9.8-5.9
					c6.6-1.2,3.1-0.2,11.1-0.6L288.1,236z"/>
				<path class="st4" d="M258,304.6c-2.1,0-3.9-1.4-3.8-3s1.8-2.9,4-2.9l5.4,0.1l25.9-0.2v5.9l-26,0.1L258,304.6z"/>
				<path class="st4" d="M289.4,300.2c0.2,7.9,0.4,14.4-0.3,21.1c-0.5,5.2-2.6,8.5-5.2,10.2c-3,1.9-6.5,1.6-9.4-0.2
					c-6.4-4-6-10-6-16.1c0-1.6,1.3-2.9,2.9-2.9s2.9,1.3,2.9,2.9c0,3.6-1,8.5,3.2,11.1c0.9,0.5,2.2,0.8,3.2,0.2
					c1.2-0.8,2.2-2.6,2.5-5.8l0.3-20.4L289.4,300.2z"/>
			</g>
		</g>
	</g>
	<g>
		<g>
			<path class="st6" d="M297.7,389.4h0.5l0.1,1.5c0.2,0,0.4,0,0.6,0l0.3-1.5l0.5,0.1l-0.1,1.5c0.2,0,0.5,0.1,0.7,0.1l0.5-1.4
				l0.5,0.1l-0.3,1.5c0.2,0.1,0.4,0.1,0.6,0.2l0.6-1.3l0.4,0.2l-0.5,1.4c0.2,0.1,0.5,0.2,0.7,0.3l0.8-1.2l0.4,0.2l-0.7,1.3
				c0.2,0.1,0.3,0.2,0.5,0.3l1-1.1l0.4,0.3l-0.8,1.2c0.2,0.2,0.4,0.3,0.6,0.5l1.1-1l0.3,0.3l-1,1.1c0.1,0.1,0.3,0.3,0.4,0.5l1.2-0.8
				l0.3,0.4l-1.1,1c0.1,0.2,0.3,0.4,0.4,0.6l1.3-0.7l0.2,0.4l-1.2,0.8c0.1,0.2,0.2,0.4,0.3,0.5l1.4-0.5l0.2,0.4l-1.3,0.7
				c0.1,0.2,0.2,0.5,0.2,0.7l1.5-0.3l0.1,0.5l-1.4,0.5c0,0.2,0.1,0.4,0.1,0.6l1.5-0.1l0.1,0.5L308,400c0,0.2,0,0.5,0,0.8l1.5,0.1
				v0.5l-1.5,0.1c0,0.2,0,0.4,0,0.6l1.5,0.3l-0.1,0.5l-1.5-0.1c0,0.2-0.1,0.5-0.1,0.7l1.4,0.5l-0.1,0.5l-1.5-0.3
				c-0.1,0.2-0.1,0.4-0.2,0.6l1.3,0.6l-0.2,0.4l-1.4-0.5c-0.1,0.2-0.2,0.5-0.3,0.7l1.2,0.8l-0.2,0.4l-1.3-0.7
				c-0.1,0.2-0.2,0.4-0.3,0.5l1.1,1l-0.3,0.4l-1.2-0.8c-0.2,0.2-0.3,0.4-0.5,0.6l1,1.1l-0.3,0.3l-1.1-1c-0.1,0.1-0.3,0.3-0.5,0.4
				l0.8,1.2l-0.4,0.3l-1-1.1c-0.2,0.1-0.4,0.3-0.6,0.4l0.7,1.3l-0.4,0.2l-0.8-1.2c-0.2,0.1-0.4,0.2-0.5,0.3l0.5,1.4l-0.4,0.2
				l-0.7-1.3c-0.2,0.1-0.5,0.2-0.7,0.2l0.3,1.5l-0.5,0.1l-0.5-1.4c-0.2,0-0.4,0.1-0.6,0.1l0.1,1.5l-0.5,0.1l-0.3-1.5
				c-0.2,0-0.5,0-0.8,0l-0.1,1.5h-0.5l-0.1-1.5c-0.2,0-0.4,0-0.6,0l-0.3,1.5l-0.5-0.1l0.1-1.5c-0.2,0-0.5-0.1-0.7-0.1l-0.5,1.4
				l-0.5-0.1l0.3-1.5c-0.2-0.1-0.4-0.1-0.6-0.2l-0.6,1.3l-0.4-0.2l0.5-1.4c-0.2-0.1-0.5-0.2-0.7-0.3l-0.8,1.2l-0.4-0.2l0.7-1.3
				c-0.2-0.1-0.3-0.2-0.5-0.3l-1,1.1l-0.4-0.3l0.8-1.2c-0.2-0.2-0.4-0.3-0.6-0.5l-1.1,1l-0.3-0.3l1-1.1c-0.1-0.1-0.3-0.3-0.4-0.5
				l-1.2,0.8l-0.3-0.4l1.1-1c-0.1-0.2-0.3-0.4-0.4-0.6l-1.3,0.7l-0.2-0.4l1.2-0.8c-0.1-0.2-0.2-0.4-0.3-0.5l-1.4,0.5l-0.2-0.4
				l1.3-0.7c-0.1-0.2-0.2-0.5-0.2-0.7l-1.5,0.3l-0.1-0.5l1.4-0.5c0-0.2-0.1-0.4-0.1-0.6l-1.5,0.1l-0.1-0.5l1.5-0.3
				c0-0.2,0-0.5,0-0.8l-1.5-0.1v-0.5l1.5-0.1c0-0.2,0-0.4,0-0.6l-1.5-0.3l0.1-0.5l1.5,0.1c0-0.2,0.1-0.5,0.1-0.7l-1.4-0.5l0.1-0.5
				l1.5,0.3c0.1-0.2,0.1-0.4,0.2-0.6l-1.3-0.6l0.2-0.4l1.4,0.5c0.1-0.2,0.2-0.5,0.3-0.7l-1.2-0.8l0.2-0.4l1.3,0.7
				c0.1-0.2,0.2-0.3,0.3-0.5l-1.1-1l0.3-0.4l1.2,0.8c0.2-0.2,0.3-0.4,0.5-0.6l-1-1.1l0.3-0.3l1.1,1c0.1-0.1,0.3-0.3,0.5-0.4
				l-0.8-1.2l0.4-0.3l1,1.1c0.2-0.1,0.4-0.3,0.6-0.4l-0.7-1.3l0.4-0.2l0.8,1.2c0.2-0.1,0.4-0.2,0.5-0.3l-0.5-1.4l0.4-0.2l0.7,1.3
				c0.2-0.1,0.5-0.2,0.7-0.2l-0.3-1.5l0.5-0.1l0.5,1.4c0.2,0,0.4-0.1,0.6-0.1l-0.1-1.5l0.5-0.1l0.3,1.5c0.2,0,0.5,0,0.8,0
				L297.7,389.4L297.7,389.4z M297.9,397.7c0.6,0,1.2,0.1,1.7,0.4l3-3c-1.3-1-2.9-1.6-4.7-1.6c-1.8,0-3.4,0.6-4.7,1.6l3,3
				C296.7,397.8,297.3,397.7,297.9,397.7L297.9,397.7z M300.9,399.5c0.3,0.5,0.4,1.1,0.4,1.7s-0.1,1.2-0.4,1.7l3,3
				c1-1.3,1.6-2.9,1.6-4.7c0-1.8-0.6-3.4-1.6-4.7L300.9,399.5L300.9,399.5z M299.5,404.1c-0.5,0.3-1.1,0.4-1.7,0.4s-1.2-0.2-1.7-0.4
				l-3,3c1.3,1,2.9,1.6,4.7,1.6c1.8,0,3.4-0.6,4.7-1.6L299.5,404.1L299.5,404.1z M294.9,402.8c-0.3-0.5-0.4-1.1-0.4-1.7
				s0.1-1.2,0.4-1.7l-3-3c-1,1.3-1.6,2.9-1.6,4.7s0.6,3.4,1.6,4.7L294.9,402.8z"/>
			<path class="st6" d="M270.7,407.9l2.4-0.3l1.1,3.3c1.1,0,2.2,0.1,3.3,0.4l1.9-2.9l2.2,0.9l-0.7,3.4c1,0.6,1.8,1.2,2.6,2l3.1-1.6
				l1.5,1.9l-2.3,2.6c0.5,0.9,1,2,1.3,3l3.4,0.2l0.3,2.4l-3.3,1.1c0,1.1-0.1,2.2-0.4,3.3l2.9,1.9l-0.9,2.2l-3.4-0.7
				c-0.6,1-1.2,1.8-2,2.6l1.6,3.1l-1.9,1.4l-2.6-2.3c-0.9,0.5-2,1-3,1.3l-0.2,3.4l-2.4,0.3l-1.1-3.3c-1.1,0-2.2-0.1-3.3-0.4
				l-1.9,2.9l-2.2-0.9l0.7-3.4c-1-0.6-1.8-1.2-2.6-2l-3.1,1.6l-1.5-1.9l2.3-2.6c-0.5-0.9-1-2-1.3-3l-3.4-0.2l-0.3-2.4l3.3-1.1
				c0-1.1,0.1-2.2,0.4-3.3l-2.9-1.9l0.9-2.2l3.4,0.7c0.6-1,1.2-1.8,2-2.6l-1.6-3.1l1.9-1.5l2.6,2.3c0.9-0.5,2-1,3-1.3L270.7,407.9
				L270.7,407.9z M281.6,416l-1.8,2.4c1.2,1.2,2.1,2.9,2.4,4.7c0.3,1.9-0.2,3.7-1.1,5.3l2.3,1.8c1.4-2.1,2-4.7,1.7-7.5
				C284.7,420,283.4,417.7,281.6,416L281.6,416z M278.3,417.2l1.8-2.3c-2.1-1.4-4.7-2-7.5-1.7c-2.7,0.4-5,1.7-6.8,3.6l2.3,1.8
				c1.2-1.3,2.9-2.2,4.8-2.4C275,415.9,276.8,416.3,278.3,417.2L278.3,417.2z M270,431.2l-1.8,2.4c2.1,1.3,4.7,2,7.4,1.6
				c2.7-0.4,5-1.6,6.7-3.5l-2.4-1.8c-1.2,1.2-2.9,2.1-4.7,2.4C273.3,432.5,271.5,432,270,431.2L270,431.2z M266.7,432.4l1.8-2.3
				c-1.3-1.2-2.2-2.9-2.4-4.8c-0.2-1.9,0.2-3.7,1-5.2l-2.4-1.8c-1.3,2.1-2,4.7-1.6,7.4C263.5,428.3,264.9,430.7,266.7,432.4
				L266.7,432.4z M273.4,418.7c-3,0.4-5.1,3.2-4.7,6.2s3.2,5.1,6.2,4.7s5.1-3.2,4.7-6.2S276.4,418.3,273.4,418.7z"/>
			<path class="st6" d="M247.6,410.9l2.5,0.8c0.6,0.2,0.9,0.8,0.7,1.3l-0.8,2.5c1.2,0.7,2.2,1.5,3,2.5l2.4-1.2
				c0.5-0.3,1.2-0.1,1.4,0.5l1.2,2.4c0.3,0.5,0.1,1.2-0.5,1.4l-2.4,1.2c0.3,1.3,0.4,2.6,0.3,3.9l2.5,0.8c0.6,0.2,0.9,0.8,0.7,1.3
				l-0.8,2.5c-0.2,0.6-0.8,0.9-1.3,0.7l-2.5-0.8c-0.7,1.2-1.6,2.2-2.6,3l1.2,2.4c0.3,0.5,0.1,1.2-0.5,1.4l-2.4,1.2
				c-0.5,0.3-1.2,0.1-1.4-0.5l-1.2-2.4c-1.3,0.3-2.6,0.4-3.9,0.3l-0.8,2.5c-0.2,0.6-0.8,0.9-1.3,0.7l-2.5-0.8
				c-0.6-0.2-0.9-0.8-0.7-1.3l0.8-2.5c-1.2-0.7-2.2-1.5-3-2.5l-2.4,1.2c-0.5,0.3-1.2,0.1-1.4-0.5l-1.2-2.4c-0.3-0.5-0.1-1.2,0.5-1.4
				l2.4-1.2c-0.3-1.3-0.4-2.6-0.3-3.9l-2.5-0.8c-0.6-0.2-0.9-0.8-0.7-1.3l0.8-2.5c0.2-0.6,0.8-0.9,1.3-0.7l2.5,0.8
				c0.7-1.2,1.6-2.2,2.6-3l-1.2-2.4c-0.3-0.5-0.1-1.2,0.5-1.4l2.4-1.2c0.5-0.3,1.2-0.1,1.4,0.5l1.2,2.4c1.3-0.3,2.6-0.4,3.9-0.3
				l0.8-2.5C246.5,411,247.1,410.7,247.6,410.9L247.6,410.9z M245.8,421c-2.3-0.8-4.8,0.5-5.6,2.8c-0.8,2.3,0.5,4.8,2.8,5.6
				c2.3,0.8,4.8-0.5,5.6-2.8C249.4,424.3,248.1,421.8,245.8,421z"/>
			<path class="st6" d="M253.7,386.7h0.5l0.1,1.5c0.2,0,0.4,0,0.6,0l0.3-1.5l0.5,0.1l-0.1,1.5c0.2,0,0.5,0.1,0.8,0.1l0.5-1.5
				l0.5,0.1l-0.3,1.5c0.2,0.1,0.4,0.1,0.6,0.2l0.7-1.4l0.5,0.2l-0.5,1.4c0.2,0.1,0.5,0.2,0.7,0.3l0.8-1.3l0.4,0.2l-0.7,1.4
				c0.2,0.1,0.4,0.2,0.5,0.4l1-1.2l0.4,0.3l-0.9,1.3c0.2,0.2,0.4,0.3,0.6,0.5l1.1-1l0.3,0.3l-1,1.1c0.1,0.1,0.3,0.3,0.4,0.5l1.3-0.9
				l0.3,0.4l-1.1,1c0.1,0.2,0.3,0.4,0.4,0.6l1.4-0.7l0.2,0.4l-1.3,0.8c0.1,0.2,0.2,0.4,0.3,0.6l1.4-0.5l0.2,0.5l-1.4,0.7
				c0.1,0.2,0.2,0.5,0.2,0.7l1.5-0.3l0.1,0.5l-1.5,0.5c0,0.2,0.1,0.4,0.1,0.6l1.5-0.1l0.1,0.5l-1.5,0.3c0,0.2,0,0.5,0,0.8l1.5,0.1
				v0.5l-1.5,0.1c0,0.2,0,0.4,0,0.6l1.5,0.3l-0.1,0.5l-1.5-0.1c0,0.2-0.1,0.5-0.1,0.8l1.5,0.5l-0.1,0.5l-1.5-0.3
				c-0.1,0.2-0.1,0.4-0.2,0.6l1.4,0.7l-0.2,0.5l-1.5-0.5c-0.1,0.2-0.2,0.5-0.3,0.7l1.3,0.8l-0.2,0.4l-1.4-0.7
				c-0.1,0.2-0.2,0.4-0.4,0.5l1.2,1l-0.3,0.4l-1.3-0.9c-0.2,0.2-0.3,0.4-0.5,0.6l1,1.1l-0.3,0.3l-1.1-1c-0.1,0.1-0.3,0.3-0.5,0.4
				l0.9,1.3l-0.4,0.3l-1-1.1c-0.2,0.1-0.4,0.3-0.6,0.4l0.7,1.4l-0.4,0.2l-0.8-1.3c-0.2,0.1-0.4,0.2-0.6,0.3l0.5,1.4l-0.5,0.2
				l-0.7-1.4c-0.2,0.1-0.5,0.2-0.7,0.2l0.3,1.5l-0.5,0.1l-0.5-1.5c-0.2,0-0.4,0.1-0.6,0.1l0.1,1.5l-0.5,0.1L255,409
				c-0.2,0-0.5,0-0.8,0l-0.1,1.5h-0.5l-0.1-1.5c-0.2,0-0.4,0-0.6,0l-0.3,1.5l-0.5-0.1l0.1-1.5c-0.2,0-0.5-0.1-0.8-0.1l-0.5,1.5
				l-0.5-0.1l0.3-1.5c-0.2-0.1-0.4-0.1-0.6-0.2l-0.7,1.4l-0.4-0.2l0.5-1.5c-0.2-0.1-0.5-0.2-0.7-0.3l-0.8,1.3l-0.4-0.2l0.7-1.4
				c-0.2-0.1-0.4-0.2-0.5-0.4l-1,1.2l-0.4-0.3l0.9-1.3c-0.2-0.2-0.4-0.3-0.6-0.5l-1.1,1l-0.3-0.3l1-1.1c-0.1-0.1-0.3-0.3-0.4-0.5
				l-1.3,0.9l-0.3-0.4l1.1-1c-0.1-0.2-0.3-0.4-0.4-0.6l-1.4,0.7l-0.2-0.4l1.3-0.8c-0.1-0.2-0.2-0.4-0.3-0.6l-1.4,0.5l-0.2-0.5
				l1.4-0.7c-0.1-0.2-0.2-0.5-0.2-0.7l-1.5,0.3l-0.1-0.5l1.4-0.5c-0.1-0.2-0.1-0.4-0.1-0.6l-1.5,0.1L242,400l1.5-0.3
				c0-0.2,0-0.5-0.1-0.8l-1.5-0.1v-0.5l1.5-0.1c0-0.2,0-0.4,0-0.6l-1.5-0.3l0.1-0.5l1.5,0.1c0-0.2,0.1-0.5,0.1-0.8l-1.4-0.5l0.1-0.5
				l1.5,0.3c0.1-0.2,0.1-0.4,0.2-0.6l-1.4-0.7l0.2-0.5l1.4,0.5c0.1-0.2,0.2-0.5,0.3-0.7l-1.3-0.8l0.2-0.4l1.4,0.7
				c0.1-0.2,0.2-0.4,0.4-0.5l-1.2-1l0.3-0.4l1.3,0.9c0.2-0.2,0.3-0.4,0.5-0.6l-1-1.1l0.3-0.3l1.1,1c0.1-0.1,0.3-0.3,0.5-0.4
				l-0.9-1.3l0.4-0.3l1,1.1c0.2-0.1,0.4-0.3,0.6-0.4l-0.7-1.4l0.4-0.2l0.8,1.3c0.2-0.1,0.4-0.2,0.6-0.3l-0.5-1.4l0.4-0.2l0.7,1.4
				c0.2-0.1,0.5-0.2,0.7-0.2l-0.3-1.5l0.5-0.1l0.5,1.5c0.2,0,0.4-0.1,0.6-0.1l-0.1-1.5l0.5-0.1l0.3,1.5c0.2,0,0.5,0,0.8,0
				L253.7,386.7L253.7,386.7z M254.1,389v0.8c2.3,0,4.3,1,5.9,2.4l0.5-0.5C258.9,390.1,256.6,389.1,254.1,389L254.1,389z
				 M253.7,389.8V389c-2.5,0-4.8,1.1-6.4,2.7l0.5,0.5C249.4,390.8,251.4,389.9,253.7,389.8L253.7,389.8z M260.6,405.5L260,405
				c-1.5,1.5-3.6,2.4-5.9,2.4v0.8C256.6,408.1,258.9,407.1,260.6,405.5L260.6,405.5z M260.3,404.7l0.5,0.5c1.6-1.7,2.6-3.9,2.7-6.4
				h-0.8C262.7,401.1,261.8,403.2,260.3,404.7L260.3,404.7z M247.6,392.5L247,392c-1.6,1.7-2.6,3.9-2.7,6.4h0.8
				C245.2,396.1,246.1,394.1,247.6,392.5L247.6,392.5z M262.7,398.4h0.8c0-2.5-1-4.8-2.7-6.4l-0.5,0.5
				C261.8,394.1,262.7,396.1,262.7,398.4L262.7,398.4z M245.1,398.8h-0.8c0.1,2.5,1.1,4.8,2.7,6.4l0.5-0.5
				C246.1,403.2,245.2,401.1,245.1,398.8L245.1,398.8z M253.7,408.2v-0.8c-2.3,0-4.3-1-5.9-2.4l-0.5,0.5
				C249,407.1,251.2,408.1,253.7,408.2L253.7,408.2z M253.9,396.7c-1,0-1.9,0.8-1.9,1.9s0.8,1.9,1.9,1.9c1,0,1.9-0.8,1.9-1.9
				C255.8,397.6,255,396.7,253.9,396.7L253.9,396.7z M246.9,398.5h3.5c0-0.9,0.4-1.6,0.9-2.2l-2.5-2.5
				C247.7,395,247,396.7,246.9,398.5L246.9,398.5z M257.5,398.5h3.5c0-1.8-0.8-3.5-1.9-4.7l-2.5,2.5
				C257.1,396.8,257.4,397.6,257.5,398.5L257.5,398.5z M260.9,398.8h-3.5c0,0.9-0.4,1.6-0.9,2.2l2.5,2.5
				C260.2,402.2,260.9,400.6,260.9,398.8L260.9,398.8z M250.4,398.8h-3.5c0,1.8,0.8,3.5,1.9,4.7l2.5-2.5
				C250.8,400.4,250.4,399.6,250.4,398.8L250.4,398.8z M254.1,391.6v3.5c0.9,0,1.6,0.4,2.2,0.9l2.5-2.5
				C257.5,392.4,255.9,391.6,254.1,391.6L254.1,391.6z M254.1,402.1v3.5c1.8,0,3.5-0.8,4.7-1.9l-2.5-2.5
				C255.7,401.8,254.9,402.1,254.1,402.1L254.1,402.1z M253.8,405.6v-3.5c-0.9,0-1.6-0.4-2.2-0.9l-2.5,2.5
				C250.3,404.9,252,405.6,253.8,405.6L253.8,405.6z M253.8,395.1v-3.5c-1.8,0-3.5,0.8-4.7,1.9l2.5,2.5
				C252.2,395.5,252.9,395.1,253.8,395.1L253.8,395.1z M248.1,392.5l0.9,0.9c1.3-1.2,3-2,5-2c1.9,0,3.7,0.8,5,2l0.9-0.9
				c-1.5-1.5-3.6-2.4-5.8-2.4C251.7,390.2,249.6,391.1,248.1,392.5L248.1,392.5z M259.1,403.6l0.9,0.9c1.5-1.5,2.4-3.6,2.4-5.8
				s-0.9-4.3-2.4-5.8l-0.9,0.9c1.2,1.3,2,3,2,5C261.1,400.5,260.4,402.3,259.1,403.6L259.1,403.6z M259.8,404.7l-0.9-0.9
				c-1.3,1.2-3,2-5,2c-1.9,0-3.7-0.8-5-2l-0.9,0.9c1.5,1.5,3.6,2.4,5.8,2.4C256.2,407.1,258.3,406.2,259.8,404.7L259.8,404.7z
				 M248.7,393.7l-0.9-0.9c-1.4,1.5-2.4,3.6-2.4,5.8s0.9,4.3,2.4,5.8l0.9-0.9c-1.2-1.3-2-3-2-5S247.5,395,248.7,393.7z"/>
			<path class="st6" d="M229.9,397.5c1.1-0.2,2.2-0.1,3.2,0.2l0.8-1.7c0.9,0.3,1.7,0.7,2.5,1.2l-0.8,1.7c0.9,0.6,1.6,1.5,2.2,2.4
				l1.8-0.6c0.2,0.4,0.4,0.8,0.6,1.3c0.2,0.5,0.3,0.9,0.4,1.4l-1.8,0.6c0.2,1.1,0.1,2.2-0.2,3.2l1.7,0.8c-0.3,0.9-0.7,1.7-1.2,2.5
				l-1.7-0.8c-0.6,0.9-1.4,1.6-2.4,2.2l0.6,1.8c-0.4,0.2-0.8,0.4-1.3,0.6c-0.4,0.2-0.9,0.3-1.4,0.4l-0.6-1.8
				c-1.1,0.2-2.2,0.1-3.2-0.2l-0.8,1.7c-0.9-0.3-1.7-0.7-2.5-1.2l0.8-1.7c-0.9-0.6-1.6-1.5-2.2-2.4l-1.8,0.6
				c-0.2-0.4-0.4-0.8-0.6-1.3c-0.2-0.5-0.3-0.9-0.4-1.4l1.8-0.6c-0.2-1.1-0.1-2.2,0.2-3.2l-1.7-0.8c0.3-0.9,0.7-1.7,1.2-2.5l1.7,0.8
				c0.6-0.9,1.4-1.6,2.4-2.2l-0.6-1.8c0.4-0.2,0.8-0.4,1.3-0.6c0.4-0.2,0.9-0.3,1.4-0.4L229.9,397.5L229.9,397.5z M229.5,400.6
				c-2.5,0.9-3.8,3.6-2.9,6.1s3.6,3.8,6.1,3c2.5-0.9,3.8-3.6,2.9-6.1S232,399.8,229.5,400.6z"/>
			<path class="st6" d="M221.9,390.5c0.4,0.1,0.7,0.2,1,0.4l0.7-0.7c0.5,0.4,1,0.8,1.4,1.4l-0.7,0.7c0.2,0.3,0.3,0.6,0.4,1h1
				c0.1,0.3,0.1,0.6,0.1,0.9c0,0.3,0,0.7-0.1,1l-1,0c-0.1,0.4-0.2,0.7-0.4,1l0.7,0.7c-0.4,0.5-0.8,1-1.4,1.4l-0.7-0.7
				c-0.3,0.2-0.6,0.3-1,0.4v1c-0.3,0.1-0.6,0.1-1,0.1s-0.6,0-1-0.1v-1c-0.4-0.1-0.7-0.2-1-0.4l-0.7,0.7c-0.5-0.4-1-0.8-1.4-1.4
				l0.7-0.7c-0.2-0.3-0.3-0.6-0.4-1h-1c-0.1-0.3-0.1-0.6-0.1-0.9c0-0.3,0-0.7,0.1-1l1,0c0.1-0.4,0.2-0.7,0.4-1l-0.7-0.7
				c0.4-0.5,0.8-1,1.4-1.4l0.7,0.7c0.3-0.2,0.6-0.3,1-0.4v-1c0.3-0.1,0.6-0.1,1-0.1s0.6,0,1,0.1V390.5L221.9,390.5z M221,391.9
				c-1.3,0-2.4,1.1-2.4,2.4s1.1,2.4,2.4,2.4s2.4-1.1,2.4-2.4C223.4,393,222.3,391.9,221,391.9L221,391.9z M221,392.2
				c-1.2,0-2.1,0.9-2.1,2.1s0.9,2.1,2.1,2.1s2.1-0.9,2.1-2.1C223.1,393.1,222.1,392.2,221,392.2L221,392.2z M221,391.7
				c-1.4,0-2.5,1.1-2.5,2.5c0,1.4,1.1,2.5,2.5,2.5c1.4,0,2.5-1.1,2.5-2.5C223.5,392.9,222.4,391.7,221,391.7z"/>
		</g>
		<path class="st6" d="M221.4,415.6v0.9c0,1-0.9,1.9-1.9,1.9c-1,0-1.9-0.8-1.9-1.9v-0.9c-1.5,0.3-2.9,0.9-4.1,1.7l0.6,0.6
			c0.7,0.7,0.7,1.9,0,2.7s-1.9,0.7-2.7,0l-0.6-0.6c-0.9,1.2-1.4,2.7-1.7,4.1h0.9c1,0,1.9,0.9,1.9,1.9c0,1-0.9,1.9-1.9,1.9h-0.9
			c0.3,1.5,0.9,2.9,1.7,4.1l0.6-0.6c0.7-0.7,1.9-0.7,2.7,0c0.7,0.7,0.7,1.9,0,2.7l-0.6,0.6c1.2,0.9,2.7,1.5,4.1,1.7v-0.9
			c0-1,0.9-1.9,1.9-1.9c1,0,1.9,0.9,1.9,1.9v0.9c1.5-0.3,2.9-0.9,4.1-1.7l-0.6-0.6c-0.7-0.7-0.7-1.9,0-2.7s1.9-0.7,2.7,0l0.6,0.6
			c0.9-1.2,1.4-2.7,1.7-4.1H229c-1,0-1.9-0.8-1.9-1.9s0.9-1.9,1.9-1.9h0.9c-0.3-1.5-0.9-2.9-1.7-4.1l-0.6,0.6
			c-0.7,0.7-1.9,0.7-2.7,0c-0.7-0.7-0.7-1.9,0-2.7l0.6-0.6C224.3,416.5,222.9,415.9,221.4,415.6L221.4,415.6z M219.5,420.3
			c3.2,0,5.8,2.6,5.8,5.8c0,3.2-2.6,5.8-5.8,5.8c-3.2,0-5.8-2.6-5.8-5.8C213.8,422.8,216.3,420.3,219.5,420.3L219.5,420.3z
			 M227.3,429.2c-0.2,0.5-0.9,0.8-1.4,0.6s-0.8-0.9-0.6-1.4s0.9-0.8,1.4-0.6C227.3,428.1,227.5,428.7,227.3,429.2L227.3,429.2z
			 M213.7,423.6c-0.2,0.5-0.9,0.8-1.4,0.6c-0.6-0.2-0.8-0.9-0.6-1.4c0.2-0.5,0.9-0.8,1.4-0.6C213.6,422.4,213.9,423,213.7,423.6
			L213.7,423.6z M227.3,422.8c0.2,0.5,0,1.2-0.6,1.4s-1.2,0-1.4-0.6s0-1.2,0.6-1.4C226.4,422,227.1,422.2,227.3,422.8L227.3,422.8z
			 M213.7,428.4c0.2,0.5,0,1.2-0.6,1.4s-1.2,0-1.4-0.6s0-1.2,0.6-1.4C212.8,427.6,213.5,427.9,213.7,428.4L213.7,428.4z
			 M222.7,418.2c0.6,0.2,0.8,0.9,0.6,1.4c-0.2,0.5-0.9,0.8-1.4,0.6s-0.8-0.9-0.6-1.4C221.5,418.2,222.2,418,222.7,418.2L222.7,418.2
			z M217.1,431.8c0.6,0.2,0.8,0.9,0.6,1.4c-0.2,0.5-0.9,0.8-1.4,0.6s-0.8-0.9-0.6-1.4C215.9,431.9,216.5,431.6,217.1,431.8
			L217.1,431.8z M216.3,418.2c0.6-0.2,1.2,0,1.4,0.6s0,1.2-0.6,1.4s-1.2,0-1.4-0.6C215.4,419.1,215.7,418.4,216.3,418.2L216.3,418.2
			z M221.9,431.8c0.6-0.2,1.2,0,1.4,0.6s0,1.2-0.6,1.4s-1.2,0-1.4-0.6S221.4,432,221.9,431.8z"/>
		<path class="st6" d="M276.6,389.6l-0.1,1.2c-0.2,0-0.4,0-0.6,0l-0.2-1.2l-0.4,0l0.1,1.2c-0.2,0-0.3,0.1-0.5,0.1l-0.4-1.2l-0.4,0.1
			l0.2,1.2c-0.2,0.1-0.4,0.1-0.6,0.2l-0.5-1.1l-0.4,0.1l0.4,1.2c-0.1,0.1-0.3,0.1-0.5,0.2l-0.7-1l-0.3,0.2l0.5,1.1
			c-0.2,0.1-0.4,0.2-0.5,0.4l-0.8-0.9l-0.3,0.2l0.7,1c-0.1,0.1-0.3,0.2-0.4,0.3l-0.9-0.8l-0.3,0.3l0.8,0.9c-0.1,0.1-0.3,0.3-0.4,0.5
			l-1-0.7l-0.2,0.3l0.9,0.8c-0.1,0.1-0.2,0.3-0.3,0.4l-1.1-0.5l-0.2,0.3l1,0.7c-0.1,0.2-0.2,0.4-0.3,0.5l-1.2-0.4l-0.1,0.4l1.1,0.5
			c-0.1,0.2-0.1,0.3-0.2,0.5l-1.2-0.2l-0.1,0.4l1.2,0.4c0,0.2-0.1,0.4-0.1,0.6l-1.2-0.1l0,0.4l1.2,0.2c0,0.2,0,0.3,0,0.5l-1.2,0.1
			v0.4l1.2,0.1c0,0.2,0,0.4,0,0.6l-1.2,0.2l0,0.4l1.2-0.1c0,0.2,0.1,0.3,0.1,0.5l-1.2,0.4l0.1,0.4l1.2-0.2c0.1,0.2,0.1,0.4,0.2,0.6
			l-1.1,0.5l0.1,0.4l1.2-0.4c0.1,0.1,0.1,0.3,0.2,0.5l-1,0.7l0.2,0.3l1.1-0.5c0.1,0.2,0.2,0.4,0.3,0.5l-0.9,0.8l0.2,0.3l1-0.7
			c0.1,0.1,0.2,0.3,0.3,0.4l-0.8,0.9l0.3,0.3l0.9-0.8c0.1,0.1,0.3,0.3,0.5,0.4l-0.7,1l0.3,0.2l0.8-0.9c0.1,0.1,0.3,0.2,0.4,0.3
			l-0.5,1.1l0.3,0.2l0.7-1c0.2,0.1,0.4,0.2,0.6,0.3l-0.4,1.2l0.4,0.1l0.5-1.1c0.2,0.1,0.3,0.1,0.5,0.2l-0.2,1.2l0.4,0.1l0.4-1.2
			c0.2,0,0.4,0.1,0.6,0.1l-0.1,1.2l0.4,0l0.2-1.2c0.2,0,0.3,0,0.5,0l0.1,1.2h0.4l0.1-1.2c0.2,0,0.4,0,0.6,0l0.2,1.2l0.4,0l-0.1-1.2
			c0.2,0,0.3-0.1,0.5-0.1l0.4,1.2l0.4-0.1l-0.2-1.2c0.2-0.1,0.4-0.1,0.6-0.2l0.5,1.1l0.4-0.1l-0.4-1.2c0.1-0.1,0.3-0.1,0.5-0.2
			l0.7,1l0.3-0.2l-0.5-1.1c0.2-0.1,0.4-0.2,0.5-0.3l0.8,0.9l0.3-0.2l-0.7-1c0.1-0.1,0.3-0.2,0.4-0.3l0.9,0.8l0.3-0.3L283,405
			c0.1-0.1,0.3-0.3,0.4-0.5l1,0.7l0.2-0.3l-0.9-0.8c0.1-0.1,0.2-0.3,0.3-0.4l1.1,0.5l0.2-0.3l-1-0.7c0.1-0.2,0.2-0.4,0.3-0.5
			l1.2,0.4l0.1-0.4l-1.1-0.5c0.1-0.2,0.1-0.3,0.2-0.5l1.2,0.2l0.1-0.4l-1.2-0.4c0-0.2,0.1-0.4,0.1-0.6l1.2,0.1l0-0.4l-1.2-0.2
			c0-0.2,0-0.3,0-0.5l1.2-0.1v-0.4l-1.2-0.1c0-0.2,0-0.4,0-0.6l1.2-0.2l0-0.4l-1.2,0.1c0-0.2-0.1-0.3-0.1-0.5l1.2-0.4l-0.1-0.4
			l-1.2,0.2c-0.1-0.2-0.1-0.4-0.2-0.6l1.1-0.5l-0.1-0.4l-1.2,0.4c-0.1-0.1-0.1-0.3-0.2-0.5l1-0.7l-0.2-0.3l-1.1,0.5
			c-0.1-0.2-0.2-0.4-0.3-0.5l0.9-0.8l-0.2-0.3l-1,0.7c-0.1-0.1-0.2-0.3-0.3-0.4l0.8-0.9l-0.3-0.3l-0.9,0.8c-0.1-0.1-0.3-0.3-0.5-0.4
			l0.7-1l-0.3-0.2l-0.8,0.9c-0.1-0.1-0.3-0.2-0.4-0.3l0.5-1.1l-0.3-0.2l-0.7,1c-0.2-0.1-0.4-0.2-0.5-0.3l0.4-1.2l-0.4-0.1l-0.5,1.1
			c-0.2-0.1-0.3-0.1-0.5-0.2l0.2-1.2l-0.4-0.1l-0.4,1.2c-0.2,0-0.4-0.1-0.6-0.1l0.1-1.2l-0.4,0l-0.2,1.2c-0.2,0-0.3,0-0.5,0
			l-0.1-1.2L276.6,389.6L276.6,389.6z M276.8,394c0.4,0,0.7,0.3,0.7,0.7c0,0.4-0.3,0.7-0.7,0.7c-0.4,0-0.7-0.3-0.7-0.7
			C276.1,394.3,276.4,394,276.8,394L276.8,394z M281.4,398.6c0.4,0,0.7,0.3,0.7,0.7c0,0.4-0.3,0.7-0.7,0.7c-0.4,0-0.7-0.3-0.7-0.7
			C280.7,398.9,281,398.6,281.4,398.6L281.4,398.6z M272.2,398.6c0.4,0,0.7,0.3,0.7,0.7c0,0.4-0.3,0.7-0.7,0.7
			c-0.4,0-0.7-0.3-0.7-0.7C271.5,398.9,271.9,398.6,272.2,398.6L272.2,398.6z M276.8,403.1c0.4,0,0.7,0.3,0.7,0.7
			c0,0.4-0.3,0.7-0.7,0.7c-0.4,0-0.7-0.3-0.7-0.7S276.4,403.1,276.8,403.1L276.8,403.1z M276.8,393.1c-0.7,0-1.3,0.5-1.5,1.1
			c-0.6,0.2-1.1,0.4-1.6,0.8l-0.8-0.8c1.1-0.8,2.4-1.3,3.9-1.3s2.8,0.5,3.9,1.3l-0.8,0.8c-0.5-0.4-1-0.6-1.6-0.8
			C278.1,393.6,277.5,393.1,276.8,393.1L276.8,393.1z M278.2,395.1c0.4,0.1,0.7,0.3,1,0.5l-1.1,1.1c-0.4-0.2-0.9-0.4-1.4-0.4
			c-0.5,0-1,0.1-1.4,0.4l-1.1-1.1c0.3-0.2,0.6-0.4,1-0.5c0.2,0.6,0.8,1.1,1.5,1.1C277.5,396.2,278,395.7,278.2,395.1L278.2,395.1z
			 M281.7,397.7c-0.2-0.6-0.4-1.1-0.8-1.5l0.8-0.8c0.8,1.1,1.3,2.4,1.3,3.9s-0.5,2.8-1.3,3.9l-0.8-0.8c0.4-0.5,0.6-1,0.8-1.6
			c0.6-0.2,1.1-0.8,1.1-1.5C282.9,398.5,282.4,397.9,281.7,397.7L281.7,397.7z M280.9,400.7c-0.1,0.4-0.3,0.7-0.5,1l-1.1-1.1
			c0.2-0.4,0.4-0.9,0.4-1.4s-0.1-1-0.4-1.4l1.1-1.1c0.2,0.3,0.4,0.6,0.5,1c-0.6,0.2-1.1,0.8-1.1,1.5
			C279.8,399.9,280.3,400.5,280.9,400.7L280.9,400.7z M272.7,397.8c0.1-0.4,0.3-0.7,0.5-1l1.1,1.1c-0.2,0.4-0.4,0.9-0.4,1.4
			c0,0.5,0.1,1,0.4,1.4l-1.1,1.1c-0.2-0.3-0.4-0.7-0.5-1c0.6-0.2,1.1-0.8,1.1-1.5C273.7,398.5,273.3,398,272.7,397.8L272.7,397.8z
			 M271.8,400.7c0.2,0.6,0.4,1.1,0.8,1.6l-0.8,0.8c-0.8-1.1-1.3-2.4-1.3-3.9s0.5-2.8,1.3-3.9l0.8,0.8c-0.3,0.5-0.6,1-0.8,1.5
			c-0.7,0.2-1.1,0.8-1.1,1.5C270.7,399.9,271.2,400.5,271.8,400.7L271.8,400.7z M276.8,402.3c-0.7,0-1.3,0.5-1.5,1.1
			c-0.4-0.1-0.7-0.3-1-0.5l1.1-1.1c0.4,0.2,0.9,0.4,1.4,0.4c0.5,0,1-0.1,1.4-0.4l1.1,1.1c-0.3,0.2-0.7,0.4-1,0.5
			C278,402.7,277.5,402.3,276.8,402.3L276.8,402.3z M278.2,404.2c0.6-0.2,1.1-0.4,1.6-0.8l0.8,0.8c-1.1,0.8-2.4,1.3-3.9,1.3
			s-2.8-0.5-3.9-1.3l0.8-0.8c0.5,0.3,1,0.6,1.5,0.8c0.2,0.7,0.8,1.1,1.5,1.1C277.5,405.3,278.1,404.9,278.2,404.2L278.2,404.2z
			 M276.8,398.1c0.6,0,1.1,0.5,1.1,1.1c0,0.6-0.5,1.1-1.1,1.1c-0.6,0-1.1-0.5-1.1-1.1S276.2,398.1,276.8,398.1z"/>
		<path class="st6" d="M205.5,393c1.1,0.3,2.1,0.7,3,1.2l2.2-2.2c1.6,1.1,2.9,2.4,4,4l-2.2,2.2c0.5,0.9,0.9,1.9,1.2,2.9l3.1,0
			c0.2,0.9,0.3,1.8,0.3,2.8c0,1-0.1,2-0.3,2.9l-3.1,0c-0.3,1-0.7,2-1.2,2.9l2.2,2.2c-1.1,1.6-2.4,2.9-4,4l-2.2-2.2
			c-0.9,0.5-1.9,0.9-2.9,1.2v3.1c-0.9,0.2-1.9,0.3-2.8,0.3s-1.9-0.1-2.8-0.3v-3.1c-1.1-0.3-2.1-0.7-3-1.2l-2.2,2.2
			c-1.6-1.1-2.9-2.4-4-4l2.2-2.2c-0.5-0.9-0.9-1.9-1.2-2.9l-3.1,0c-0.2-0.9-0.3-1.8-0.3-2.8c0-1,0.1-2,0.3-2.9l3.1,0
			c0.3-1,0.7-2,1.2-2.9l-2.2-2.2c1.1-1.6,2.4-2.9,4-4l2.2,2.2c0.9-0.5,1.9-0.9,2.9-1.2v-3.1c0.9-0.2,1.9-0.3,2.8-0.3
			s1.9,0.1,2.8,0.3V393L205.5,393z M206.8,400.8l-1.8,1.8c0.2,0.4,0.4,0.9,0.4,1.3c0,0.5-0.1,0.9-0.4,1.3l1.8,1.8
			c0.7-0.9,1.1-2,1.1-3.1C207.9,402.8,207.5,401.7,206.8,400.8L206.8,400.8z M201.4,406.3l-1.8,1.8c0.9,0.7,1.9,1,3.1,1
			s2.2-0.4,3.1-1l-1.8-1.8c-0.4,0.2-0.9,0.4-1.3,0.4C202.2,406.6,201.8,406.5,201.4,406.3L201.4,406.3z M198.6,407.1l1.8-1.8
			c-0.2-0.4-0.4-0.9-0.4-1.3c0-0.5,0.1-0.9,0.4-1.3l-1.8-1.8c-0.7,0.9-1.1,2-1.1,3.1S197.9,406.2,198.6,407.1L198.6,407.1z
			 M204,401.6l1.8-1.8c-0.9-0.7-1.9-1-3.1-1s-2.2,0.4-3.1,1l1.8,1.8c0.4-0.2,0.9-0.4,1.3-0.4C203.2,401.3,203.6,401.4,204,401.6
			L204,401.6z M202.7,394.2c-2.7,0-5.1,1.1-6.9,2.8c-1.8,1.8-2.8,4.2-2.8,6.9s1.1,5.1,2.8,6.9c1.8,1.8,4.2,2.8,6.9,2.8
			c2.7,0,5.1-1.1,6.9-2.8c1.8-1.8,2.8-4.2,2.8-6.9s-1.1-5.1-2.8-6.9C207.8,395.3,205.4,394.2,202.7,394.2L202.7,394.2z M208.8,397.9
			c-1.6-1.5-3.7-2.5-6.1-2.5s-4.5,1-6.1,2.5c-1.6,1.5-2.5,3.7-2.5,6.1s1,4.5,2.5,6.1c1.6,1.5,3.7,2.5,6.1,2.5s4.5-1,6.1-2.5
			c1.6-1.5,2.5-3.7,2.5-6.1C211.3,401.6,210.3,399.4,208.8,397.9L208.8,397.9z M202.7,396.9c-3.9,0-7,3.1-7,7s3.1,7,7,7s7-3.1,7-7
			C209.7,400.1,206.6,396.9,202.7,396.9L202.7,396.9z M202.7,396.5c-4.1,0-7.5,3.4-7.5,7.5c0,4.1,3.4,7.5,7.5,7.5
			c4.1,0,7.5-3.4,7.5-7.5C210.2,399.8,206.8,396.5,202.7,396.5z"/>
	</g>
	<path class="st4" d="M112.2,90.7L112.2,90.7c-2.2,1.5-2.8,4.6-1.3,6.9l32.4,47.5c1.5,2.2,4.6,2.8,6.9,1.3l0,0
		c2.2-1.5,2.8-4.6,1.3-6.9L119.1,92C117.6,89.8,114.5,89.2,112.2,90.7z"/>
	<path class="st4" d="M22,202.6L22,202.6c-1,2.5,0.3,5.4,2.8,6.4l53.5,20.9c2.5,1,5.4-0.3,6.4-2.8l0,0c1-2.5-0.3-5.4-2.8-6.4
		l-53.5-20.9C25.9,198.8,23,200,22,202.6z"/>
	<path class="st4" d="M8.3,334.1L8.3,334.1c0.5,2.7,3.1,4.5,5.7,4L70.6,328c2.7-0.5,4.5-3.1,4-5.7l0,0c-0.5-2.7-3.1-4.5-5.7-4
		l-56.5,10.1C9.6,328.9,7.8,331.4,8.3,334.1z"/>
	<path class="st4" d="M68.5,456.8L68.5,456.8c1.8,2,5,2.1,7,0.3l42.2-39c2-1.9,2.1-5,0.3-7l0,0c-1.8-2-5-2.1-7-0.3l-42.2,39
		C66.8,451.7,66.6,454.8,68.5,456.8z"/>
	<g>
		<path class="st0" d="M249.6,49.2L249.6,49.2c2.7,0,4.9,2.2,4.9,4.9v57.5c0,2.7-2.2,4.9-4.9,4.9l0,0c-2.7,0-4.9-2.2-4.9-4.9V54.2
			C244.7,51.5,246.9,49.2,249.6,49.2z"/>
		<path class="st0" d="M387,90.7L387,90.7c2.2,1.5,2.8,4.6,1.3,6.9l-32.4,47.5c-1.5,2.2-4.6,2.8-6.9,1.3l0,0
			c-2.2-1.5-2.8-4.6-1.3-6.9L380.1,92C381.6,89.8,384.7,89.2,387,90.7z"/>
		<path class="st0" d="M477.2,202.6L477.2,202.6c1,2.5-0.3,5.4-2.8,6.4l-53.5,20.9c-2.5,1-5.4-0.3-6.4-2.8l0,0
			c-1-2.5,0.3-5.4,2.8-6.4l53.5-20.9C473.3,198.8,476.2,200,477.2,202.6z"/>
		<path class="st0" d="M490.9,334.1L490.9,334.1c-0.5,2.7-3.1,4.5-5.7,4L428.6,328c-2.7-0.5-4.5-3.1-4-5.7l0,0
			c0.5-2.7,3.1-4.5,5.7-4l56.6,10.1C489.6,328.9,491.4,331.4,490.9,334.1z"/>
		<path class="st0" d="M430.7,456.8L430.7,456.8c-1.9,2-5,2.1-7,0.3l-42.2-39c-2-1.9-2.1-5-0.3-7l0,0c1.9-2,5-2.1,7-0.3l42.2,39
			C432.5,451.7,432.6,454.8,430.7,456.8z"/>
	</g>
</g>
</svg>
