<?xml version="1.0" encoding="utf-8"?>
<!-- Generator: Adobe Illustrator 25.1.0, SVG Export Plug-In . SVG Version: 6.00 Build 0)  -->
<svg version="1.1" id="Capa_1" xmlns="http://www.w3.org/2000/svg" xmlns:xlink="http://www.w3.org/1999/xlink" x="0px" y="0px"
	 viewBox="0 0 2122 2122" style="enable-background:new 0 0 2122 2122;" xml:space="preserve">
<style type="text/css">
	.st0{fill:#9EABD3;}
	.st1{fill:#561136;}
	.st2{fill:#152035;}
	.st3{fill:#E59375;}
	.st4{fill:#1A2652;}
	.st5{fill:#F7A483;}
	.st6{fill:#E1876F;}
	.st7{fill:#1F2732;}
	.st8{fill:#6652A2;}
	.st9{fill:#171F29;}
	.st10{fill:#2B3B6F;}
	.st11{fill:#F8A07D;}
	.st12{fill:#E98B6F;}
	.st13{fill:#3C2415;}
	.st14{fill:#FFFFFF;}
	.st15{enable-background:new    ;}
	.st16{fill:#0093C6;}
	.st17{fill:#3DAFE4;}
	.st18{fill:#80BBE6;}
	.st19{fill:#7C294B;}
	.st20{fill:#A1426F;}
	.st21{fill:#CC4E7E;}
	.st22{fill:#17181C;}
	.st23{fill:#104473;}
	.st24{fill:#065099;}
	.st25{fill:#872952;}
	.st26{fill:#271000;}
	.st27{fill:#394472;}
	.st28{fill:#424888;}
	.st29{fill:#5860AB;}
	.st30{fill:#6174B8;}
	.st31{fill:#053B6B;}
	.st32{fill:#007EA3;}
	.st33{fill:#040308;}
	.st34{fill:#30528B;}
	.st35{fill:#FFD47C;}
	.st36{fill:#3F1901;}
	.st37{fill:#004E89;}
	.st38{fill:#0061A2;}
	.st39{fill:#196EAB;}
	.st40{fill:#4F1531;}
	.st41{fill:#00468B;}
	.st42{fill:#0058A9;}
	.st43{fill:#340E08;}
	.st44{fill:#F4B78E;}
	.st45{fill:#F8B78F;}
	.st46{fill:#DD9D7E;}
	.st47{fill:#E6E7E8;}
</style>
<g>
	<g>
		<g>
			<g>
				<path class="st0" d="M1261.44,1263.95l-365.78-153.92l-285.35,192.55l151.51,63.75c-3.34,2.83-9.04,6.12-10.21,6.66
					c-5.31,2.42-12.1,4.22-18.69,5.44c-12.75,2.35-28.39,1.97-37.47,8.09c-14.19,9.58-3.02,26.97,24.91,39.43
					c0.81,0.36,1.64,0.72,2.47,1.07c29.74,12.51,65.68,14.67,80.29,4.81c11.86-8,2.74-20.72,9.82-30.02
					c0.58-0.77,6.67-5.95,11.83-8.99l151.32,63.68l118.07-79.66c-0.48-0.23-0.99-0.46-1.51-0.69c-5.83-2.6-14.21-5.4-15.54-5.69
					c-17.61-3.87-41.42,0.82-56.63-5.58c-18.64-8.3-14.84-27.12,8.1-42.6c23.19-15.65,57.17-21.95,75.9-14.08
					c11.62,5.18,11.16,13.33,15.67,20.01c2.36,3.51,5.83,7.14,10.46,10c0.56,0.34,2.66,1.4,5.33,2.59c2.24,1,4.87,2.09,7.32,2.91
					L1261.44,1263.95z"/>
			</g>
			<path class="st0" d="M873.2,1804.36c-9.22-6.24-25.14-5.84-38.08-8.22c-6.71-1.24-13.61-3.07-19.01-5.54
				c-1.17-0.54-6.98-3.88-10.37-6.76l153.99-64.8l-119.98-80.96c0.49-0.24,1.01-0.48,1.54-0.72c5.93-2.64,14.43-5.49,15.79-5.79
				c17.88-3.93,42.09,0.84,58.18-5.93c18.32-8.17,14.46-27.31-8.87-43.03c-23.57-15.91-58.11-22.32-77.71-14.06
				c-11.23,5.01-10.78,13.29-15.35,20.08c-2.41,3.58-5.94,7.27-10.65,10.17c-0.56,0.34-2.73,1.43-5.46,2.65
				c-2.26,1.01-4.92,2.1-7.39,2.94l-120.13-81.06l-371.78,156.44l290.03,195.7l153.82-64.72c5.22,3.09,11.41,8.34,12.01,9.13
				c7.19,9.46-2.08,22.38,9.97,30.52c14.86,10.02,51.38,7.82,81.61-4.89c0.85-0.36,1.69-0.72,2.51-1.09
				C876.26,1831.77,887.63,1814.1,873.2,1804.36z"/>
			<g>
				<path class="st0" d="M1160.77,1439.44l153.8-64.72c5.24,3.09,11.43,8.35,12.03,9.12c7.19,9.47-2.08,22.39,9.98,30.53
					c14.86,10.02,51.38,7.82,81.6-4.89c0.84-0.36,1.67-0.71,2.49-1.07c28.4-12.67,39.79-30.35,25.35-40.09
					c-9.23-6.22-25.13-5.83-38.09-8.22c-6.7-1.23-13.59-3.07-19-5.53c-1.18-0.54-6.97-3.89-10.37-6.76l153.99-64.79l290.04,195.71
					l-371.79,156.45l-119.99-80.97c0.47-0.24,0.97-0.46,1.49-0.69c5.93-2.64,14.48-5.51,15.84-5.81c17.89-3.93,42.1,0.85,57.56-5.66
					c18.94-8.44,15.08-27.57-8.23-43.31c-23.58-15.91-58.12-22.32-77.14-14.31c-11.81,5.26-11.35,13.54-15.92,20.33
					c-2.41,3.58-5.94,7.27-10.65,10.17c-0.56,0.33-2.73,1.43-5.47,2.64c-2.26,1.01-4.91,2.11-7.38,2.94L1160.77,1439.44z"/>
			</g>
			<g>
				<g>
					<path class="st0" d="M1656.2,1864.47l-151.33-63.67c-5.15,3.03-11.23,8.21-11.82,8.98c-7.07,9.31,2.05,22.02-9.81,30.03
						c-14.61,9.86-50.56,7.7-80.29-4.81c-0.84-0.35-1.66-0.71-2.47-1.07c-27.93-12.46-39.12-29.85-24.93-39.43
						c9.08-6.13,24.73-5.73,37.46-8.09c6.6-1.22,13.39-3.02,18.69-5.45c1.16-0.53,6.87-3.83,10.21-6.65l-151.5-63.76l-118.18,79.76
						c-2.45-0.82-5.08-1.91-7.31-2.91c-2.67-1.19-4.77-2.25-5.32-2.59c-4.64-2.86-8.11-6.49-10.48-10
						c-4.5-6.69-4.05-14.83-15.1-19.76c-19.29-8.12-53.27-1.82-76.47,13.83c-22.94,15.48-26.73,34.3-8.71,42.34
						c15.83,6.67,39.64,1.96,57.23,5.84c1.34,0.29,9.7,3.09,15.53,5.69c0.53,0.24,1.04,0.47,1.52,0.7l-118.06,79.65l365.79,153.92
						L1656.2,1864.47z"/>
				</g>
			</g>
		</g>
	</g>
	<g>
		<g>
			<path class="st0" d="M795.71,1234.9c0,51.34-93.54,92.96-208.93,92.96c-115.39,0-208.93-41.62-208.93-92.96
				c0-51.35,93.54-92.96,208.93-92.96C702.17,1141.94,795.71,1183.55,795.71,1234.9z"/>
			<g>
				<g>
					<polygon class="st1" points="643.02,1228.67 646.45,1228.04 649.88,1199.26 640.88,1188.61 					"/>
					<g>
						<polygon class="st2" points="638.89,1226.33 643.02,1228.67 642.38,1181.58 635.1,1179.92 						"/>
						<g>
							<path class="st3" d="M670.56,1167.06l7.64,25.25c0,0,10.41,24.32,18.98,33.92c0,0,15.49,21.23-13.49,19.81
								c0,0-30.9-1.65-30.43-21.47c0.4-17.05-15.26-38.21-15.26-38.21c-5.76-9.97,0.07-18.07,2.02-20.35l5.36-6.12l25.99-4.54
								L670.56,1167.06z"/>
							<path class="st2" d="M698.86,1234.06c-12.77,2.39-25.71-2.36-33.65-10.19c-8.04-7.91-17.2-36.88-14.16-27.25
								c1.26,3.98-8.19-31.23-5.67-36.73l-5.36,6.12c-1.95,2.28-8.31,10.91-2.55,20.89c0,0,16.2,20.62,15.8,37.68
								c-0.47,19.82,30.43,21.47,30.43,21.47c17.39,0.85,18.76-6.46,17.08-12.44C700.17,1233.79,699.53,1233.94,698.86,1234.06z"/>
							<path class="st2" d="M713.43,1242.53c0,0,4.36,8.24-9.48,8.24c0,0-51.85-3.29-51.83-25.57l-0.02-17.94
								c0,0,4.08,25.61,36.1,25.67c0,0,14.22,0,6.87-9.06L713.43,1242.53z"/>
						</g>
					</g>
				</g>
				<g>
					<path class="st4" d="M629.96,42.05c0,19.06-15.45,34.51-34.51,34.51c-19.06,0-34.51-15.45-34.51-34.51
						c0-19.06,15.45-34.51,34.51-34.51C614.51,7.54,629.96,22.99,629.96,42.05z"/>
					<path class="st5" d="M620.19,201.09h67.96c-3.09-9.89-9.49-35.51,0.42-52.94l-68.67-45.09
						C619.91,103.06,632.12,178.72,620.19,201.09z"/>
					<path class="st6" d="M627.81,158.39c4.07,10.41,10.65,15.48,21.4,18.87c11.9,3.76,23.33,4.51,34.51,2.55
						c-1.08-10.43-0.51-22.24,4.85-31.67l-68.67-45.09c0,0,3.72,23.08,5.04,47.51C625.88,153.18,626.79,155.79,627.81,158.39z"/>
					<path class="st5" d="M701.64,163.89l3.61-10.23l8.8-30.07c1.22-4.77,1.79-11.3,0.15-15.96c-1.97-5.61-3.49-14.75-1.4-24.96
						c5.6-27.37-6.55-41.65-6.55-41.65c-15.97-25.16-53.67-25.04-53.67-25.04c-46.6,2.42-50.41,47.55-50.41,47.55
						c-7.48,30.03,16.46,54.95,16.5,55c3.03,3.15,3.35,8.27,4.82,12.17c1.56,4.17,3.92,8.06,6.84,11.41
						c6.56,7.51,15.11,14.71,23.89,19.18c8.33,4.24,24.47,8.59,35.93,8.47C694.91,169.7,699.58,169.76,701.64,163.89z"/>
					<g>
						<polygon class="st1" points="484.1,1234.08 487.56,1234.57 500.03,1208.42 494.93,1195.44 						"/>
						<g>
							<polygon class="st2" points="480.95,1230.54 484.1,1234.08 498.6,1189.26 492.25,1185.37 							"/>
							<g>
								<path class="st5" d="M529.96,1184.56c-0.69,21.04-2.25,44.67,6.24,64.58c0,0,7.86,25.08-19.13,14.44
									c0,0-28.74-11.47-21.94-30.1c5.85-16.02-2.2-41.09-2.2-41.09c-2.26-11.3,5.86-17.09,8.44-18.63l7.04-4.08h27.02
									L529.96,1184.56z"/>
								<path class="st2" d="M535.28,1257.1c-12.86-1.84-23.6-10.48-28.61-20.44c-5.08-10.08-4.47-40.45-4.67-30.36
									c-0.08,4.17,2.26-32.21,6.41-36.61l-7.04,4.08c-2.58,1.53-11.37,7.66-9.12,18.97c0,0,8.73,24.73,2.87,40.75
									c-6.8,18.62,21.94,30.1,21.94,30.1c16.2,6.38,19.84-0.1,20.17-6.3C536.59,1257.26,535.94,1257.19,535.28,1257.1z"/>
								<path class="st2" d="M546.35,1269.79c0,0,1.49,9.21-11.62,4.77c0,0-48.06-19.76-40.89-40.85l5.74-17.01
									c0,0-4.36,25.57,25.95,35.9c0,0,13.47,4.56,9.42-6.38L546.35,1269.79z"/>
							</g>
						</g>
					</g>
					<path class="st5" d="M559.8,870.12c-34.46,63.64-40.56,89.54-46.69,137.93c-3.58,28.15-2.39,146.7-6.08,164.38
						c-1.54,7.33,26.32,3.31,26.32,3.31c5.09-12.4,86.23-284.79,86.23-284.79s9.07-28.22,1.54-33.12
						C583.29,833.18,574.82,842.38,559.8,870.12z"/>
					<path class="st7" d="M534.19,1181.42c5.09-12.4,85.39-290.47,85.39-290.47s9.07-28.22,1.54-33.12
						c-37.83-24.65-46.3-15.45-61.32,12.29c-34.46,63.64-40.56,89.54-46.69,137.93c-3.58,28.15-9.38,142.61-13.07,160.29
						C500.03,1168.34,520.65,1192.9,534.19,1181.42z"/>
					<path class="st7" d="M714.5,409.9c0,0,26.48,112.1,22.93,124.34c-10.24,35.27-105.26,84.77-191.91,12.59
						c0,0,19.81-82.91,60.94-153.04C606.46,393.79,621.58,409.4,714.5,409.9z"/>
					<path class="st8" d="M701,182.12c0,0,34.67,67.02,50.14,103.77c-6.48,43.1-29.9,107.03-39.31,120.51
						c-20.62,29.54-114.9,3.17-114.9,3.17l-27.18-90.73c79.33-28.48,37.55-112.07,37.55-112.07l12.44-7.85
						c0,0,12.69,41.08,64.32,39.62c0,0,16.96-11.04,4.48-57.91C688.53,180.63,695.98,180.86,701,182.12z"/>
					<path class="st3" d="M614.71,564.43c0,0,9.13,180.84,42.58,278.1c4.98,14.5,62.16-4.77,62.16-4.77s28.85-155.6,27.12-220.07
						c-0.98-36.43-14.01-115-14.01-115S625.33,488.68,614.71,564.43z"/>
					<path class="st3" d="M658.93,841.88l60.51-4.12c0,0-37.19,308.71-40.55,321.69c0,0-26.02,9.41-25.49,1.93
						c1.26-18.03-20.44-156.57-21.1-184.93C631.24,930.89,633.03,902.11,658.93,841.88z"/>
					<path class="st9" d="M614.71,564.43c0,0,9.13,180.84,42.58,278.1c4.98,14.5,62.16-4.77,62.16-4.77s28.85-155.6,27.12-220.07
						c-0.98-36.43-14.01-115-14.01-115S625.33,488.68,614.71,564.43z"/>
					<path class="st9" d="M686.39,1161.38c6.14-11.92,33.06-323.62,33.06-323.62l-60.51,4.12c-25.91,60.23-27.7,89.01-26.63,134.57
						c0.66,28.37,14.4,166.91,13.13,184.93C645.44,1161.38,678.33,1177.04,686.39,1161.38z"/>
					<g>
						<g>
							<path class="st3" d="M810.47,401.65l-45.88-166.32c-16.52-44.49-41.16-45.58-41.16-45.58c-47.24,7.15-17,90.04-17,90.04
								l58.31,138.15"/>
						</g>
						<g>
							<g>
								<path class="st3" d="M943.42,525.91c-19.83-14.71-21.21-18.71-24.2-24.7c-12.93-25.68,20.05-20.05,28.1-16.93
									c4.62,1.8,3.24,13.21,16.02,29.28c0,0,21.31,16.98,27.19,16.87c0,0,5.85,1.74,5.22,6.05
									C995.74,536.48,977.94,543.74,943.42,525.91z"/>
							</g>
							<g>
								<g>
									<path class="st3" d="M780.53,382.45"/>
								</g>
								<g>
									<path class="st3" d="M806.91,391.98l134.35,101.64c3.71,18.52-4.78,19.85-4.78,19.85l-108.36-49.31
										c-46.4-20.08-62.55-43.19-62.55-43.19s-18.96-17.76,11.22-35.57C776.79,385.4,790.51,377.51,806.91,391.98z"/>
								</g>
							</g>
							<path class="st3" d="M943.5,483.13c0,0-5.88,11.37,9.48,10.64l16.25-8.96c0,0,4.89-1.75,3.93-6.33c0,0-1.38-2.74-6.41-0.97
								L943.5,483.13z"/>
						</g>
					</g>
					<path class="st5" d="M540.71,579.55c0,0,0.7,180.91,24.56,280.96c3.55,14.92,58.06,10.34,58.06,10.34s35.57-171.09,40.1-235.42
						c2.56-36.36,9.84-99.99,9.84-99.99S545.66,522.8,540.71,579.55z"/>
					<path class="st5" d="M567.1,228.52c-27.81,20.33-13.59,50.9-13.59,50.9l52.52,127.56c0,0,85.17,28.97,105.79-0.57
						c9.41-13.48,18.13-49.25,29.56-100.82c7.77-35.05,8.3-96.27-11.43-114.4c-11.38-10.46-48.2-10.25-48.48-11.49l-59.66,19.22
						L567.1,228.52z"/>
					<path class="st5" d="M679.55,396.56c5.04-0.91,32.28,9.84,32.28,9.84s19.61,83.59,20.73,96.29
						c1.11,12.7-86.29,78.49-183.93,41.04c0,0,49.3-116.3,56.51-140.61C613.41,375.2,679.55,396.56,679.55,396.56z"/>
					<path class="st8" d="M726.97,233.82c0,0,28.82,33.94,31.24,59.15c1.35,14.04-16.38,37.54-25.25,46.2
						C726.68,345.31,689.45,257.25,726.97,233.82z"/>
					<path class="st7" d="M572.54,516.03c0,0-34.43,7.65-31.32,70.76c3.03,61.63,115.24,74.44,129.65,12.35
						C686.36,532.3,633.81,493.12,572.54,516.03z"/>
					<path class="st10" d="M623.89,135.92c-0.24-21.28,0.3-19.97,0.3-19.97c0.5-6.22,12.7,7.19,12.45-0.92
						c-1.16-37.08,12.32-54.73,17.59-57.59c14.3-7.74,29.4-9.97,41.36-7.84c18.75,3.33,18.04,28.3,18.04,28.3
						c15.98-91.39-85.94-62.18-85.94-62.18c-49.64,13.04-44.52,59.81-44.52,59.81c-6.08,50.23,41.51,79.25,41.51,79.25
						L623.89,135.92z"/>
					<g>
						<g>
							<g>
								<g>
									<g>
										<g>
											<path class="st11" d="M627.15,128.68c-1.67,1.28-3.8,2.02-6.47,1.97c-7.22-0.1-13.21-6.86-13.38-15.07
												c-0.16-8.2,5.53-14.78,12.74-14.68c3.42,0.05,6.56,1.6,8.95,4.08c3.46,3.63,3.58,10.32,2.75,14.93
												C631.1,123.59,629.64,126.75,627.15,128.68z"/>
										</g>
									</g>
								</g>
							</g>
						</g>
						<g>
							<g>
								<path class="st12" d="M622.96,108.55c-0.42-4.31-9.15-0.2-7.83,2.24c0.77,1.4,2.3,2.42,3.5,3.4
									c1.64,1.34,2.45,2.57,2.68,4.72c0.03,0.24,0.08,0.99-0.17,1.16c-1.13,0.79-4.83-3.42-5.64-4.31
									c-1.59-1.75-1.82-4.73-1.05-6.89c0.81-2.3,2.32-3.38,4.78-3.23c1.96,0.11,3.96,0.25,3.84,2.68
									C623.07,108.36,622.99,108.76,622.96,108.55L622.96,108.55z"/>
							</g>
							<g>
								<path class="st12" d="M620.17,113.02c0.91-0.91,1.78-0.15,2.7,0.51c0.86,0.64,1.34,1.53,1.56,2.54
									c0.5,2.24,0.2,5.25-1.08,7.2c-1.04,1.57-2.79,2.54-4.68,2.49c-2.63-0.08-3.41-2.39-3.51-4.62c-0.03-0.59-0.08-1.99,0.5-2.37
									c0.64-0.4,1.08,0.57,1.5,1c0.59,0.55,1.45,0.77,2.23,0.84c1.5,0.12,2.96-0.64,3.9-1.75c0.16-0.2,0.32-0.43,0.4-0.67
									c0,1.45-0.08,1.77-0.23,0.97c-0.11-0.37-0.29-0.71-0.49-1.03c-0.61-1.01-1.64-1.69-2.32-2.65
									C620.33,115.05,619.71,113.49,620.17,113.02L620.17,113.02z"/>
							</g>
						</g>
					</g>
					<g>
						<path class="st13" d="M668.49,96.93c0.25,2.59-0.97,4.82-2.72,4.99c-1.75,0.17-3.38-1.78-3.62-4.37
							c-0.25-2.58,0.97-4.81,2.72-4.98C666.62,92.4,668.24,94.35,668.49,96.93z"/>
						<path class="st13" d="M704.35,92.1c0.09,2.59-1.25,4.75-3.01,4.81c-1.76,0.07-3.26-1.98-3.35-4.57
							c-0.09-2.59,1.25-4.75,3.01-4.81C702.75,87.46,704.25,89.51,704.35,92.1z"/>
						<path class="st10" d="M653.05,93.45c6.74-7.08,22.58-6.52,22.58-6.52s1.06-0.06,0.78-3.29c0,0-0.08-2.86-2.37-2.58
							C674.04,81.08,653.88,79.74,653.05,93.45z"/>
						<path class="st10" d="M713.45,79.91c-7.03-5.7-19.97-1.25-19.97-1.25c-2.28,0.33-1.61,3.1-1.61,3.1
							c0.57,3.19,1.61,2.96,1.61,2.96s10.7-3.3,19.08-1.35C712.86,82.22,713.18,81.08,713.45,79.91z"/>
						<g>
							<path class="st14" d="M699.81,129.68l-25.53,4.72c-1.34,0.25-1.88,1.04-1.15,1.76c0,0,7.35,7.35,15.62,5.8
								c8.28-1.55,12.41-11.05,12.41-11.05C701.53,130.08,700.91,129.6,699.81,129.68z"/>
						</g>
						<path class="st12" d="M681.48,121.64c13.38-0.97,14.11-4.47,14.11-4.47l-7.02-14.1C688.57,103.06,690.18,117.16,681.48,121.64
							z"/>
					</g>
					<path class="st7" d="M540.71,579.55c0,0,0.7,180.91,24.56,280.96c3.55,14.92,58.06,10.34,58.06,10.34s35.57-171.09,40.1-235.42
						c2.56-36.36,9.84-99.99,9.84-99.99S545.66,522.8,540.71,579.55z"/>
					<path class="st7" d="M714.5,409.9c0,0,26.48,112.1,22.93,124.34c-10.24,35.27-105.26,84.77-191.91,12.59
						c0,0,19.81-82.91,60.94-153.04C606.46,393.79,621.58,409.4,714.5,409.9z"/>
					<path class="st8" d="M596.92,409.57c0,0,96.96,29.88,117.58,0.33c9.41-13.48,30.15-80.91,36.64-124.01
						C735.66,249.14,701,182.12,701,182.12c-5.01-1.26-12.47-1.5-12.47-1.5c12.48,46.86-4.48,57.91-4.48,57.91
						c-51.63,1.47-64.32-39.62-64.32-39.62l-12.44,7.85c0,0,38.46,79.89-35.77,116.42C571.53,323.19,569.75,408.89,596.92,409.57z"
						/>
					<path class="st14" d="M627.5,130.18c0,2.43-1.98,4.41-4.42,4.41c-2.44,0-4.42-1.98-4.42-4.41c0-2.44,1.98-4.42,4.42-4.42
						C625.52,125.76,627.5,127.74,627.5,130.18z"/>
					<g>
						<path class="st5" d="M608.75,240.17c15.08,16.04,14.31,41.27-1.73,56.34c-16.04,15.09-66.43,43.85-66.9,21.84
							c-0.93-43.26,0.76-66.77,16.8-81.84C572.96,221.41,593.66,224.13,608.75,240.17z"/>
						<path class="st5" d="M610.55,276.74l-34.83-20.08l-35.01,21.9c0,0-20.49,130.54-12.94,160.42
							c8.04,31.83,22.66,8.38,29.58-0.32C557.35,438.66,614.49,302.11,610.55,276.74z"/>
						<path class="st5" d="M533.06,451.73c0,0,62.64,44.73,118.23,69.06c0,0,18.37-7.71,9.18-16.2
							c-15.59-14.42-83.78-79.71-99.52-94.15C533.06,400.9,533.06,451.73,533.06,451.73z"/>
						<g>
							<g>
								<path class="st5" d="M682.99,545.76c-22.66-9.8-24.92-13.38-29.21-18.51c-18.46-22.04,14.94-24.11,23.49-22.91
									c4.91,0.7,6.17,12.12,22.28,24.84c0,0,24.62,11.65,30.32,10.2c0,0,6.09,0.35,6.45,4.69
									C736.34,544.08,720.67,555.22,682.99,545.76z"/>
							</g>
							<path class="st5" d="M676.21,504.07c0,0-9.71,8.34,4.8,13.42l18.42-2.22c0,0,5.2,0.2,6.01-4.4c0,0-0.25-3.05-5.58-3.29
								L676.21,504.07z"/>
						</g>
					</g>
				</g>
			</g>
		</g>
		<g class="st15">
			<path class="st16" d="M1068.69,666.48c-0.27-0.07-0.54-0.12-0.82-0.18c-0.42-0.09-0.83-0.19-1.26-0.27
				c-0.3-0.06-0.61-0.11-0.92-0.16c-0.29-0.05-0.59-0.11-0.88-0.15l-0.63,71.29l-118.06,79.66l0.74-85.08l97.81-65.99
				c-1.43,0.17-2.88,0.37-4.34,0.61c-0.31,0.04-0.63,0.1-0.95,0.16c-0.55,0.1-1.11,0.2-1.67,0.3c-0.37,0.08-0.75,0.15-1.12,0.23
				c-0.54,0.11-1.08,0.22-1.62,0.34c-0.34,0.07-0.68,0.15-1.02,0.23c-0.85,0.2-1.71,0.4-2.57,0.61c-0.23,0.06-0.46,0.11-0.68,0.17
				c-1.06,0.27-2.11,0.57-3.17,0.88c-0.19,0.05-0.38,0.11-0.56,0.17c-1.46,0.43-2.91,0.89-4.36,1.38c-0.05,0.02-0.1,0.04-0.15,0.06
				c-1.46,0.5-2.9,1.03-4.34,1.59c-0.1,0.05-0.21,0.08-0.31,0.12c-1.63,0.64-3.24,1.32-4.83,2.04c-0.08,0.03-0.15,0.06-0.22,0.1
				c-1.61,0.73-3.2,1.5-4.76,2.31c-0.05,0.02-0.11,0.05-0.16,0.08c-1.58,0.81-3.13,1.68-4.65,2.57c-0.03,0.02-0.06,0.04-0.08,0.05
				c-1.54,0.91-3.05,1.86-4.51,2.85c-13.03,8.79-19.88,18.67-19.96,27.07c0.25-28.36,0.5-56.71,0.75-85.07
				c0.07-8.41,6.92-18.28,19.96-27.08c1.46-0.99,2.97-1.93,4.51-2.85c0.03-0.01,0.06-0.03,0.08-0.05c1.52-0.9,3.07-1.75,4.65-2.58
				c0.05-0.02,0.11-0.05,0.16-0.08c1.56-0.81,3.14-1.57,4.75-2.3c0.08-0.03,0.16-0.07,0.24-0.1c1.58-0.72,3.18-1.39,4.81-2.03
				c0.03-0.01,0.07-0.03,0.1-0.04c0.09-0.04,0.18-0.07,0.27-0.1c1.41-0.55,2.83-1.07,4.26-1.56c0.07-0.03,0.14-0.05,0.2-0.08
				c1.43-0.49,2.87-0.94,4.31-1.37c0.13-0.04,0.25-0.08,0.38-0.12c0.08-0.02,0.16-0.05,0.24-0.07c1.05-0.3,2.09-0.59,3.14-0.86
				c0.24-0.07,0.47-0.12,0.7-0.18c0.84-0.21,1.69-0.42,2.53-0.61c0.17-0.04,0.34-0.08,0.51-0.12c0.19-0.04,0.38-0.08,0.57-0.12
				c0.52-0.11,1.04-0.22,1.55-0.33c0.4-0.08,0.79-0.16,1.19-0.23c0.53-0.1,1.05-0.2,1.58-0.29c0.28-0.04,0.56-0.1,0.83-0.15
				c0.07-0.01,0.14-0.01,0.21-0.02c1.45-0.24,2.89-0.44,4.32-0.61c0.12-0.01,0.25-0.04,0.38-0.05c0.09-0.01,0.18-0.01,0.28-0.02
				c1.25-0.14,2.5-0.26,3.73-0.34c0.1-0.01,0.21-0.02,0.31-0.03c0.14-0.01,0.28-0.01,0.42-0.01c1.16-0.08,2.31-0.13,3.45-0.15
				c0.01-0.01,0.03-0.01,0.04-0.01c0.02,0,0.04,0,0.06,0c1.07-0.01,2.13-0.01,3.17,0.02c0.14,0,0.29,0,0.43,0
				c0.12,0.01,0.24,0.01,0.36,0.02c1.05,0.04,2.09,0.09,3.11,0.17c0.03,0.01,0.06,0.01,0.09,0.01c0.08,0.01,0.16,0.02,0.24,0.03
				c1.06,0.09,2.1,0.21,3.12,0.35c0.12,0.01,0.24,0.02,0.35,0.04c0.08,0.01,0.16,0.02,0.24,0.04c0.41,0.06,0.81,0.14,1.21,0.2
				c0.32,0.05,0.65,0.11,0.98,0.17c0.4,0.08,0.78,0.16,1.17,0.25c0.27,0.06,0.54,0.1,0.8,0.17c0.03,0.01,0.07,0.02,0.1,0.02
				c0.91,0.23,1.8,0.48,2.66,0.75c0.2,0.06,0.4,0.13,0.6,0.2c0.87,0.29,1.73,0.6,2.54,0.94c0.66,0.3,1.26,0.6,1.84,0.91
				c0.17,0.09,0.34,0.19,0.51,0.28c0.2,0.12,0.42,0.23,0.62,0.35c0.17,0.11,0.32,0.22,0.49,0.32c0.21,0.13,0.41,0.26,0.62,0.4
				c0.32,0.22,0.63,0.44,0.92,0.66c0.17,0.14,0.35,0.26,0.52,0.4c0.06,0.05,0.12,0.09,0.18,0.14c0.35,0.29,0.68,0.59,0.99,0.89
				c0.05,0.04,0.08,0.08,0.13,0.12c0.25,0.24,0.49,0.48,0.71,0.73v0.02h0v-0.02c0.07,0.08,0.13,0.16,0.2,0.23
				c0.11,0.13,0.22,0.25,0.32,0.38c0.22,0.26,0.43,0.53,0.64,0.8c0.09,0.13,0.19,0.25,0.28,0.38c0.04,0.06,0.1,0.13,0.14,0.19
				c0.1,0.14,0.18,0.29,0.27,0.42c0.17,0.26,0.35,0.53,0.51,0.8c0.12,0.2,0.23,0.39,0.34,0.59c0.15,0.27,0.3,0.54,0.45,0.82
				c0.04,0.08,0.09,0.16,0.13,0.24c0.05,0.1,0.09,0.19,0.13,0.28c0.24,0.48,0.47,0.95,0.69,1.43c0.03,0.08,0.07,0.16,0.11,0.24
				c0.29,0.65,0.57,1.31,0.85,1.96c0.18,0.42,0.37,0.85,0.55,1.27c0.08,0.19,0.17,0.39,0.26,0.57c0.25,0.56,0.51,1.12,0.79,1.67
				c0.14,0.28,0.29,0.55,0.44,0.82c0.08,0.15,0.16,0.3,0.24,0.45c0.24,0.42,0.5,0.84,0.78,1.26c0.18,0.26,0.37,0.53,0.56,0.79
				c0.26,0.37,0.54,0.74,0.84,1.11c0.12,0.16,0.25,0.32,0.38,0.48c0.39,0.49,0.81,0.98,1.25,1.46c0.03,0.03,0.05,0.06,0.08,0.09
				c0.46,0.5,0.95,0.99,1.45,1.47c0.15,0.14,0.3,0.28,0.45,0.41c0.37,0.35,0.75,0.69,1.15,1.03c0.19,0.16,0.38,0.32,0.58,0.48
				c0.4,0.32,0.81,0.64,1.24,0.96c0.19,0.14,0.37,0.28,0.56,0.41c0.62,0.44,1.26,0.87,1.92,1.28c0.03,0.02,0.08,0.05,0.12,0.07
				c0.06,0.03,0.12,0.07,0.2,0.11c0.04,0.01,0.09,0.05,0.13,0.06c0.09,0.05,0.18,0.1,0.29,0.16c0.06,0.03,0.13,0.07,0.2,0.1
				c0.11,0.05,0.22,0.11,0.34,0.17c0.08,0.04,0.16,0.08,0.24,0.12c0.13,0.07,0.25,0.13,0.4,0.2c0.1,0.05,0.22,0.1,0.32,0.16
				c0.14,0.07,0.27,0.14,0.42,0.2c0.16,0.08,0.33,0.16,0.51,0.24c0.1,0.05,0.2,0.09,0.31,0.14c0.19,0.09,0.39,0.18,0.59,0.27
				c0.1,0.05,0.21,0.1,0.32,0.15c0.31,0.14,0.63,0.28,0.96,0.43c2.24,1,4.87,2.08,7.32,2.91l118.17-79.75l-0.74,85.07l-118.18,79.75
				c-2.45-0.82-5.08-1.91-7.32-2.9c-0.33-0.15-0.66-0.3-0.97-0.44c-0.06-0.03-0.11-0.05-0.16-0.08c-0.25-0.12-0.5-0.24-0.74-0.35
				c-0.1-0.04-0.18-0.08-0.28-0.13c-0.19-0.08-0.37-0.17-0.55-0.26c-0.12-0.05-0.22-0.1-0.33-0.16c-0.14-0.07-0.28-0.14-0.41-0.2
				c-0.09-0.04-0.17-0.08-0.26-0.12c-0.13-0.07-0.27-0.14-0.39-0.2c-0.07-0.04-0.13-0.07-0.19-0.1c-0.12-0.06-0.24-0.12-0.34-0.17
				c-0.06-0.03-0.1-0.06-0.15-0.08c-0.09-0.05-0.19-0.1-0.26-0.14c-0.04-0.02-0.07-0.04-0.1-0.06c-0.06-0.03-0.13-0.06-0.17-0.09
				c-0.01-0.01-0.02-0.01-0.03-0.02c-0.66-0.41-1.3-0.84-1.91-1.28c-0.2-0.14-0.39-0.29-0.59-0.43c-0.42-0.31-0.82-0.62-1.21-0.94
				c-0.1-0.08-0.21-0.16-0.31-0.24c-0.1-0.08-0.18-0.17-0.29-0.25c-0.39-0.33-0.76-0.66-1.12-1c-0.16-0.15-0.32-0.29-0.47-0.45
				c-0.5-0.48-0.99-0.97-1.44-1.46c-0.01-0.01-0.01-0.02-0.01-0.02c-0.03-0.04-0.06-0.07-0.09-0.1c-0.44-0.47-0.84-0.95-1.23-1.43
				c-0.13-0.16-0.25-0.32-0.38-0.48c-0.29-0.37-0.57-0.75-0.85-1.13c-0.06-0.09-0.14-0.18-0.2-0.27c-0.12-0.17-0.24-0.34-0.35-0.51
				c-0.28-0.41-0.54-0.82-0.78-1.25c-0.11-0.2-0.22-0.39-0.32-0.59c-0.12-0.22-0.24-0.43-0.35-0.65c-0.01-0.01-0.01-0.02-0.01-0.03
				c-0.29-0.56-0.55-1.13-0.81-1.7c-0.07-0.16-0.14-0.32-0.21-0.48c-0.22-0.5-0.44-1.01-0.66-1.52c-0.25-0.58-0.5-1.17-0.76-1.75
				c-0.05-0.1-0.1-0.22-0.15-0.32c-0.21-0.45-0.42-0.91-0.65-1.36c-0.09-0.18-0.18-0.37-0.28-0.55c-0.14-0.26-0.28-0.53-0.44-0.79
				c-0.11-0.2-0.23-0.41-0.35-0.61c-0.16-0.27-0.34-0.53-0.51-0.8c-0.13-0.2-0.26-0.41-0.41-0.6c-0.09-0.13-0.19-0.26-0.29-0.39
				c-0.2-0.26-0.41-0.53-0.63-0.79c-0.11-0.13-0.22-0.26-0.34-0.39c-0.29-0.32-0.59-0.64-0.91-0.96c-0.05-0.04-0.08-0.08-0.13-0.13
				c-0.36-0.35-0.76-0.69-1.17-1.03c-0.16-0.13-0.34-0.26-0.51-0.39c-0.29-0.23-0.6-0.45-0.93-0.67c-0.2-0.14-0.41-0.27-0.62-0.41
				c-0.35-0.23-0.72-0.45-1.11-0.66c-0.17-0.09-0.34-0.19-0.51-0.28c-0.58-0.31-1.19-0.62-1.84-0.91c-0.82-0.35-1.67-0.65-2.54-0.94
				c-0.2-0.07-0.4-0.14-0.61-0.2C1070.5,666.95,1069.61,666.7,1068.69,666.48z"/>
			<path class="st17" d="M580.34,662.75l0.75-85.08l151.51,63.75l-0.62,70.8c0.05,0,0.1,0.01,0.15,0.01
				c0.33,0.04,0.65,0.08,0.98,0.11c1.21,0.14,2.41,0.26,3.6,0.35c0.12,0.01,0.24,0.02,0.36,0.03c0.88,0.07,1.74,0.13,2.6,0.17
				c0.32,0.02,0.65,0.03,0.97,0.05c0.65,0.03,1.3,0.06,1.94,0.08c0.24,0.01,0.48,0.01,0.72,0.01c1.52,0.04,3.03,0.05,4.49,0.02
				c0.2,0,0.39-0.01,0.59-0.01c1.23-0.03,2.43-0.08,3.62-0.15c0.09-0.01,0.18-0.02,0.28-0.02c1.11-0.08,2.18-0.18,3.25-0.29
				c0.27-0.03,0.53-0.06,0.8-0.09c0.9-0.1,1.8-0.23,2.66-0.37c0.1-0.02,0.21-0.03,0.32-0.05c0.94-0.16,1.85-0.34,2.75-0.54
				c0.23-0.05,0.46-0.1,0.68-0.15c0.84-0.2,1.66-0.41,2.45-0.64c0.11-0.03,0.24-0.06,0.35-0.09c0.17-0.05,0.33-0.11,0.49-0.16
				c0.43-0.14,0.87-0.27,1.28-0.41c0.22-0.08,0.43-0.16,0.64-0.24c0.36-0.14,0.71-0.26,1.06-0.41c0.2-0.08,0.39-0.17,0.58-0.24
				c0.34-0.15,0.67-0.3,1-0.45c0.18-0.09,0.37-0.17,0.55-0.26c0.34-0.17,0.67-0.35,0.99-0.52c0.15-0.08,0.3-0.17,0.45-0.25
				c0.46-0.26,0.9-0.54,1.33-0.82c5.69-3.84,6.55-8.76,6.69-13.87c0.01-1.38,0.02-2.76,0.04-4.14c0.04-4.2,0.32-8.36,3.1-12.01
				c0.58-0.77,6.67-5.95,11.83-8.99l151.32,63.67l-0.74,85.08L794.8,752.99c-5.15,3.03-11.24,8.21-11.82,8.98
				c-2.49,3.28-2.98,6.97-3.08,10.73c-0.01,1.38-0.03,2.75-0.04,4.13c-0.05,5.56-0.54,11-6.71,15.17c-0.42,0.29-0.87,0.56-1.32,0.82
				c-0.15,0.08-0.31,0.16-0.46,0.25c-0.32,0.17-0.64,0.35-0.97,0.51c-0.18,0.09-0.37,0.18-0.56,0.27c-0.32,0.15-0.66,0.3-1,0.45
				c-0.19,0.08-0.39,0.16-0.58,0.25c-0.11,0.04-0.21,0.09-0.32,0.14c-0.24,0.09-0.5,0.18-0.75,0.27c-0.21,0.08-0.42,0.16-0.63,0.24
				c-0.41,0.14-0.83,0.27-1.26,0.41c-0.18,0.05-0.35,0.11-0.53,0.17c-0.03,0.01-0.06,0.01-0.09,0.03c-0.07,0.01-0.15,0.03-0.22,0.05
				c-0.8,0.24-1.64,0.45-2.49,0.64c-0.12,0.03-0.24,0.06-0.36,0.09c-0.1,0.02-0.2,0.04-0.3,0.05c-0.9,0.2-1.83,0.38-2.77,0.54
				c-0.02,0.01-0.03,0.01-0.05,0.01c-0.07,0.01-0.14,0.01-0.21,0.03c-0.89,0.15-1.8,0.27-2.73,0.38c-0.13,0.02-0.26,0.04-0.39,0.05
				c-0.12,0.01-0.25,0.02-0.37,0.04c-1.07,0.11-2.15,0.21-3.26,0.29c-0.02,0-0.05,0.01-0.07,0.01c-0.07,0.01-0.15,0.01-0.22,0.01
				c-1.18,0.08-2.39,0.13-3.62,0.16c-0.13,0-0.24,0.01-0.37,0.01c-0.06,0-0.12,0-0.18,0c-1.47,0.02-2.97,0.01-4.49-0.02
				c-0.12-0.01-0.24,0-0.36-0.01c-0.13,0-0.25-0.01-0.37-0.02c-0.64-0.01-1.29-0.04-1.93-0.08c-0.32-0.01-0.65-0.02-0.97-0.05
				c-0.92-0.05-1.85-0.11-2.78-0.2c-0.05,0-0.1,0-0.15-0.01c0,0-0.01,0-0.01,0c-1.2-0.1-2.41-0.23-3.63-0.35
				c-0.32-0.04-0.64-0.08-0.95-0.11c-1.07-0.13-2.15-0.26-3.23-0.42c-0.13-0.01-0.26-0.03-0.4-0.05c-0.05,0-0.09-0.02-0.14-0.02
				c-1.01-0.15-2.01-0.31-3.02-0.48c-0.17-0.03-0.35-0.07-0.52-0.1c-0.85-0.14-1.69-0.29-2.54-0.45c-0.38-0.08-0.76-0.16-1.14-0.23
				c-0.64-0.13-1.29-0.26-1.94-0.4c-0.43-0.09-0.85-0.19-1.28-0.29c-0.6-0.13-1.21-0.27-1.82-0.42c-0.16-0.03-0.32-0.07-0.48-0.1
				c-0.14-0.03-0.28-0.08-0.42-0.11c-1.64-0.4-3.28-0.82-4.92-1.28c-0.22-0.06-0.43-0.12-0.64-0.18c-1.67-0.48-3.33-0.97-4.98-1.51
				c-0.17-0.05-0.34-0.11-0.51-0.17c-1.7-0.56-3.39-1.14-5.07-1.76c-0.1-0.04-0.2-0.08-0.3-0.11c-1.74-0.65-3.48-1.34-5.18-2.06
				c-0.84-0.35-1.66-0.71-2.47-1.07c-1.15-0.51-2.26-1.03-3.35-1.57c-0.38-0.18-0.73-0.36-1.11-0.54c-0.71-0.36-1.41-0.71-2.09-1.07
				c-0.41-0.21-0.8-0.43-1.2-0.64c-0.63-0.35-1.25-0.69-1.85-1.03c-0.38-0.22-0.76-0.44-1.13-0.66c-0.23-0.14-0.47-0.26-0.69-0.4
				c-0.38-0.23-0.74-0.46-1.11-0.7c-0.32-0.2-0.66-0.4-0.98-0.61c-0.67-0.43-1.31-0.86-1.95-1.3c-0.2-0.14-0.42-0.28-0.62-0.42
				c-0.82-0.57-1.61-1.15-2.37-1.73c-0.2-0.15-0.38-0.3-0.57-0.45c-0.45-0.35-0.9-0.7-1.33-1.06c-0.08-0.07-0.15-0.14-0.24-0.21
				c-0.56-0.47-1.07-0.94-1.59-1.4c-0.23-0.21-0.47-0.42-0.69-0.63c-0.71-0.68-1.39-1.35-2.02-2.03c0-0.01,0-0.01,0-0.01
				c-0.55-0.6-1.06-1.19-1.53-1.78c-0.15-0.2-0.28-0.39-0.43-0.57c-0.25-0.32-0.51-0.66-0.74-0.98c-0.06-0.09-0.11-0.17-0.17-0.27
				c-0.11-0.16-0.22-0.33-0.32-0.5c-0.27-0.42-0.53-0.83-0.76-1.25c-0.1-0.17-0.2-0.35-0.29-0.52c-0.05-0.1-0.11-0.2-0.16-0.3
				c-0.22-0.44-0.42-0.87-0.61-1.31c-0.03-0.07-0.05-0.14-0.08-0.22c-0.12-0.3-0.24-0.61-0.35-0.91c-0.07-0.2-0.12-0.39-0.17-0.57
				c-0.03-0.1-0.07-0.2-0.09-0.29c-0.12-0.44-0.22-0.87-0.29-1.3c-0.02-0.09-0.02-0.17-0.04-0.26c-0.01-0.09-0.02-0.18-0.03-0.27
				c-0.07-0.49-0.11-0.97-0.11-1.46c0-0.05,0-0.1,0-0.15c0.18-20.19,0.35-40.37,0.53-60.55L580.34,662.75z"/>
			<g>
				<path class="st18" d="M1232.22,539.05L866.44,385.13L581.08,577.68l151.51,63.75c-3.34,2.83-9.04,6.12-10.21,6.66
					c-5.31,2.42-12.1,4.22-18.69,5.44c-12.75,2.35-28.39,1.97-37.47,8.09c-14.19,9.58-3.02,26.97,24.91,39.43
					c0.81,0.36,1.64,0.72,2.47,1.07c29.74,12.51,65.68,14.67,80.29,4.81c11.86-8,2.74-20.72,9.82-30.02
					c0.58-0.77,6.67-5.95,11.83-8.99l151.32,63.67l118.07-79.66c-0.48-0.23-0.99-0.46-1.51-0.7c-5.83-2.6-14.21-5.4-15.54-5.69
					c-17.61-3.87-41.42,0.82-56.63-5.58c-18.64-8.3-14.84-27.12,8.1-42.6c23.19-15.65,57.17-21.95,75.9-14.08
					c11.62,5.18,11.16,13.32,15.67,20.01c2.36,3.51,5.83,7.14,10.46,10c0.55,0.34,2.66,1.4,5.33,2.59c2.24,1,4.87,2.08,7.32,2.91
					L1232.22,539.05z"/>
			</g>
		</g>
		<g class="st15">
			<g>
				<path class="st19" d="M897.57,885.4c0,0.21-0.01,0.41-0.02,0.63c0,0.23-0.01,0.45-0.03,0.67c-0.01,0.18-0.04,0.36-0.06,0.55
					c-0.03,0.21-0.05,0.43-0.08,0.64c-0.03,0.21-0.08,0.42-0.12,0.63c-0.03,0.16-0.06,0.32-0.1,0.48c-0.05,0.22-0.11,0.43-0.17,0.64
					c-0.05,0.15-0.09,0.3-0.14,0.45c-0.03,0.09-0.07,0.17-0.1,0.26c-0.2,0.6-0.44,1.17-0.72,1.73c-0.01,0.01-0.01,0.03-0.02,0.04
					c-0.28,0.54-0.6,1.07-0.95,1.58c-0.06,0.08-0.11,0.17-0.17,0.26c-0.35,0.5-0.75,0.98-1.18,1.45c-0.12,0.14-0.24,0.26-0.36,0.39
					c-0.14,0.14-0.27,0.29-0.41,0.42c-0.16,0.15-0.32,0.31-0.49,0.46c-0.15,0.14-0.3,0.28-0.46,0.41c-0.14,0.12-0.29,0.24-0.44,0.36
					c-0.27,0.21-0.55,0.42-0.83,0.64c-0.15,0.1-0.3,0.21-0.46,0.32c-0.31,0.21-0.63,0.42-0.96,0.62c-0.14,0.09-0.28,0.18-0.43,0.27
					c-0.28,0.17-0.58,0.32-0.88,0.48c-0.16,0.1-0.32,0.19-0.49,0.28c-0.48,0.23-0.97,0.48-1.47,0.7c-1.93,0.81-3.98,1.46-6.11,1.97
					c-1.7,0.41-3.45,0.74-5.26,1c-1.71,0.25-3.48,0.44-5.26,0.59c-2.49,0.2-5.04,0.32-7.62,0.39c-5.64,0.17-11.43,0.11-17.05,0.26
					c-2.54,0.08-5.04,0.19-7.47,0.39l0.75,86.48c2.44-0.2,4.94-0.32,7.48-0.39c5.62-0.16,11.41-0.1,17.05-0.26
					c2.58-0.07,5.12-0.19,7.62-0.39c1.79-0.14,3.55-0.34,5.26-0.58c1.8-0.26,3.56-0.6,5.26-1.01c2.14-0.51,4.18-1.16,6.11-1.97
					c0.51-0.23,1-0.46,1.48-0.71c0.14-0.07,0.27-0.15,0.4-0.22c0.33-0.17,0.66-0.36,0.98-0.55c0.03-0.02,0.07-0.04,0.1-0.05
					c0.09-0.06,0.18-0.12,0.28-0.18c0.34-0.21,0.68-0.42,1-0.64c0.15-0.11,0.3-0.21,0.45-0.32c0.28-0.21,0.56-0.42,0.82-0.64
					c0.09-0.07,0.18-0.13,0.26-0.2c0.06-0.05,0.12-0.11,0.19-0.17c0.16-0.14,0.31-0.26,0.46-0.41c0.17-0.15,0.33-0.3,0.49-0.45
					c0.14-0.14,0.28-0.28,0.42-0.42c0.08-0.1,0.17-0.18,0.25-0.26c0.04-0.04,0.07-0.08,0.11-0.13c0.43-0.47,0.82-0.96,1.18-1.46
					c0.02-0.03,0.05-0.06,0.08-0.09c0.03-0.05,0.06-0.11,0.09-0.16c0.35-0.51,0.68-1.04,0.95-1.59l0-0.01
					c0-0.01,0.01-0.01,0.01-0.01c0.29-0.57,0.53-1.16,0.73-1.75c0.02-0.05,0.05-0.09,0.06-0.14c0.01-0.03,0.02-0.06,0.03-0.1
					c0.06-0.17,0.1-0.35,0.15-0.51c0.05-0.19,0.11-0.38,0.16-0.57c0.04-0.17,0.07-0.35,0.1-0.52c0.03-0.14,0.07-0.28,0.09-0.42
					c0.01-0.06,0.01-0.1,0.02-0.16c0.03-0.23,0.06-0.46,0.09-0.7c0.02-0.17,0.04-0.33,0.05-0.49c0.02-0.26,0.03-0.52,0.03-0.78
					c0-0.13,0.02-0.25,0.02-0.37c0-0.06,0-0.11,0-0.17L897.57,885.4z"/>
				<path class="st19" d="M827.85,906.67c-0.03,0.01-0.06,0.01-0.09,0.02c-1.6,0.39-9.89,3.17-15.69,5.77
					c-0.54,0.24-1.06,0.48-1.54,0.72l0.76,86.47c0.49-0.24,1.01-0.48,1.55-0.72c5.8-2.59,14.09-5.37,15.69-5.77
					c0.03-0.01,0.07-0.01,0.09-0.02c1.36-0.3,2.76-0.54,4.18-0.76c1.7-0.24,3.45-0.43,5.22-0.57l-0.75-86.48
					c-1.78,0.15-3.52,0.33-5.22,0.58C830.6,906.12,829.2,906.38,827.85,906.67z"/>
			</g>
			<path class="st20" d="M931.26,1080.61l-0.76-86.47l-153.99,64.8l0.63,71.96c-17.88,2.14-33.95,0.46-42.62-5.39
				c-5.77-3.9-6.65-8.88-6.79-14.07c-0.02-1.42-0.03-2.85-0.04-4.28c-0.04-4.26-0.34-8.48-3.14-12.17
				c-0.6-0.79-6.79-6.04-12.01-9.13l-153.82,64.72l0.76,86.48l153.82-64.73c5.22,3.08,11.41,8.35,12.01,9.13
				c2.51,3.31,3.01,7.04,3.12,10.84c0.01,1.43,0.02,2.86,0.04,4.29c0.05,5.65,0.56,11.16,6.82,15.39
				c14.85,10.02,51.38,7.83,81.6-4.89c0.85-0.35,1.69-0.72,2.51-1.09c20.11-8.96,31.68-20.44,31.59-29.84
				c-0.18-20.52-0.36-41.03-0.55-61.54L931.26,1080.61z"/>
			<path class="st19" d="M886.02,900.74l0.76,86.47c-16.09,6.78-40.3,2.01-58.19,5.93c-1.35,0.31-9.86,3.14-15.78,5.79
				c-0.54,0.24-1.06,0.48-1.55,0.72l-0.76-86.47c0.49-0.24,1.01-0.48,1.54-0.72c5.93-2.64,14.43-5.49,15.79-5.79
				C845.73,902.74,869.94,907.51,886.02,900.74z"/>
			<polygon class="st19" points="558.72,1150.58 268.68,954.88 269.44,1041.35 559.47,1237.05 			"/>
			<path class="st21" d="M843.97,1079.46c-9.22-6.23-25.14-5.83-38.08-8.22c-6.71-1.24-13.61-3.07-19.01-5.54
				c-1.17-0.54-6.98-3.89-10.37-6.76l153.99-64.8l-119.98-80.96c0.49-0.24,1.01-0.48,1.54-0.72c5.93-2.64,14.43-5.49,15.79-5.79
				c17.88-3.93,42.09,0.84,58.18-5.93c18.32-8.17,14.46-27.31-8.87-43.03c-23.57-15.91-58.11-22.32-77.71-14.06
				c-11.23,5.01-10.78,13.29-15.35,20.08c-2.41,3.58-5.94,7.27-10.65,10.17c-0.56,0.34-2.73,1.43-5.46,2.65
				c-2.26,1.01-4.92,2.1-7.39,2.94l-120.13-81.07L268.68,954.88l290.03,195.7l153.82-64.72c5.22,3.09,11.41,8.35,12.01,9.13
				c7.19,9.46-2.08,22.38,9.97,30.52c14.86,10.02,51.39,7.82,81.61-4.89c0.85-0.36,1.69-0.73,2.51-1.09
				C847.03,1106.87,858.4,1089.19,843.97,1079.46z"/>
		</g>
		<g>
			<path class="st0" d="M1614.2,1410.92c0,51.35,93.54,92.96,208.93,92.96c115.38,0,208.93-41.61,208.93-92.96
				c0-51.34-93.54-92.96-208.93-92.96C1707.74,1317.96,1614.2,1359.58,1614.2,1410.92z"/>
			<g>
				<g>
					<g>
						<path class="st22" d="M1752.75,1390.07c-14.75,14.86-39.09,22.79-39.09,22.8c-20.51,5.21-32.58-8.43-32.58-8.43
							c-4.4-6.16,0.95-9.54,0.95-9.54c43.25-32.88,56.19-42.2,56.19-42.2h39.7c1.94,15.97,0.86,22.4,0.86,22.4
							c-3.45,4.7-10.72,11.34-21.78,13.2c-0.81,0.14-2.34-1.07-3.11-0.75L1752.75,1390.07z"/>
					</g>
					<path d="M1681.85,1395.03c0.17,0.92,0.42,1.84,0.83,2.71c3.36,7.19,12.7,10.17,20.1,10.06c8.9-0.13,16.97-4.47,24.72-8.39
						c7.47-3.78,14.03-8.56,20.47-13.89c4.47-3.71,10.19-5.44,15.48-7.74c5.96-2.61,10.46-6.65,15.61-10.52
						c0.02,4.28-0.27,7.83-0.27,7.83c-3.45,4.7-10.72,11.34-21.78,13.2c-0.81,0.14-2.34-1.07-3.11-0.75l-1.15,2.53
						c-14.75,14.86-39.09,22.79-39.09,22.8c-20.51,5.21-32.58-8.43-32.58-8.43C1677.17,1398.97,1680.95,1395.7,1681.85,1395.03z"/>
				</g>
				<g>
					<path class="st3" d="M1782.31,1030.72c-44.15,48.75-61.65-2.81-61.65-2.81l-5.47-299.62c-0.57,4.46-2.04-30.21,53.7-22.71
						c55.58,7.49,69.65,29.16,69.65,29.16S1807.96,941.68,1782.31,1030.72"/>
					<path class="st3" d="M1720.38,1024.11c0,0,22.4,315.54,24.23,326.61c0,0,27.23,6.02,27.35-0.25
						c0.31-15.11,31.4-199.77,31.8-223.51c1.01-60.13-14.49-71.5-29.95-112C1773.81,1014.96,1720.26,975.37,1720.38,1024.11z"/>
				</g>
				<g>
					<g>
						<path class="st23" d="M1795.6,1042.06c25.65-89.04,42.94-307.33,42.94-307.33s-14.07-21.67-69.65-29.16
							c-55.74-7.5-54.27,27.17-53.7,22.71c0,0-16.88,162.47-1.42,310.13C1713.76,1038.42,1761.38,1063.71,1795.6,1042.06z"/>
					</g>
				</g>
				<path class="st5" d="M1879.85,567.57c7.87,28.04,40.38,135.02,40.38,135.02c-116.37,139.21-204.03,17.4-205.19,4.7
					c-1.39-15.2,15.58-73.23,18.65-135.83C1733.69,571.47,1765.42,522.63,1879.85,567.57z"/>
				<path class="st23" d="M1715.71,742.15c-5.52-37.5,5.92-75.31,11.8-113.21h170.46c10.9,36.33,22.25,73.66,22.25,73.66
					s7.29,85.95-65.71,96.25C1854.52,798.85,1727.31,820.9,1715.71,742.15z"/>
				<g>
					<path class="st5" d="M1909.62,1037.28c-36.44,54.75-61.39,6.35-61.39,6.35l-59.12-291.88c0.09,4.5,1.77-38.02,58.01-38.85
						c56.08-0.83,73.2,18.51,73.2,18.51S1921.8,945.42,1909.62,1037.28"/>
					<path class="st5" d="M1847.39,1039.92c0,0,58.54,332.5,61.99,343.18c0,0,27.82,1.92,27.01-4.3
						c-1.93-15,3.09-224.66-0.04-248.21c-7.91-59.62-16.17-69.87-37.46-107.64C1898.89,1022.95,1840.07,991.73,1847.39,1039.92z"/>
				</g>
				<g>
					<path class="st22" d="M1906.72,1376.67l-16.47,50.21c0,0,3.4,44.95,39.45,17.1l10.74-10.41c5.48-4.64,3.88-11.04,3.88-11.04
						l-3.2-19.24l-3.82-26.63C1937.29,1376.67,1914.7,1361.34,1906.72,1376.67z"/>
					<path d="M1929.7,1437.57l10.74-10.4c2.14-1.81,3.19-3.89,3.69-5.75l0.19,1.12c0,0,1.6,6.39-3.88,11.04l-10.74,10.41
						c-36.05,27.86-39.45-17.1-39.45-17.1l0.64-1.96C1892.92,1435.54,1900.86,1459.86,1929.7,1437.57z"/>
				</g>
				<g>
					<g>
						<path class="st2" d="M1917.4,1038.42"/>
						<path class="st24" d="M1841.02,1051.68c-20.53-60.27-59.29-309.53-59.29-309.53c0.09,4.49,11.61-59.53,67.84-60.36
							c56.08-0.83,70.65,20.81,70.65,20.81s17.56,243.96,5.38,335.82C1925.61,1038.42,1886.11,1084.04,1841.02,1051.68z"/>
					</g>
				</g>
				<path class="st3" d="M1742.33,375.83c0,0-95.22,111.98-142.57,149.08c0,0-31.82-11.76-30.84-33.38
					c0,0,69.71-103.13,113.48-164.13C1682.41,327.4,1741.58,310.35,1742.33,375.83z"/>
				<path class="st3" d="M1582.72,482.17c0,0-103.98,60.52-147.03,80.76c0,0-7.73,12.09,4.74,13.24
					c20.84,1.91,165.72-47.16,169.26-58.55C1626.19,464.52,1582.72,482.17,1582.72,482.17z"/>
				<path class="st3" d="M1677.71,363.33c7.48,20,29.69,30.28,49.6,22.96c19.91-7.32,29.99-29.45,22.51-49.47
					c-7.49-20-29.69-30.28-49.61-22.96C1680.3,321.18,1670.22,343.32,1677.71,363.33z"/>
				<path class="st25" d="M1725.24,311.73c0,0-33.94-11.9-57.27,21.41l-83.05,120.47c0,0,17.12,38.36,57.54,59.29
					C1642.46,512.9,1791.15,375.97,1725.24,311.73z"/>
				<path class="st5" d="M1911.16,1065.08"/>
				<path class="st11" d="M1821.46,271.28c0,0,6.85-13.19,21.98-38.49c0,0,32.18-33.05,14.15-74.59c0,0-9.9-34.73-70.64-29.69
					C1786.95,128.52,1781.14,224.12,1821.46,271.28z"/>
				<path class="st5" d="M1823.86,217.15c0,0-10.22,95.28,11.58,102.48l-77.71-4.63c0,0,12.21-28.79-1.99-50.02L1823.86,217.15z"/>
				<path class="st6" d="M1762,298.37c1.29-21.77-1.44-26.19-6.26-33.38l68.12-47.83c0,0-3.29,30.78-2.15,58.68
					C1801.99,294.5,1785.71,298.89,1762,298.37z"/>
				<path class="st5" d="M1702.93,311.54c-17.31,12.64-19.3,42.87-13.11,61.76c7.09,21.69,9.9,49.37,17.01,80.73
					c9.62,42.5,16.14,75.24,26.87,117.45c8.88,34.91,149.16,6.78,149.16,6.78l50.27-171.8c0,0,8.66-44.85-31.97-59.78
					c0,0-42.81-23.1-74.14-33.72c-27.67-9.37-37.69-10.25-66.1-8.5C1760.92,304.45,1722.85,305.85,1702.93,311.54z"/>
				<path class="st26" d="M1727.93,135.75c-4.01,18.28-8.56,27.83-3.51,44.58c4.54,15.05,3.49,30.86,10.06,45.45
					c9.37,20.8,21.57,18.08,30.9-1.05c9.54-19.59,19.49-46.06-2.06-60.57C1749.48,154.84,1744.49,138.81,1727.93,135.75
					L1727.93,135.75z"/>
				<path class="st11" d="M1739.93,278.56l-3.23-10.77c0,0-8.18-39.83-8.18-39.84c-1.03-5.01-0.63-11.58,0.64-16.55
					c1.37-5.42,2.42-11.1,1.41-17c-4.91-28.58,10.64-43.44,10.64-43.44c17.8-25.29,56.86-23.31,56.86-23.31
					c48.2,4.81,49.91,51.78,49.91,51.78c6.28,31.49-19.76,56.14-19.81,56.19c-2.08,1.96-1.58,12.25-2.32,15.14
					c-3.17,12.28-15.43,19.31-26.22,24.03c-11.85,5.19-26.14,10.63-39.13,11.16C1755.57,286.16,1741.78,284.74,1739.93,278.56z"/>
				<path class="st26" d="M1729.5,227.22c6.33,5.71,14.95,3.11,21.7,7.25c4.41,2.7,6.6,2.53,11.42,1.12
					c3.86-1.13,6.96-0.77,10.9,0.36c4.02,1.16,11.32,4.66,15.22,6.23c5.97,2.41,12.65,1.66,17.28-3.99
					c4.85-5.9,6.68-7.12,8.97-14.19c4.19-13.03,17.36-13.82,26.43-6.51c-5.94,11.15-13.22,18.1-13.25,18.13
					c-2.08,1.96-1.58,20.75-2.32,23.64c-3.17,12.28-15.43,19.31-26.22,24.03c-11.85,5.19-29.93,5.91-42.92,6.45
					c-4.93,0.2-14.93-5.01-16.78-11.19l-3.23-10.77c0,0-8.18-39.83-8.18-39.84c-0.14-0.7-0.2-1.47-0.29-2.22
					C1728.64,226.25,1729.02,226.78,1729.5,227.22z"/>
				<path class="st26" d="M1728.62,152.74c10.91,0.01,10.78,9.14,19.14,14.22c17.92,10.9,45.72-5.08,60.17,12.59
					c1.3,1.59,2.51,3.45,3.66,5.6c4.26,7.96,5.53,17.58,6.89,26.41c0.4,2.61-1.53,9.27,0.84,11.26c1.35,1.15,3.71,0.81,6.2,0.02
					c0.48,3.99-2.73,7.06-4.1,10.72c-1.38,3.68-3.54,6.81-1.59,10.53c5.03,9.56,1.17,7.98,1.63,27.19
					c3.11-4.55,10.78-10.08,13.2-12.2c7.01-6.11,13.63-12.76,18.65-20.64c4.92-7.71,8.14-16.36,11.33-24.89
					c5.21-13.97,8.22-29.09,4.04-43.74c0,0-3.3-34.06-31.79-37.71c0,0,3.62-21.93-48.45-27.74c0,0-41.11,0.64-43.37-13.54
					c0,0-8.31,7.1-6.25,18.06c0,0-16.91,5.16-24.51-14.19C1714.32,94.69,1700.23,145.65,1728.62,152.74z"/>
				<g>
					<g>
						<g>
							<g>
								<g>
									<g>
										<path class="st11" d="M1820.73,243.66c1.28,1.66,3.06,2.82,5.47,3.25c6.48,1.19,12.98-4.85,14.5-13.48
											c1.52-8.62-2.48-16.57-8.96-17.76c-3.07-0.56-6.15,0.51-8.7,2.69c-3.7,3.2-4.93,10.22-4.97,15.23
											C1818.05,237.59,1818.82,241.18,1820.73,243.66z"/>
									</g>
								</g>
							</g>
						</g>
					</g>
					<g>
						<g>
							<path class="st12" d="M1827.71,223.33c1-4.53,9.73,0.97,8.03,3.37c-1,1.39-2.74,2.28-4.15,3.17
								c-1.92,1.23-2.93,2.42-3.45,4.66c-0.07,0.27-0.21,1.05,0.03,1.27c1.1,0.97,5.56-3.02,6.54-3.86
								c1.91-1.65,2.53-4.79,1.99-7.19c-0.57-2.55-2.04-3.89-4.68-4.05c-2.08-0.13-4.22-0.24-4.41,2.37
								C1827.62,223.11,1827.66,223.55,1827.71,223.33L1827.71,223.33z"/>
						</g>
						<g>
							<path class="st12" d="M1830.1,228.43c-0.85-1.09-1.86-0.39-2.93,0.2c-1,0.55-1.62,1.44-1.99,2.49
								c-0.82,2.32-0.88,5.54,0.24,7.79c0.9,1.81,2.63,3.06,4.65,3.25c2.8,0.25,3.92-2.12,4.32-4.46c0.11-0.63,0.34-2.12-0.23-2.58
								c-0.62-0.49-1.22,0.48-1.72,0.87c-0.69,0.52-1.63,0.64-2.47,0.61c-1.61-0.05-3.07-1.04-3.93-2.35
								c-0.14-0.24-0.27-0.5-0.33-0.76c-0.18,1.54-0.14,1.9,0.12,1.07c0.17-0.39,0.39-0.72,0.66-1.03c0.77-0.99,1.96-1.59,2.8-2.53
								C1829.68,230.57,1830.52,228.99,1830.1,228.43L1830.1,228.43z"/>
						</g>
					</g>
				</g>
				<path class="st12" d="M1753.79,224.84l13.13,5.07c0,0-17.72,1.11-18.4-4.04c0,0,2.68-10.05,5.58-19.57
					C1754.11,206.31,1751.84,224.09,1753.79,224.84z"/>
				<g>
					<path class="st26" d="M1776.71,206.31c0,2.78,1.53,5.02,3.42,5.02c1.88,0,3.41-2.24,3.41-5.02c0-2.77-1.53-5.02-3.41-5.02
						C1778.25,201.29,1776.71,203.53,1776.71,206.31z"/>
					<path class="st26" d="M1738.82,202.1c0,2.78,1.53,5.02,3.42,5.02c1.88,0,3.41-2.24,3.41-5.02c0-2.77-1.53-5.02-3.41-5.02
						C1740.36,197.08,1738.82,199.32,1738.82,202.1z"/>
					<path class="st26" d="M1773.16,196.56c-1.22,0.25-1.53-1.4-1.53-1.4c-0.39-1.59,0.08-2.94,0.08-2.94
						c0.5-1.13,1.46-1.49,1.46-1.49c3.17-0.44,9.3,0.35,14.51,1.9c2.88,0.86,7.55,3,7.85,5.66c0.09,0.79,0.16,2.16-0.73,2.4
						C1794.8,200.7,1784.89,197.63,1773.16,196.56z"/>
					<path class="st26" d="M1730.08,192.25c3.45,0.06,9.52,0.38,16.94,1.77c1.11,0.58,1.84-0.92,1.85-0.92
						c0.8-1.43,0.72-2.86,0.72-2.86c-0.16-1.22-1-1.82-1-1.82c-2.93-1.29-7.13-2.04-12.56-1.97c-1.62,0.02-4.44,0.24-6.31,0.85
						C1729.73,187.31,1729.36,188.31,1730.08,192.25z"/>
				</g>
				<g>
					<path class="st14" d="M1746.46,240.88c-1.07-0.01-1.65,0.49-1.25,1.27c0,0,4.72,8.88,13,9.88c8.27,1,15.03-6.49,15.03-6.49
						c0.66-0.73,0.08-1.46-1.26-1.63C1771.99,243.91,1757.7,242.09,1746.46,240.88z"/>
				</g>
				<path class="st24" d="M1908.45,668.57c0,0,29.85,48.18,0,102.18c-29.85,54.01-121,34.32-121.26-35.63
					C1786.92,666.03,1849.8,639.61,1908.45,668.57z"/>
				<path class="st25" d="M1760.92,304.45c0,0-38.06,1.4-57.98,7.09c-17.31,12.64-19.3,42.87-13.11,61.76
					c7.09,21.69,9.9,49.37,17.01,80.73c9.62,42.5-2.51,73.57,8.21,115.78c8.88,34.91,194.51,0,194.51,0l23.58-163.36
					c0,0,8.66-44.85-31.97-59.78c0,0-40.86-22.43-72.2-33.05c0,0,4.89,33.05-48.98,23.92
					C1779.98,337.55,1747.06,329.61,1760.92,304.45z"/>
				<path class="st25" d="M1909.55,569.81c7.87,28.04,14.11,122.57,14.11,122.57c-21.34,88.5-217.66,24.83-218.83,12.13
					c-1.38-15.2,4.63-87.52,7.71-150.11C1712.54,554.4,1795.12,524.86,1909.55,569.81z"/>
				<path class="st5" d="M1851.68,410.64c12.81,26.05,60.36,157.54,75.64,178.33c4.06,5.52,43.25,30.77,52.07-3.64
					c-21.6-136.49-54.27-214.35-54.27-214.35s-38.16-31.82-68.64-2.41C1856.48,368.56,1842.64,392.59,1851.68,410.64z"/>
				<path class="st5" d="M1846.27,387.34c-4.22,25.01,12.64,48.7,37.64,52.92c25.01,4.22,48.7-12.63,52.92-37.64
					c4.22-25.02-12.64-48.7-37.64-52.93C1874.19,345.48,1850.49,362.33,1846.27,387.34z"/>
				<path class="st25" d="M1891.56,341.65c0,0,39.47,14.8,48.81,46.83l24.36,87.16c0,0-31.92,46.42-79.49,44.88l-47-104.4
					C1838.23,416.12,1806.61,357.48,1891.56,341.65z"/>
				<path class="st3" d="M1386.34,591l12.15-0.33c0,0-22.17,5.69-29.32-1.51c0,0-1.83-1.13,1.01-3.71c0,0,19.61-0.66,28.23-3.14
					c0,0-19.4,4.69-33.21,3.29c0,0-5.41-3.55,0.42-6.77c-4.4-1.71-0.64-4.61-0.64-4.61s3.96-2.21,13.21-5.09
					c0,0,14.2-4.53,30.26-11.8c0,0-12.8-8.37-8-15.12l19.73,10.41l17.86,11.48l2.38,12.09l-18.58,12.92c0,0-18.06,7.25-28.28,7.6
					C1393.57,596.69,1364.23,595.65,1386.34,591z"/>
				<path class="st24" d="M1841.02,1051.68l51.06,318.17c0,0,16.91,16.3,56.16,0l6.52-155.46c0,0,11.53-102.71-29.15-175.97
					C1925.61,1038.42,1845.48,973.76,1841.02,1051.68z"/>
				<path class="st23" d="M1795.6,1042.06c0,0,21.73,31.44,2.26,149.46l-19.93,161.17c0,0-22.92,13.73-48.72,0.63l-16.07-321.08
					C1713.14,1032.24,1727.55,977.74,1795.6,1042.06z"/>
			</g>
		</g>
		<g class="st15">
			<path class="st27" d="M1423.06,653.65c-0.03-3.87-2.05-7.38-6.26-10.23c-0.67-0.45-1.38-0.85-2.12-1.24
				c-0.23-0.12-0.47-0.23-0.71-0.34c-0.53-0.26-1.07-0.5-1.63-0.73c-0.14-0.06-0.26-0.13-0.4-0.18c-0.12-0.05-0.25-0.08-0.37-0.12
				c-0.89-0.34-1.8-0.66-2.74-0.94c-0.02-0.01-0.03-0.01-0.05-0.02c-0.01,0-0.01-0.01-0.02-0.01c-0.96-0.28-1.94-0.52-2.95-0.75
				c-0.11-0.03-0.22-0.07-0.33-0.09c-0.14-0.02-0.28-0.05-0.42-0.08c-1.18-0.26-2.39-0.48-3.63-0.7c-0.03,0-0.06-0.01-0.09-0.01
				c-0.1-0.02-0.21-0.03-0.31-0.05c-1.27-0.2-2.56-0.39-3.86-0.56c-0.14-0.02-0.27-0.04-0.41-0.06c-1.37-0.18-2.74-0.33-4.12-0.49
				c-0.08-0.02-0.16-0.02-0.24-0.03c-1.11-0.13-2.23-0.26-3.34-0.39c-1.32-0.15-2.62-0.3-3.92-0.47c-0.23-0.04-0.47-0.06-0.71-0.09
				c-1.27-0.17-2.53-0.35-3.77-0.55c-0.64-0.11-1.29-0.21-1.92-0.33c-1.3-0.24-2.61-0.51-3.91-0.79c-0.24-0.05-0.47-0.1-0.7-0.16
				c-0.95-0.21-1.9-0.44-2.84-0.67c-0.02-0.01-0.05-0.01-0.07-0.02c-0.95-0.24-1.88-0.5-2.81-0.76c-0.3-0.09-0.59-0.18-0.89-0.27
				c-0.64-0.19-1.28-0.39-1.9-0.6c-0.31-0.1-0.62-0.2-0.92-0.32c-0.65-0.22-1.28-0.45-1.91-0.69c-0.24-0.1-0.48-0.18-0.71-0.27
				c-0.8-0.32-1.58-0.64-2.33-0.98c-1.18-0.54-6.97-3.89-10.37-6.76l0.76,86.47c3.4,2.89,9.2,6.22,10.37,6.76
				c0.75,0.34,1.53,0.66,2.32,0.99c0.06,0.01,0.11,0.05,0.17,0.07c0.17,0.07,0.36,0.13,0.54,0.2c0.63,0.24,1.27,0.48,1.93,0.7
				c0.3,0.11,0.59,0.2,0.9,0.3c0.64,0.21,1.3,0.42,1.96,0.62c0.18,0.05,0.36,0.1,0.54,0.16c0.09,0.03,0.19,0.05,0.28,0.08
				c0.94,0.27,1.89,0.54,2.84,0.78c0,0,0.01,0.01,0.01,0.01c0.96,0.24,1.93,0.46,2.9,0.69c0.09,0.02,0.18,0.04,0.28,0.06
				c0.13,0.03,0.26,0.06,0.39,0.08c1.31,0.29,2.62,0.56,3.93,0.8c0.53,0.1,1.07,0.19,1.61,0.29c0.1,0.01,0.21,0.02,0.32,0.05
				c1.24,0.2,2.49,0.37,3.76,0.54c0.25,0.03,0.5,0.07,0.75,0.1c1.28,0.16,2.55,0.31,3.85,0.46c0.01,0,0.03,0,0.04,0.01
				c0.85,0.09,1.69,0.19,2.54,0.29c0.34,0.04,0.68,0.08,1.03,0.11c1.4,0.17,2.79,0.33,4.18,0.51c0.11,0.01,0.22,0.04,0.33,0.05
				c1.32,0.17,2.62,0.36,3.9,0.57c0.14,0.01,0.28,0.04,0.41,0.06c1.24,0.2,2.44,0.44,3.62,0.69c0.26,0.06,0.51,0.11,0.77,0.17
				c1.01,0.23,2,0.48,2.96,0.76c0.96,0.29,1.89,0.61,2.79,0.95c0.26,0.1,0.52,0.2,0.77,0.3c0.56,0.23,1.1,0.48,1.64,0.73
				c0.24,0.11,0.47,0.23,0.7,0.34c0.74,0.39,1.45,0.79,2.12,1.25c4.21,2.84,6.23,6.36,6.26,10.23L1423.06,653.65z"/>
			<path class="st28" d="M1297.77,844.07c0.29-0.07,0.59-0.14,0.89-0.2c0.4-0.08,0.8-0.18,1.2-0.26c0.33-0.06,0.67-0.11,1-0.17
				c0.28-0.05,0.56-0.1,0.85-0.14l0.64,72.46l119.99,80.97l-0.76-86.47l-99.39-67.07c1.45,0.17,2.91,0.38,4.38,0.62
				c0.34,0.05,0.68,0.11,1.01,0.17c0.55,0.1,1.1,0.19,1.65,0.3c0.39,0.07,0.79,0.15,1.19,0.24c0.53,0.1,1.05,0.21,1.58,0.32
				c0.37,0.08,0.74,0.16,1.11,0.25c0.85,0.2,1.7,0.4,2.56,0.62c0.24,0.05,0.48,0.11,0.71,0.18c1.07,0.27,2.14,0.57,3.2,0.88
				c0.21,0.06,0.41,0.12,0.61,0.18c1.47,0.44,2.93,0.9,4.39,1.4c0.07,0.02,0.15,0.05,0.22,0.08c1.46,0.5,2.9,1.03,4.34,1.59
				c0.12,0.05,0.24,0.1,0.35,0.14c1.65,0.64,3.28,1.34,4.89,2.06c0.08,0.04,0.16,0.07,0.24,0.11c1.64,0.73,3.25,1.52,4.83,2.34
				c0.05,0.02,0.1,0.05,0.15,0.08c1.61,0.83,3.19,1.71,4.73,2.62c0.03,0.02,0.06,0.03,0.08,0.05c1.57,0.93,3.1,1.89,4.59,2.89
				c13.25,8.94,20.21,18.98,20.29,27.53c-0.25-28.83-0.51-57.65-0.76-86.48c-0.08-8.54-7.04-18.58-20.28-27.52
				c-1.49-1.01-3.02-1.97-4.59-2.9c-0.03-0.01-0.06-0.03-0.08-0.05c-1.54-0.91-3.12-1.78-4.72-2.61c-0.06-0.03-0.11-0.06-0.17-0.08
				c-1.58-0.82-3.19-1.6-4.83-2.34c-0.08-0.03-0.16-0.07-0.24-0.1c-1.61-0.73-3.25-1.42-4.89-2.07c-0.03-0.01-0.07-0.03-0.09-0.04
				c-0.08-0.03-0.17-0.06-0.25-0.09c-1.45-0.57-2.91-1.11-4.38-1.61c-0.05-0.02-0.11-0.04-0.17-0.06c-1.47-0.51-2.95-0.97-4.43-1.41
				c-0.11-0.03-0.22-0.08-0.34-0.11c-0.08-0.01-0.15-0.04-0.22-0.06c-1.08-0.32-2.15-0.61-3.23-0.89c-0.22-0.05-0.44-0.1-0.66-0.16
				c-0.88-0.23-1.76-0.44-2.63-0.64c-0.16-0.04-0.33-0.08-0.49-0.12c-0.18-0.04-0.36-0.08-0.55-0.11c-0.55-0.12-1.1-0.23-1.65-0.35
				c-0.38-0.08-0.76-0.15-1.14-0.23c-0.56-0.1-1.11-0.2-1.66-0.29c-0.27-0.05-0.54-0.11-0.8-0.15c-0.07-0.01-0.14-0.02-0.21-0.03
				c-1.48-0.25-2.96-0.45-4.43-0.63c-0.12-0.01-0.23-0.03-0.34-0.05c-0.09-0.01-0.17-0.01-0.26-0.03c-1.28-0.14-2.55-0.26-3.82-0.35
				c-0.1-0.01-0.21-0.02-0.31-0.03c-0.14,0-0.28,0-0.41-0.01c-2.35-0.14-4.64-0.2-6.87-0.14c-0.13,0-0.26-0.01-0.4,0
				c-0.11,0-0.23,0.01-0.34,0.01c-1.09,0.04-2.16,0.09-3.21,0.17c-0.02,0-0.05,0-0.07,0c-0.06,0.01-0.12,0.02-0.18,0.03
				c-1.1,0.09-2.17,0.21-3.23,0.36c-0.11,0.01-0.23,0.02-0.34,0.04c-0.08,0.01-0.16,0.03-0.24,0.04c-0.44,0.07-0.87,0.14-1.29,0.22
				c-0.31,0.06-0.62,0.11-0.92,0.17c-0.45,0.08-0.88,0.19-1.31,0.28c-0.23,0.05-0.47,0.09-0.7,0.15c-0.03,0.01-0.07,0.01-0.1,0.02
				c-0.93,0.23-1.84,0.49-2.73,0.76c-0.21,0.07-0.4,0.14-0.6,0.2c-0.89,0.3-1.76,0.61-2.6,0.95c-0.67,0.3-1.28,0.61-1.88,0.92
				c-0.18,0.1-0.35,0.2-0.52,0.3c-0.21,0.11-0.43,0.23-0.63,0.35c-0.17,0.11-0.32,0.21-0.49,0.32c-0.22,0.15-0.43,0.28-0.64,0.42
				c-0.32,0.22-0.64,0.45-0.94,0.68c-0.17,0.14-0.36,0.27-0.53,0.4c-0.06,0.05-0.13,0.1-0.19,0.14c-0.35,0.3-0.69,0.6-1,0.9
				c-0.04,0.04-0.08,0.08-0.12,0.11c-0.26,0.25-0.5,0.51-0.74,0.76c-0.07,0.08-0.13,0.16-0.2,0.24c-0.12,0.13-0.23,0.26-0.34,0.39
				c-0.23,0.27-0.44,0.54-0.64,0.81c-0.09,0.12-0.19,0.25-0.28,0.38c-0.05,0.07-0.1,0.14-0.15,0.2c-0.1,0.15-0.18,0.29-0.28,0.43
				c-0.18,0.26-0.35,0.53-0.51,0.8c-0.13,0.2-0.24,0.41-0.36,0.62c-0.15,0.26-0.3,0.53-0.44,0.79c-0.05,0.09-0.1,0.18-0.15,0.28
				c-0.05,0.1-0.1,0.2-0.15,0.3c-0.23,0.46-0.45,0.93-0.66,1.39c-0.05,0.11-0.09,0.21-0.14,0.31c-0.28,0.62-0.54,1.24-0.81,1.86
				c-0.2,0.48-0.4,0.96-0.62,1.43c-0.08,0.18-0.16,0.36-0.24,0.54c-0.26,0.57-0.52,1.13-0.8,1.69c-0.15,0.3-0.31,0.6-0.47,0.88
				c-0.08,0.15-0.15,0.28-0.22,0.42c-0.25,0.42-0.51,0.85-0.79,1.27c-0.18,0.26-0.37,0.52-0.56,0.79c-0.28,0.38-0.56,0.76-0.86,1.15
				c-0.13,0.16-0.25,0.32-0.39,0.48c-0.4,0.49-0.82,0.97-1.26,1.47c-0.04,0.03-0.07,0.08-0.1,0.12c-0.47,0.5-0.96,1-1.48,1.5
				c-0.15,0.14-0.31,0.29-0.46,0.43c-0.38,0.35-0.76,0.69-1.17,1.03c-0.2,0.16-0.4,0.33-0.6,0.5c-0.4,0.32-0.82,0.65-1.25,0.96
				c-0.19,0.15-0.39,0.29-0.59,0.45c-0.63,0.44-1.27,0.88-1.95,1.3c-0.05,0.03-0.13,0.07-0.22,0.11c-0.03,0.02-0.05,0.03-0.09,0.06
				c-0.08,0.04-0.18,0.09-0.28,0.14c-0.05,0.02-0.09,0.05-0.15,0.08c-0.1,0.05-0.22,0.11-0.32,0.16c-0.08,0.04-0.15,0.08-0.23,0.12
				c-0.11,0.05-0.24,0.11-0.35,0.17c-0.1,0.05-0.2,0.1-0.32,0.15c-0.11,0.06-0.23,0.11-0.35,0.17c-0.14,0.07-0.26,0.14-0.41,0.2
				c-0.12,0.05-0.26,0.13-0.39,0.18c-0.15,0.08-0.29,0.14-0.44,0.21c-0.2,0.1-0.41,0.2-0.63,0.29c-0.1,0.05-0.19,0.1-0.29,0.14
				c-0.32,0.15-0.65,0.3-0.99,0.44c-2.26,1.01-4.91,2.11-7.38,2.94l-120.14-81.06l0.76,86.48l120.14,81.06
				c2.46-0.84,5.12-1.93,7.38-2.94c0.66-0.3,1.28-0.58,1.86-0.85c0.01-0.01,0.02-0.01,0.03-0.02c0.27-0.12,0.53-0.24,0.78-0.36
				c0.02-0.02,0.04-0.02,0.06-0.03c0.19-0.1,0.37-0.17,0.55-0.26c0.08-0.04,0.15-0.08,0.22-0.11c0.14-0.07,0.27-0.13,0.4-0.2
				c0.09-0.04,0.18-0.09,0.26-0.13c0.11-0.05,0.21-0.1,0.3-0.16c0.09-0.04,0.18-0.08,0.25-0.13c0.08-0.04,0.14-0.08,0.21-0.11
				c0.08-0.05,0.16-0.08,0.22-0.12c0.05-0.03,0.09-0.05,0.14-0.08c0.05-0.03,0.1-0.06,0.14-0.08c0.01-0.01,0.02-0.02,0.03-0.02
				c0.68-0.42,1.33-0.86,1.96-1.31c0.19-0.14,0.38-0.28,0.57-0.42c0.43-0.32,0.85-0.64,1.27-0.98c0.09-0.08,0.21-0.15,0.31-0.24
				c0.1-0.08,0.18-0.16,0.28-0.25c0.4-0.35,0.79-0.69,1.16-1.04c0.16-0.14,0.32-0.29,0.48-0.44c0.51-0.49,1-0.99,1.47-1.5
				c0.01-0.01,0.01-0.01,0.02-0.02c0.04-0.04,0.07-0.08,0.1-0.11c0.44-0.48,0.85-0.96,1.24-1.44c0.13-0.16,0.26-0.34,0.4-0.5
				c0.29-0.37,0.57-0.75,0.85-1.13c0.07-0.1,0.16-0.2,0.23-0.3c0.11-0.16,0.23-0.32,0.34-0.48c0.28-0.42,0.55-0.85,0.79-1.28
				c0.09-0.15,0.17-0.31,0.25-0.46c0.15-0.26,0.29-0.52,0.42-0.79c0.01-0.01,0.02-0.02,0.02-0.04c0.28-0.57,0.55-1.13,0.81-1.71
				c0.08-0.18,0.16-0.36,0.24-0.53c0.2-0.48,0.41-0.95,0.62-1.42c0.27-0.64,0.54-1.26,0.82-1.9c0.04-0.09,0.09-0.17,0.13-0.26
				c0.21-0.48,0.45-0.95,0.68-1.43c0.09-0.19,0.19-0.37,0.28-0.55c0.14-0.27,0.29-0.55,0.45-0.82c0.11-0.21,0.23-0.41,0.35-0.61
				c0.16-0.26,0.34-0.54,0.52-0.8c0.14-0.21,0.27-0.42,0.42-0.64c0.09-0.13,0.19-0.25,0.29-0.39c0.2-0.26,0.41-0.54,0.64-0.8
				c0.11-0.13,0.22-0.26,0.34-0.39c0.29-0.33,0.6-0.66,0.93-0.97c0.04-0.05,0.08-0.09,0.12-0.13c0.37-0.36,0.78-0.7,1.2-1.04
				c0.16-0.14,0.34-0.27,0.51-0.4c0.3-0.23,0.62-0.46,0.95-0.69c0.2-0.14,0.41-0.27,0.63-0.41c0.36-0.23,0.74-0.45,1.13-0.68
				c0.17-0.09,0.34-0.18,0.52-0.28c0.59-0.32,1.2-0.63,1.87-0.93c0.83-0.34,1.7-0.66,2.59-0.95c0.2-0.07,0.4-0.14,0.6-0.2
				C1295.93,844.56,1296.84,844.3,1297.77,844.07z"/>
			<g>
				<polygon class="st29" points="1793.37,753.81 1794.13,840.28 1422.34,996.72 1421.58,910.26 				"/>
			</g>
			<g>
				<path class="st30" d="M1131.55,714.54l153.8-64.72c5.24,3.09,11.43,8.35,12.03,9.12c7.19,9.47-2.08,22.39,9.98,30.53
					c14.86,10.02,51.38,7.82,81.6-4.89c0.84-0.36,1.67-0.71,2.49-1.07c28.4-12.67,39.79-30.35,25.35-40.09
					c-9.23-6.22-25.13-5.83-38.09-8.22c-6.7-1.23-13.59-3.07-19-5.53c-1.18-0.54-6.97-3.89-10.37-6.76l153.99-64.79l290.04,195.71
					l-371.79,156.44l-119.99-80.96c0.47-0.24,0.97-0.46,1.49-0.69c5.93-2.64,14.48-5.51,15.84-5.81c17.89-3.93,42.1,0.85,57.56-5.66
					c18.94-8.44,15.08-27.57-8.23-43.31c-23.58-15.91-58.12-22.32-77.14-14.31c-11.81,5.26-11.35,13.54-15.92,20.33
					c-2.41,3.58-5.94,7.27-10.65,10.17c-0.56,0.33-2.73,1.43-5.47,2.64c-2.26,1.01-4.91,2.11-7.38,2.94L1131.55,714.54z"/>
			</g>
		</g>
		<g>
			<path class="st11" d="M610.2,1121.99c0,0,12.72-8.25,0.5-23.48c-31.57-2.01-68.69-19.06-68.69-19.06
				c-46.41-14.6-111.6-86.44-141.27-119.13c-33.33-36.71-83.79-5.55-56.71,36.36c50.67,78.42,183.83,130.11,265.5,127.05"/>
			<path class="st31" d="M264.68,1486.74c19.4-90.6,25.2-300.46,25.2-300.46s-15.54-20.63-71.51-24.23
				c-56.12-3.62-52.25,30.87-51.99,26.39c0,0,0.05,148.51,25.75,294.74C192.13,1483.18,232.04,1510.71,264.68,1486.74z"/>
			<path class="st32" d="M166.95,1198.72c-5.52-37.49,5.91-75.31,11.81-113.21h170.46c10.91,36.34,22.24,73.66,22.24,73.66
				s7.29,85.96-65.71,96.26C305.75,1255.43,178.53,1277.47,166.95,1198.72z"/>
			<path class="st0" d="M66.88,1853.02c0,72.27,131.66,130.85,294.08,130.85c162.4,0,294.06-58.58,294.06-130.85
				c0-72.26-131.66-130.84-294.06-130.84C198.54,1722.18,66.88,1780.76,66.88,1853.02z"/>
			<g>
				<path class="st22" d="M532.02,1848.29l-9.71-0.56c-3.31-0.51-3.29,4.69-3.73,4.87c-10.16,4.01-19.18,7.13-23,7.29
					c0,0-17.97-2.34-19.89-7.78l2.54-33.34c20.02-1.68,40.92-5.56,40.92-5.56l44.01-6.18c21.18-2.21,25.03,5.45,25.03,5.45
					S601.14,1831.85,532.02,1848.29z"/>
				<path class="st33" d="M505.31,1846.31c3.21-1.49,7.97-3.11,11.38-3.7c21.71-3.8,42.94-5.96,61.01-19.91
					c4.41-3.41,7.53-7.65,7.85-12.71c2,1.31,2.62,2.49,2.62,2.49s12.97,19.36-56.15,35.8l-9.71-0.56c-3.31-0.51-3.29,4.69-3.73,4.87
					c-10.16,4.01-19.18,7.13-23,7.29c0,0-17.97-2.34-19.89-7.78l0.62-8.12C483.45,1848.1,496.08,1850.58,505.31,1846.31z"/>
			</g>
			<g>
				<path class="st22" d="M238.02,1840.03l-9.71-0.56c-3.31-0.51-3.29,4.69-3.74,4.87c-10.15,4-19.17,7.13-22.99,7.29
					c0,0-17.96-2.34-19.88-7.79l2.52-33.33c20.03-1.68,40.93-5.56,40.93-5.56l44.01-6.19c21.18-2.21,25.02,5.46,25.02,5.46
					S307.15,1823.59,238.02,1840.03z"/>
				<path class="st33" d="M211.3,1838.06c3.23-1.49,7.98-3.11,11.38-3.7c21.71-3.8,42.94-5.96,61.02-19.91
					c4.41-3.41,7.53-7.64,7.85-12.7c2,1.31,2.62,2.49,2.62,2.49s12.97,19.36-56.15,35.8l-9.71-0.56c-3.31-0.51-3.29,4.69-3.74,4.87
					c-10.15,4-19.17,7.13-22.99,7.29c0,0-17.96-2.34-19.88-7.79l0.61-8.12C189.46,1839.84,202.08,1842.32,211.3,1838.06z"/>
			</g>
			<path class="st31" d="M234.3,1812.95c7.21-8.6,30.86-324.68,30.86-324.68c3.92-48.59-76.87-28.19-76.87-28.19
				c-11.77,48.38-9.86,57.48-13.56,117.5c-1.47,23.71,2.31,220.07,1.43,235.17C176.17,1812.75,213.67,1837.59,234.3,1812.95z"/>
			<path class="st34" d="M296.28,1129.45c0,0,48.51,82.6,18.66,136.6c-29.85,54.01-155.64-4.77-147.9-67.3
				C175.51,1130.16,237.64,1100.47,296.28,1129.45z"/>
			<path class="st5" d="M331.07,1024.14c7.88,28.04,40.38,135.02,40.38,135.02c-89.07,84-204.02,17.4-205.19,4.7
				c-1.38-15.2,15.58-73.23,18.66-135.83C184.93,1028.04,216.65,979.2,331.07,1024.14z"/>
			<path class="st2" d="M368.63,1494.99"/>
			<path class="st34" d="M438.24,1471.06c-9.46-92.18-75.12-327.33-75.12-327.33s-19.19-17.67-73.55-3.86
				c-54.5,13.84-60.38,84.77-61.51,80.42c0,0,63.26,148.83,147.42,279.97C375.48,1500.26,416.14,1521.07,438.24,1471.06z"/>
			<path class="st34" d="M520.26,1809.43c-1.59-11.11-83.57-341.38-83.57-341.38c-19.3-40.73-74.71,2.16-74.71,2.16
				c0.19,29.56,0.98,65.22,20.07,122.24c7.54,22.52,77.23,226.49,82.07,240.81C464.12,1833.26,505.31,1846.31,520.26,1809.43z"/>
			<g>
				<path class="st3" d="M120.74,810.09c0,0-8.81,148.34-3.19,208.23c0,0,0,27.21,47.93,40.86c0,0,17.44-165.16,31.63-238.89
					C197.11,820.29,168.8,765.61,120.74,810.09z"/>
				<path class="st3" d="M174.26,848.41c-19.66,8.33-42.4-0.73-50.78-20.22c-8.38-19.48,0.76-42.03,20.44-50.36
					c19.66-8.32,42.4,0.73,50.78,20.23C203.08,817.55,193.93,840.09,174.26,848.41z"/>
			</g>
			<path class="st35" d="M154.16,768.11c0,0-35.04,8.11-36.91,48.74l-5.67,146.21c0,0,34.99,23.24,80.34,19.29
				C191.92,982.35,244.23,787.09,154.16,768.11z"/>
			<path class="st5" d="M362.38,1521.65"/>
			<path class="st5" d="M286.44,675.29c0,0,0.31,52.22,4.87,104.24l-68.89-11.41c0,0,10.09-23.75-4.11-44.99L286.44,675.29z"/>
			<path class="st5" d="M154.16,768.11c-17.3,12.64-19.29,42.88-13.11,61.76c7.1,21.69,9.91,49.37,17.01,80.73
				c9.62,42.5,16.14,75.24,26.87,117.45c8.88,34.91,149.15,6.78,149.15,6.78l50.28-171.8c0,0,8.65-44.85-31.98-59.77
				c0,0-42.8-23.11-74.13-33.72c-27.67-9.37-37.7-10.25-66.1-8.5C212.15,761.02,174.09,762.42,154.16,768.11z"/>
			<path class="st34" d="M359.68,1125.15c0,0,29.85,48.17,0,102.17c-29.85,54.01-120.99,34.32-121.26-35.63
				C238.15,1122.6,301.04,1096.18,359.68,1125.15z"/>
			<path class="st35" d="M212.15,761.02c0,0-38.06,1.4-57.99,7.09c-18,13.16-17.68,38.99-14.21,58.54
				c6.64,37.38,13.37,75.15,16.84,112.97c1.54,16.76,5.72,50.86,6.96,67.63c1.22,16.27,6.36,25.24,23.02,33.85
				c12.66,6.53,22.07,1.35,35.86,1.71c35.07,0.96,69.7-2.88,104.46-7.18c1.47-0.17,55.72,36.42,37.86,9.49l19.4-182.1
				c0,0,8.65-44.85-31.98-59.77c0,0-28.57-17.89-59.91-28.5C292.47,774.75,237.98,776.13,212.15,761.02z"/>
			<path class="st11" d="M309.62,735.6l2.94-11.34c0,0,6.97-41.81,6.97-41.82c0.88-5.25,0.2-12.09-1.31-17.22
				c-1.64-5.58-2.95-11.47-2.14-17.65c4-29.95-12.78-44.83-12.78-44.83c-19.52-25.65-60.13-22.07-60.15-22.06
				c-21.06,3.19-39.46,11.9-49.93,31.11c-9.51,17.42-14.68,38.66-9.04,58.12c6.18,21.32,18.13,37.98,33.94,53.1
				c10.12,9.67,20.46,10.86,33.7,15.71c9.22,3.37,26.87,5.33,36.66,5.4C293.63,744.13,307.93,742.11,309.62,735.6z"/>
			<path class="st36" d="M301.6,620.11l-6.47,25.96c-7.39,3.23-10.35,6.09-9.33,15.8l2.34,21.44l-5.83,2.24
				c0.48-8.59-11.43-8.71-11.43-8.71c-8.71-0.5-10.19,6.92-9.69,14.07c1.29,18.55-5.46,48.02-21.02,53.2
				c-6.14,2.05-17.72,4.18-19.67-4.14c-2.37-10.18-21.64-30.38-21.64-30.38c-23.15-22.42-28.95-60.68-18.01-89.92
				c3.31-8.84,9.83-18.06,16.62-24.56c14.44-13.81,32.61-20.6,51.77-23.1c0,0,26.39-3.22,41.23,7.2
				c9.19,6.46,15.23,12.37,19.16,17.52C309.62,596.74,315.25,608.66,301.6,620.11z"/>
			<g>
				<g>
					<g>
						<g>
							<g>
								<path class="st11" d="M280.33,703.76c-1.68,1.48-3.91,2.41-6.77,2.55c-7.71,0.38-14.56-6.42-15.31-15.18
									c-0.74-8.75,4.91-16.16,12.61-16.53c3.65-0.17,7.12,1.26,9.83,3.75c3.95,3.64,4.52,10.76,3.95,15.74
									C284.19,698.07,282.86,701.54,280.33,703.76z"/>
							</g>
						</g>
					</g>
				</g>
			</g>
			<g>
				<g>
					<path class="st12" d="M274.49,682.56c-0.76-4.57-9.78,0.41-8.21,2.92c0.91,1.44,2.61,2.43,3.96,3.39
						c1.85,1.33,2.79,2.58,3.18,4.84c0.05,0.27,0.15,1.07-0.11,1.27c-1.15,0.92-5.38-3.33-6.31-4.22c-1.82-1.75-2.26-4.93-1.59-7.29
						c0.73-2.51,2.27-3.77,4.9-3.78c2.09-0.01,4.24,0,4.28,2.61C274.59,682.35,274.53,682.79,274.49,682.56L274.49,682.56z"/>
				</g>
				<g>
					<path class="st12" d="M271.82,687.53c0.91-1.04,1.88-0.3,2.92,0.36c0.96,0.61,1.53,1.53,1.84,2.61
						c0.69,2.36,0.57,5.58-0.67,7.75c-1,1.75-2.8,2.91-4.84,2.98c-2.8,0.1-3.8-2.33-4.05-4.69c-0.07-0.63-0.23-2.14,0.38-2.56
						c0.65-0.46,1.19,0.55,1.66,0.97c0.67,0.55,1.59,0.72,2.43,0.74c1.61,0.04,3.12-0.88,4.06-2.12c0.15-0.23,0.29-0.48,0.37-0.75
						c0.1,1.55,0.04,1.9-0.18,1.06c-0.15-0.39-0.35-0.74-0.6-1.06c-0.72-1.03-1.86-1.71-2.65-2.68
						C272.12,689.68,271.36,688.06,271.82,687.53L271.82,687.53z"/>
				</g>
			</g>
			<g>
				<path class="st5" d="M658.84,1106.21c-3.57-5.28-0.45-8.03-7.68-8.27c-8.23-0.27-15.61-4.34-21.19-4.18
					c-9.73,0.27-46.48,8.84-21.82,29.88c5.74,4.91,22.17,26.87,33.54,20.36c16.8-9.63,11.09-6.08,19.63-26.98L658.84,1106.21z"/>
			</g>
			<path class="st5" d="M316.09,836.36c-12.87,20.05-7.06,46.73,12.98,59.6c20.04,12.88,46.72,7.07,59.59-12.98
				c12.88-20.05,7.07-46.73-12.98-59.6C355.65,810.51,328.96,816.32,316.09,836.36z"/>
			<path class="st35" d="M370.17,996.2c5.6,58.81,9.22,202.84,9.22,202.84c-20.87,55.7-219.98,8.69-221.13-4.01
				c-1.39-15.2,2.69-122.23,5.77-184.82C164.02,1010.21,255.75,951.25,370.17,996.2z"/>
			<path class="st35" d="M343.07,798.36c52.44,14.76,58.96,78.22,58.96,78.22l23.68,104.23c0,0-59.58,47.25-95.9,33.96
				c0,0-29.59-78.68-38.87-157.1C290.94,857.68,291.32,800.07,343.07,798.36z"/>
			<path class="st36" d="M312.77,619.51c-5.92,4.78-13.47,1.64-20.24,0.07c-9.23,10.84,1.82,21.66-12.17,26.91
				c-7.41,2.78-18.37,3.58-26.57,4.9c-6.56,1.06-13.18-0.46-17.87,4.44c-5.08,5.3-0.27,21.8-6.26,24.96
				c-10.48,5.53-18.7-23.16-32.07-20.88c-11.4,1.93-13.42,20.02-9.42,28.92c-1.33-1.16-2.28-1.65-2.99-2.03
				c-5.43-14.16-12.37-14.41-18.37-24.49c-9.29-15.61-7.72-11.89-9.57-26.88c-0.02-0.14,1.83-6.57,1.85-6.65
				c4.36-15.95,11.82-18.68,15.4-25.45c3.78-7.15,9.61-12.16,14.46-18.45c4.47-5.8,6.71-13.62,11.84-18.8
				c7.79-7.87,20.55-11.83,31.26-13.23c11.54-1.52,22.51,5.65,33.95,3.64c4.69-0.82,9.08-5.08,13.78-4.81
				c5.74,0.32,9.71,6.02,14.67,8.25c9.22,4.15,23.75,2.47,31.63,8.96c8.71,7.17,6.84,17.54,1.47,26.33
				c-3.01,4.93-9.1,7.76-11.81,12.87C314.99,609.48,312.96,619.36,312.77,619.51z"/>
		</g>
		<g>
			<path class="st5" d="M1932.97,577.6c0,0-47.79,83.59-85.56,177.84c0,0,0.7,17.93,13.9,12.39
				c13.19-5.52,119.76-156.47,119.87-170.21C1981.46,562.3,1932.97,577.6,1932.97,577.6z"/>
			<path class="st5" d="M1821.92,791.33l11.51-3.91c0,0-19.49,12-28.45,7.24c0,0-2.08-0.55-0.13-3.85c0,0,18.53-6.44,26.04-11.36
				c0,0-17.15,10.21-30.75,12.97c0,0-6.22-1.79-1.61-6.6c-4.7-0.32-1.97-4.21-1.97-4.21s3.12-3.29,11.11-8.77
				c0,0,12.23-8.53,25.42-20.22c0,0-14.71-4.22-12.12-12.08l21.93,4.1l20.45,5.68l5.85,10.85l-13.93,17.83
				c0,0-15.1,12.27-24.76,15.64C1830.5,794.63,1802.17,802.32,1821.92,791.33z"/>
		</g>
		<g class="st15">
			<path class="st37" d="M1340.17,1079.65c0.03-3.81,2.01-7.28,6.16-10.07c0.66-0.45,1.36-0.85,2.08-1.22
				c0.23-0.12,0.46-0.23,0.7-0.34c0.52-0.25,1.05-0.49,1.59-0.72c0.14-0.05,0.26-0.12,0.4-0.17c0.12-0.05,0.25-0.08,0.37-0.13
				c0.87-0.33,1.76-0.64,2.69-0.92c0.02-0.01,0.03-0.01,0.05-0.01c0,0,0.01,0,0.01-0.01c0.94-0.27,1.91-0.51,2.89-0.73
				c0.12-0.03,0.23-0.07,0.34-0.09c0.14-0.03,0.3-0.05,0.44-0.08c1.15-0.25,2.32-0.48,3.52-0.68c0.04,0,0.08-0.01,0.11-0.01
				c0.12-0.02,0.26-0.04,0.38-0.06c1.19-0.19,2.4-0.36,3.62-0.53c0.16-0.02,0.32-0.05,0.48-0.06c1.32-0.17,2.64-0.32,3.97-0.48
				c0.08-0.01,0.16-0.02,0.23-0.03c0.3-0.04,0.6-0.07,0.9-0.11c0.9-0.1,1.79-0.2,2.68-0.3c1.25-0.14,2.49-0.29,3.72-0.45
				c0.25-0.03,0.5-0.06,0.75-0.09c1.23-0.17,2.44-0.34,3.64-0.54c0.64-0.1,1.27-0.21,1.9-0.32c1.28-0.24,2.57-0.51,3.86-0.79
				c0.24-0.05,0.48-0.1,0.72-0.16c0.93-0.2,1.85-0.42,2.76-0.66c0.03-0.01,0.06-0.02,0.09-0.02c0.93-0.23,1.85-0.49,2.76-0.76
				c0.28-0.08,0.56-0.16,0.84-0.25c0.63-0.19,1.26-0.39,1.87-0.59c0.31-0.1,0.62-0.2,0.92-0.31c0.62-0.21,1.22-0.44,1.82-0.66
				c0.25-0.09,0.51-0.18,0.75-0.28c0.79-0.32,1.56-0.64,2.3-0.98c1.17-0.53,6.87-3.83,10.21-6.65l-0.74,85.07
				c-3.34,2.83-9.04,6.12-10.21,6.65c-0.74,0.34-1.52,0.67-2.31,0.98c-0.06,0.02-0.11,0.05-0.17,0.08
				c-0.17,0.06-0.35,0.12-0.52,0.19c-0.62,0.23-1.24,0.46-1.88,0.68c-0.3,0.11-0.59,0.21-0.89,0.3c-0.62,0.2-1.24,0.4-1.87,0.59
				c-0.2,0.06-0.38,0.12-0.57,0.18c-0.1,0.03-0.2,0.05-0.29,0.08c-0.9,0.26-1.81,0.51-2.74,0.76c-0.04,0.01-0.08,0.01-0.12,0.02
				c-0.9,0.23-1.81,0.44-2.73,0.66c-0.1,0.02-0.2,0.05-0.3,0.07c-0.15,0.04-0.3,0.06-0.45,0.09c-1.28,0.28-2.56,0.55-3.84,0.78
				c-0.52,0.1-1.05,0.19-1.58,0.28c-0.11,0.02-0.23,0.03-0.34,0.05c-1.18,0.19-2.38,0.36-3.59,0.52c-0.27,0.04-0.54,0.07-0.81,0.1
				c-1.19,0.15-2.39,0.3-3.59,0.44c-0.04,0-0.08,0.01-0.11,0.01c-0.85,0.1-1.7,0.2-2.55,0.3c-0.42,0.05-0.85,0.1-1.28,0.14
				c-1.31,0.15-2.62,0.3-3.92,0.48c-0.16,0.01-0.31,0.04-0.47,0.06c-1.22,0.16-2.44,0.33-3.63,0.53c-0.16,0.02-0.33,0.05-0.49,0.07
				c-1.21,0.2-2.38,0.43-3.54,0.68c-0.25,0.05-0.5,0.1-0.75,0.16c-0.99,0.23-1.97,0.47-2.91,0.75c-0.01,0-0.02,0-0.02,0
				c-0.94,0.28-1.84,0.59-2.72,0.93c-0.26,0.1-0.51,0.2-0.77,0.3c-0.55,0.23-1.08,0.46-1.6,0.72c-0.23,0.11-0.47,0.22-0.69,0.33
				c-0.72,0.39-1.42,0.79-2.08,1.22c-4.14,2.8-6.12,6.26-6.15,10.07L1340.17,1079.65z"/>
			<path class="st37" d="M1007.9,1159.83c-0.04-0.16-0.07-0.32-0.1-0.48c-0.03-0.15-0.07-0.29-0.09-0.44
				c-0.01-0.05-0.01-0.1-0.02-0.15c-0.03-0.23-0.06-0.45-0.08-0.67c-0.02-0.17-0.04-0.34-0.06-0.51c-0.01-0.24-0.02-0.48-0.03-0.72
				c0-0.14-0.01-0.26-0.01-0.41c0-0.05,0-0.11,0-0.17l0.75-85.08c0,0.2,0.01,0.39,0.01,0.58c0.01,0.24,0.01,0.48,0.03,0.71
				c0.01,0.16,0.04,0.34,0.06,0.5c0.02,0.23,0.05,0.45,0.08,0.67c0.03,0.2,0.07,0.39,0.11,0.59c0.03,0.17,0.06,0.32,0.1,0.49
				c0.05,0.2,0.11,0.4,0.17,0.6c0.04,0.15,0.08,0.31,0.14,0.46c0.03,0.08,0.06,0.16,0.09,0.24c0.2,0.58,0.44,1.16,0.72,1.72
				c0.01,0.01,0.01,0.02,0.01,0.04c0.27,0.53,0.59,1.05,0.94,1.56c0.06,0.08,0.11,0.17,0.17,0.25c0.35,0.48,0.74,0.97,1.15,1.43
				c0.12,0.13,0.24,0.26,0.36,0.39c0.13,0.14,0.26,0.27,0.4,0.41c0.16,0.15,0.32,0.3,0.48,0.45c0.15,0.14,0.3,0.26,0.45,0.4
				c0.14,0.12,0.29,0.24,0.44,0.36c0.26,0.21,0.53,0.41,0.82,0.62c0.14,0.11,0.29,0.21,0.44,0.31c0.32,0.22,0.65,0.43,0.98,0.64
				c0.13,0.08,0.25,0.16,0.38,0.24c0.3,0.18,0.62,0.35,0.93,0.52c0.15,0.08,0.28,0.16,0.43,0.24c0.47,0.23,0.95,0.47,1.46,0.69
				c0.97,0.41,1.97,0.77,3,1.11c0.34,0.1,0.71,0.19,1.05,0.29c0.7,0.2,1.4,0.41,2.13,0.58c0.19,0.05,0.39,0.08,0.58,0.12
				c0.82,0.19,1.64,0.36,2.48,0.5c0.33,0.06,0.68,0.11,1.01,0.17c0.78,0.13,1.58,0.24,2.37,0.34c0.26,0.04,0.52,0.07,0.79,0.1
				c1.04,0.12,2.09,0.23,3.15,0.31c0.66,0.05,1.34,0.09,2.01,0.13c0.57,0.04,1.13,0.08,1.7,0.11c0.69,0.04,1.38,0.05,2.07,0.08
				c0.56,0.02,1.11,0.05,1.67,0.06c1.33,0.04,2.66,0.06,4.01,0.08c0.04,0,0.07,0,0.11,0c1.58,0.02,3.16,0.04,4.74,0.05
				c1.01,0.01,2.01,0.02,3.02,0.04c0.5,0.01,0.99,0.01,1.49,0.02c0.86,0.01,1.71,0.03,2.56,0.05c0.22,0.01,0.44,0.01,0.65,0.01
				c0.38,0.01,0.74,0.03,1.11,0.04c0.65,0.02,1.3,0.05,1.94,0.08c0.61,0.03,1.2,0.07,1.81,0.1c0.63,0.04,1.24,0.08,1.86,0.12
				c0.21,0.02,0.42,0.03,0.63,0.05v0.01l0,0v-0.01c0.7,0.05,1.38,0.12,2.07,0.2c0.14,0.01,0.28,0.02,0.42,0.04
				c0.9,0.1,1.78,0.2,2.65,0.33c0.1,0.01,0.2,0.04,0.31,0.06c1.3,0.19,2.58,0.41,3.83,0.69c0.03,0.01,0.07,0.01,0.11,0.03
				c0.03,0.01,0.08,0.02,0.13,0.03c0.05,0.01,0.11,0.03,0.17,0.04c0.08,0.02,0.17,0.05,0.27,0.08c0.07,0.02,0.14,0.04,0.22,0.07
				c0.11,0.04,0.23,0.07,0.36,0.11c0.09,0.02,0.18,0.05,0.27,0.08c0.14,0.04,0.29,0.09,0.45,0.14c0.09,0.03,0.18,0.05,0.28,0.09
				c0.17,0.05,0.35,0.11,0.53,0.17c0.11,0.03,0.21,0.07,0.32,0.11c0.19,0.06,0.39,0.13,0.59,0.2c0.12,0.04,0.23,0.08,0.35,0.12
				c0.21,0.07,0.43,0.14,0.65,0.22c0.13,0.05,0.25,0.08,0.37,0.13c0.22,0.08,0.44,0.16,0.67,0.24c0.14,0.05,0.29,0.1,0.43,0.15
				c0.2,0.08,0.41,0.15,0.63,0.23c0.17,0.06,0.34,0.12,0.52,0.19c0.2,0.08,0.41,0.15,0.62,0.23c0.18,0.07,0.37,0.14,0.55,0.2
				c0.21,0.08,0.42,0.16,0.64,0.24c0.18,0.08,0.37,0.14,0.56,0.21c0.21,0.08,0.42,0.17,0.64,0.25c0.19,0.07,0.38,0.14,0.57,0.22
				c0.21,0.08,0.42,0.16,0.64,0.24c0.19,0.08,0.38,0.15,0.56,0.23c0.21,0.08,0.42,0.17,0.63,0.26c0.18,0.08,0.37,0.15,0.55,0.23
				c0.23,0.09,0.45,0.19,0.67,0.28c0.16,0.07,0.32,0.14,0.48,0.2c0.37,0.16,0.74,0.32,1.1,0.48c0.53,0.23,1.04,0.47,1.52,0.7
				l-0.75,85.07c-0.48-0.23-0.99-0.46-1.52-0.7c-0.36-0.16-0.73-0.32-1.11-0.48c-0.12-0.05-0.25-0.1-0.37-0.15
				c-0.26-0.11-0.52-0.22-0.79-0.33c-0.15-0.06-0.3-0.12-0.45-0.18c-0.24-0.1-0.48-0.2-0.73-0.3c-0.17-0.07-0.34-0.14-0.51-0.2
				c-0.23-0.09-0.46-0.18-0.69-0.27c-0.18-0.07-0.36-0.14-0.53-0.2c-0.23-0.09-0.45-0.17-0.67-0.26c-0.19-0.07-0.37-0.14-0.55-0.21
				c-0.22-0.08-0.43-0.16-0.64-0.24c-0.18-0.07-0.36-0.13-0.54-0.2c-0.21-0.08-0.43-0.16-0.64-0.24c-0.17-0.06-0.34-0.12-0.51-0.18
				c-0.21-0.08-0.42-0.15-0.62-0.22c-0.19-0.07-0.37-0.14-0.55-0.2c-0.17-0.06-0.35-0.12-0.52-0.18c-0.18-0.07-0.36-0.13-0.54-0.19
				c-0.16-0.05-0.33-0.11-0.49-0.16c-0.16-0.06-0.32-0.11-0.48-0.17c-0.16-0.05-0.31-0.11-0.47-0.15c-0.15-0.05-0.28-0.1-0.42-0.14
				c-0.15-0.05-0.3-0.09-0.43-0.14c-0.13-0.04-0.25-0.08-0.38-0.12c-0.12-0.04-0.25-0.08-0.36-0.12c-0.12-0.04-0.23-0.07-0.33-0.1
				c-0.1-0.04-0.2-0.07-0.3-0.09c-0.09-0.03-0.17-0.05-0.26-0.08c-0.09-0.03-0.17-0.05-0.24-0.08c-0.07-0.01-0.13-0.03-0.18-0.04
				c-0.09-0.02-0.18-0.05-0.24-0.06c-1.25-0.28-2.54-0.5-3.84-0.7c-0.97-0.14-1.94-0.28-2.94-0.39c-0.17-0.01-0.34-0.03-0.5-0.05
				c-0.87-0.09-1.75-0.17-2.64-0.24c-0.61-0.04-1.23-0.08-1.85-0.12c-0.61-0.04-1.21-0.07-1.82-0.1c-0.63-0.03-1.27-0.05-1.9-0.08
				c-0.61-0.01-1.21-0.04-1.82-0.06c-0.82-0.01-1.66-0.03-2.49-0.05c-0.52-0.01-1.04-0.02-1.56-0.03c-0.99-0.01-1.99-0.02-2.99-0.03
				c-1.3-0.01-2.6-0.02-3.9-0.05c-0.33,0-0.65,0-0.98-0.01c-1.32-0.01-2.64-0.04-3.95-0.08c-0.07,0-0.13,0-0.19,0v-0.01l0,0v0.01
				c-0.55-0.01-1.09-0.05-1.63-0.06c-0.65-0.02-1.3-0.05-1.95-0.08c-0.59-0.03-1.17-0.08-1.76-0.11c-0.65-0.04-1.3-0.08-1.94-0.12
				c-0.07-0.01-0.15-0.01-0.22-0.01c-1-0.08-1.99-0.18-2.96-0.3c-0.25-0.03-0.5-0.06-0.74-0.09c-0.49-0.07-0.99-0.12-1.47-0.19
				v-0.02l0,0v0.02c-0.32-0.05-0.63-0.11-0.94-0.16c-0.33-0.05-0.67-0.11-1-0.17c-0.84-0.14-1.67-0.32-2.48-0.5
				c-0.2-0.05-0.4-0.08-0.59-0.12c-0.06-0.01-0.11-0.03-0.16-0.04c-0.68-0.17-1.33-0.36-1.98-0.55c-0.34-0.1-0.69-0.18-1.03-0.29
				c-1.03-0.33-2.03-0.7-3-1.11c-0.5-0.23-0.99-0.46-1.46-0.7c-0.16-0.09-0.32-0.18-0.48-0.26c-0.3-0.16-0.59-0.32-0.87-0.48
				c-0.03-0.02-0.08-0.04-0.11-0.06c-0.11-0.07-0.2-0.14-0.31-0.2c-0.32-0.2-0.64-0.4-0.94-0.61c-0.16-0.1-0.31-0.22-0.46-0.32
				c-0.28-0.2-0.54-0.4-0.8-0.61c-0.08-0.07-0.18-0.13-0.26-0.2v-0.01l0,0v0.01c-0.06-0.05-0.12-0.11-0.19-0.16
				c-0.15-0.13-0.29-0.26-0.43-0.39c-0.17-0.16-0.34-0.31-0.5-0.47c-0.14-0.13-0.27-0.26-0.4-0.4c-0.08-0.08-0.17-0.17-0.26-0.26
				c-0.04-0.04-0.06-0.09-0.1-0.13c-0.42-0.47-0.81-0.95-1.16-1.43c-0.02-0.03-0.05-0.06-0.07-0.09c-0.04-0.05-0.06-0.1-0.09-0.15
				c-0.35-0.51-0.67-1.03-0.94-1.56c0-0.01,0-0.01,0-0.02c-0.01-0.01-0.01-0.02-0.01-0.04c-0.28-0.55-0.51-1.11-0.72-1.69
				c-0.01-0.05-0.05-0.1-0.06-0.15v-0.02l0,0v0.02c-0.01-0.04-0.02-0.08-0.03-0.11c-0.05-0.14-0.09-0.29-0.13-0.45
				C1008.01,1160.24,1007.95,1160.04,1007.9,1159.83z"/>
			<g>
				<g>
					<polygon class="st38" points="975.84,1178.19 975.09,1263.27 1340.88,1417.19 1341.63,1332.11 					"/>
				</g>
			</g>
			<g>
				<polygon class="st37" points="1341.63,1332.11 1340.88,1417.19 1626.23,1224.64 1626.98,1139.57 				"/>
			</g>
			<g>
				<g>
					<path class="st39" d="M1626.98,1139.57l-151.33-63.67c-5.15,3.03-11.23,8.21-11.82,8.98c-7.07,9.31,2.05,22.02-9.81,30.03
						c-14.61,9.86-50.55,7.7-80.29-4.81c-0.84-0.35-1.66-0.71-2.47-1.07c-27.93-12.45-39.12-29.85-24.93-39.43
						c9.08-6.13,24.73-5.74,37.46-8.09c6.6-1.22,13.39-3.02,18.69-5.45c1.17-0.53,6.87-3.83,10.21-6.65l-151.5-63.76L1143,1065.4
						c-2.45-0.82-5.08-1.91-7.31-2.91c-2.67-1.19-4.77-2.25-5.32-2.59c-4.64-2.86-8.11-6.49-10.48-10
						c-4.5-6.69-4.05-14.84-15.1-19.76c-19.29-8.12-53.27-1.82-76.47,13.83c-22.94,15.48-26.73,34.3-8.71,42.34
						c15.83,6.68,39.64,1.97,57.23,5.84c1.34,0.29,9.7,3.09,15.53,5.69c0.53,0.23,1.04,0.47,1.52,0.7l-118.06,79.65l365.79,153.92
						L1626.98,1139.57z"/>
				</g>
			</g>
		</g>
		<g>
			<path class="st0" d="M1838.31,2027.04c0,51.35-93.54,92.96-208.93,92.96c-115.39,0-208.93-41.61-208.93-92.96
				c0-51.34,93.54-92.96,208.93-92.96C1744.77,1934.08,1838.31,1975.7,1838.31,2027.04z"/>
			<g>
				<g>
					<g>
						<path class="st3" d="M1523.48,2024.21c0,0-22.16-4.05-15.92,14.03c0,0,51.74,22.22,87.88,17.21c0,0,25.4-0.85,21.41-28.41
							l0.42-22.39l-34.07,6.45l1.93,21.28L1523.48,2024.21z"/>
					</g>
					<path class="st40" d="M1616.85,2027.04c0.02,3.54-1.08,6.93-3.4,9.61c-8.92,10.28-26.45,10.59-38.79,9.8
						c-19.54-1.24-39.87-4.2-59.02-8.25c-4.22-0.89-5.4-2.27-5.44-3.51c2.21-4.93,6.18-9.19,13.28-10.47l-18.86-2.41
						c-17.41-0.62-25.31,3.37-29.38,6c-4.82,13.78,18.64,22.97,18.64,22.97s24.91,9.43,54.94,15.33c0,0,66.23,15.62,74.23-4.75
						L1616.85,2027.04z"/>
				</g>
				<g>
					<g>
						<path class="st3" d="M1655.04,1993.42c0,0-22.16-4.05-15.92,14.03c0,0,51.74,22.22,87.88,17.22c0,0,25.4-0.86,21.41-28.41
							l0.42-22.39l-34.07,6.44l1.94,21.28L1655.04,1993.42z"/>
					</g>
					<path class="st40" d="M1748.41,1996.26c0.02,3.54-1.08,6.93-3.4,9.6c-8.92,10.29-26.45,10.59-38.79,9.81
						c-19.54-1.25-39.88-4.2-59.02-8.25c-4.22-0.89-5.4-2.27-5.45-3.51c2.21-4.93,6.18-9.19,13.28-10.48l-18.86-2.41
						c-17.41-0.62-25.31,3.37-29.38,6c-4.82,13.77,18.64,22.96,18.64,22.96s24.91,9.43,54.94,15.34c0,0,66.23,15.61,74.23-4.75
						L1748.41,1996.26z"/>
				</g>
				<g>
					<g>
						<path class="st41" d="M1648.91,1395.37c0,34.91,28.31,63.24,63.24,63.24c34.92,0,63.24-28.33,63.24-63.24
							c0-34.92-28.31-63.24-63.24-63.24C1677.22,1332.12,1648.91,1360.44,1648.91,1395.37z"/>
						<path class="st41" d="M1751.95,1699.81c0,0-0.88,15.9-29.44,16.29c0,0-27.04,9.22-38.71-25.98
							c-46-138.64-33.84-283.32-33.84-283.32s64.94-36.17,125.43-11.43C1775.39,1395.37,1765.61,1577.35,1751.95,1699.81z"/>
					</g>
					<path class="st41" d="M1683.8,1690.12c0,0,22.28,299.64,24.36,310.35c21.74,13.81,40.95-0.38,40.95-0.38
						c-0.11-14.7,15.91-137.23,17.57-160.24c2.84-39.55,7.6-89.52-17.4-146.35L1683.8,1690.12z"/>
					<g>
						<path class="st42" d="M1568.66,1708.95c0,0-6.1,14.71-33.17,5.61c0,0-28.56-0.25-27.91-37.33
							c2.53-146.05,66.53-297.41,66.53-297.41s72.08-6.89,120.96,36.49C1695.06,1416.31,1622.11,1597.93,1568.66,1708.95z"/>
						<path class="st42" d="M1575.71,1374.41c-11.57,32.95,5.77,69.05,38.72,80.62c32.95,11.57,69.05-5.76,80.63-38.72
							c11.57-32.95-5.77-69.05-38.73-80.62C1623.38,1324.13,1587.28,1341.46,1575.71,1374.41z"/>
					</g>
					<path class="st42" d="M1775.39,1386.16c-7.64-70.33-42.93-102.97-42.93-102.97l-122.25-15.44c0,0-33.7,58.64-37.22,118.41
						c14.61,39.86,66.7,51.47,66.7,51.47l39.55,11.74C1679.24,1449.37,1768.87,1435.75,1775.39,1386.16z"/>
					<g>
						<path class="st42" d="M1513.21,1706.32c0,0,60.64,314.77,64.28,325.05c-1.59-0.77,28.66,13.91,42.06-5.04
							c-2.28-14.52-3.56-174.4-5.33-197.41c-3.04-39.54-2.62-76.43-35.75-128.94C1578.47,1699.99,1495.68,1640.72,1513.21,1706.32z"
							/>
					</g>
				</g>
				<path class="st43" d="M1620.42,1930.96"/>
				<g>
					<g>
						<path class="st3" d="M1784.44,1155.17c0,0-22.27,26.23-66.56,89.54l7.65,12.97c0,0,75.86-38.21,100.06-81.11L1784.44,1155.17z
							"/>
					</g>
					<g>
						<path class="st3" d="M1721.73,1061.34c0,0,57.1,124.61,91.4,119.87c0,0,11.84,0.74,14.21-8.18c0,0,24.22-21.48-76.49-176.43
							c0,0-9.84-13.17-30-9.76C1720.85,986.85,1690.26,1007.06,1721.73,1061.34z"/>
					</g>
				</g>
				<g>
					<rect x="1629.38" y="963.8" class="st44" width="61.73" height="65.61"/>
				</g>
				<g>
					<path class="st5" d="M1591.19,965.29l-2.32-10.49c0,0-4.62-38.42-4.62-38.42c-0.58-4.83,0.48-11.01,2.29-15.61
						c1.96-5,3.62-10.3,3.14-15.96c-2.31-27.48,15.38-40.16,15.38-40.16c21.07-22.36,61.66-17.01,61.67-17.01
						c20.98,3.99,38.96,12.86,48.4,30.9c8.56,16.35,12.55,35.96,5.78,53.38c-7.41,19.1-20.36,33.65-37.1,46.6
						c-10.72,8.29-21.17,8.84-34.75,12.57c-9.46,2.59-27.29,3.48-37.13,3.03C1606.77,973.88,1592.52,971.32,1591.19,965.29z"/>
				</g>
				<g>
					<path class="st43" d="M1619.3,929.73"/>
				</g>
				<g>
					<path class="st43" d="M1619.3,929.73c3.05-4.32,14.14-6.99,14.15-6.99c13.4,0,11.65,17.89,12.91,25.63
						c0.41,2.53,0.9,5.12,1.47,7.7c6.38,22.74,25.5,22.54,41.83,25.29c0.6-0.36,1.24-0.72,1.91-1.08
						c2.96-10.08,12.36-20.56,12.36-20.56c24.53-21.21,32.54-59.32,23.2-89.32c-2.83-9.07-8.86-18.71-15.31-25.61
						c-13.72-14.69-31.59-22.54-50.7-26.14c-18.99-3.58-86.94,5.64-68.4,46.9C1592.73,865.57,1620.69,897.82,1619.3,929.73"/>
				</g>
				<g>
					<g>
						<g>
							<path class="st45" d="M1619.3,929.73c2.41-6.13,8.4-10.85,15.13-8.85c4.93,1.48,7.88,5.83,7.39,10.91
								c-0.1,1.1-0.34,2.19-0.45,3.29c-1.94,11.77-14.36,16.26-14.36,16.26"/>
						</g>
						<g>
							<path class="st46" d="M1633.18,926.44c-0.68-0.49-2.11-0.75-2.98-0.81c-4.5-0.29-8.13,6.65-3.63,7.89
								c1.7,1.66-0.06,3.56-0.06,3.56c-1.55,1.68-3.63,4.1-3.16,6.48c0.29,1.41,1.85,2.16,3.26,2.51c1.13,0.28,1.35-0.6,0.46-1.03
								c-0.68-0.33-1.27-0.85-1.72-1.41c-0.04-0.08-0.09-0.16-0.14-0.24c-0.05-0.04-0.07-0.11-0.11-0.18
								c-0.15-0.33-0.15-0.68-0.05-1.03c1.01,0.72,2.71,0.88,3.49-0.04c0.85-1.03,0.2-2.64,0.49-3.81c0.22-0.81,0.6-1.59,1.04-2.33
								c2.07-3.44-1.66-4.02-1.66-4.02c-0.56,0.01-1,0.05-1.37,0.1c-1.89-0.98,0.22-3.81,1.37-4.26c1.34-0.52,2.97-0.34,3.93,0.69
								c0.95,1.04,1.34,2.65,1.25,3.98c-0.1,1.63-0.51,3.26-1.22,4.76c-0.41,0.85-0.93,1.84-1.34,2.7
								c-0.47,0.96,0.65,1.39,1.12,0.41c0.99-2.03,2.82-5.02,3.21-7.84C1635.69,930.19,1635.27,927.95,1633.18,926.44z"/>
						</g>
						<g>
							<path class="st46" d="M1619.3,929.73c0,0,0.54-0.77,1.42-2.16c0.4-0.72,1.18-1.34,1.87-2.15c0.66-0.74,1.85-1.59,2.85-2.21
								c1.15-0.59,2.42-1.21,3.85-1.39c1.41-0.18,2.92-0.18,4.39,0.3c0.49,0.12,1.64,0.6,2.23,0.95c0.6,0.38,1.19,0.79,1.77,1.36
								c1.11,1.08,1.97,2.45,2.35,4c0.37,1.57,0.38,3.05,0.07,4.97l-0.16,1.35l-0.02,0.17v0.02c0.01-0.08-0.03,0.2,0.03-0.16
								l-0.01,0.04l-0.02,0.08l-0.06,0.33l-0.14,0.66c-0.14,0.93-0.41,1.64-0.64,2.38c-0.54,1.47-1.24,2.93-2.09,4.16
								c-0.82,1.27-1.79,2.36-2.7,3.35c-1.89,1.93-3.73,3.35-5.08,4.22c-1.35,0.89-2.18,1.35-2.18,1.35s0.93-0.19,2.46-0.81
								c1.51-0.66,3.72-1.62,5.99-3.43c1.12-0.91,2.33-1.96,3.37-3.29c1.09-1.3,2.05-2.82,2.79-4.59c0.36-0.91,0.73-1.86,0.9-2.7
								l0.17-0.65l0.08-0.33l0.02-0.08l0.04-0.26l0.03-0.17l0.2-1.35c0.32-1.68,0.45-3.98-0.06-6.04c-0.56-2.08-1.77-3.95-3.31-5.39
								c-0.4-0.34-0.78-0.7-1.22-0.99l-1.42-0.79c-1.01-0.46-1.53-0.67-2.72-0.96c-1.9-0.52-3.86-0.32-5.56,0.08
								c-1.75,0.4-3.15,1.32-4.37,2.18c-1.23,1.03-2.03,1.86-2.72,2.94c-0.6,1.03-1.26,1.85-1.52,2.62
								C1619.6,928.83,1619.3,929.73,1619.3,929.73z"/>
						</g>
					</g>
					<g>
						<g>
							<path class="st14" d="M1627.02,948.46c0,2.06-1.67,3.73-3.74,3.73c-2.06,0-3.74-1.68-3.74-3.73c0-2.07,1.68-3.74,3.74-3.74
								C1625.35,944.72,1627.02,946.4,1627.02,948.46z"/>
						</g>
						<g>
							<path class="st47" d="M1624.18,950.46c-1.64,0-2.96-1.32-2.96-2.96c0-1.31,0.87-2.39,2.06-2.77l0,0
								c-2.06,0-3.74,1.68-3.74,3.74c0,2.06,1.68,3.73,3.74,3.73c2.07,0,3.74-1.68,3.74-3.73c0-0.09-0.02-0.18-0.03-0.27
								C1626.67,949.48,1625.56,950.46,1624.18,950.46z"/>
						</g>
					</g>
				</g>
				<g>
					<path class="st40" d="M1790.24,1312.52c-0.24-0.35-68.15-97.78-68.15-97.78c-3.18-14.38,3.98-42.97,3.98-42.97l21.78-149.85
						c-2.58-17.17-3.77-38.97-27.01-35.07c-16.4,2.75-19.63,5.04-29.74,8.29c2.96,13.92-21.06,22.85-21.06,22.85
						c-33.04,14.27-40.68,4.87-40.68,4.87c-8.8,4.76-38.53,19.61-46.25,25.96c-8.02,6.6-12.87,16.87-10.35,34.16l23.78,142.03
						l-4.18,35.28l-43.44,110.13c13.43-4.82,28.11-6.76,42.32-5.06c13.51,1.62,25.15,9.58,38.56,11.07
						c20.27,2.23,35.31-5.09,50.61-14.78c18.59-4.01,38.5-10.46,58.58-20.59c0.43,0,0.85-0.01,1.27-0.01
						c15.16,0.08,32.33-0.18,43.52-12.05C1786.17,1326.51,1793.11,1316.64,1790.24,1312.52z"/>
				</g>
				<g>
					<path class="st5" d="M1555.06,1276.17l0.4-172.53c4.2-47.27,27.68-54.82,27.68-54.82c47.46-5.56,40.15,82.38,40.15,82.38
						l-19.81,148.63"/>
				</g>
				<g>
					<path class="st5" d="M1403.99,1370.5c21.77-11.65,23.72-15.41,27.56-20.89c16.55-23.51-16.91-22.77-25.33-20.86
						c-4.83,1.11-5.13,12.6-20.12,26.63c0,0-23.56,13.67-29.37,12.71c0,0-6.04,0.86-6.04,5.22
						C1350.69,1373.3,1367.23,1383.07,1403.99,1370.5z"/>
				</g>
				<g>
					<g>
						<path class="st45" d="M1586.12,1252.42"/>
					</g>
					<g>
						<path class="st5" d="M1558.62,1257.99l-147.77,80.88c-6.38,17.78,1.83,20.34,1.83,20.34l114.41-32.91
							c48.84-13.08,68.2-33.58,68.2-33.58s21.36-14.8-5.9-36.83C1589.38,1255.89,1576.97,1246.07,1558.62,1257.99z"/>
					</g>
				</g>
				<g>
					<path class="st43" d="M1606.19,919.17c3.83,28.61-0.48,66.48,13.77,97.76c6.35,13.92,13.35,20.82,9.54,36.97
						c-3.11,13.22-9.37,25.69-12.75,39.37c-7.49,30.21,2.69,59.72,37.89,48.79c16.88-5.25,18.77-5.16,34.14,0.8
						c12.91,5,25.05,6.39,37.88,0.15c19.9-9.7,13.91-24.34,25.06-39.02c8.5-11.19,20.51-10.91,26.91-25.93
						c7.73-18.14-1.48-27.82-10.89-43.21c-9.8-16.03-11.37-26.59-8.14-45.92c2.71-16.24-1.3-24.45-6.68-39.38
						c-5.51-15.3-3.11-28.63-5.72-43.97c-5.17-30.34-21.74-71.51-53.53-80.41c-15.58-4.36-35.71-7.77-50.69-2.27
						c-20.41,7.48-43.14,15.46-42.26,40.56C1601.63,889.28,1602.78,893.68,1606.19,919.17z"/>
				</g>
				<path class="st5" d="M1410.17,1328.16c0,0,4.15,12.11-10.93,9.14l-14.76-11.25c0,0-4.58-2.45-2.96-6.83c0,0,1.77-2.5,6.48-0.01
					L1410.17,1328.16z"/>
			</g>
		</g>
	</g>
</g>
</svg>
