<?xml version="1.0" encoding="utf-8"?>
<!-- Generator: Adobe Illustrator 25.1.0, SVG Export Plug-In . SVG Version: 6.00 Build 0)  -->
<svg version="1.1" id="Layer_1" xmlns="http://www.w3.org/2000/svg" xmlns:xlink="http://www.w3.org/1999/xlink" x="0px" y="0px"
	 viewBox="0 0 500 500" style="enable-background:new 0 0 500 500;" xml:space="preserve">
<style type="text/css">
	.st0{fill:#A6DDF0;}
	.st1{fill:#D8EDEE;}
	.st2{fill:#FFFFFF;}
	.st3{fill:#F15B2C;}
	.st4{fill:#F7EC3C;}
	.st5{fill:#E8B02C;}
	.st6{fill:none;stroke:#414042;stroke-width:4.8956;stroke-linecap:round;stroke-miterlimit:10;}
	.st7{fill:#A7A9AC;}
	.st8{fill:#221F1F;}
	.st9{fill:none;stroke:#414042;stroke-width:4.0841;stroke-linecap:round;stroke-miterlimit:10;}
	.st10{fill:#FDE03B;}
	.st11{fill:#414042;}
</style>
<g>
	<g>
		<path class="st0" d="M248.29,56.97c-118.89,0-215.27,96.38-215.27,215.27s96.38,215.28,215.27,215.28
			c118.9,0,215.28-96.38,215.28-215.28C463.57,153.36,367.18,56.97,248.29,56.97z"/>
		<path class="st1" d="M421.08,400.67c-0.24-14.78-10.72-27.91-25.81-30.92c-14.82-2.96-29.29,4.81-35.39,17.94
			c-3.55-3.16-7.96-5.45-12.97-6.45c-10.93-2.18-21.63,2.4-27.79,10.86c-1.78-0.72-3.64-1.29-5.58-1.67
			c-16.92-3.37-33.37,7.6-36.75,24.52c-3.37,16.92,7.6,33.37,24.52,36.75c5.82,1.16,11.57,0.63,16.76-1.27
			c-0.03,0.12-0.06,0.23-0.07,0.35c-1.7,8.51,0.39,16.88,5.09,23.4C362.47,459.58,396.43,433.79,421.08,400.67z"/>
		<path class="st1" d="M103.39,413.34c12.38,6.55,27.73,1.84,34.29-10.53c6.55-12.38,1.84-27.74-10.53-34.29
			c-2.31-1.22-4.72-2.05-7.15-2.51c0.18-0.32,0.38-0.65,0.55-0.98c6.82-12.86,1.91-28.82-10.95-35.63
			c-7.47-3.97-15.98-3.96-23.15-0.75c-1.84-5.33-5.64-10-11.01-12.86c-8.23-4.36-17.91-3.25-24.86,2.05
			c-1.76-2.03-3.91-3.79-6.43-5.12c-2.5-1.32-5.13-2.12-7.78-2.44c6.91,38.76,24.19,73.93,48.87,102.55
			c4.01-0.71,7.81-2.47,10.95-5.17C98.17,409.9,100.58,411.84,103.39,413.34z M74.72,368.37c-0.01-0.75-0.06-1.5-0.13-2.24
			c0.39,0.67,0.82,1.3,1.28,1.93C75.48,368.15,75.09,368.26,74.72,368.37z"/>
		<polygon class="st1" points="238.46,275.45 210.44,434.02 297.24,428.78 264.21,273.79 		"/>
		<path class="st1" d="M312.68,418.82c2.51-6.9-0.58-14.46-6.94-17.72c1.73-1.94,3.12-4.23,4.07-6.81
			c3.98-10.95-1.67-23.06-12.63-27.03c-10.95-3.98-23.05,1.67-27.02,12.62c-0.44,1.22-0.76,2.46-0.97,3.69
			c-0.92-0.49-1.89-0.92-2.89-1.29c-11.68-4.24-24.59,1.78-28.84,13.47c-3.61,9.96,0.23,20.8,8.69,26.42
			c-2.57,2.13-4.62,4.94-5.85,8.3c-2.67,7.34-0.62,15.25,4.59,20.4c-0.68,1.16-1.28,2.39-1.75,3.69
			c-4.12,11.36,1.74,23.93,13.1,28.05c11.36,4.13,23.93-1.74,28.05-13.1c1.42-3.9,1.66-7.95,0.9-11.75
			c0.08,0.03,0.16,0.06,0.24,0.09c10.9,3.96,22.95-1.66,26.9-12.56c2.64-7.29,1.01-15.07-3.61-20.62
			C310.46,423.13,311.84,421.15,312.68,418.82z"/>
		<path class="st1" d="M435.64,318.56c-0.77,1.03-1.43,2.11-1.99,3.22c-0.73-0.73-1.52-1.42-2.37-2.06
			c-9.83-7.39-23.79-5.4-31.17,4.43c-6.3,8.39-5.78,19.77,0.6,27.51c-3.04,1.27-5.81,3.35-7.93,6.18
			c-4.64,6.18-4.98,14.26-1.54,20.64c-0.98,0.9-1.9,1.89-2.72,2.99c-7.18,9.57-5.26,23.15,4.31,30.33
			c4.69,3.52,10.34,4.85,15.73,4.17c25.86-28.82,44.05-64.65,51.39-104.29C451.44,308.32,441.4,310.89,435.64,318.56z"/>
		<path class="st1" d="M228.73,394.27c1.06-1.57,1.92-3.34,2.51-5.28c2.81-9.25-1.56-18.78-9.77-21.27
			c-7.43-2.26-15.45,2.02-18.99,9.72c-6.91-0.21-13.63,4.81-15.98,12.54c-1.9,6.29-0.42,12.7,3.37,16.84
			c-3.37,1.28-6.22,4.27-7.43,8.27c-1.96,6.45,1.09,13.09,6.81,14.83c0.5,0.15,1.02,0.25,1.53,0.31c-0.01,0.05-0.04,0.08-0.05,0.13
			c-2.11,6.94,1.17,14.09,7.33,15.96c6.16,1.87,12.86-2.25,14.97-9.19c0.38-1.26,0.58-2.51,0.62-3.75c0.16,0.06,0.31,0.11,0.47,0.16
			c9.85,2.99,20.56-3.59,23.93-14.7C241.12,408.68,236.99,398.26,228.73,394.27z"/>
		<path class="st1" d="M200.92,457.98c1.89,0.31,3.83,0.44,5.82,0.39c17.24-0.46,30.85-14.81,30.39-32.06
			c-0.46-17.24-14.81-30.85-32.06-30.39c-5.93,0.16-11.43,1.96-16.07,4.96c0-0.12,0-0.24,0-0.36
			c-0.44-16.54-14.21-29.58-30.75-29.14c-11.05,0.3-20.53,6.54-25.48,15.58c-2.95-1.5-6.3-2.3-9.84-2.21
			c-10.47,0.28-18.88,8.34-19.9,18.48c-3.48-1.28-7.24-1.93-11.17-1.83c-4.76,0.13-9.23,1.36-13.17,3.43
			c24.69,31.54,57.99,56.03,96.37,69.91c0.39,0.01,0.79,0.02,1.17,0.01C187.37,474.45,196.79,467.59,200.92,457.98z"/>
		<path class="st2" d="M415.37,408c-2.12-1.72-4.49-3.21-7.1-4.38c-13.78-6.2-29.62-1.87-38.51,9.56c-2.76-3.88-6.54-7.1-11.2-9.2
			c-10.17-4.58-21.62-2.5-29.52,4.37c-1.57-1.09-3.26-2.06-5.07-2.88c-15.74-7.08-34.23-0.06-41.3,15.67
			c-7.08,15.74-0.06,34.23,15.67,41.3c5.41,2.43,11.14,3.2,16.62,2.52c-0.05,0.11-0.1,0.21-0.16,0.32
			c-1.84,4.1-2.68,8.38-2.63,12.59C353.19,465.16,388.93,440.5,415.37,408z"/>
		<path class="st2" d="M111.37,429.93c0.11-0.06,0.21-0.11,0.32-0.17c14.56-7.87,19.99-26.04,12.12-40.6
			c-5.25-9.73-15.11-15.37-25.41-15.7c0-3.3-0.8-6.66-2.48-9.77c-4.97-9.21-15.97-13.08-25.48-9.41c-0.43-3.68-1.54-7.33-3.41-10.79
			c-5.49-10.17-15.99-15.89-26.8-15.79c13.31,50.05,44.19,92.93,85.65,121.65c-0.62-2.5-1.56-4.96-2.84-7.32
			C120.23,436.8,116.14,432.72,111.37,429.93z"/>
		<polygon class="st2" points="241.9,305.46 220.18,416.36 287.5,412.7 261.89,304.29 		"/>
		<path class="st2" d="M285.19,473.6c0.08,0.03,0.16,0.06,0.24,0.09c10.9,3.97,22.95-1.66,26.9-12.56
			c2.64-7.28,1.01-15.07-3.61-20.62c1.73-1.53,3.12-3.51,3.97-5.85c2.51-6.9-0.58-14.46-6.94-17.72c1.73-1.94,3.12-4.23,4.06-6.81
			c3.98-10.95-1.67-23.05-12.62-27.03c-10.95-3.98-23.05,1.67-27.02,12.62c-0.44,1.22-0.76,2.46-0.97,3.69
			c-0.92-0.49-1.89-0.92-2.89-1.29c-11.68-4.24-24.59,1.78-28.84,13.47c-3.61,9.96,0.23,20.8,8.68,26.42
			c-2.57,2.13-4.62,4.94-5.84,8.3c-2.67,7.34-0.62,15.25,4.59,20.41c-0.68,1.16-1.28,2.39-1.75,3.69
			c-2.11,5.81-1.61,11.93,0.91,17.08c1.41,0.03,2.83,0.06,4.24,0.06c12.37,0,24.49-1.05,36.29-3.06
			C285.73,480.84,285.89,477.11,285.19,473.6z"/>
		<path class="st2" d="M452.04,330.14c-10.16,2.58-16.89,11.77-16.78,21.81c-3.17-0.92-6.62-1.04-10.05-0.17
			c-7.5,1.9-12.82,7.98-14.15,15.11c-1.32,0.08-2.66,0.29-3.99,0.63c-11.6,2.95-18.61,14.74-15.66,26.33
			c2.59,10.22,12.05,16.86,22.19,16.3c19.41-23.23,33.99-50.62,42.26-80.63C454.59,329.63,453.31,329.82,452.04,330.14z"/>
		<path class="st2" d="M233.48,405.37c0.43-1.85,0.59-3.81,0.44-5.82c-0.71-9.65-8.22-16.96-16.78-16.33
			c-7.74,0.57-13.68,7.45-14.22,15.9c-6.53,2.28-10.98,9.38-10.39,17.44c0.49,6.55,4.19,12,9.2,14.51
			c-2.68,2.4-4.27,6.22-3.97,10.39c0.5,6.72,5.73,11.82,11.69,11.38c0.53-0.04,1.04-0.13,1.53-0.25c0,0.05,0,0.09,0,0.14
			c0.54,7.24,6.17,12.72,12.58,12.24c6.42-0.47,11.19-6.72,10.65-13.96c-0.09-1.31-0.36-2.56-0.77-3.73
			c0.17-0.01,0.32-0.01,0.49-0.02c10.26-0.76,17.89-10.75,17.04-22.33C250.22,414.36,242.62,406.12,233.48,405.37z"/>
		<path class="st2" d="M219.54,484.29c17.24-0.46,30.85-14.82,30.39-32.06c-0.46-17.24-14.81-30.85-32.06-30.39
			c-5.93,0.16-11.43,1.96-16.07,4.96c0-0.12,0-0.24,0-0.36c-0.44-16.54-14.21-29.59-30.75-29.15c-11.05,0.3-20.53,6.54-25.48,15.58
			c-2.95-1.5-6.3-2.3-9.84-2.21c-10.47,0.28-18.89,8.34-19.9,18.48c-3.48-1.28-7.24-1.94-11.17-1.83c-1.74,0.05-3.45,0.25-5.09,0.57
			c30.68,29.33,70.01,49.66,113.78,56.8c0.13-0.27,0.26-0.53,0.38-0.8C215.62,484.2,217.56,484.34,219.54,484.29z"/>
		<path class="st2" d="M318.74,459.67c-5.93,0.16-11.43,1.96-16.07,4.96c0-0.12,0-0.24,0-0.36c-0.44-16.54-14.21-29.59-30.75-29.15
			c-11.05,0.3-20.53,6.54-25.48,15.58c-2.95-1.5-6.3-2.3-9.84-2.21c-10.47,0.28-18.88,8.33-19.9,18.48
			c-3.48-1.28-7.24-1.93-11.17-1.83c-9.56,0.26-17.95,4.95-23.28,12.05c20.81,6.7,43,10.34,66.04,10.34
			c32.74,0,63.77-7.32,91.55-20.39C334.18,462.29,326.77,459.46,318.74,459.67z"/>
		<path class="st2" d="M385.07,166.43c-0.83,0.17-1.63,0.43-2.38,0.76c-0.04-0.47-0.1-0.93-0.19-1.41c-1.29-6.66-7.75-11-14.4-9.7
			c-3.66,0.71-6.63,3-8.33,6c-2.5-2.54-6.18-3.82-9.93-3.08c-4.56,0.89-7.9,4.48-8.69,8.8c-1.42-0.25-2.91-0.24-4.41,0.05
			c-4.89,0.95-8.51,4.72-9.54,9.28h70.66c0.01-0.73-0.06-1.47-0.19-2.22C396.54,169.09,390.9,165.29,385.07,166.43z M360.67,176.43
			c0.11-0.15,0.23-0.31,0.33-0.45c0.23,0.28,0.47,0.55,0.72,0.8C361.38,176.63,361.03,176.52,360.67,176.43z"/>
		<path class="st2" d="M158.24,213.08c-0.66,0.13-1.28,0.33-1.85,0.59c-0.03-0.36-0.07-0.73-0.15-1.1
			c-1.02-5.2-6.05-8.59-11.24-7.57c-2.86,0.55-5.17,2.34-6.51,4.69c-1.95-1.98-4.82-2.98-7.75-2.4c-3.56,0.69-6.18,3.5-6.79,6.87
			c-1.11-0.19-2.27-0.19-3.44,0.04c-3.82,0.75-6.65,3.68-7.45,7.25h55.17c0.01-0.57-0.04-1.15-0.16-1.73
			C167.19,215.15,162.78,212.19,158.24,213.08z M139.18,220.88c0.09-0.11,0.18-0.23,0.26-0.36c0.18,0.21,0.37,0.43,0.56,0.62
			C139.74,221.04,139.46,220.96,139.18,220.88z"/>
	</g>
	<g>
		<g>
			<path class="st3" d="M256.7,351.28c8.52-21.37,27.79-48.37,27.48-60.5c-0.31-12.13-14.33-29-29.74-28.61
				c-15.4,0.39-28.57,17.74-28.25,30.08C226.5,304.58,256.7,351.28,256.7,351.28z"/>
			<path class="st4" d="M256.31,335.89c6.97-17.47,22.72-39.53,22.46-49.44c-0.25-9.91-11.71-23.7-24.31-23.38
				c-12.59,0.31-23.34,14.51-23.09,24.58C231.63,297.72,256.31,335.89,256.31,335.89z"/>
			<path class="st2" d="M255.88,319.07c5.37-13.46,17.5-30.46,17.31-38.1c-0.19-7.64-9.02-18.26-18.73-18.02
				c-9.7,0.25-17.99,11.18-17.79,18.94C236.87,289.67,255.88,319.07,255.88,319.07z"/>
		</g>
		<g>
			<path class="st3" d="M231.25,326.72c8.64-12.63,25.07-27.34,26.64-35.25c1.56-7.91-5.08-20.9-15.13-22.9
				c-10.05-1.99-21.12,7.36-22.72,15.4C218.46,292.03,231.25,326.72,231.25,326.72z"/>
			<path class="st4" d="M233.24,316.67c7.06-10.33,20.5-22.35,21.77-28.81c1.28-6.47-4.15-17.08-12.37-18.71
				c-8.22-1.63-17.26,6.01-18.56,12.59C222.79,288.32,233.24,316.67,233.24,316.67z"/>
			<path class="st2" d="M235.41,305.71c5.45-7.96,15.79-17.21,16.78-22.2c0.99-4.98-3.2-13.17-9.53-14.42
				c-6.33-1.26-13.3,4.63-14.31,9.71C227.36,283.85,235.41,305.71,235.41,305.71z"/>
		</g>
		<g>
			<path class="st3" d="M262.37,300.68c-0.05-9.73,3.22-23.34,1.18-28.05c-2.04-4.7-10.21-9.09-16.18-6.49
				c-5.97,2.59-8.38,11.47-6.31,16.25C243.15,287.17,262.37,300.68,262.37,300.68z"/>
			<path class="st4" d="M259.78,294.71c-0.04-7.94,2.63-19.08,0.96-22.92c-1.66-3.85-8.34-7.42-13.22-5.31
				c-4.87,2.12-6.84,9.37-5.15,13.29C244.07,283.68,259.78,294.71,259.78,294.71z"/>
			<path class="st2" d="M256.96,288.19c-0.03-6.12,2.03-14.7,0.74-17.66c-1.29-2.97-6.43-5.72-10.19-4.09
				c-3.76,1.64-5.28,7.23-3.97,10.23C244.84,279.69,256.96,288.19,256.96,288.19z"/>
		</g>
		<g>
			<path class="st5" d="M330.9,93.64c-42.99,56.95-58.84,7.75-82.6,7.91c-12.44,0.09-21.49,51.29-82.61-7.91
				c0-45.62,36.98-82.61,82.61-82.61C293.92,11.03,330.9,48.02,330.9,93.64z"/>
			<path class="st5" d="M165.7,93.64c9.05,51.53,33.95,57.84,47.52,111.71c29.48,19.63,27.22,15.1,74.68,3.87
				c6.79-49.58,42.99-79.48,42.99-115.57C333.15,39.69,172.48,50.27,165.7,93.64z"/>
			<g>
				<path class="st6" d="M210.96,109.33c0,0,15.65,35.95,20.39,49.28c4.73,13.33,4.87,45.17,4.87,45.17"/>
				<path class="st6" d="M291.34,109.33c0,0-15.65,35.95-20.39,49.28c-4.73,13.33-4.86,45.17-4.86,45.17"/>
			</g>
			<path class="st7" d="M222.18,230.27v25.49c0,7.84,5.08,14.19,11.36,14.19h34.08c6.26,0,11.35-6.35,11.35-14.19v-25.49H222.18z"/>
			<path class="st8" d="M208.03,199v41.33c0,7.84,6.35,14.19,14.18,14.19h56.72c7.83,0,14.18-6.35,14.18-14.19V199H208.03z"/>
			<g>
				<path class="st9" d="M234.67,122.46c0,5.97-3.69,10.82-8.24,10.82c-4.55,0-8.24-4.84-8.24-10.82c0-5.96,3.69-10.81,8.24-10.81
					C230.98,111.65,234.67,116.5,234.67,122.46z"/>
				<path class="st9" d="M251.15,122.46c0,5.97-3.69,10.82-8.25,10.82c-4.55,0-8.24-4.84-8.24-10.82c0-5.96,3.69-10.81,8.24-10.81
					C247.46,111.65,251.15,116.5,251.15,122.46z"/>
				<path class="st9" d="M267.63,122.46c0,5.97-3.69,10.82-8.25,10.82c-4.56,0-8.25-4.84-8.25-10.82c0-5.96,3.69-10.81,8.25-10.81
					S267.63,116.5,267.63,122.46z"/>
				<path class="st9" d="M284.11,122.46c0,5.97-3.69,10.82-8.24,10.82s-8.24-4.84-8.24-10.82c0-5.96,3.69-10.81,8.25-10.81
					C280.43,111.65,284.11,116.5,284.11,122.46z"/>
			</g>
			<path class="st10" d="M222.18,26.2c20.39-15.04,56.75-2.25,70.22,7.53c18.72,13.6,32.55,43.64,30.39,63.06
				s-10.37,29.67-18.01,47.74c-2.72,6.43,9.28-19.59-5.31-54.66c-10.89-26.17-42.37-32.85-63.26-35.26
				C221.61,52.93,201.9,41.17,222.18,26.2z"/>
			<path class="st11" d="M296,211.45c0,1.13-0.87,2.04-1.94,2.04h-87.38c-1.07,0-1.94-0.91-1.94-2.04v-3.55
				c0-1.13,0.87-2.04,1.94-2.04h87.38c1.07,0,1.94,0.92,1.94,2.04V211.45z"/>
			<path class="st11" d="M296,223.66c0,1.13-0.87,2.04-1.94,2.04h-87.38c-1.07,0-1.94-0.92-1.94-2.04v-3.54
				c0-1.13,0.87-2.04,1.94-2.04h87.38c1.07,0,1.94,0.92,1.94,2.04V223.66z"/>
			<path class="st11" d="M296.19,235.86c0,1.13-0.87,2.04-1.94,2.04h-87.38c-1.07,0-1.94-0.92-1.94-2.04v-3.54
				c0-1.13,0.87-2.04,1.94-2.04h87.38c1.07,0,1.94,0.92,1.94,2.04V235.86z"/>
		</g>
	</g>
</g>
</svg>
