<?xml version="1.0" encoding="utf-8"?>
<!-- Generator: Adobe Illustrator 25.1.0, SVG Export Plug-In . SVG Version: 6.00 Build 0)  -->
<svg version="1.1" id="_x3C_Layer_x3E_" xmlns="http://www.w3.org/2000/svg" xmlns:xlink="http://www.w3.org/1999/xlink" x="0px"
	 y="0px" viewBox="0 0 2760 1840" style="enable-background:new 0 0 2760 1840;" xml:space="preserve">
<style type="text/css">
	.st0{fill:#FFFFFF;}
	.st1{fill:#DAEBE8;}
	.st2{fill:#FFB27D;}
	.st3{fill:#B8D5DC;}
	.st4{opacity:0.6;}
	.st5{fill:#ACC9C5;}
	.st6{fill:#CCD39C;}
	.st7{fill:#C2C68E;}
	.st8{opacity:0.5;}
	.st9{fill:#68A1BF;}
	.st10{fill:#92BCB5;}
	.st11{opacity:0.4;}
	.st12{fill:#366F90;}
	.st13{fill:#73B3CE;}
	.st14{fill:#92A5E6;}
	.st15{fill:#EF8062;}
	.st16{fill:#764678;}
	.st17{fill:#331832;}
	.st18{fill:#6DA49A;}
	.st19{fill:#020202;}
	.st20{fill:#E9845C;}
	.st21{fill:#E9633E;}
	.st22{fill:#080435;}
	.st23{fill:#EC865C;}
	.st24{fill:#CD653F;}
	.st25{opacity:0.3;}
</style>
<rect class="st0" width="2760" height="1840"/>
<g>
	<g>
		<path class="st1" d="M2270.94,1698.61c-199.49,25.52-405.02,14.89-824.97-11.82c-235.81-15-709.94,9.85-946.61,11.82
			c-172.54,1.44-312.42-130.22-312.42-290.86V917.78V405.95c0-160.64,140.17-300.31,312.42-290.86
			c159.96,8.77,395.24,43.51,640.5,22.24c291.7-25.3,845.38-46.8,1131.07-22.24c171.82,14.77,312.42,130.22,312.42,290.86v1001.8
			C2583.37,1568.39,2441.88,1676.74,2270.94,1698.61z"/>
	</g>
	<g>
		<path class="st2" d="M1994.03,528.56c0,0-79.66-6.28-111.06-51.6l-22.95,21.51c0,0,38.87,66.38,124.89,64.43L1994.03,528.56z"/>
	</g>
	<g>
		<ellipse class="st3" cx="1414.39" cy="1431.81" rx="915.16" ry="122.4"/>
	</g>
	<g class="st4">
		<path class="st5" d="M1795.95,1184.38c0,0,231.11-537.4,374.52-469.2s-234.62,325.79-296.95,484.36L1795.95,1184.38z"/>
	</g>
	<g>
		<g>
			<path class="st6" d="M1789.69,1209.32c0,0,404.82-460.38,553.38-338.43s-354.81,244.34-467.46,382.34L1789.69,1209.32z"/>
		</g>
		<g>
			<g>
				<path class="st7" d="M1837.53,1234.31c76.07-96.72,191.32-174.83,274.61-223.33c90.29-52.57,163.47-82.61,164.2-82.91
					l-1.86-4.55c-0.73,0.3-74.23,30.46-164.82,83.21c-83.66,48.71-199.45,127.2-276,224.54L1837.53,1234.31z"/>
			</g>
		</g>
	</g>
	<g>
		<g>
			<g>
				<path class="st5" d="M2260.06,1385.2c-60.11-11.1-85.8,76.2-142.15,34.47c-47.65-35.33-50.07-42.1-74.86-34.47
					c-8.5,2.61-16.52,6.55-23.95,11.43c-8.9,5.85-24.54,13.42-41.86,9.51c-105.8-23.88-179.69-226.03-43.3-263.43
					c9.85-2.7,21.59-0.42,34.34,2.71c69.15,16.99,76.93,55.25,160.03,0.09c83.12-55.18,106.71,83.58,151.86,97.91
					c45.15,14.33,88.97,17.3,103.62,77.62C2398.44,1381.41,2320.15,1396.34,2260.06,1385.2z"/>
			</g>
		</g>
		<g class="st8">
			<g>
				<g>
					<path class="st9" d="M1921.05,1261.94l-0.78-3.94c1.74-0.35,177.22-33.37,465.87,79.42l-1.46,3.75
						C2097.11,1228.8,1922.78,1261.6,1921.05,1261.94z"/>
				</g>
			</g>
			<g>
				<g>
					<path class="st9" d="M2145.03,1225.84c-23.53-49.71-18.91-79.43-18.7-80.67l3.97,0.66c-0.05,0.29-4.56,29.85,18.37,78.29
						L2145.03,1225.84z"/>
				</g>
			</g>
			<g>
				<g>
					<path class="st9" d="M2134.84,1268.6c-2.79-23.1,9.45-49.6,35.4-76.62c19.44-20.24,39.98-33.89,40.18-34.03l2.21,3.35
						c-0.8,0.53-80.23,53.69-73.81,106.81L2134.84,1268.6z"/>
				</g>
			</g>
			<g>
				<g>
					<path class="st9" d="M2212.77,1293.59c-2.92-5.63-4.32-9.09-4.39-9.25l3.73-1.48c0.29,0.73,29.97,73.47,106.39,102.74
						l-1.44,3.75C2255.5,1365.77,2223.64,1314.58,2212.77,1293.59z"/>
				</g>
			</g>
			<g>
				<g>
					<path class="st9" d="M2214,1394.9c-9.19-26.42-6.09-47.68-1.86-60.87c4.6-14.35,11.34-22.35,11.63-22.69l3.06,2.61
						c-0.26,0.31-25.86,31.25-9.03,79.62L2214,1394.9z"/>
				</g>
			</g>
		</g>
	</g>
	<g class="st4">
		<path class="st5" d="M2240.44,796.42c14.95-9.79,23.15-6.97,27.78,0.11c4.63,7.08,3.94,15.73-11.01,25.52
			c-27.23,17.84-48.78,13.65-48.78,13.65S2212.81,814.52,2240.44,796.42z"/>
	</g>
	<g class="st4">
		<path class="st5" d="M2276.65,1116.02c18.84,1.59,23.94,8.05,23.31,15.44c-0.62,7.39-6.73,12.9-25.57,11.31
			c-34.32-2.9-49.77-17.67-49.77-17.67S2241.83,1113.08,2276.65,1116.02z"/>
	</g>
	<g class="st4">
		<path class="st5" d="M2251.75,1068.27c15.54-8.65,22.91-6.28,26.3-0.19c3.39,6.09,1.51,13.6-14.02,22.25
			c-28.3,15.76-48.12,12.34-48.12,12.34S2223.03,1084.26,2251.75,1068.27z"/>
	</g>
	<g class="st4">
		<g>
			<g>
				<path class="st5" d="M768.25,729.39c-11.37,8.77-17.53,7.76-20.97,3.3c-3.43-4.46-2.84-10.68,8.53-19.44
					c20.71-15.97,36.93-15.62,36.93-15.62S789.25,713.19,768.25,729.39z"/>
			</g>
			<g>
				<path class="st5" d="M779.3,821.76c-7.92,11.97-14.08,13.02-18.77,9.91c-4.69-3.1-6.14-9.18,1.78-21.16
					c14.43-21.81,29.89-26.73,29.89-26.73S793.94,799.63,779.3,821.76z"/>
			</g>
			<g>
				<g>
					<g>
						<path class="st5" d="M803.99,1062.66l-2.72,0.11c-0.02-0.42-1.9-42.54-23.63-101.84c-20.05-54.72-61.58-135.67-145.58-210.59
							l1.81-2.03c84.46,75.34,126.21,156.76,146.36,211.8C802.09,1019.78,803.97,1062.24,803.99,1062.66z"/>
					</g>
				</g>
				<g>
					<g>
						<path class="st5" d="M719.54,845.48l-2.45-1.17c42.36-89.12-2.1-185.19-2.56-186.15l2.46-1.16
							C717.45,657.98,762.46,755.18,719.54,845.48z"/>
					</g>
				</g>
				<g>
					<g>
						<path class="st5" d="M673.43,806.89c-27.37,3.47-49.79-7.62-50.05-7.75l1.22-2.43c0.29,0.14,29.01,14.31,60.7,4.92l0.77,2.61
							C681.79,805.51,677.55,806.37,673.43,806.89z"/>
					</g>
				</g>
				<g>
					<g>
						<path class="st5" d="M628.37,735.53c15.88,11.06,18,18.09,14.79,22.71c-3.21,4.62-10.54,5.07-26.43-5.98
							c-28.93-20.14-37.1-38.24-37.1-38.24S599.01,715.1,628.37,735.53z"/>
					</g>
				</g>
				<g>
					<g>
						<path class="st5" d="M629.51,789.51c18.48,5.75,22.62,11.82,20.95,17.19c-1.67,5.37-8.52,8.02-27,2.26
							c-33.66-10.48-46.9-25.27-46.9-25.27S595.36,778.88,629.51,789.51z"/>
					</g>
				</g>
				<g>
					<g>
						<path class="st5" d="M695.56,760.46c5,13.46,2.21,19.05-3.06,21.01c-5.27,1.96-11.03-0.45-16.03-13.91
							c-9.11-24.51-3.96-39.91-3.96-39.91S686.32,735.59,695.56,760.46z"/>
					</g>
				</g>
				<g>
					<g>
						<path class="st5" d="M721.29,645.37c6.84,18.11,4.6,25.11-0.66,27.1c-5.26,1.99-11.56-1.79-18.4-19.9
							c-12.45-32.99-8.94-52.54-8.94-52.54S708.65,611.9,721.29,645.37z"/>
					</g>
				</g>
			</g>
		</g>
	</g>
	<g class="st4">
		<path class="st5" d="M891.77,1133.98c0,0-246.97-380.56-347.67-309.67c-100.7,70.89,221.97,218.34,290.36,331.41L891.77,1133.98z"
			/>
	</g>
	<g>
		<g>
			<path class="st10" d="M881.94,1205.33c0,0-383.13-368.82-502.76-252.7s324.33,185.66,431.66,296.85L881.94,1205.33z"/>
		</g>
		<g>
			<g>
				<path class="st9" d="M842.39,1230.38c-72.73-78.14-177.99-137.36-253.48-173.28c-81.84-38.94-147.27-59.64-147.92-59.84
					l1.28-4.07c0.65,0.2,66.36,20.99,148.47,60.06c75.83,36.08,181.58,95.6,254.77,174.22L842.39,1230.38z"/>
			</g>
		</g>
	</g>
	<g>
		<g>
			<g>
				<path class="st6" d="M874.08,1421.97c-37.92,26.87-118.51,20.22-166.58-15.13c-40.52-29.79-28.96-30.69-107.63-16.58
					c-56.43,10.09-63.12-39.63-87.14-75.59c-0.43-0.66-0.88-1.31-1.33-1.96c-9.26-13.31-21.15-24.49-39.2-29.65
					c-19.15-5.46-38.73-13.83-55.87-24.29c-1.42-0.86-2.83-1.74-4.23-2.65c-33.99-21.92-56.92-52.14-44.63-83.45
					c0.29-0.74,0.6-1.48,0.93-2.22c2.31-5.18,5.59-10.39,9.96-15.59c45.51-54.16,91.75-35,145.1-26.75
					c29.5,4.55,71.51-33.05,112.82-50.96c0.59-0.26,1.19-0.51,1.78-0.76c32.79-13.77,65.01-14.54,90.01,28.68
					c0,0.01,0.01,0.01,0.01,0.02c0.51,0.88,1.02,1.75,1.52,2.6c55.87,95.19,83.4,60.85,161.9,78.37
					c14.6,3.27,27.75,6.89,36.43,14.64C1008.93,1272.94,954.77,1373.14,874.08,1421.97z"/>
			</g>
		</g>
		<g>
			<g>
				<g>
					<path class="st7" d="M880.71,1328.95l2.8-3.63c-1.6-1.23-164.03-123.85-515.83-154.93l-0.4,4.57
						C717.75,1205.93,879.11,1327.72,880.71,1328.95z"/>
				</g>
			</g>
			<g>
				<g>
					<path class="st7" d="M670.32,1178.62c49.19-38.83,59.52-71.51,59.94-72.89l-4.38-1.33c-0.1,0.32-10.46,32.78-58.4,70.62
						L670.32,1178.62z"/>
				</g>
			</g>
			<g>
				<g>
					<path class="st7" d="M659.07,1227.45c14.55-22.17,15.47-55.43,2.65-96.16c-9.59-30.51-23.65-54.85-23.79-55.1l-3.96,2.3
						c0.55,0.95,54.72,95.46,21.27,146.45L659.07,1227.45z"/>
				</g>
			</g>
			<g>
				<g>
					<path class="st7" d="M566.86,1213.48c5.83-4.27,9.02-7.09,9.16-7.22l-3.06-3.41c-0.67,0.6-67.8,59.83-160.64,50.99l-0.43,4.56
						C486.69,1265.53,545.13,1229.4,566.86,1213.48z"/>
				</g>
			</g>
			<g>
				<g>
					<path class="st7" d="M514.3,1316.28c22.77-22.32,30.36-45.6,32.72-61.2c2.57-16.98-0.26-28.57-0.38-29.05l-4.45,1.12
						c0.11,0.45,10.58,45.01-31.1,85.87L514.3,1316.28z"/>
				</g>
			</g>
		</g>
	</g>
	<g>
		<path class="st5" d="M447.1,887.7c-12.86-6.16-14.06-13.48-10.82-20.25c3.24-6.77,9.69-10.42,22.55-4.26
			c23.43,11.22,28.89,28.9,28.89,28.9S470.87,899.09,447.1,887.7z"/>
	</g>
	<g class="st11">
		<path class="st0" d="M1597.81,251.12c0,0-18.15-34.91-64.06-30.54c-45.92,4.37-40.45,39.37-62.32,36.09
			c-21.87-3.28-52.48,0-59.04,21.87c-6.56,21.87-36.08,9.84-37.17,28.44c-1.09,18.59,33.89,31.72,74.34,15.31
			c40.45-16.41,60.13,12.74,116.98,7.47c56.85-5.28,63.89-11.84,97.54-8.56c33.65,3.28,32.85-19.77,17.54-35.08
			C1666.32,270.8,1604.37,272.26,1597.81,251.12z"/>
	</g>
	<g class="st4">
		<path class="st0" d="M1745.4,364.76c0,0-8.06-15.51-28.46-13.57c-20.4,1.94-17.97,17.49-27.68,16.03
			c-9.71-1.46-23.31,0-26.23,9.72c-2.91,9.72-16.03,4.37-16.51,12.63c-0.49,8.26,15.06,14.09,33.03,6.8s26.71,5.66,51.97,3.32
			c25.26-2.34,28.38-5.26,43.33-3.8c14.95,1.46,14.59-8.78,7.79-15.58C1775.84,373.5,1748.32,374.15,1745.4,364.76z"/>
	</g>
	<g class="st4">
		<path class="st0" d="M764.35,371.66c0,0-12.11-23.3-42.76-20.38c-30.65,2.92-27,26.28-41.59,24.09c-14.59-2.19-35.03,0-39.41,14.6
			c-4.38,14.6-24.08,6.57-24.81,18.98c-0.73,12.41,22.62,21.17,49.62,10.22c27-10.95,40.14,8.51,78.08,4.98
			c37.95-3.52,42.65-7.9,65.11-5.71c22.46,2.19,21.93-13.19,11.71-23.41C810.08,384.8,768.73,385.78,764.35,371.66z"/>
	</g>
	<g>
		<path class="st12" d="M1116.3,1049.52c-2,0-4.01-0.06-6.03-0.19c-29.34-1.83-54.77-10.05-73.52-23.78
			c-21.1-15.45-32.76-36.76-34.67-63.33c-0.62-8.66-0.15-17.33,1.41-25.79c0.83-4.52-0.48-9.05-3.61-12.44
			c-3.15-3.42-7.61-5.1-12.23-4.63l-84.78,8.67c-10.92,1.11-21.55-2.16-29.96-9.21c-8.4-7.06-13.46-16.97-14.25-27.92l-26.7-371.45
			c-1.38-19.18,13.1-35.9,32.28-37.28l396.07-28.46c16.08-1.15,30.11,10.99,31.27,27.07l5.69,79.13c0.38,5.34-2,10.35-6.37,13.41
			c-4.43,3.1-10.04,3.62-15,1.39c-14.99-6.73-31.63-9.66-48.12-8.47l-0.06-0.79l0.06,0.79c-28.77,2.07-53.11,11.51-70.4,27.29
			c-19,17.35-29.12,41.47-30.06,71.7c-0.72,23.05,10.44,47.5,30.62,67.08c23.29,22.6,55.14,35.58,83.12,33.87
			c18.96-1.16,37.09-7.61,52.41-18.66c3.38-2.44,7.65-2.84,11.41-1.08c3.75,1.76,6.17,5.27,6.47,9.41l6.34,88.23
			c1.66,23.12-15.1,43.08-38.16,45.43l-72.68,7.43c-3.97,0.41-7.4,2.62-9.41,6.07c-1.98,3.4-2.21,7.4-0.64,10.97
			c4.67,10.63,7.47,21.95,8.31,33.64c2.1,29.25-7.72,57.16-26.95,76.57C1161.86,1040.65,1140.07,1049.52,1116.3,1049.52z
			 M989.17,917.7c4.51,0,8.76,1.85,11.86,5.22c3.47,3.76,4.92,8.79,4,13.8c-1.53,8.33-2,16.87-1.39,25.39
			c1.88,26.09,13.32,47.01,34.03,62.17c18.51,13.55,43.64,21.67,72.68,23.48c25.65,1.6,49.33-7.17,66.67-24.67
			c18.91-19.09,28.56-46.55,26.49-75.34c-0.83-11.51-3.58-22.65-8.18-33.12c-1.78-4.04-1.51-8.56,0.72-12.4
			c2.27-3.89,6.14-6.39,10.61-6.84l72.68-7.43c22.2-2.27,38.34-21.49,36.74-43.75l-6.34-88.23c-0.26-3.56-2.34-6.59-5.57-8.09
			c-3.24-1.52-6.91-1.17-9.82,0.93c-15.56,11.22-33.97,17.77-53.24,18.95c-28.41,1.74-60.72-11.41-84.32-34.31
			c-20.8-20.19-31.84-44.43-31.1-68.26c0.96-30.67,11.24-55.17,30.58-72.82c17.56-16.03,42.23-25.61,71.36-27.7
			c16.75-1.2,33.65,1.77,48.88,8.61c4.45,2,9.48,1.53,13.45-1.25c3.91-2.74,6.05-7.22,5.7-12l-5.69-79.13
			c-0.53-7.37-3.9-14.1-9.49-18.93c-5.59-4.84-12.73-7.21-20.09-6.68l-396.07,28.46c-18.31,1.32-32.13,17.28-30.82,35.59
			l26.7,371.45c0.76,10.51,5.62,20.04,13.69,26.82c8.07,6.78,18.29,9.92,28.78,8.85l84.78-8.67
			C988.05,917.72,988.61,917.7,989.17,917.7z"/>
	</g>
	<g>
		<g>
			<path class="st12" d="M1563.92,1464.58c-8.6,0-16.78-3.05-23.25-8.7c-6.99-6.11-11.13-14.53-11.66-23.71l-4.23-73.99
				c-0.33-5.84,2.13-11.29,6.77-14.95c4.79-3.78,11.17-4.97,17.08-3.2c10.63,3.2,21.7,4.49,32.9,3.85
				c50.33-2.88,100.31-29.24,98.5-81.65c-0.98-28.48-12.84-54.63-33.38-73.62c-20.61-19.06-47.7-29.32-74.31-28.15
				c-10.29,0.45-20.34,2.52-29.85,6.14c-6.68,2.54-13.94,1.78-19.93-2.1c-5.85-3.79-9.44-9.91-9.83-16.78l-4.04-70.57
				c-0.55-9.67,2.77-18.98,9.35-26.21c6.58-7.23,15.63-11.52,25.48-12.09l98.18-5.62c1.83-0.11,3.48-1.02,4.51-2.5
				c0.99-1.43,1.27-3.19,0.77-4.84c-2.15-7.01-3.45-14.31-3.87-21.69c-1.42-24.8,7.06-48.7,23.88-67.31
				c17.3-19.14,41.18-30.31,67.24-31.44c51.65-2.26,96.07,37.07,99.08,87.66c0.28,4.7,0.2,9.43-0.23,14.08l-0.78-0.07l0.78,0.07
				c-0.35,3.72,0.96,7.41,3.59,10.14c2.76,2.86,6.64,4.37,10.65,4.14l84.95-4.86c9.28-0.53,18.22,2.51,25.15,8.58
				c6.94,6.06,11.05,14.42,11.57,23.53l20.34,355.45c1.14,19.86-14.41,36.95-34.66,38.11l-388.67,22.24
				C1565.31,1464.56,1564.61,1464.58,1563.92,1464.58z M1543.15,1340.79c-3.83,0-7.58,1.26-10.63,3.67
				c-4.23,3.34-6.48,8.31-6.18,13.63l4.23,73.99c0.5,8.76,4.45,16.79,11.12,22.62c6.68,5.83,15.28,8.77,24.22,8.26l388.67-22.24
				c19.39-1.11,34.28-17.47,33.19-36.46l-20.34-355.45c-0.5-8.69-4.42-16.66-11.04-22.45c-6.63-5.79-15.16-8.71-24.04-8.19
				l-84.95,4.86c-4.46,0.26-8.79-1.42-11.87-4.61c-2.95-3.05-4.41-7.2-4.02-11.37c0.43-4.57,0.5-9.23,0.23-13.84
				c-2.96-49.74-46.65-88.4-97.45-86.19c-25.63,1.12-49.12,12.1-66.14,30.93c-16.54,18.29-24.88,41.79-23.48,66.17
				c0.42,7.26,1.7,14.43,3.81,21.32c0.65,2.11,0.29,4.37-0.98,6.19c-1.31,1.88-3.39,3.04-5.71,3.17l-98.18,5.62
				c-9.44,0.54-18.11,4.65-24.42,11.58c-6.3,6.92-9.47,15.83-8.94,25.07l4.04,70.57c0.36,6.37,3.69,12.04,9.12,15.56
				c5.57,3.6,12.32,4.32,18.53,1.95c9.67-3.68,19.87-5.78,30.34-6.24c27.02-1.19,54.52,9.23,75.44,28.57
				c20.85,19.28,32.89,45.81,33.88,74.72c0.84,24.29-9.39,45.09-29.57,60.14c-17.88,13.33-42.88,21.55-70.41,23.12
				c-11.39,0.66-22.64-0.66-33.44-3.91C1546.53,1341.04,1544.83,1340.79,1543.15,1340.79z"/>
		</g>
		<g>
			<path class="st13" d="M1850.99,1016.07c0.42-4.67,0.5-9.42,0.22-14.24c-3.04-51.24-47.09-91.01-98.37-88.79
				c-52.75,2.29-93.27,47.25-90.27,99.79c0.44,7.61,1.76,14.95,3.86,21.94c1.24,4.1-1.7,8.27-5.98,8.52l-98.18,5.62
				c-19.95,1.14-35.2,18.24-34.05,38.19l4.12,71.99c0.82,14.32,15.35,23.79,28.73,18.6c9.37-3.63,19.48-5.82,30.09-6.28
				c50.88-2.22,106.33,38.88,108.63,104.72c1.84,52.74-46.63,81-99.15,84c-11.55,0.66-22.73-0.78-33.18-4
				c-11.75-3.62-23.53,5.4-22.83,17.67l4.32,75.49c1.08,18.92,17.29,33.37,36.21,32.29l388.67-22.24
				c19.85-1.14,35.02-18.15,33.88-38l-20.75-362.63c-1.07-18.77-17.16-33.12-35.94-32.05l-84.95,4.86
				C1857.39,1032.02,1850.2,1024.73,1850.99,1016.07z"/>
		</g>
	</g>
	<g>
		<path class="st14" d="M1208.16,545.89c17.23-1.24,33.76,1.93,48.5,8.54c9.93,4.46,21.04-3.17,20.26-14.03l-5.69-79.13
			c-1.13-15.68-14.75-27.47-30.42-26.34L844.74,463.4c-18.77,1.35-32.9,17.66-31.55,36.43l26.7,371.45
			c1.59,22.18,21.21,38.66,43.34,36.4l84.78-8.67c10.17-1.04,18.55,7.95,16.7,18c-1.52,8.25-2.03,16.83-1.4,25.59
			c4,55.63,51.79,82.92,107.45,86.38c58.36,3.63,97.99-45.23,94-100.86c-0.85-11.86-3.72-23.08-8.24-33.38
			c-3.55-8.07,1.92-17.25,10.69-18.14l72.68-7.43c22.48-2.3,39.07-22.05,37.45-44.59l-6.34-88.23c-0.59-8.21-9.95-12.57-16.63-7.75
			c-14.95,10.78-33.04,17.59-52.82,18.8c-54.47,3.33-116.28-47.22-114.58-101.76C1108.95,581.94,1152.09,549.92,1208.16,545.89z"/>
	</g>
	<g>
		<g>
			<g>
				<path class="st12" d="M999.91,611.2c-0.12,0-0.24-0.03-0.36-0.09l-62.63-32.04c-0.19-0.1-0.33-0.26-0.39-0.46
					c-0.06-0.2-0.05-0.42,0.05-0.6c0.06-0.11,5.94-11.62,7.39-28.62c1.34-15.66-0.92-39.34-19.28-63.2
					c-29.22-35.3-34.86-74.86-15.88-111.37c15.9-30.57,46.51-55.49,83.99-68.36c39.61-13.61,80.09-11.55,113.98,5.78
					c40.24,20.59,70.92,56.44,82.06,95.91c8.36,29.61,4.89,59.15-9.77,83.18c-26.55,43.53-57.22,66.38-93.76,69.85
					c-6.38,0.7-63.08,8.02-84.71,49.61C1000.47,611.04,1000.19,611.2,999.91,611.2z M938.33,578.02l61.24,31.33
					c22.27-41.7,79.14-49.05,85.58-49.75c36.02-3.42,66.3-26.02,92.57-69.1c14.42-23.65,17.83-52.75,9.59-81.93
					c-11.03-39.05-41.4-74.54-81.26-94.93c-33.5-17.14-73.54-19.16-112.75-5.69c-36.55,12.56-67.62,37.83-83.1,67.6
					c-18.67,35.91-13.1,74.85,15.71,109.66c18.71,24.31,20.99,48.43,19.62,64.39C944.26,564.46,939.64,575.22,938.33,578.02z"/>
			</g>
			<g class="st11">
				<path class="st12" d="M1008.15,356.6c-3.98,0-7.42-1.49-9.91-4.45c-4.8-5.71-4.28-14.82,1.26-22.14
					c5.52-7.29,15.53-12.5,26.78-13.92c8.68-1.09,16.57,0.42,21.12,4.04c12.19,9.7,17.67,17.01,16.76,22.34
					c-0.49,2.82-2.77,4.96-6.8,6.34c-0.13,0.05-0.28,0.06-0.41,0.03c-0.21-0.04-20.98-4.11-38.83,5.06
					C1014.62,355.7,1011.23,356.6,1008.15,356.6z M1031.77,317.31c-1.71,0-3.48,0.11-5.29,0.34c-10.84,1.37-20.45,6.34-25.72,13.3
					c-5.1,6.74-5.63,15.03-1.31,20.18c3.89,4.63,10.6,5.14,17.95,1.36c17.34-8.91,37.33-5.66,39.64-5.24
					c3.32-1.18,5.19-2.88,5.56-5.05c0.55-3.19-1.81-9.4-16.18-20.84C1043.13,318.73,1037.86,317.31,1031.77,317.31z"/>
			</g>
		</g>
		<g>
			<g>
				<path class="st15" d="M1088.49,302.98c-71.78-36.72-164.89,0.67-196.91,62.24c-20.13,38.7-11.33,77.74,15.8,110.52
					c35.88,46.63,11.97,92.67,11.97,92.67l62.63,32.04c21.75-41.82,78.2-49.25,85.33-50.03c33.87-3.21,65.05-23.38,93.16-69.47
					C1196.62,421.67,1160.26,339.7,1088.49,302.98z"/>
			</g>
			<g>
				<path class="st16" d="M992.31,585.51c0,0,18.24,13.02,2.04,32.58c0,0,6.22,22.04-13.44,27.65c0,0,3.18,21.35-15.58,30.9
					c-18.76,9.55-95.96-38.65-98.02-50.15c-2.06-11.5,6.12-19.5,14.12-18.31c0,0-5.71-12.4,1.67-20.42s13.32-7.3,13.32-7.3
					s-5.13-7.84,0.63-20.56C902.81,547.19,925.12,538.46,992.31,585.51z"/>
			</g>
			<g class="st11">
				<path class="st0" d="M1039.18,338.11c0,0-21.03-4.28-39.34,5.13s-28.27-8.65-17.63-22.72c10.64-14.06,36.58-17.86,46.78-9.74
					C1039.19,318.91,1054.22,332.92,1039.18,338.11z"/>
			</g>
			<g>
				<g>
					<path class="st17" d="M980.39,647.19c-0.22-0.08-0.44-0.21-0.61-0.4c-0.06-0.06-6.07-6.42-16.56-13.4
						c-9.65-6.42-25.17-14.72-44.34-17.74c-0.84-0.13-1.41-0.92-1.28-1.76c0.13-0.84,0.92-1.41,1.76-1.28
						c19.75,3.11,35.72,11.65,45.64,18.27c10.76,7.17,16.77,13.53,17.02,13.8c0.58,0.62,0.55,1.59-0.07,2.17
						C981.52,647.27,980.92,647.37,980.39,647.19z"/>
				</g>
			</g>
			<g>
				<g>
					<path class="st17" d="M993.83,619.54c-0.18-0.06-0.35-0.16-0.5-0.29c-0.09-0.08-8.85-7.64-21.31-15.54
						c-11.43-7.25-28.4-16.27-44.34-18.11c-0.84-0.1-1.45-0.86-1.35-1.7c0.1-0.84,0.86-1.45,1.7-1.35
						c16.53,1.9,33.97,11.16,45.68,18.59c12.64,8.02,21.55,15.71,21.63,15.79c0.64,0.56,0.71,1.53,0.15,2.17
						C995.08,619.59,994.41,619.75,993.83,619.54z"/>
				</g>
			</g>
		</g>
		<g class="st11">
			<path class="st0" d="M975.27,573.19l-5.74-1.67c0.07-0.23,6.85-23.49,15.46-47.23c3.33-9.17,6.31-16.76,9-23.05
				c-3.94-1.34-7.87-3.04-11.61-5.13c-13.04,30.12-32.03,61.73-33.25,63.75l-5.12-3.09c0.3-0.5,20.13-33.51,33.25-63.86
				c-5.58-3.89-10.48-8.8-13.98-14.86c-6.18-10.7-5.29-22.66,2.39-31.98c5.81-7.06,13.92-10.36,20.19-8.21
				c3.12,1.07,8.41,4.48,8.71,15.28c0.26,9.31-3.93,22.98-9.86,37.45c3.73,2.14,7.7,3.85,11.69,5.17
				c8.74-19.25,13.97-23.7,17.4-25.12c10.73-4.43,21.81,0.52,27.21,7.71c4.72,6.28,4.82,13.72,0.26,19.43
				c-4.48,5.61-15.06,8.37-28.32,7.38c-4.09-0.31-8.59-1.02-13.19-2.21c-2.69,6.24-5.73,13.92-9.15,23.36
				C982.07,549.89,975.34,572.96,975.27,573.19z M1002.22,497.44c3.9,0.94,7.69,1.52,11.18,1.78c10.78,0.81,20.1-1.26,23.2-5.15
				c4.06-5.09,1.1-10.17-0.37-12.12c-3.92-5.22-12.32-9.01-20.15-5.77C1014.27,476.93,1009.95,480.62,1002.22,497.44z M981.83,443.2
				c-3.61,0-8.15,2.55-11.55,6.68c-2.26,2.74-9.06,12.67-1.83,25.19c2.82,4.88,6.7,8.93,11.17,12.22
				c5.44-13.34,9.2-25.71,8.97-33.98c-0.09-3.09-0.81-8.47-4.67-9.79C983.28,443.3,982.57,443.2,981.83,443.2z"/>
		</g>
	</g>
	<g>
		<g>
			<g>
				<path class="st12" d="M2050.36,1455.47c-1.33,0-2.51-0.94-2.77-2.29l-104.26-541.41c-0.3-1.53,0.71-3.01,2.24-3.31
					c1.54-0.29,3.01,0.71,3.31,2.24l104.26,541.4c0.3,1.53-0.71,3.01-2.24,3.31C2050.71,1455.45,2050.53,1455.47,2050.36,1455.47z"
					/>
			</g>
			<g>
				<path class="st12" d="M2245.64,1408.63c-1.28,0-2.43-0.87-2.74-2.17l-118.46-494.57c-0.36-1.52,0.57-3.04,2.09-3.41
					c1.51-0.36,3.04,0.57,3.41,2.09l118.46,494.57c0.36,1.52-0.57,3.04-2.09,3.41C2246.08,1408.6,2245.86,1408.63,2245.64,1408.63z"
					/>
			</g>
			<g>
				<rect x="1958.78" y="973.8" class="st12" width="184.85" height="6.53"/>
			</g>
			<g>
				
					<rect x="2084.08" y="1047.6" transform="matrix(0.0656 -0.9978 0.9978 0.0656 807.5672 3152.9011)" class="st12" width="6.53" height="195.26"/>
			</g>
			<g>
				
					<rect x="2019.99" y="1285.39" transform="matrix(0.9968 -0.0803 0.0803 0.9968 -96.661 174.3688)" class="st12" width="198.08" height="6.53"/>
			</g>
		</g>
		<g>
			<g>
				<path class="st17" d="M2002.5,948.31c0,0-0.27,10.77-7.56,13.81c-7.29,3.04-28.4,5.78-20.51,12.7
					c4.53,3.97,25.86,1.41,31.89,1.41c6.02,0,11.68,2.62,16.16-1.41c4.92-4.44,0-26.51,0-26.51s-5.2,2.71-9.87,2.59
					C2005.87,950.72,2002.5,948.31,2002.5,948.31z"/>
			</g>
			<g>
				<path class="st17" d="M2086.2,948.31c0,0-0.27,10.77-7.56,13.81c-7.29,3.04-28.4,5.78-20.51,12.7
					c4.53,3.97,25.86,1.41,31.89,1.41c6.02,0,11.68,2.63,16.16-1.41c4.92-4.44,0-26.51,0-26.51s-5.2,2.71-9.87,2.59
					C2089.56,950.72,2086.2,948.31,2086.2,948.31z"/>
			</g>
			<g>
				<path class="st15" d="M1948.34,653.07c0,0-1.35,45.08,13.04,131.56c10.39,62.43,22.65,125.35,28.67,155.51
					c2.15,10.79,11.23,18.68,21.98,19.11l5.78,0.23c11.63,0.47,21.06-9.52,20.22-21.4l-14.6-204.05l-3.6-67.16L1948.34,653.07z"/>
			</g>
			<g>
				<path class="st17" d="M2079.96,692.74c-0.66,5.49-31.69,4.82-69.67,0.01c-37.99-4.81-67.55-13.04-66.89-18.52
					c0.66-5.49,31.31-6.15,69.29-1.35C2050.67,677.69,2080.62,687.25,2079.96,692.74z"/>
			</g>
			<g>
				<path class="st15" d="M1991.95,685.27l81.1,260.52c3.39,10.9,13.21,18.38,24.4,18.57l4.87,0.08
					c11.51,0.2,20.31-10.45,18.21-22.03l-44.36-244.79c-0.64-2.91-2.79-5.22-5.6-6.03C2055.36,687.2,1990.46,674.49,1991.95,685.27z
					"/>
			</g>
			<g>
				<path class="st18" d="M2067.28,542.75c0,0-10.79-30.36-49.23-28.98c-38.44,1.38-67.46,51.89-74.65,160.46
					c0,0,62.94-13.8,136.68,18.4C2080.07,692.62,2084.16,587,2067.28,542.75z"/>
			</g>
			<g>
				<path class="st18" d="M2097.46,536.33l-30.42,22.02c0,0-83.58,9.12-102.16,5.75c-18.58-3.37-12.16-44-12.16-44
					s21.86,0.93,55.5-5.1c3.16-0.57,6.44-0.99,9.84-1.23c5.71-0.4,11.41-0.23,17,0.37C2068.29,517.73,2097.46,536.33,2097.46,536.33
					z"/>
			</g>
			<g>
				<path class="st17" d="M2097.46,536.33c1.65,2.39-3.82,9.25-12.22,15.33c-8.4,6.08-16.55,9.08-18.2,6.69
					c-1.65-2.39,3.82-9.25,12.22-15.33C2087.67,536.94,2095.81,533.94,2097.46,536.33z"/>
			</g>
			<g>
				<path class="st2" d="M2034.98,514.14c-4.11-0.44-7.68-3.02-9.32-6.82l-5.12-11.9l-1.49-3.45l-8.74-20.31l1.52,21.04l0.91,12.63
					l0.26,3.6c0.21,2.94-1.84,5.54-4.74,6.06l-0.05,0.01c-1.56,2.53-3.7,7.67,2.72,9.72c7.54,2.4,19.75-3.54,24.13-10.58
					C2035.03,514.14,2035.01,514.14,2034.98,514.14z"/>
			</g>
			<g>
				<path class="st2" d="M2081.57,643.56c0,0-11.39-10.43-20.38-9.51c-8.99,0.92-19.78,8.89-14.09,9.51
					c5.69,0.61,13.19-0.61,13.19-0.61s-15.89,3.37-13.49,6.75c2.4,3.37,16.19,0.31,16.19,0.31s-18.58,5.52-15.29,7.97
					c3.3,2.45,17.38-1.84,17.38-1.84s-17.08,5.83-13.19,8.59c3.9,2.76,14.09-4.91,16.49-1.53c2.4,3.37,6.89,16.56,17.08,11.04
					L2081.57,643.56z"/>
			</g>
			<g>
				<path class="st19" d="M2028.2,801.71l-17.44-53.02c-3.92-11.92-11.99-21.87-22.71-28.02l0.68-1.18
					c11.02,6.31,19.3,16.53,23.33,28.78l17.44,53.02L2028.2,801.71z"/>
			</g>
			<g>
				<path class="st9" d="M2034.1,468.2c0,0-0.81,3.45,1.17,10.53c2.91,10.36-8.93,14.68-11.96,11.72
					c-0.37-0.37,0.12-17.98,0.12-17.98l3.78-2.25L2034.1,468.2z"/>
			</g>
			<g>
				<path class="st17" d="M2020.56,495.07c0,0.12-0.01,0.23-0.02,0.35c-0.5,6.78-7.76,9.95-7.76,9.95l-0.04-0.04l-0.91-12.63
					c2.22-0.81,5.38-1.65,7.23-0.74C2020.02,492.44,2020.63,493.4,2020.56,495.07z"/>
			</g>
			<g>
				<ellipse class="st2" cx="2009.36" cy="475.03" rx="19.77" ry="24.39"/>
			</g>
			<g>
				<path class="st9" d="M2001.53,456.3c0.55,0.75-2.56,13.3,20.69,16.29c23.25,3,9.28-25.21-7.87-25.85
					c-24.77-0.92-28.37,15.73-25.99,21.73C1990.73,474.47,2001.53,456.3,2001.53,456.3z"/>
			</g>
			<g>
				<path class="st9" d="M2037.36,440.88c0,0-10.44,6.99-2.41,13.56s30.12,9.45,24.1,20.55c-6.02,11.1-11.25,27.53-0.4,29.59
					c10.84,2.05,17.67,1.23,22.09,9.86c4.42,8.63,24.1,3.29,22.49-6.99c-1.61-10.27,15.26-19.32,8.03-28.77
					c-7.23-9.45-24.9-17.67-29.32-30C2077.52,436.35,2045.79,435.53,2037.36,440.88z"/>
			</g>
			<g>
				<path class="st9" d="M2019.65,468.6c0,0,9.5,10.02,6.21,20.26c0,0,5.51-6.02,5.63-8.27c0.12-2.25-1.34-10.36-1.34-10.36
					L2019.65,468.6z"/>
			</g>
			<g>
				<path class="st2" d="M2026.49,478.71c-2.24,2.14-5.37,2.36-6.99,0.49c-1.62-1.87-1.12-5.12,1.12-7.25
					c2.24-2.14,5.37-2.36,6.99-0.49C2029.22,473.32,2028.73,476.57,2026.49,478.71z"/>
			</g>
			<g>
				<path class="st0" d="M2098.41,517.78c-0.06,0-0.11-0.01-0.17-0.03c-2.8-1.08-4.47-2.45-5.09-4.17
					c-0.95-2.63,0.67-5.51,2.38-8.56c1.5-2.67,3.05-5.43,2.68-7.91c-0.44-2.92-4.28-3.61-8.35-4.33c-3.43-0.61-6.97-1.24-8.38-3.43
					c-0.67-1.04-0.8-2.36-0.4-3.93c0.45-1.73,1-3.28,1.53-4.78c2.29-6.44,4.09-11.53-6.01-23.17
					c-12.95-14.94-23.67-15.66-33.33-14.21c-1.13,0.17-3.99,1.64-3.97,2.96c0.01,0.68,0.93,2.36,9.31,3.42
					c0.16,0.03,11.91,2.77,17.56,15.44c3.01,6.75-1.27,13.98-4.71,19.78c-2.31,3.9-4.3,7.26-3.68,9.52c0.23,0.82,0.8,1.47,1.75,1.99
					c2.34,1.27,4.97,1.99,7.52,2.67c6.54,1.77,13.3,3.6,14.15,15.38c0.02,0.26-0.18,0.48-0.44,0.5c-0.26,0.03-0.49-0.18-0.5-0.44
					c-0.8-11.11-6.95-12.78-13.46-14.54c-2.59-0.7-5.28-1.43-7.72-2.75c-1.18-0.64-1.92-1.5-2.21-2.57
					c-0.73-2.64,1.36-6.17,3.78-10.25c3.5-5.91,7.47-12.61,4.66-18.92c-5.45-12.23-16.75-14.88-16.86-14.9
					c-6.75-0.85-10.07-2.26-10.09-4.33c-0.03-2.08,3.54-3.71,4.78-3.9c9.93-1.49,20.94-0.76,34.18,14.53
					c10.46,12.06,8.57,17.38,6.18,24.1c-0.52,1.48-1.07,3.01-1.5,4.7c-0.34,1.32-0.25,2.36,0.28,3.19c1.18,1.84,4.52,2.44,7.75,3.01
					c4.22,0.75,8.58,1.53,9.12,5.12c0.42,2.8-1.21,5.7-2.79,8.51c-1.6,2.86-3.12,5.55-2.32,7.78c0.52,1.45,2.01,2.63,4.54,3.61
					c0.24,0.09,0.36,0.37,0.27,0.61C2098.78,517.67,2098.6,517.78,2098.41,517.78z"/>
			</g>
			<g>
				<path class="st0" d="M2022.39,465.2C2022.39,465.2,2022.39,465.2,2022.39,465.2c-8.95-0.19-13.4-7.23-13.58-7.53
					c-0.14-0.22-0.07-0.51,0.15-0.65c0.22-0.14,0.51-0.07,0.65,0.15c0.04,0.07,4.37,6.9,12.79,7.08c0.26,0.01,0.47,0.22,0.46,0.48
					C2022.86,465,2022.65,465.2,2022.39,465.2z"/>
			</g>
			<g>
				<path class="st20" d="M2060.41,643.26l-0.23-0.63c0.19-0.07,4.57-1.68,6.99,0.04l-0.39,0.54
					C2064.64,641.7,2060.45,643.24,2060.41,643.26z"/>
			</g>
			<g>
				<path class="st20" d="M2063.11,650.31l-0.25-0.62c0.18-0.07,4.4-1.7,8.24,0.01l-0.27,0.61
					C2067.24,648.71,2063.15,650.29,2063.11,650.31z"/>
			</g>
			<g>
				<path class="st20" d="M2065.2,656.44l-0.24-0.62c0.22-0.08,5.4-1.99,7.83,0.06l-0.43,0.51
					C2070.23,654.58,2065.25,656.42,2065.2,656.44z"/>
			</g>
			<g>
				<path class="st15" d="M1949.02,679.14c0,0,17.65-2.46,44.17-0.5c41.06,3.03,75.94,12.54,75.94,12.54l-13.03,2.19l-81.62,3.23
					l-16.43-13.47L1949.02,679.14z"/>
			</g>
			<g>
				<path class="st21" d="M1998.44,490.81c0,0,6.75,0.16,13.51-2.22c0,0,0.56,6.66-6.75,7.1
					C2000.94,495.96,1998.44,490.81,1998.44,490.81z"/>
			</g>
			<g>
				<path class="st0" d="M1998.44,490.81c0,0,1.63,1.36,5.45,1.34c3.81-0.02,8.06-3.56,8.06-3.56S2003.81,490.83,1998.44,490.81z"/>
			</g>
			<g>
				<g>
					<path class="st22" d="M2007.45,475.26c-0.13-0.04-0.25-0.13-0.3-0.27c-0.09-0.23,0.02-0.49,0.25-0.58
						c0.14-0.05,3.16-1.61,5.82,1.3c0.17,0.18,0.16,0.46-0.02,0.64c-0.18,0.17-0.43,0.12-0.64-0.02c-2.07-1.39-4.72-1.13-4.84-1.08
						C2007.64,475.28,2007.54,475.29,2007.45,475.26z"/>
				</g>
			</g>
			<g>
				<path class="st22" d="M2011,480.2c0.03,1.07-0.57,1.96-1.35,1.99c-0.78,0.02-1.44-0.82-1.47-1.9c-0.03-1.07,0.57-1.96,1.35-1.99
					C2010.31,478.28,2010.97,479.13,2011,480.2z"/>
			</g>
			<g>
				<g>
					<path class="st22" d="M1991.39,477.61c-0.14,0.02-0.28-0.03-0.38-0.13c-0.17-0.18-0.17-0.46,0.01-0.64
						c0.1-0.1,2.31-2.69,5.88-1.02c0.22,0.11,0.33,0.37,0.23,0.59c-0.1,0.23-0.35,0.28-0.59,0.23c-2.44-0.5-4.8,0.76-4.88,0.84
						C1991.58,477.55,1991.49,477.6,1991.39,477.61z"/>
				</g>
			</g>
			<g>
				<path class="st22" d="M1996.57,480.82c0.44,0.98,0.22,2.03-0.49,2.35s-1.64-0.22-2.08-1.19c-0.44-0.98-0.22-2.03,0.49-2.35
					C1995.19,479.31,1996.13,479.84,1996.57,480.82z"/>
			</g>
			<g>
				<path class="st17" d="M1964.88,564.57c-0.07,0-0.14-0.02-0.21-0.05c-0.23-0.11-0.33-0.4-0.22-0.63l10.87-22.29
					c0.11-0.23,0.4-0.33,0.63-0.22c0.23,0.11,0.33,0.4,0.22,0.63l-10.87,22.29C1965.22,564.48,1965.05,564.57,1964.88,564.57z"/>
			</g>
			<g>
				<g>
					<g>
						<path class="st2" d="M2085.13,674.34l-18.39-21.36c0.33-0.2,32.21-19.1,28.76-51.56c-1.57-14.74-11.16-32.88-25.22-42.34
							c5.2-12.22,20.18-22.41,24.24-20.6c18.84,13.88,29.62,34.14,32.45,56.02C2132.09,633.99,2094.29,669.89,2085.13,674.34z"/>
					</g>
				</g>
			</g>
			<g>
				<path class="st23" d="M2118.17,604.97c-1.4,0-2.69-0.77-3.65-2.18c-0.9-1.33-1.4-3.08-1.4-4.93c0-3.92,2.27-7.11,5.05-7.11
					s5.05,3.19,5.05,7.11C2123.23,601.78,2120.96,604.97,2118.17,604.97L2118.17,604.97z M2118.17,592.09
					c-2.01,0-3.72,2.64-3.72,5.77c0,1.59,0.42,3.07,1.17,4.18c0.7,1.03,1.61,1.59,2.55,1.59c0,0,0,0,0,0c2.01,0,3.72-2.64,3.72-5.77
					C2121.89,594.73,2120.19,592.09,2118.17,592.09z"/>
			</g>
		</g>
		<g>
			
				<rect x="1792.5" y="1291.68" transform="matrix(0.51 -0.8602 0.8602 0.51 -169.0205 2293.1851)" class="st12" width="271.52" height="6.53"/>
		</g>
	</g>
	<g>
		<path class="st15" d="M1457.08,487.44l-0.48,61.13c-0.1,12.16-11.56,21.06-23.35,18.06c-8.4-2.14-17.23-3.23-26.34-3.12
			c-54.15,0.69-98.48,44.65-99.63,98.79c-1.2,56.4,43.93,102.72,100.16,103.16c11.8,0.09,23.14-1.84,33.69-5.48
			c6.75-2.33,13.77,2.78,13.71,9.92l-0.7,88.73c-0.13,16.66,13.27,30.28,29.93,30.41l109.37,0.87c11.39,0.09,18.39-12.26,12.65-22.1
			c-9.09-15.59-14.12-33.83-13.65-53.26c1.31-54.25,45.94-98.13,100.21-98.51c56.48-0.4,102.17,45.5,101.73,101.79
			c-0.14,18.21-5.09,35.24-13.64,49.92c-6.1,10.49,1.22,23.65,13.35,23.75l85.32,0.68c18.83,0.15,34.22-15,34.37-33.83l2.93-370.41
			c0.13-15.88-12.65-28.86-28.53-28.99l-398.95-3.16C1471.61,455.66,1457.22,469.83,1457.08,487.44z"/>
	</g>
	<g>
		<g>
			<g>
				<g>
					<path class="st2" d="M817.08,1013.8c1.67,0.75,30.56,4.7,42.33,59.28c10.16,47.06-28.59,9.25-28.59,9.25L817.08,1013.8z"/>
				</g>
				<g>
					<path class="st17" d="M790.23,1439.73c0,0,0.28,11.05,7.75,14.17c7.48,3.12,29.14,5.93,21.05,13.04
						c-4.65,4.08-26.54,1.44-32.72,1.44c-6.18,0-11.98,2.69-16.58-1.44c-5.05-4.55,0-27.2,0-27.2s5.33,2.78,10.13,2.65
						C786.78,1442.21,790.23,1439.73,790.23,1439.73z"/>
				</g>
				<g>
					<path class="st17" d="M704.36,1439.73c0,0,0.28,11.05,7.75,14.17c7.48,3.12,29.14,5.93,21.05,13.04
						c-4.65,4.08-26.54,1.44-32.72,1.44c-6.18,0-11.98,2.69-16.58-1.44c-5.05-4.55,0-27.2,0-27.2s5.33,2.78,10.13,2.65
						C700.91,1442.2,704.36,1439.73,704.36,1439.73z"/>
				</g>
				<g>
					<path class="st12" d="M845.81,1136.78c0,0,1.38,46.26-13.38,135c-10.66,64.06-23.24,128.62-29.42,159.57
						c-2.21,11.07-11.52,19.17-22.55,19.61l-5.93,0.24c-11.93,0.48-21.61-9.77-20.74-21.95l14.98-209.38l3.69-68.91L845.81,1136.78z
						"/>
				</g>
				<g>
					<path class="st17" d="M710.75,1177.49c0.68,5.63,32.52,4.95,71.49,0.01c38.98-4.93,69.32-13.38,68.64-19.01
						c-0.68-5.63-32.12-6.31-71.1-1.38C740.8,1162.05,710.07,1171.86,710.75,1177.49z"/>
				</g>
				<g>
					<path class="st12" d="M801.06,1169.82l-83.22,267.32c-3.48,11.19-13.56,18.86-25.03,19.05l-5,0.09
						c-11.81,0.2-20.84-10.72-18.68-22.6l45.52-251.18c0.66-2.99,2.86-5.36,5.74-6.19C736,1171.81,802.59,1158.77,801.06,1169.82z"
						/>
				</g>
				<g>
					<path class="st15" d="M723.77,1023.59c0,0,11.07-31.15,50.51-29.73c39.44,1.42,69.22,53.25,76.6,164.64
						c0,0-64.59-14.16-140.25,18.88C710.64,1177.37,706.44,1068.99,723.77,1023.59z"/>
				</g>
				<g>
					<path class="st15" d="M695.28,1023.81l28.74,15.79c0,0,77.2,17.39,96.27,13.93c19.07-3.46,29.09-21.16,29.09-21.16
						s-30.57-31.4-65.08-37.58c-3.24-0.59-6.51-0.68-10-0.93c-5.85-0.42-11.71-0.24-17.45,0.38
						C708.17,999.52,695.28,1023.81,695.28,1023.81z"/>
				</g>
				<g>
					<path class="st19" d="M763.87,1289.3l-1.33-0.44l17.9-54.4c4.13-12.56,12.63-23.05,23.94-29.53l0.7,1.21
						c-11.01,6.31-19.28,16.52-23.31,28.75L763.87,1289.3z"/>
				</g>
				<g>
					<g>
						<g>
							<path class="st17" d="M801.33,986.92l-0.11-0.45c0.05-0.01,5.08-1.24,6.5-4.67c0.74-1.78,0.39-3.86-1.04-6.18
								c-0.67-1.09-1.29-2.08-1.86-2.99c-3.92-6.24-5.38-8.58-4.31-13.69l0.45,0.09c-1.03,4.93,0.3,7.05,4.25,13.35
								c0.57,0.91,1.19,1.9,1.86,2.99c1.51,2.46,1.87,4.68,1.08,6.6C806.63,985.62,801.55,986.86,801.33,986.92z"/>
						</g>
					</g>
					<g>
						<path class="st17" d="M800.74,958.99c0,0-1.75,7.91,3.49,16.19c5.24,8.28-0.46,14.33-7.56,11.15
							c-7.1-3.18-9.81,5.87-18.88,0.86C768.71,982.19,800.74,958.99,800.74,958.99z"/>
					</g>
					<g>
						<path class="st2" d="M758.79,993.97c3.92-0.42,7.33-2.88,8.89-6.5l4.89-11.35l1.42-3.29l8.34-19.37l-1.45,20.08l-0.87,12.05
							l-0.25,3.43c-0.2,2.8,1.76,5.28,4.52,5.78l0.05,0.01c1.48,2.41,3.53,7.32-2.59,9.27c-7.2,2.29-18.84-3.37-23.02-10.09
							C758.75,993.97,758.77,993.97,758.79,993.97z"/>
					</g>
					<g class="st8">
						<path class="st24" d="M772.54,975.78c0,0.11,0.01,0.22,0.02,0.33c0.48,6.47,7.4,9.5,7.4,9.5l0.04-0.04l0.87-12.05
							c-2.12-0.78-5.13-1.57-6.89-0.7C773.06,973.27,772.48,974.18,772.54,975.78z"/>
					</g>
					<g>
						<ellipse class="st2" cx="783.23" cy="956.66" rx="18.86" ry="23.27"/>
					</g>
					<g>
						<path class="st2" d="M766.89,960.17c2.14,2.04,5.12,2.25,6.67,0.47c1.55-1.78,1.07-4.88-1.06-6.92
							c-2.14-2.04-5.12-2.25-6.67-0.47C764.28,955.03,764.76,958.13,766.89,960.17z"/>
					</g>
					<g>
						<path class="st21" d="M793.39,971.72c0,0-6.44,0.15-12.89-2.11c0,0-0.54,6.35,6.44,6.78
							C791.01,976.62,793.39,971.72,793.39,971.72z"/>
					</g>
					<g>
						<path class="st0" d="M793.39,971.72c0,0-1.56,1.29-5.2,1.28c-3.64-0.02-7.69-3.39-7.69-3.39S788.27,971.73,793.39,971.72z"/>
					</g>
					<g>
						<g>
							<path class="st22" d="M785.06,956.88c0.13-0.03,0.23-0.12,0.29-0.25c0.09-0.22-0.02-0.47-0.24-0.56
								c-0.13-0.05-3.02-1.54-5.55,1.24c-0.16,0.17-0.16,0.44,0.02,0.61c0.17,0.16,0.41,0.12,0.61-0.02
								c1.97-1.32,4.5-1.08,4.61-1.03C784.88,956.9,784.97,956.9,785.06,956.88z"/>
						</g>
					</g>
					<g>
						<path class="st22" d="M781.66,961.6c-0.03,1.02,0.54,1.87,1.29,1.9c0.74,0.02,1.37-0.79,1.4-1.81
							c0.03-1.02-0.54-1.87-1.29-1.9C782.32,959.76,781.7,960.57,781.66,961.6z"/>
					</g>
					<g>
						<g>
							<path class="st22" d="M800.37,959.12c0.13,0.02,0.26-0.03,0.36-0.13c0.16-0.17,0.16-0.44-0.01-0.61
								c-0.1-0.1-2.2-2.57-5.61-0.97c-0.21,0.1-0.31,0.35-0.22,0.57c0.1,0.22,0.33,0.26,0.57,0.22c2.33-0.47,4.58,0.72,4.66,0.8
								C800.2,959.07,800.28,959.11,800.37,959.12z"/>
						</g>
					</g>
					<g>
						<path class="st22" d="M795.44,962.18c-0.42,0.93-0.21,1.94,0.47,2.24c0.68,0.3,1.57-0.21,1.99-1.14
							c0.42-0.93,0.21-1.94-0.47-2.24C796.75,960.74,795.86,961.25,795.44,962.18z"/>
					</g>
					<g>
						<path class="st17" d="M791.24,937.6c0,0-0.41,8.07-10.49,9.45c-10.08,1.38-17.04,5.64-15.68,12.91
							c1.35,7.26,17.61,22.33,5.66,28.17c-11.95,5.84-9.4-5.05-22.35-2.52c-12.95,2.52-15.29-14.77-6.37-24.81
							c8.92-10.04,5.31-36.59,38.74-35.42s21.19,27.86,21.19,27.86S791.22,946.52,791.24,937.6z"/>
					</g>
					<g>
						<path class="st0" d="M767.29,989.63l-0.1-0.25c2.47-1,3.92-2.41,4.44-4.32c1.43-5.28-4.83-13.41-10.36-20.57
							c-1.47-1.9-2.85-3.7-4.08-5.41c-3.42-4.78-3.72-10.48-0.79-14.87c3.26-4.88,9.46-6.95,16.17-5.39
							c6.5,1.51,10.96,0.15,13.55-1.25c2.81-1.52,4.1-3.4,4.11-3.42l0.23,0.15c-0.05,0.08-1.34,1.96-4.21,3.51
							c-2.64,1.42-7.17,2.8-13.74,1.28c-6.6-1.53-12.69,0.49-15.89,5.28c-2.91,4.37-2.62,9.81,0.78,14.56
							c1.23,1.71,2.61,3.51,4.08,5.41c5.57,7.22,11.88,15.4,10.41,20.81C771.36,987.1,769.81,988.61,767.29,989.63z"/>
					</g>
					<g>
						<g>
							<path class="st16" d="M799.06,974.37c-1,0-1.98-0.28-2.89-0.85c-4.06-2.52-5.59-10.14-3.41-16.97l0,0
								c1.33-4.19,3.83-7.32,6.66-8.36c1.69-0.62,3.39-0.47,4.9,0.49c4.06,2.51,5.59,10.12,3.41,16.96
								c-1.33,4.2-3.83,7.33-6.66,8.37C800.4,974.25,799.73,974.37,799.06,974.37z M793.57,956.82c-2.07,6.48-0.7,13.66,3.06,16
								c1.27,0.79,2.71,0.91,4.16,0.4c2.6-0.96,4.89-3.89,6.15-7.84c2.07-6.49,0.7-13.67-3.05-16c-1.27-0.79-2.71-0.92-4.17-0.4
								C797.12,949.94,794.82,952.86,793.57,956.82L793.57,956.82z"/>
						</g>
					</g>
					<g class="st25">
						
							<ellipse transform="matrix(0.0137 -0.9999 0.9999 0.0137 -187.5146 1721.9193)" class="st0" cx="779.09" cy="956.01" rx="12.65" ry="8.59"/>
					</g>
					<g class="st25">
						<path class="st0" d="M792.59,957.11c-1.52,6.67,0.5,13.91,4.51,16.17c4.01,2.25,8.49-1.33,10.01-8.01
							c1.52-6.68-0.5-13.91-4.51-16.17C798.58,946.85,794.1,950.43,792.59,957.11z"/>
					</g>
					<g>
						<g>
							<path class="st16" d="M779.52,968.87c-1.01,0-2.03-0.23-3.01-0.7c-4.96-2.32-7.65-9.98-5.99-17.09l0,0
								c0.95-4.12,3.16-7.3,6.05-8.71c2.02-0.97,4.13-0.98,6.13-0.05c4.96,2.33,7.64,10,5.99,17.09c-0.96,4.14-3.17,7.31-6.07,8.72
								C781.6,968.62,780.56,968.87,779.52,968.87z M779.7,942.46c-0.93,0-1.86,0.22-2.75,0.66c-2.63,1.29-4.72,4.33-5.61,8.15l0,0
								c-1.57,6.73,0.92,13.97,5.53,16.15c1.75,0.8,3.62,0.79,5.39-0.04c2.63-1.27,4.74-4.33,5.63-8.16
								c1.56-6.73-0.92-13.97-5.53-16.15C781.48,942.67,780.59,942.46,779.7,942.46z"/>
						</g>
					</g>
					<g>
						<g>
							<path class="st16" d="M793.47,959.59c-0.18,0-0.35-0.06-0.5-0.18l0,0c-0.08-0.07-2.12-1.66-5.62-0.99
								c-0.41,0.06-0.84-0.19-0.92-0.62c-0.08-0.42,0.19-0.84,0.62-0.91c4.23-0.89,6.81,1.23,6.93,1.31c0.33,0.28,0.38,0.78,0.1,1.1
								C793.92,959.5,793.7,959.59,793.47,959.59z"/>
						</g>
					</g>
				</g>
				<g>
					
						<ellipse transform="matrix(0.174 -0.9848 0.9848 0.174 -420.3006 1556.4896)" class="st17" cx="717.62" cy="1028.77" rx="6.97" ry="23.1"/>
				</g>
				<g>
					<path class="st12" d="M742.09,1171.39c0,0,77.79-14.86,103.01-7.85l-12.09,17.92l-44.96,2.54L742.09,1171.39z"/>
				</g>
				<g>
					<g>
						<path class="st2" d="M799.93,1122.87c-36.05,0-63.65-9.48-82.3-28.33c-28.04-28.33-19.89-66.4-19.68-68.01
							c0,0,1.69-5.17,20.2-0.17c17.2,4.64,17.69,9.45,17.69,9.45s-4.79,16.92,9.9,31.47c14.25,14.12,46.32,23.25,83.22,18.9
							l1.69,36.79C818.7,1123.48,808.94,1122.87,799.93,1122.87z"/>
					</g>
				</g>
				<g class="st8">
					<path class="st23" d="M743.07,1104.97c-1.42,0-2.93-0.4-4.35-1.15h0c-3.55-1.89-5.35-5.47-4.01-8
						c1.34-2.52,5.32-3.04,8.87-1.16c1.68,0.89,3.03,2.18,3.79,3.64c0.81,1.54,0.89,3.09,0.22,4.36c-0.67,1.27-2,2.07-3.73,2.26
						C743.61,1104.95,743.34,1104.97,743.07,1104.97z M739.24,1094.9c-1.51,0-2.77,0.53-3.32,1.57c-0.99,1.86,0.56,4.61,3.44,6.15h0
						c1.44,0.76,2.99,1.1,4.35,0.95c1.27-0.14,2.22-0.69,2.67-1.54c0.45-0.86,0.38-1.95-0.22-3.08c-0.64-1.22-1.79-2.31-3.23-3.07
						C741.71,1095.22,740.4,1094.9,739.24,1094.9z"/>
				</g>
			</g>
			<g>
				<path class="st18" d="M1342.37,1166.02c-8.65-0.15-17.06,0.77-25.09,2.63c-10.68,2.48-20.93-5.47-20.93-16.24v-102.43
					c0-10.75-9.09-19.35-20.03-18.95l-86.45,3.17c-11.48,0.42-19.64,10.99-17.13,22c2.54,11.18,3.9,23.34,3.9,32.84
					c0,55.19-45.93,99.86-102.32,99.15c-54.74-0.69-99.3-44.76-99.65-98.5c-0.06-9.17,1.15-18.05,3.46-26.49
					c2.68-9.76-4.67-19.38-14.97-19.38H854.79c-9.97,0-18.06,7.94-18.06,17.73v366.23c0,22.9,18.91,41.46,42.23,41.46h367.12
					c27.76,0,50.27-22.1,50.27-49.36v-45.75c0-9.08,8.79-15.64,17.71-13.27c8.44,2.25,17.32,3.45,26.49,3.45
					c56.24,0,104.9-45.27,100.97-100.53C1437.05,1200.82,1396.63,1166.96,1342.37,1166.02z"/>
			</g>
			<g>
				<g>
					<path class="st2" d="M880.62,1035.59c0,0-7.14-3.63-9.25,4.3c-2.69,10.1,1.04,25.64,5.69,20.92c1.05-1.07,2.45-8.76,2.45-8.76
						s-0.32,14.69,4.55,13.37c4.87-1.32,5.09-14.31,5.09-14.31s1.64,15.59,5.74,12.93c4.1-2.66,3.78-12.9,3.78-12.9
						s1.06,14.12,5.75,10.92c4.68-3.2,1.95-14.11,1.9-18.92c-0.04-4.55-3.26-5.32-7.94-5.17c0,0-3.08-3.24-7.48-1.18
						c-1.08,0.51-2.86-1.65-3.71-1.77C883.7,1034.54,880.62,1035.59,880.62,1035.59z"/>
				</g>
			</g>
		</g>
		<g>
			<g>
				<g>
					<path class="st2" d="M827.81,1086.8c0,0,8.86-15.18,18.96-17.26c10.1-2.08,24.56,2.87,18.57,5.48
						c-5.99,2.61-14.57,3.84-14.57,3.84s18.44-1.78,16.98,2.7c-1.46,4.47-17.52,5.86-17.52,5.86s22.11-0.37,19.36,3.41
						c-2.76,3.78-19.56,3.95-19.56,3.95s20.58,0.47,17.28,4.79c-3.3,4.32-17.01-0.5-18.47,3.97c-1.46,4.47-8.8,21.75-21.77,19.26
						L827.81,1086.8z"/>
				</g>
			</g>
			<g>
				<path class="st20" d="M843.8,1081.37l-0.6-0.46c2.06-2.69,7.37-2.44,7.6-2.43l-0.04,0.76
					C850.7,1079.24,845.61,1079,843.8,1081.37z"/>
			</g>
			<g>
				<path class="st20" d="M841.79,1090.43l-0.5-0.57c3.6-3.16,8.75-2.84,8.97-2.82l-0.05,0.76
					C850.15,1087.79,845.15,1087.48,841.79,1090.43z"/>
			</g>
			<g>
				<path class="st20" d="M842.19,1097.54l-0.64-0.41c1.95-3.05,8.24-2.75,8.5-2.74l-0.04,0.76
					C849.95,1095.15,843.9,1094.87,842.19,1097.54z"/>
			</g>
		</g>
	</g>
	<g>
		<g>
			<g>
				<path class="st12" d="M1440.31,1529.1c-0.1,0-0.21-0.01-0.32-0.02c-1.43-0.17-2.45-1.48-2.28-2.91l51.84-425.99
					c0.17-1.43,1.49-2.46,2.91-2.28c1.43,0.17,2.45,1.48,2.28,2.91l-51.84,425.99C1442.74,1528.12,1441.61,1529.1,1440.31,1529.1z"
					/>
			</g>
			<g>
				<path class="st12" d="M1246.92,1492.54c-0.17,0-0.34-0.02-0.51-0.05c-1.41-0.28-2.33-1.66-2.05-3.07l77.9-389.43
					c0.28-1.41,1.66-2.33,3.07-2.05c1.41,0.28,2.33,1.66,2.05,3.07l-77.9,389.43C1249.23,1491.68,1248.14,1492.54,1246.92,1492.54z"
					/>
			</g>
			<g>
				<rect x="1313.64" y="1151.56" class="st12" width="170.85" height="6.04"/>
			</g>
			<g>
				<rect x="1278.81" y="1327.47" class="st12" width="185.35" height="6.04"/>
			</g>
			<g>
				
					<rect x="1347.96" y="1355.26" transform="matrix(0.0665 -0.9978 0.9978 0.0665 -188.1185 2703.8735)" class="st12" width="6.04" height="194.42"/>
			</g>
		</g>
		<g>
			<g>
				<g>
					<path class="st2" d="M1308.24,1032.7c12.19-32.96,35.82-81.52,62.26-115.43c6.13-7.86,8.58-10.77,12.8-14.82
						c3.39-3.26,1.51-12.96-4.01-18.83c-5.18-5.51-15.02-7.49-17.06-6.01c-3.47,2.52-7.92,7.95-14.89,16.6
						c-24.22,30.04-48.15,72.76-67.12,128.55L1308.24,1032.7z"/>
				</g>
			</g>
			<g class="st8">
				<path class="st23" d="M1321.88,957.87c-0.67,0-1.31-0.16-1.88-0.49c-2.37-1.37-2.73-5.19-0.81-8.51
					c0.91-1.57,2.19-2.82,3.61-3.5c1.5-0.72,2.98-0.75,4.17-0.06c1.19,0.69,1.91,1.98,2.03,3.64c0.12,1.57-0.32,3.3-1.23,4.87
					C1326.31,956.34,1323.96,957.87,1321.88,957.87z M1325.05,946.12c-0.53,0-1.1,0.14-1.69,0.43c-1.18,0.57-2.26,1.63-3.04,2.98
					l0,0c-1.53,2.66-1.39,5.74,0.33,6.73c1.71,0.99,4.45-0.42,5.99-3.08c0.78-1.35,1.15-2.81,1.06-4.12
					c-0.09-1.22-0.58-2.14-1.38-2.6C1325.94,946.23,1325.51,946.12,1325.05,946.12z"/>
			</g>
			<g>
				<path class="st2" d="M1438.33,863.45l3.65-15.84l1.06-4.61l6.24-27.12l3.04,26.29l1.82,15.78l0.58,5
					c0.39,3.39,2.52,3.95,5.26,6.72c1.11,1.12,8.19,7.9,1.01,11.73c-8.94,4.78-26.69-0.13-33.87-7.74
					C1427.18,873.62,1437.16,868.57,1438.33,863.45z"/>
			</g>
			<g>
				
					<ellipse transform="matrix(0.9791 -0.2034 0.2034 0.9791 -137.6909 311.9329)" class="st2" cx="1448.77" cy="825.86" rx="23.62" ry="28.49"/>
			</g>
			<g>
				<path class="st17" d="M1461.3,814.98c13.51-0.5,19.46-8.76,19.08-15.96c-0.49-9.24-6.91-16.98-13.42-13.05
					c-6.51,3.93-4.23-4.69-10.8-5.1c-12.28-0.76-13.92,8.05-23.84,9.21c-13.08,1.53-26.42,24.51-14.23,39.66
					C1418.08,829.73,1450.63,815.37,1461.3,814.98z"/>
			</g>
			<g>
				<path class="st17" d="M1472.6,804.78c0,0-13.36,14.93-10.88,22.58c2.48,7.66,2.23,10.75-5.87,15.53s-0.17,10.99-11.34,12.31
					c-11.17,1.32-25.87-10.9-27.49-32.66c-0.9-12.13,5.48-20.59,5.48-20.59L1472.6,804.78z"/>
			</g>
			<g>
				<path class="st2" d="M1468.95,826.48c-1.8-2.19-4.85-2.66-6.81-1.05c-1.96,1.61-2.09,4.69-0.28,6.89
					c1.8,2.19,4.85,2.66,6.81,1.05C1470.63,831.75,1470.76,828.67,1468.95,826.48z"/>
			</g>
			<g>
				<path class="st17" d="M1420.92,826.63c-0.04,0-0.08-0.01-0.12-0.02c-0.18-0.07-0.27-0.27-0.2-0.45
					c1.16-3.11,4.35-4.46,4.49-4.52c0.18-0.07,0.38,0.01,0.45,0.19c0.07,0.18-0.01,0.38-0.19,0.46c-0.03,0.01-3.05,1.29-4.1,4.12
					C1421.2,826.55,1421.07,826.63,1420.92,826.63z"/>
			</g>
			<g>
				<path class="st17" d="M1425.46,820.64c-0.02,0-0.05,0-0.07-0.01c-0.04-0.01-4.14-0.88-4.29-4.3c-0.01-0.19,0.14-0.35,0.33-0.36
					c0.22,0,0.35,0.14,0.36,0.33c0.12,2.87,3.7,3.64,3.73,3.65c0.19,0.04,0.31,0.22,0.27,0.41
					C1425.76,820.53,1425.62,820.64,1425.46,820.64z"/>
			</g>
			<g>
				<path class="st17" d="M1464.71,785.57c-0.38,0-0.74-0.1-1.09-0.3c-1.88-1.08-2.54-4.8-2.57-4.96c-0.03-0.19,0.1-0.37,0.28-0.4
					c0.21-0.03,0.37,0.1,0.4,0.28c0.01,0.04,0.63,3.56,2.23,4.47c0.43,0.24,0.88,0.27,1.38,0.08c0.99-0.38,1.74-0.98,2.46-1.57
					c1.43-1.16,2.91-2.36,6.11-1.58c0.19,0.05,0.3,0.23,0.26,0.42c-0.05,0.19-0.24,0.3-0.42,0.26c-2.87-0.69-4.1,0.3-5.51,1.44
					c-0.77,0.62-1.56,1.26-2.66,1.68C1465.3,785.51,1465,785.57,1464.71,785.57z"/>
			</g>
			<g>
				<path class="st17" d="M1432.54,788.88c-0.27,0-0.54-0.01-0.82-0.04c-0.19-0.02-0.33-0.19-0.32-0.38
					c0.02-0.19,0.19-0.33,0.38-0.32c5.2,0.45,9.31-3.99,9.35-4.03c0.13-0.14,0.35-0.15,0.49-0.02c0.14,0.13,0.15,0.35,0.02,0.49
					C1441.47,784.77,1437.68,788.88,1432.54,788.88z"/>
			</g>
			<g>
				<path class="st17" d="M1465.64,834.59c-1.17,0-2.98-0.5-4.53-3.1c-0.05-0.08-0.02-0.18,0.06-0.23c0.08-0.05,0.18-0.02,0.23,0.06
					c2.37,3.96,5.22,2.82,5.33,2.77c0.08-0.03,0.18,0,0.22,0.09c0.04,0.08,0,0.18-0.09,0.22
					C1466.85,834.39,1466.37,834.59,1465.64,834.59z"/>
			</g>
			<g>
				<g>
					<path class="st2" d="M1591.74,863.28c2.71-6.53-18.33-17.78-18.33-17.78c-2.3-0.49-33.37,32.73-71.78,36.32
						c-13.68,1.28-62.31,35.38-44.27,41.84C1494.67,937.02,1563.47,912.95,1591.74,863.28z"/>
				</g>
			</g>
			<g>
				<path class="st17" d="M1425.33,1302.27c0,0,0.25,9.95,6.98,12.76c6.73,2.81,26.25,5.34,18.96,11.74
					c-4.18,3.67-23.9,1.3-29.47,1.3c-5.57,0-10.79,2.43-14.93-1.3c-4.55-4.1,0-24.5,0-24.5s4.8,2.5,9.12,2.39
					C1422.22,1304.5,1425.33,1302.27,1425.33,1302.27z"/>
			</g>
			<g>
				<path class="st16" d="M1483.43,1001.93c0,0,1.34,44.91-12.99,131.08c-10.35,62.2-22.56,124.88-28.56,154.93
					c-2.14,10.75-11.18,18.61-21.9,19.04l-5.76,0.23c-11.58,0.46-20.99-9.49-20.14-21.32l14.54-203.3l3.58-66.91L1483.43,1001.93z"
					/>
			</g>
			<g>
				<path class="st17" d="M1361.55,1302.27c0,0,0.25,9.95,6.98,12.76c6.73,2.81,26.25,5.34,18.96,11.74
					c-4.18,3.67-23.9,1.3-29.47,1.3c-5.57,0-10.79,2.43-14.93-1.3c-4.55-4.1,0-24.5,0-24.5s4.8,2.5,9.12,2.39
					C1358.44,1304.5,1361.55,1302.27,1361.55,1302.27z"/>
			</g>
			<g>
				<path class="st16" d="M1419.65,1001.93c0,0,3.91,44.46-10.43,130.62c-10.35,62.2-25.13,125.34-31.12,155.39
					c-2.14,10.75-11.18,18.61-21.9,19.04l-5.76,0.23c-11.58,0.46-20.99-9.49-20.14-21.32l14.54-203.3l3.58-66.91L1419.65,1001.93z"
					/>
			</g>
			<g>
				<path class="st12" d="M1375.06,884.45c0,0,11.05-27.13,63.45-20.05c75.57,10.2,58.82,78.6,50.98,185.02
					c0,0-72.9-20.97-145.47-15.76C1344.02,1033.67,1352.62,925.13,1375.06,884.45z"/>
			</g>
			<g>
				<path class="st12" d="M1345.85,883.27c0,0,8.99,29.59,32.63,38.29c22.46,8.27,101.32,22.51,117.88,10.7
					c36.57-26.07,21.87-55.12,21.87-55.12s-63.5-14.2-90.13-13.83C1372.18,864.09,1345.85,883.27,1345.85,883.27z"/>
			</g>
			<g>
				<path class="st12" d="M1343.88,1034.99c-0.62,5.39,31.53,12.08,71.84,16.47c40.31,4.39,73.16,3.35,73.78-2.04
					c0.62-5.39-31.23-13.08-71.54-17.47S1344.49,1029.61,1343.88,1034.99z"/>
			</g>
			<g>
				<path class="st17" d="M1402.28,1171.78c-0.02,0-0.03,0-0.05,0c-0.24-0.03-0.41-0.24-0.39-0.48c7.17-66.81-12.9-94.44-13.1-94.71
					c-0.14-0.19-0.11-0.47,0.09-0.61c0.19-0.15,0.47-0.1,0.61,0.09c0.21,0.27,20.47,28.19,13.27,95.33
					C1402.69,1171.62,1402.5,1171.78,1402.28,1171.78z"/>
			</g>
			<g>
				<path class="st2" d="M1272.28,1034.1c5.89-9.81,11.33-15.14,11.33-15.14s23.21,6.28,23.79,8.64c1.34,5.43,1.57,16.75,2.81,22.2
					c0.54,2.37,1.79,10.45-0.48,11.3c-1.97,0.74-6.01-5.2-7.59-8.26c-5.98,14.85-21.34,33.83-11.05,1.8
					c-0.02-0.01-0.04-0.01-0.05-0.02c-1.34,3.14-8.79,20.63-12.26,17.19c-3.07-3.03,1.75-15.77,3.89-20.96
					c-0.05-0.03-0.09-0.05-0.14-0.08c-2.64,5.09-9.32,17.21-11.31,13.38c-2.49-4.81,2.45-18.9,2.45-18.9s-6.71,17.86-10.26,12.67
					c-2.42-3.54,5.27-17.18,7.71-22.05C1271.48,1035.18,1271.87,1034.59,1272.28,1034.1z"/>
			</g>
			<g>
				<path class="st2" d="M1588.07,870.17c0,0-19.36-15.39-18.95-17.85c0.95-5.68,5.34-16.46,6.39-22.12
					c0.46-2.45,2.56-10.6,5.06-10.48c2.17,0.11,3.56,7.36,3.81,10.9c11.7-11.59,33.94-23.26,11.17,2.8
					c0.01,0.01,0.03,0.03,0.04,0.04c2.54-2.42,7.73-6.55,10.41-3.31c1.07,1.29-1.71,7.56-5.85,11.59c0.03,0.04,8.05-6.57,9.84-4.02
					c1.71,2.44-6.26,11.22-6.26,11.22s6.69-3.85,6.67,0.49C1610.37,853.83,1588.07,870.17,1588.07,870.17z"/>
			</g>
		</g>
	</g>
	<g>
		<g>
			<path class="st2" d="M1855.43,451.47c0,0-7.6-2.5-8.49,5.65c-1.13,10.39,4.91,25.19,8.79,19.82c0.88-1.22,0.06-15.54,0.06-15.54
				s2.95,21.08,7.56,19.04c4.62-2.04,2.41-19.53,2.41-19.53s4.43,19.77,8.08,16.52c3.65-3.25,0.97-16.68,0.97-16.68
				s4,17.16,8.15,13.29c4.15-3.87-0.21-14.24-0.98-19c-0.73-4.5-4.03-4.77-8.63-3.91c0,0-3.54-2.74-7.57-0.04
				c-0.99,0.66-3.08-1.2-3.93-1.19C1858.32,449.96,1855.43,451.47,1855.43,451.47z"/>
		</g>
	</g>
</g>
</svg>
